<svg xmlns="http://www.w3.org/2000/svg" height="1200" width="1600" version="1.1" xmlns:xlink="http://www.w3.org/1999/xlink" xmlns:svgjs="http://svgjs.com/svgjs"><rect fill="#f3ebe9" width="1600" height="1200"></rect><g><path d="M1255.78 891.96C1256.94 904.71 1264 926.93 1288.22 929.88 1312.35 932.83 1322.77 926.72 1345.1 939.05 1364.49 949.69 1369.54 978.97 1369.54 978.97L1317.4 1004.04C1317.4 1004.04 1312.66 983.6 1298.44 976.12 1273.27 962.96 1249.57 978.76 1224.81 958.85 1205.96 943.68 1203.64 918.09 1203.64 918.09L1255.78 891.96Z" fill="#ffffff" opacity="1" stroke-width="4" stroke="none"></path></g><g><path d="M336.08 195.72L363.27 292 424.21 243.06 336.08 195.72Z" fill="#ffa0dc" opacity="1" stroke-width="4" stroke="none"></path><path d="M326.17 199.71C335.22 199.71 342.56 192.37 342.56 183.32 342.56 174.27 335.22 166.93 326.17 166.93 317.11 166.93 309.77 174.27 309.77 183.32 309.77 192.37 317.11 199.71 326.17 199.71Z" fill="#221f1f" opacity="1" stroke-width="4" stroke="none"></path></g><g><path d="M1014.19 971.02L720.37 969.46C676.77 969.09 642 933.86 642.69 890.87L646.77 305.06C647.13 261.47 682.36 226.69 725.35 227.38L1019.17 228.94C1062.77 229.31 1097.54 264.53 1096.85 307.53L1092.77 893.33C1092.7 936 1057.47 970.78 1014.19 971.02Z" fill="#ffffff" opacity="1" stroke-width="4" stroke="none"></path><path d="M987.4 578.91L752.53 577.42C727.66 577.29 707.61 556.82 707.73 531.95L708.9 342.21C709.02 317.34 729.5 297.29 754.37 297.41L989.24 298.91C1014.11 299.03 1034.16 319.51 1034.03 344.38L1032.87 534.12C1032.75 558.98 1012.27 579.04 987.4 578.91Z" fill="#ff4f32" opacity="1" stroke-width="4" stroke="none"></path><path d="M985.74 789.84L750.87 788.35C726 788.23 705.95 767.75 706.07 742.88L706.23 688.54C706.35 663.67 726.83 643.62 751.69 643.74L986.57 645.24C1011.43 645.36 1031.49 665.84 1031.36 690.71L1031.21 745.05C1031.09 769.92 1011.22 789.65 985.74 789.84Z" fill="#61ccff" opacity="1" stroke-width="4" stroke="none"></path></g><g><path d="M349.1 381.01L252.61 391.66 289.75 457.79 349.1 381.01Z" fill="#ff4f32" opacity="1" stroke-width="4" stroke="none"></path><path d="M353.31 386.48C360.47 391.56 370.4 389.87 375.48 382.71 380.56 375.55 378.88 365.63 371.72 360.54 364.55 355.46 354.63 357.15 349.55 364.31 344.47 371.47 346.14 381.39 353.31 386.48Z" fill="#221f1f" opacity="1" stroke-width="4" stroke="none"></path></g><g><path d="M309.97 829.4C336.06 829.4 357.24 808.22 357.24 782.13 357.24 756.03 336.06 734.86 309.97 734.86 283.88 734.86 262.7 756.03 262.7 782.13 262.7 808.22 283.88 829.4 309.97 829.4Z" fill="#ffffff" opacity="1" stroke-width="4" stroke="none"></path></g><g><path d="M1097.08 193.25C1134.93 193.25 1165.63 223.95 1165.63 261.8 1165.63 299.66 1134.93 330.35 1097.08 330.35 1059.22 330.35 1028.53 299.66 1028.53 261.8 1028.53 223.95 1059.22 193.25 1097.08 193.25Z" fill="#ffa0dc" opacity="1" stroke-width="4" stroke="none"></path><path d="M1133.67 270.93C1132.89 273.45 1130.53 275.1 1127.93 275.1 1127.85 275.1 1127.85 275.18 1127.85 275.18 1128.72 276.6 1128.95 278.25 1128.48 279.82 1127.69 282.34 1125.33 284 1122.73 284 1122.66 284 1122.66 284.07 1122.66 284.07 1123.68 285.88 1123.84 288.09 1122.81 289.9 1121.4 292.34 1118.49 293.44 1115.81 292.65L1100.46 288.17C1095.03 286.59 1089.76 284.31 1084.88 281.48 1082.99 280.38 1082.13 278.17 1082.68 276.13L1091.65 245.43C1091.96 244.33 1092.75 243.31 1093.77 242.76 1098.89 239.77 1114.55 230.48 1116.83 229.77 1127.54 228.43 1116.28 245.04 1114.08 248.74 1114.08 248.82 1114.08 248.82 1114.16 248.82 1115.57 249.21 1132.1 254.09 1132.1 254.09 1137.77 255.51 1138.24 263.85 1132.41 265.34 1132.34 265.34 1132.34 265.42 1132.41 265.5 1133.75 266.92 1134.3 269.04 1133.67 270.93Z" fill="#ffffff" opacity="1" stroke-width="4" stroke="none"></path><path d="M1087.32 241.5L1076.46 278.72C1075.91 280.53 1074.02 281.56 1072.21 281.08L1059.22 277.31C1057.41 276.76 1056.39 274.87 1056.86 273.06L1067.72 235.75C1068.27 233.94 1070.16 232.92 1071.97 233.39L1085.04 237.25C1086.85 237.8 1088.03 239.77 1087.32 241.5Z" fill="#ffffff" opacity="1" stroke-width="4" stroke="none"></path></g><g><path d="M577.53 527.8L573.48 555.11H482.72L477.47 527.88 475.82 519.85 578.21 523.9 577.53 527.8Z" fill="#846146" opacity="1" stroke-width="4" stroke="none"></path><path d="M444.47 512.88C447.99 485.2 456.09 450.25 467.34 432.24 477.47 415.97 502.97 407.11 502.97 407.11 502.97 407.11 502.15 403.14 500.95 397.36H555.18L557.36 405.99C590.36 405.24 609.86 426.99 609.86 426.99L637.99 454.37 648.49 428.87 698.37 444.02C693.05 479.12 678.65 520.98 649.99 525.63 622.24 530.13 582.86 495.25 582.86 495.25L578.06 524.88 477.47 524.88 483.62 556.68 472.22 571.39C460.22 563.13 439.97 548.13 444.47 512.88Z" fill="#61ccff" opacity="1" stroke-width="4" stroke="none"></path><path d="M645.12 437.04L650.14 466.67 637.99 454.37 645.12 437.04Z" fill="#000000" opacity="0.2" stroke-width="4" stroke="none"></path><path d="M472.82 500.43L483.62 556.68 472.59 571.61C468.47 568.76 463.52 565.31 458.72 560.43 465.17 550.83 471.47 542.88 472.82 500.43Z" fill="#000000" opacity="0.2" stroke-width="4" stroke="none"></path><path d="M582.71 496L579.63 515.05 567.11 481.52 582.71 496Z" fill="#000000" opacity="0.2" stroke-width="4" stroke="none"></path><path d="M658.77 402.76C655.77 378.76 657.27 357.01 658.77 353.26 659.67 351.08 663.27 352.51 665.52 355.51 668.52 333.01 676.02 322.5 681.27 323.25 684.27 318.75 688.77 318.75 691.02 324 695.52 324 696.72 327.68 697.02 331.51 697.77 342.01 695.52 353.26 696.27 365.26 698.52 359.26 704.52 339.23 709.02 339.76 715.78 340.51 707.3 360.76 708.27 380.26 709.77 411.02 700.77 417.77 700.77 417.77 700.55 427.14 699.57 436.44 698.15 445.67L647.82 430.44 658.77 402.76Z" fill="#846146" opacity="1" stroke-width="4" stroke="none"></path><path d="M472.22 494.88L477.47 524.88" stroke="#000000" stroke-width="4" stroke-linecap="round" stroke-linejoin="round" opacity="1" fill="none"></path><path d="M582.86 495.25L572.66 486.62" stroke="#000000" stroke-width="4" stroke-linecap="round" stroke-linejoin="round" opacity="1" fill="none"></path><path d="M637.99 454.37L649.24 465.62" stroke="#000000" stroke-width="4" stroke-linecap="round" stroke-linejoin="round" opacity="1" fill="none"></path><path d="M690.87 324C690.87 324 685.62 342.01 684.12 369.76" stroke="#000000" stroke-width="4" stroke-linecap="round" stroke-linejoin="round" opacity="1" fill="none"></path><path d="M681.27 323.25C681.27 323.25 674.3 338.26 672.04 367.51" stroke="#000000" stroke-width="4" stroke-linecap="round" stroke-linejoin="round" opacity="1" fill="none"></path><path d="M696.27 365.26L695.37 372.76" stroke="#000000" stroke-width="4" stroke-linecap="round" stroke-linejoin="round" opacity="1" fill="none"></path><path d="M665.52 355.51C666.04 355.51 663.19 369.01 662.29 378.76" stroke="#000000" stroke-width="4" stroke-linecap="round" stroke-linejoin="round" opacity="1" fill="none"></path><path d="M506.87 959.93C509.27 963.76 511.07 968.19 511.22 972.69H402.46C401.34 968.49 400.21 964.21 399.54 959.93H506.87Z" fill="#292e30" opacity="1" stroke-width="4" stroke="none"></path><path d="M397.96 867.67C398.11 865.8 398.34 864 398.56 862.2L402.31 846.9 480.77 847.42C480.77 847.42 477.4 862.87 477.77 862.8 467.34 894.45 462.47 918.6 471.47 928.43 473.42 930.61 475.6 932.63 477.77 934.51L467.87 960.68H418.96L396.39 929.26C395.33 908.7 395.86 888.15 397.96 867.67Z" fill="#846146" opacity="1" stroke-width="4" stroke="none"></path><path d="M477.77 934.51C488.65 943.88 501.17 950.63 507.32 960.68H462.47C463.14 950.03 468.77 940.28 477.77 934.51Z" fill="#61ccff" opacity="1" stroke-width="4" stroke="none"></path><path d="M396.31 929.26C413.34 930.16 426.99 943.73 427.89 960.68H399.69C397.96 950.26 396.84 939.76 396.31 929.26Z" fill="#61ccff" opacity="1" stroke-width="4" stroke="none"></path><path d="M422.71 943.43L469.22 920.18" stroke="#181818" stroke-width="4" stroke-linecap="round" stroke-linejoin="round" opacity="1" fill="none"></path><path d="M409.36 815.17H494.72C492.7 820.64 490.67 826.04 488.8 831.44 484.75 842.47 481 853.05 477.77 862.87 476.95 862.95 476.12 863.02 475.3 863.02 467.04 863.02 459.84 857.62 457.44 849.75 454.44 859.57 444.09 865.2 434.19 862.2 428.19 860.4 423.54 855.75 421.74 849.75 418.74 859.57 408.39 865.12 398.56 862.27 399.99 849.97 402.46 837.74 405.91 825.89 407.04 822.07 408.16 818.54 409.36 815.17Z" fill="#d1c6a5" opacity="1" stroke-width="4" stroke="none"></path><path d="M440.72 710.9C441.47 626.89 452.72 589.61 482.72 552.86H496.9 524.73 573.48C573.48 552.86 608.74 663.65 602.74 757.41 601.39 778.56 599.74 797.84 598.16 815.17L598.09 815.24H517C520.98 784.56 527.5 760.56 521.43 729.06 519.4 741.36 516.78 752.76 513.47 762.66 507.4 780.66 500.87 798.36 494.72 815.17L494.2 815.92 409.36 816.59V815.17C422.26 778.64 440.27 757.63 440.72 710.9Z" fill="#ffc930" opacity="1" stroke-width="4" stroke="none"></path><path d="M493.6 684.27C481.75 627.42 494.72 614.82 494.72 614.82 494.5 657.2 522.18 733.11 522.18 733.11 519.55 740.83 508.3 778.04 505.6 785.61 505.52 785.61 507.25 749.91 493.6 684.27Z" fill="#0f0d07" opacity="0.2" stroke-width="4" stroke="none"></path><path d="M459.92 618.64C456.47 618.64 453.17 617.67 450.24 615.94 453.17 604.39 457.29 593.29 462.84 582.64L481.22 582.64 478.22 602.81C476.87 611.89 469.14 618.64 459.92 618.64Z" fill="#d1c6a5" opacity="1" stroke-width="4" stroke="none"></path><path d="M644.74 972.69H535.98C535.98 972.69 534.03 968.34 531.33 959.93H640.17C642.72 963.76 644.59 968.11 644.74 972.69Z" fill="#292e30" opacity="1" stroke-width="4" stroke="none"></path><path d="M523.23 929.63C518.88 908.48 516.1 886.95 514.98 865.42 514.9 864.52 514.98 863.7 514.9 862.8 515.2 862.87 517.38 847.8 517.38 847.8L593.06 846.97 594.11 862.42C591.86 894.75 592.53 915.98 601.91 926.18 604.76 929.18 607.91 932.11 611.14 934.66L605.29 960.76H545.5L523.23 929.63Z" fill="#846146" opacity="1" stroke-width="4" stroke="none"></path><path d="M611.14 934.58C622.01 943.36 634.39 950.71 640.69 960.68H596.06C596.66 950.11 602.21 940.43 611.14 934.58Z" fill="#61ccff" opacity="1" stroke-width="4" stroke="none"></path><path d="M523.23 929.63C525.1 929.33 526.98 929.18 528.85 929.18 546.55 929.18 561.18 942.98 562.16 960.68H531.33C528.1 950.48 525.4 940.13 523.23 929.63Z" fill="#61ccff" opacity="1" stroke-width="4" stroke="none"></path><path d="M482.72 552.86H573.48" stroke="#000000" stroke-width="4" stroke-linecap="round" stroke-linejoin="round" opacity="1" fill="none"></path><path d="M522.18 733.11C520.6 723.73 518.2 714.58 514.98 705.65 501.1 666.95 495.25 637.09 493.45 613.09" stroke="#000000" stroke-width="4" stroke-linecap="round" stroke-linejoin="round" opacity="1" fill="none"></path><path d="M546.48 582.64H507.47L510.4 602.81C511.75 611.89 519.55 618.64 528.7 618.64 538.9 618.64 547.15 610.39 547.15 600.11 547.15 599.89 547.15 599.59 547.15 599.36L546.48 582.64Z" fill="#d1c6a5" opacity="1" stroke-width="4" stroke="none"></path><path d="M554.73 941.18L598.99 917.93" stroke="#181818" stroke-width="4" stroke-linecap="round" stroke-linejoin="round" opacity="1" fill="none"></path><path d="M597.11 826.57C595.99 839.39 594.94 851.1 594.18 861.6 584.43 864.15 574.46 858.6 571.53 849 568.53 858.82 558.18 864.45 548.28 861.45 542.28 859.65 537.63 855 535.83 849 533.43 856.87 526.15 862.27 517.98 862.27 517 862.27 515.95 862.2 514.98 862.05 514.45 849.75 514.75 837.37 516.03 825.07 516.4 821.47 516.63 817.94 517.08 814.42H598.24C597.86 818.62 597.49 822.67 597.11 826.57Z" fill="#d1c6a5" opacity="1" stroke-width="4" stroke="none"></path><path d="M505.45 356.78C503.2 344.78 495.47 329.18 508.6 318.3 521.73 307.43 534.48 293.85 551.73 300.6 568.01 306.98 571.31 319.73 577.98 339.61 577.98 339.61 585.48 340.36 586.23 343.36 587.06 346.58 582.48 352.36 582.48 352.36 587.73 368.86 588.41 377.64 582.78 385.51 575.96 395.11 560.58 394.81 553.9 392.19L555.41 398.11H500.95C498.25 385.21 507.02 365.03 505.45 356.78Z" fill="#846146" opacity="1" stroke-width="4" stroke="none"></path><path d="M553.9 392.19L556.16 401.26 541.6 386.56 553.9 392.19Z" fill="#151414" opacity="0.2" stroke-width="4" stroke="none"></path><path d="M490.67 346.81C489.55 338.71 488.87 328.88 491.27 320.48 481.82 322.88 470.49 320.1 461.57 312.38 448.22 300.68 445.37 282.15 455.19 270.9 465.02 259.65 483.85 259.95 497.2 271.65 506.8 280.05 511 291.98 508.9 302.25 521.73 296.4 538.15 295.05 551.43 300.3 558.56 302.93 564.78 308.33 568.38 315 568.38 315 564.33 320.18 547.83 313.43 572.58 339.68 538.08 333.68 538.08 333.68 538.08 333.68 541.83 337.43 541.83 347.18 541.83 347.18 518.88 340.28 514.82 351.68 510.32 364.43 520.83 372.69 530.58 375.69 530.58 375.69 548.58 417.69 534.33 455.95H515.73C515.73 455.95 514.15 431.94 510.4 422.94L491.65 455.95H426.39C427.89 368.11 496.9 393.61 490.67 346.81Z" fill="#231f20" opacity="1" stroke-width="4" stroke="none"></path><path d="M497.57 317.33L500.72 317.55C496.97 325.5 489.62 333.01 489.62 333.01 489.77 323.63 490.15 318.68 497.57 317.33Z" fill="#000000" opacity="0.2" stroke-width="4" stroke="none"></path><path d="M529.98 387.61C524.59 387.61 520.23 383.25 520.23 377.86 520.23 372.48 524.59 368.11 529.98 368.11 535.36 368.11 539.73 372.48 539.73 377.86 539.73 383.25 535.36 387.61 529.98 387.61Z" fill="#ffffff" opacity="1" stroke-width="4" stroke="none"></path><path d="M553.9 392.19L546.33 388.74" stroke="#000000" stroke-width="4" stroke-linecap="round" stroke-linejoin="round" opacity="1" fill="none"></path><path d="M532.98 360.61L524.73 357.61" stroke="#000000" stroke-width="4" stroke-linecap="round" stroke-linejoin="round" opacity="1" fill="none"></path><path d="M574.98 360.61C570.48 362.11 566.73 358.36 566.73 358.36" stroke="#000000" stroke-width="4" stroke-linecap="round" stroke-linejoin="round" opacity="1" fill="none"></path><path d="M491.12 320.55C495.92 319.43 500.27 316.8 503.57 313.13 506.35 309.9 508.22 306 508.97 301.8" stroke="#000000" stroke-width="4" stroke-linecap="round" stroke-linejoin="round" opacity="1" fill="none"></path><path d="M573.63 325.58C577.23 324.75 581.28 329.25 582.71 335.56 583.83 340.81 582.78 345.68 580.31 347.63" stroke="#000000" stroke-width="4" stroke-linecap="round" stroke-linejoin="round" opacity="1" fill="none"></path><path d="M582.56 334.96L541.98 345.61" stroke="#000000" stroke-width="4" stroke-linecap="round" stroke-linejoin="round" opacity="1" fill="none"></path></g><g><path d="M1059.52 639.52C1033.04 715.84 984.68 715.84 1003.73 786.36H1078.57C1099.24 753.94 1077.49 587.64 1059.52 639.52Z" fill="#231f20" opacity="1" stroke-width="4" stroke="none"></path><path d="M1052.23 773.66C1052.36 773.66 1052.36 773.79 1052.36 773.79 1051.28 776.36 1040.88 803.65 1071.14 806.89 1107.21 810.67 1131.93 768.39 1133.01 766.5 1133.01 766.5 1133.01 766.5 1133.14 766.5 1135.58 766.5 1204.2 765.15 1229.6 800.81V800.95C1173.67 887.4 1058.17 911.85 971.85 855.93 957.12 846.47 943.75 834.99 932.4 821.89V821.75C974.69 775.96 1047.77 773.79 1052.23 773.66Z" fill="#ffc930" opacity="1" stroke-width="4" stroke="none"></path><path d="M990.63 662.89C991.44 655.73 992.25 645.19 993.46 634.65 994 630.6 998.73 626.82 999.41 622.77 1001.7 609.12 1002.78 601.69 1008.73 595.21 1020.89 581.56 1048.04 568.87 1079.65 572.24 1110.31 575.48 1135.04 595.88 1136.12 638.84 1136.66 660.46 1136.52 694.5 1136.25 721.52 1135.98 745.29 1135.71 763.66 1135.71 763.66 1135.71 763.66 1133.28 829.05 1087.48 836.2 1040.47 843.5 1046.42 770.82 1046.42 770.82V739.89C1046.42 739.89 1019.94 750.96 998.87 736.37 976.98 721.24 988.6 681.93 990.63 662.89Z" fill="#f49e73" opacity="1" stroke-width="4" stroke="none"></path><path d="M1046.42 762.18V740.02C1046.42 740.02 1046.42 739.89 1046.55 739.89 1047.5 739.62 1056.68 736.37 1066.01 731.38 1066.14 731.38 1066.28 731.51 1066.14 731.51L1046.69 762.18C1046.55 762.31 1046.42 762.31 1046.42 762.18Z" fill="#171717" opacity="0.2" stroke-width="4" stroke="none"></path><path d="M995.22 622.9C997.52 609.26 1000.76 598.58 1006.7 592.1 1018.86 578.46 1048.04 564.41 1079.65 567.78 1110.31 571.03 1132.87 583.32 1150.71 635.06 1177.18 711.38 1225.95 711.38 1206.9 781.76L1206.77 781.9H1097.89 1097.75C1077.76 750.29 1089.92 714.63 1090.46 713 1090.46 713 1090.46 713 1090.59 712.87 1092.21 712.19 1132.2 694.5 1122.88 668.83 1112.88 641.81 1073.98 664.37 1071.68 665.86H1071.54C1062.22 650.86 1071.54 627.22 1072.89 623.85 1072.89 623.71 1072.76 623.58 1072.62 623.71 1069.92 625.6 1052.77 636.95 1039.26 639.65 1007.65 646 994.41 635.6 993.46 634.79V634.65C994 630.06 994.54 626.68 995.22 622.9Z" fill="#231f20" opacity="1" stroke-width="4" stroke="none"></path><path d="M1096.67 678.96L1085.19 686.26" stroke="#171717" stroke-width="4" stroke-linecap="round" stroke-linejoin="round" opacity="1" fill="none"></path><path d="M1014.54 680.45C1013.32 682.61 1011.56 685.99 1011.97 688.15 1012.38 689.5 1013.46 690.58 1014.67 691.26" stroke="#171717" stroke-width="4" stroke-linecap="round" stroke-linejoin="round" opacity="1" fill="none"></path><path d="M1026.42 697.6C1026.15 701.66 1022.64 704.63 1018.59 704.22 1018.45 704.22 1018.45 704.22 1018.32 704.22" stroke="#171717" stroke-width="4" stroke-linecap="round" stroke-linejoin="round" opacity="1" fill="none"></path><path d="M1044.39 740.68C1052.63 738.12 1066.41 729.2 1066.41 729.2" stroke="#171717" stroke-width="4" stroke-linecap="round" stroke-linejoin="round" opacity="1" fill="none"></path><path d="M1035.48 670.99C1033.38 670.99 1031.69 669.29 1031.69 667.21 1031.69 665.12 1033.38 663.43 1035.48 663.43 1037.57 663.43 1039.26 665.12 1039.26 667.21 1039.26 669.29 1037.57 670.99 1035.48 670.99Z" fill="#231f20" opacity="1" stroke-width="4" stroke="none"></path><path d="M1000.76 667.2C998.66 667.2 996.98 665.51 996.98 663.41 996.98 661.33 998.66 659.63 1000.76 659.63 1002.84 659.63 1004.54 661.33 1004.54 663.41 1004.54 665.51 1002.84 667.2 1000.76 667.2Z" fill="#231f20" opacity="1" stroke-width="4" stroke="none"></path><path d="M1093.43 730.57C1085.3 730.57 1078.7 723.97 1078.7 715.84 1078.7 707.71 1085.3 701.12 1093.43 701.12 1101.56 701.12 1108.15 707.71 1108.15 715.84 1108.15 723.97 1101.56 730.57 1093.43 730.57Z" fill="#ffd04c" opacity="1" stroke-width="4" stroke="none"></path></g><g><path d="M1146.29 509.03C1132.39 446.71 1144.51 371.74 1169.88 368.72 1193.94 365.83 1201.93 426.2 1194.65 441.92 1189.15 453.81 1178.63 441.69 1189.21 416.5 1198.91 393.5 1227.29 346.37 1253.9 347.56 1280.51 348.74 1257.51 396.57 1257.51 396.57L1362.16 357.85" stroke="#221f1f" stroke-width="4" stroke-linecap="round" stroke-linejoin="round" opacity="1" fill="none"></path></g></svg>