<svg xmlns="http://www.w3.org/2000/svg" height="1200" width="1600" version="1.1" xmlns:xlink="http://www.w3.org/1999/xlink" xmlns:svgjs="http://svgjs.com/svgjs"><rect fill="#f3ebe9" width="1600" height="1200"></rect><g><path d="M322.44 854.29C398.05 823.1 480.74 793.29 688.91 842.21 1052.32 927.65 1209.9 903.55 1200.25 808.55 1191.62 724.76 991.74 659.45 898.66 605.12 701.63 490.11 697.53 366.17 868.28 340.86 1036.67 315.89 1169.63 390.07 1247.85 189.2" stroke="#221f1f" stroke-width="4" stroke-linecap="round" stroke-linejoin="round" opacity="1" fill="none"></path></g><g><path d="M735.04 121.67L1060.87 195.81C1109.85 206.95 1141.62 251.03 1131.79 294.22L967.13 1017.94C957.31 1061.13 909.59 1087.13 860.61 1075.98L534.78 1001.85C485.8 990.71 454.03 946.62 463.86 903.43L628.52 179.72C638.34 136.53 686.06 110.53 735.04 121.67Z" fill="#61ccff" opacity="1" stroke-width="4" stroke="none"></path></g><g><path d="M744.86 145.46L1042.07 213.08C1086.75 223.24 1115.4 264.85 1106.05 305.98L949.27 995.06C939.91 1036.18 896.07 1061.3 851.4 1051.13L554.19 983.51C509.51 973.35 480.86 931.74 490.21 890.61L646.99 201.53C656.35 160.41 700.19 135.29 744.86 145.46Z" fill="#ffffff" opacity="1" stroke-width="4" stroke="none"></path></g><g><path d="M1204.95 925.86L1173.59 883.92C1172.13 881.96 1169.33 881.51 1167.28 883.01 1166.56 883.55 1165.98 884.37 1165.7 885.21L1147.16 941.61C1146.38 943.99 1147.65 946.51 1150.03 947.29 1150.87 947.57 1151.81 947.57 1152.67 947.31L1202.58 932.86C1204.98 932.17 1206.35 929.66 1205.64 927.33 1205.5 926.82 1205.28 926.28 1204.95 925.86Z" fill="#ffc930" opacity="1" stroke-width="4" stroke="none"></path><path d="M1204.95 925.86L1173.59 883.92C1172.13 881.96 1169.33 881.51 1167.28 883.01 1166.56 883.55 1165.98 884.37 1165.7 885.21L1151.17 929.4 1194.67 935.15 1202.58 932.86C1204.98 932.17 1206.35 929.66 1205.64 927.33 1205.5 926.82 1205.28 926.28 1204.95 925.86Z" fill="#000000" opacity="0.2" stroke-width="4" stroke="none"></path><path d="M1332.8 788.51L1203.81 746.1C1180.66 738.49 1155.78 751.07 1148.17 774.21L1120.15 859.44C1112.54 882.58 1125.12 907.47 1148.26 915.08L1277.26 957.48C1300.4 965.09 1325.29 952.52 1332.9 929.37L1360.91 844.15C1368.45 820.98 1355.88 796.09 1332.8 788.51Z" fill="#ffc930" opacity="1" stroke-width="4" stroke="none"></path><path d="M1281.68 831C1278.25 824.2 1269.9 821.46 1263.09 824.89L1205.5 853.99C1198.69 857.43 1195.95 865.78 1199.39 872.58 1202.82 879.38 1211.17 882.13 1217.97 878.69L1275.57 849.59C1282.38 846.16 1285.12 837.81 1281.68 831Z" fill="#ffffff" opacity="1" stroke-width="4" stroke="none"></path><path d="M1219.75 810.64C1212.94 814.08 1210.2 822.43 1213.64 829.23L1242.73 886.83C1246.17 893.63 1254.52 896.38 1261.32 892.94 1268.13 889.5 1270.87 881.16 1267.43 874.35L1238.33 816.75C1234.9 809.95 1226.55 807.21 1219.75 810.64Z" fill="#ffffff" opacity="1" stroke-width="4" stroke="none"></path></g><g><path d="M175.17 560.41C160.85 557.65 151.48 543.82 154.24 529.51 156.99 515.2 170.83 505.83 185.14 508.58 199.45 511.34 208.82 525.17 206.07 539.48 203.31 553.79 189.48 563.16 175.17 560.41Z" fill="#ff4f32" opacity="1" stroke-width="4" stroke="none"></path><path d="M636.34 563.61C627.28 561.87 621.36 553.12 623.1 544.06 624.84 535.01 633.59 529.08 642.65 530.82 651.7 532.57 657.63 541.32 655.89 550.37 654.15 559.43 645.39 565.36 636.34 563.61Z" fill="#ff4f32" opacity="1" stroke-width="4" stroke="none"></path><path d="M909.77 750.06C900.72 748.32 894.79 739.57 896.53 730.51 898.28 721.46 907.03 715.53 916.08 717.27 925.14 719.02 931.07 727.77 929.32 736.82 927.58 745.88 918.83 751.81 909.77 750.06Z" fill="#ff4f32" opacity="1" stroke-width="4" stroke="none"></path><path d="M1322.94 512.59C1317.39 511.52 1313.76 506.16 1314.82 500.6 1315.89 495.05 1321.25 491.42 1326.81 492.49 1332.36 493.56 1335.99 498.92 1334.92 504.47 1333.85 510.02 1328.49 513.65 1322.94 512.59Z" fill="#ff4f32" opacity="1" stroke-width="4" stroke="none"></path><path d="M663.42 628.06C657.87 626.99 654.24 621.63 655.31 616.08 656.38 610.52 661.74 606.89 667.29 607.96 672.84 609.03 676.47 614.39 675.4 619.94 674.34 625.5 668.97 629.13 663.42 628.06Z" fill="#ff4f32" opacity="1" stroke-width="4" stroke="none"></path><path d="M377.62 688.22C372.07 687.15 368.44 681.79 369.51 676.24 370.57 670.69 375.94 667.06 381.49 668.13 387.04 669.2 390.67 674.56 389.6 680.11 388.53 685.66 383.17 689.29 377.62 688.22Z" fill="#ff4f32" opacity="1" stroke-width="4" stroke="none"></path><path d="M1466.45 610.41C1460.9 609.34 1457.27 603.98 1458.34 598.43 1459.4 592.87 1464.76 589.24 1470.32 590.31 1475.87 591.38 1479.5 596.74 1478.43 602.29 1477.36 607.85 1472 611.48 1466.45 610.41Z" fill="#ff4f32" opacity="1" stroke-width="4" stroke="none"></path><path d="M897.83 356.18C892.28 355.11 888.65 349.75 889.72 344.19 890.79 338.64 896.15 335.01 901.7 336.08 907.26 337.15 910.89 342.51 909.82 348.06 908.75 353.62 903.39 357.25 897.83 356.18Z" fill="#ffffff" opacity="1" stroke-width="4" stroke="none"></path><path d="M1131.4 578.83C1117.09 576.07 1107.72 562.24 1110.47 547.92 1113.22 533.61 1127.06 524.24 1141.37 527 1155.68 529.75 1165.05 543.59 1162.3 557.9 1159.54 572.21 1145.71 581.58 1131.4 578.83Z" fill="#ffffff" opacity="1" stroke-width="4" stroke="none"></path></g><g><path d="M341.66 909.8L369.41 865.23C370.7 863.15 373.46 862.45 375.64 863.78 376.4 864.26 377.05 865.03 377.4 865.84L400.73 920.59C401.72 922.91 400.67 925.53 398.35 926.52 397.53 926.87 396.6 926.94 395.72 926.76L344.63 916.58C342.17 916.1 340.59 913.72 341.1 911.33 341.2 910.8 341.37 910.25 341.66 909.8Z" fill="#ff4f32" opacity="1" stroke-width="4" stroke="none"></path><path d="M341.1 911.33C340.59 913.72 342.17 916.1 344.63 916.58L352.72 918.2 395.68 908.75 377.4 865.84C377.05 865.03 376.4 864.26 375.64 863.78 373.46 862.45 370.7 863.15 369.41 865.23L341.66 909.8C341.37 910.25 341.2 910.8 341.1 911.33Z" fill="#010101" opacity="0.2" stroke-width="4" stroke="none"></path><path d="M271.43 947.78L396.59 894.44C419.06 884.86 429.49 858.93 419.92 836.46L384.65 753.72C375.08 731.25 349.14 720.82 326.67 730.39L201.44 783.77C178.97 793.34 168.54 819.27 178.11 841.75L213.38 924.48C223.02 946.93 248.95 957.36 271.43 947.78Z" fill="#ff4f32" opacity="1" stroke-width="4" stroke="none"></path><path d="M264.52 868.89C257.49 871.89 249.35 868.62 246.36 861.59 243.36 854.55 246.63 846.42 253.66 843.42 260.7 840.43 268.83 843.7 271.83 850.73 274.82 857.76 271.55 865.9 264.52 868.89Z" fill="#ffffff" opacity="1" stroke-width="4" stroke="none"></path><path d="M304.49 851.86C297.46 854.85 289.33 851.58 286.33 844.55 283.33 837.52 286.6 829.39 293.64 826.39 300.67 823.39 308.8 826.66 311.8 833.69 314.79 840.73 311.52 848.86 304.49 851.86Z" fill="#ffffff" opacity="1" stroke-width="4" stroke="none"></path><path d="M344.4 834.85C337.36 837.85 329.23 834.57 326.23 827.54 323.24 820.51 326.51 812.38 333.54 809.38 340.57 806.38 348.71 809.65 351.7 816.69 354.7 823.72 351.43 831.85 344.4 834.85Z" fill="#ffffff" opacity="1" stroke-width="4" stroke="none"></path></g><g><path d="M1384.29 229.93C1384.29 295.34 1314.53 370.9 1286.88 370.9 1259.23 370.9 1189.51 295.34 1189.51 229.93 1190.48 176.14 1234.87 133.33 1288.66 134.3 1341.08 135.25 1383.34 177.51 1384.29 229.93Z" fill="#ff4f32" opacity="1" stroke-width="4" stroke="none"></path><path d="M1286.88 260.47C1303.75 260.47 1317.42 246.79 1317.42 229.93 1317.42 213.07 1303.75 199.4 1286.88 199.4 1270.02 199.4 1256.35 213.07 1256.35 229.93 1256.35 246.79 1270.02 260.47 1286.88 260.47Z" fill="#bababa" opacity="1" stroke-width="4" stroke="none"></path></g><g><path d="M332.86 268.52L540.08 232.34 458.61 425.89 437.25 372.05 375.01 421.76 318.47 350.98 380.71 301.27 332.86 268.52Z" fill="#231f20" opacity="1" stroke-width="4" stroke="none"></path></g><g><path d="M1056.93 473.03L619.69 372.19 537.05 730.51 974.29 831.36 1056.93 473.03Z" fill="#ffffff" opacity="1" stroke-width="4" stroke="none"></path><path d="M695.47 447.3C648.65 459.01 642.73 510.05 647.29 557.83 651.5 602.03 601.98 629.33 617.51 675.23 631.15 715.66 705.84 745.94 802.57 705.22 882.94 671.44 927.73 693.92 951.92 655.02 978.74 611.77 960.41 550.27 872.97 496.43 814.63 460.46 746.11 434.66 695.47 447.3Z" fill="#61ccff" opacity="1" stroke-width="4" stroke="none"></path><path d="M770.63 625.09L715.13 651.37" stroke="#98d6f4" stroke-width="4" stroke-linecap="round" stroke-linejoin="round" opacity="1" fill="none"></path><path d="M821.58 469L758.43 548.35 646.09 538.83" stroke="#98d6f4" stroke-width="4" stroke-linecap="round" stroke-linejoin="round" opacity="1" fill="none"></path><path d="M628.44 615.35L715.13 651.37 702.95 724.11" stroke="#98d6f4" stroke-width="4" stroke-linecap="round" stroke-linejoin="round" opacity="1" fill="none"></path><path d="M799 497.38L854.65 560.64 847.48 634.26" stroke="#98d6f4" stroke-width="4" stroke-linecap="round" stroke-linejoin="round" opacity="1" fill="none"></path><path d="M854.65 560.64L908.64 521.76" stroke="#98d6f4" stroke-width="4" stroke-linecap="round" stroke-linejoin="round" opacity="1" fill="none"></path><path d="M779.12 579.69C788.17 540.44 768.77 519.13 753.16 502.11 751.01 499.72 748.92 497.44 746.92 495.18L722.8 514.29C725.34 517.31 727.95 520.07 730.47 522.81 744.98 538.76 754.62 549.27 749.2 572.78 748.86 574.24 748.52 575.69 748.28 577.16L779.08 579.86C779.1 579.77 779.12 579.69 779.12 579.69Z" fill="#ffc930" opacity="1" stroke-width="4" stroke="none"></path><path d="M871.26 645.96C854.49 634.35 834.64 630.22 817.1 626.63 799.9 623.11 785.14 619.97 779.77 611.62 777.73 608.36 776.69 603.89 776.67 598.12L746.03 595.47C745.64 608.52 748.26 619.39 753.87 628.25 766.19 647.48 788.88 652.17 810.88 656.71 826.26 659.9 842.16 663.2 853.82 671.2 859.6 675.06 864.23 680.36 867.49 686.51 879.2 684.53 889.67 683.25 899.08 681.91 893.39 666.73 884.17 654.79 871.26 645.96Z" fill="#ffc930" opacity="1" stroke-width="4" stroke="none"></path><path d="M731.39 444.23C720.91 443.62 710.49 444.27 700.14 446.21 698.73 459.75 699.95 472.01 703.99 483.39 706.03 488.99 708.64 494.45 711.8 499.51L736.14 480.27C731.02 470.8 728.69 459.82 731.39 444.23Z" fill="#ffc930" opacity="1" stroke-width="4" stroke="none"></path><path d="M740.69 476.54L706.97 503.25" stroke="#000000" stroke-width="4" stroke-linecap="round" stroke-linejoin="round" opacity="1" fill="none"></path><path d="M752.12 490.98L718.41 517.69" stroke="#000000" stroke-width="4" stroke-linecap="round" stroke-linejoin="round" opacity="1" fill="none"></path><path d="M693.23 604.99C680.75 602.11 668.33 609.87 665.45 622.36 662.58 634.84 671.5 662.11 679.63 663.98 687.75 665.86 707.72 645.25 710.6 632.77 713.46 620.37 705.71 607.87 693.23 604.99ZM686.13 635.77C681.6 634.72 678.86 630.22 679.88 625.77 680.91 621.33 685.43 618.5 689.88 619.53 694.33 620.55 697.15 625.07 696.13 629.52 695.19 633.99 690.66 636.82 686.13 635.77Z" fill="#3c2c5b" opacity="1" stroke-width="4" stroke="none"></path><path d="M784.13 580.21L741.32 576.46" stroke="#000000" stroke-width="4" stroke-linecap="round" stroke-linejoin="round" opacity="1" fill="none"></path><path d="M782.51 598.57L739.7 594.82" stroke="#000000" stroke-width="4" stroke-linecap="round" stroke-linejoin="round" opacity="1" fill="none"></path><path d="M748.44 672.11C733.31 676.01 720.36 696.25 718.81 724.44 742.62 723.9 769.51 718.57 798.41 706.87 790 687.1 772.38 665.93 748.44 672.11Z" fill="#ffc930" opacity="1" stroke-width="4" stroke="none"></path><path d="M883.18 521.29C887.59 518.53 892.11 515.34 896.35 512.18 889.21 506.84 881.41 501.61 873.06 496.45 859.49 488.1 845.43 480.35 831.11 473.35 822.48 486.94 821.52 499.33 835.64 513.03 849.62 526.61 868.38 530.4 883.18 521.29Z" fill="#ffc930" opacity="1" stroke-width="4" stroke="none"></path></g></svg>