<svg width="200" height="200" viewBox="0 0 200 200" fill="none" xmlns="http://www.w3.org/2000/svg">
<path d="M111.767 1.13348C105.1 0.766816 100.234 4.10015 89.1335 12.9335C59.3669 36.6668 41.0335 53.8001 41.0335 53.8001C8.0002 84.7001 1.16686 88.2668 1.80019 97.3002C2.10019 101.633 3.73353 101.367 25.1002 128.167C39.8335 146.6 39.4335 147.267 47.7335 156.067C57.4335 166.367 65.5335 172.967 74.9335 180.633C89.4002 192.433 96.6335 198.333 101.1 198.8C109.7 199.733 114.167 194.567 149.267 162.3C149.267 162.3 154.234 157.733 183.867 126.767C192.6 117.633 198.667 111.1 198.2 102.467C197.834 96.1335 193.934 90.6335 188.7 83.2335C184.1 76.7001 177.567 70.0001 177 69.4001C175.734 68.1002 174.767 67.1668 174.434 66.8668C165.334 57.9668 149.667 37.9002 145.067 32.1335C128.9 11.8335 120.8 1.66682 111.767 1.13348Z" fill="#171725"/>
</svg>
