<svg width="262" height="262" viewBox="0 0 262 262" fill="none" xmlns="http://www.w3.org/2000/svg">
<g clip-path="url(#clip0_3936_24782)">
<path d="M16.2483 72.8433C34.4102 70.6283 49.4197 71.1496 59.8484 72.0427C79.2054 73.7007 91.1813 74.9193 99.8042 83.9852C102.907 87.2363 101.224 86.9318 110.488 103.539C121.733 123.653 126.422 128.009 128.271 129.654C128.906 130.218 137.122 137.286 148.302 140.394C174.519 147.701 190.323 125.865 210.871 128.035C223.468 129.354 240.252 139.941 257.52 182.111C252.489 183.649 247.428 185.199 242.397 186.737C238.456 175.304 233.701 166.491 229.89 160.356C223.283 149.719 217.955 141.437 208.568 139.237C204.434 138.264 200.904 138.556 197.751 139.484C180.97 144.553 171.124 156.651 148.588 155.173C132.894 154.143 122.379 150.466 114.96 144.004C113.872 143.051 111.776 141.076 106.808 133.908C90.5862 110.645 93.5557 103.863 84.806 96.7307C74.241 88.12 59.3376 89.3984 43.1729 90.7733C31.7248 91.7554 22.5544 94.4555 16.5872 96.6038C16.4737 88.7683 16.3699 80.784 16.2483 72.8433Z" fill="#0F55BE"/>
</g>
<defs>
<clipPath id="clip0_3936_24782">
<rect width="200" height="200" fill="white" transform="translate(184.355) rotate(67.1873)"/>
</clipPath>
</defs>
</svg>
