<svg width="241" height="133" viewBox="0 0 241 133" fill="none" xmlns="http://www.w3.org/2000/svg">
<path d="M134.757 0.0181149C126.59 -0.227552 120.629 2.00578 107.031 7.92411C70.5669 23.8254 48.1086 35.3048 48.1086 35.3048C7.64273 56.0078 -0.728102 58.3975 0.0477314 64.4498C0.415231 67.3531 2.41607 67.1745 28.5902 85.1305C46.6386 97.4808 46.1486 97.9275 56.3161 103.823C68.1986 110.724 78.1211 115.146 89.6361 120.283C107.358 128.189 116.219 132.142 121.69 132.455C132.225 133.08 137.697 129.618 180.694 108C180.694 108 186.779 104.94 223.079 84.1925C233.778 78.0731 241.209 73.6958 240.638 67.9115C240.189 63.6681 235.411 59.9831 229 55.0251C223.365 50.6478 215.362 46.1588 214.668 45.7568C213.116 44.8858 211.932 44.2605 211.524 44.0595C200.376 38.0965 181.184 24.6518 175.549 20.7881C155.745 7.18712 145.823 0.375448 134.757 0.0181149Z" fill="#171725"/>
</svg>
