<svg width="200" height="200" viewBox="0 0 200 200" fill="none" xmlns="http://www.w3.org/2000/svg">
<path d="M1.9668 183.2C6.9668 165.6 13.2668 151.966 18.1335 142.7C27.1668 125.5 32.9335 114.933 44.6335 110.5C48.8335 108.9 47.9001 110.333 66.8001 108.233C89.7001 105.666 95.5335 103.033 97.7668 101.966C98.5335 101.6 108.233 96.7663 115.433 87.6663C132.333 66.333 118.333 43.2996 128.3 25.1996C134.4 14.0996 150.667 2.73297 196.233 3.16631C195.7 8.39964 195.167 13.6663 194.633 18.8996C182.567 18.0996 172.6 19.0663 165.467 20.1996C153.1 22.1663 143.4 23.8663 137.733 31.6663C135.233 35.0996 134.133 38.4663 133.767 41.733C131.933 59.1663 139.267 72.933 129.167 93.133C122.133 107.2 114.667 115.466 105.833 119.8C104.533 120.433 101.9 121.6 93.3668 123.4C65.6335 129.333 60.5335 123.966 50.5668 129.266C38.5335 135.666 33.9335 149.9 28.9335 165.333C25.4001 176.266 24.3335 185.766 24.0001 192.1C16.7335 189.166 9.33346 186.166 1.9668 183.2Z" fill="#171725"/>
</svg>
