<svg width="122" height="100" viewBox="0 0 122 100" fill="none" xmlns="http://www.w3.org/2000/svg">
<path d="M100.421 70.8341H79.5869V28.9573H86.4621V64.791C86.4621 66.747 88.0517 68.3366 90.0052 68.3366C91.9624 68.3366 93.5483 66.747 93.5483 64.791L93.5446 57.4998H100.421V70.8341ZM74.5846 42.9162C74.5846 45.0001 72.7615 48.6973 70.0554 48.6973C72.7615 48.6973 74.5846 51.0394 74.5846 52.8129V65.3647C74.5846 67.4995 72.867 70.8341 67.7107 70.8341H53.9604V28.9573H67.7107C70.3658 28.9573 74.5846 31.1456 74.5846 35.7803V42.9162ZM48.7519 63.5417C48.7519 67.7119 46.0445 71.4575 38.3336 71.4575C30.6252 71.4575 27.9178 66.562 27.9178 63.5417V57.4998H34.7917L34.7955 64.791C34.7955 66.747 36.3838 68.3366 38.3386 68.3366C40.2946 68.3366 41.878 66.6973 41.878 64.7413L41.8767 28.9573H48.7519V63.5417ZM31.3554 44.979C33.551 44.979 35.3319 46.7587 35.3319 48.9593C35.3319 51.155 33.551 52.9371 31.3554 52.9371C29.1572 52.9371 27.3776 51.155 27.3776 48.9593C27.3776 46.7587 29.1572 44.979 31.3554 44.979ZM37.7102 28.9573L31.3554 43.4354L25.0006 28.9573H37.7102ZM0 100H121.669V-7.62939e-06H0V100ZM64.586 32.9152H60.8355V46.9772L64.586 46.9897C67.086 46.9897 67.7107 46.5612 67.7107 40.0003C67.7107 33.4381 67.086 32.9152 64.586 32.9152ZM65.0021 50.5241H60.8355V67.3952L65.0021 67.4052C67.7107 67.4052 67.7107 65.5709 67.7107 59.0112C67.7107 52.4465 67.7107 50.5241 65.0021 50.5241Z" fill="white"/>
</svg>
