<svg width="152" height="100" viewBox="0 0 152 100" fill="none" xmlns="http://www.w3.org/2000/svg">
<g clip-path="url(#clip0_4033_24897)">
<path d="M106.53 3.03304C112.036 0.328832 114.765 0.683702 114.826 3.42471C114.9 6.9854 114.373 11.7204 113.994 15.1466C111.95 33.7683 108.537 48.9847 108.28 68.1044C117.273 44.8221 124.81 28.6403 134.525 8.71056C137.609 2.36009 139.579 3.54706 142.112 2.42127C151.974 -1.97131 152.341 0.720501 151.056 6.09213C146.272 25.9876 134.024 88.6298 132.152 98.2755C131.613 101.066 128.579 99.8833 127.796 98.7919C124.284 93.9343 120.32 93.8584 120.76 90.6282C122.963 74.5464 130.891 34.1978 132.959 24.6905C122.424 46.2891 111.498 73.2899 105.881 88.5995C104.694 91.8504 102.529 91.6119 101.183 89.2333C99.2862 85.8918 95.6033 84.1859 94.9913 80.2374C93.0704 67.6836 97.194 43.7552 97.7688 28.617C92.0305 45.1537 82.4008 77.2592 78.1794 91.7646C76.442 97.7664 70.6421 96.7874 72.1837 90.9377C78.5951 66.5944 92.4097 23.5403 98.3807 8.062C99.7885 4.41553 103.471 4.53788 106.53 3.03304Z" fill="white"/>
<path d="M71.5598 0.0475683C69.7001 -0.405059 64.304 2.50708 60.988 3.08206C59.9358 3.26559 58.9324 4.37897 58.5775 5.17449C53.267 17.3736 48.5074 29.0024 44.3839 39.5962C39.1102 40.4967 32.9436 41.6824 26.0425 43.2326C30.9857 30.5526 35.9781 18.0463 40.8479 6.01857C43.246 0.0963391 36.9325 -0.466442 34.4852 5.52916C31.3037 13.3235 25.3449 27.9269 18.7497 44.9481C13.9043 46.1362 8.76541 47.4943 3.39377 49.046C-0.509599 50.1728 -0.668463 51.2128 1.02012 53.5536C1.94997 54.8569 3.87103 54.7256 4.7519 55.6544C7.02787 58.0613 8.41053 60.9402 12.4848 61.376C8.85075 71.0972 5.21674 81.1222 1.92536 90.7749C-0.14248 96.8341 5.74289 98.0734 8.00667 91.6618C11.6529 81.3262 15.495 70.8657 19.4471 60.4361C22.7385 59.6711 30.704 57.9556 38.0577 56.3601C32.2212 72.3571 28.379 84.5062 26.9231 90.4198C26.654 91.5576 27.1066 92.1891 27.3514 92.6528C29.3212 95.5196 31.1934 95.637 33.7263 99.1817C34.4116 100.148 36.712 100.67 37.4949 98.2897C42.9031 81.9536 48.4705 66.6259 53.6584 52.8849C55.8118 52.4139 59.6905 51.4779 62.0642 47.9356C66.2855 41.6486 67.4968 42.9237 68.5127 41.0125C69.7852 38.6131 68.9407 36.3604 64.4382 36.917C64.4382 36.917 62.7374 37.0381 59.5927 37.3966C64.5849 24.5429 68.9531 13.6407 72.0977 5.33278C73.1749 2.51926 73.3096 0.463617 71.5598 0.0475683Z" fill="white"/>
<path d="M64.1939 83.4145C65.3563 86.3523 68.9903 85.4627 67.6076 81.917C66.2004 78.3047 62.701 67.4308 61.7832 63.9276C60.5352 59.2071 65.9434 60.4981 63.2026 63.5841C60.8535 66.2378 59.2871 67.3012 54.9435 72.3472C50.7466 77.2183 51.8846 83.5395 56.3751 84.9356C61.4407 86.5115 65.9069 80.9296 68.6721 76.8344C71.3517 72.8687 68.7576 70.5427 66.0536 72.8871C64.316 74.3945 62.3094 76.7094 60.2781 77.9576C58.6263 78.9621 57.3292 77.8829 59.5318 74.851C62.0891 71.3406 64.9522 68.3991 67.0812 65.0819C71.425 58.3216 62.8354 54.4246 59.1401 58.8159C57.1579 61.1567 57.6596 63.4547 58.198 65.4269C59.0669 68.5861 62.2972 78.6709 64.1939 83.4145Z" fill="white"/>
</g>
<defs>
<clipPath id="clip0_4033_24897">
<rect width="151.588" height="100" fill="white"/>
</clipPath>
</defs>
</svg>
