<svg width="277" height="50" viewBox="0 0 277 50" fill="none" xmlns="http://www.w3.org/2000/svg">
<g clip-path="url(#clip0_4033_24905)">
<path d="M150.34 46.6363H186.001V42.2805H156.454V28.3425H178.647V23.9351H156.454V11.0939H186.001V6.75391H150.34V46.6363Z" fill="white"/>
<path d="M168.872 0.306641L164.044 5.73055L179.2 0.306641H168.872Z" fill="white"/>
<path d="M245.866 42.2805V6.75391H240.292V46.6363H276.342V42.2805H245.866Z" fill="white"/>
<path d="M209.108 6.75391L188.829 46.6363H195.683L200.871 36.3136H225.193L230.425 46.6363H237.209L216.914 6.75391H209.108ZM203.438 31.3145L212.994 12.2649L222.662 31.3145H203.438Z" fill="white"/>
<path d="M130.99 29.9594C140.127 27.5214 141.014 20.723 140.968 18.2926C140.423 11.1678 135.622 6.75391 126.997 6.75391H101.86V46.6363H107.59V29.9062H123.955L135.994 46.6363H143.217C143.216 46.6363 134.553 35.3768 130.99 29.9594ZM126.214 25.1939H107.59V11.4745H126.863C131.301 11.4745 133.797 13.5461 134.696 16.1775C135.291 17.9813 134.909 20.3493 133.925 21.9614C132.315 24.6267 129.255 25.1939 126.214 25.1939Z" fill="white"/>
<path d="M67.4234 0C51.2477 0 40.2227 11.405 40.2227 25.209C40.2227 39.7411 52.4014 50 67.4234 50C82.4353 50 94.6092 39.8876 94.6092 25.209C94.6092 11.405 83.4478 0 67.4234 0ZM67.2292 45.0493C56.0381 45.0493 46.8172 36.0561 46.8172 25.2225C46.8172 14.4037 55.6028 4.97969 67.6631 4.97969C79.4246 4.97969 88.0703 14.4037 88.0703 25.2225C88.0703 36.0558 78.4156 45.0493 67.2292 45.0493Z" fill="white"/>
<path d="M25.7905 20.8629H29.9253L37.4304 6.75391H31.3909L25.7905 20.8629Z" fill="white"/>
<path d="M5.57693 42.2805V6.75391H0V46.6363H36.0485V42.2805H5.57693Z" fill="white"/>
</g>
<defs>
<clipPath id="clip0_4033_24905">
<rect width="276.342" height="50" fill="white"/>
</clipPath>
</defs>
</svg>
