<svg width="143" height="169" viewBox="0 0 143 169" fill="none" xmlns="http://www.w3.org/2000/svg">
<path fill-rule="evenodd" clip-rule="evenodd" d="M138.728 165.285C142.127 165.147 140.76 160.128 140.516 158.285C137.824 151.553 138.457 144.209 137.399 137.153C136.739 130.567 135.892 124 135.179 117.419C133.78 104.059 123.728 76.8614 112.258 72.4873C110.813 67.1361 104.845 62.1409 97.2944 62.1409C92.1446 56.9956 85.9459 53.3744 77.9954 54.1056C74.7099 54.2318 71.5236 57.173 68.3755 57.7409C66.6127 57.9461 50.9696 57.4181 47.836 58.9889C45.6533 59.9348 43.6829 61.6829 44.3247 63.9084C45.3487 66.6046 42.1664 63.6872 35.528 66.565C21.9914 73.427 30.0803 82.6069 30.4387 82.8914C21.9914 92.8116 14.608 100.86 11.1918 112.985C8.97774 121.987 9.22697 131.28 7.37192 140.329C6.71692 143.466 5.7121 146.496 4.62478 149.543C3.44636 153.53 2.87335 163.468 2.22381 163.557C1.04064 163.805 2.90762 165.856 4.16133 165.857C38.9203 170.724 74.2269 166.059 109.173 165.297C119.021 165.008 128.88 164.941 138.728 165.285Z" fill="white"/>
<path fill-rule="evenodd" clip-rule="evenodd" d="M86.0459 83.7674C86.0621 83.6331 86.2767 83.6334 86.2932 83.7674L86.5386 85.767C86.8372 88.2091 87.1247 90.6464 87.3331 93.0999C87.5928 96.1594 87.7666 99.2181 87.8503 102.284C88.1423 112.964 88.2003 123.649 88.225 134.331C89.9365 134.231 91.6482 134.135 93.3608 134.041C94.5227 133.978 95.6846 133.917 96.8467 133.857L99.8099 133.706L101.03 133.643C101.854 133.6 102.791 133.424 103.367 134.041C103.598 134.287 103.714 134.608 103.499 134.901C103.002 135.577 102.24 135.553 101.378 135.582C100.565 135.61 99.7517 135.637 98.9384 135.664C97.1956 135.721 95.4529 135.775 93.7096 135.816C91.88 135.859 90.0513 135.895 88.2225 135.921C88.204 140.43 87.9829 144.934 87.7439 149.439L87.6357 151.466C87.3433 156.948 87.0286 162.434 86.5817 167.909C86.5449 168.357 85.7937 168.356 85.7573 167.909C85.2539 161.744 84.9219 155.565 84.5926 149.392C84.3538 144.916 84.2148 140.439 84.1487 135.961C83.9068 135.962 83.6652 135.965 83.4235 135.966C76.5593 135.991 69.6968 136.016 62.8326 135.962C62.844 135.973 62.8552 135.985 62.8628 136C63.3595 136.99 63.4068 138.253 63.3947 139.315C63.3808 140.533 63.1864 141.736 62.854 142.921C61.663 147.165 58.5911 150.966 55.0923 154.109L54.9781 154.211C54.1529 154.947 53.2061 155.687 52.6993 156.624C52.1817 157.582 52.0021 158.701 51.7467 159.73L51.7169 159.848L50.7182 163.741C50.4009 164.978 50.3108 166.782 49.1511 167.674C48.069 168.506 46.6356 168.071 46.1264 167C45.7287 166.163 46.1248 165.244 46.3603 164.408L48.2055 157.861C48.5087 156.794 48.84 155.719 49.4944 154.76C50.1647 153.778 51.1473 153.066 52.1501 152.337C54.0487 150.957 55.7917 149.378 57.2658 147.667C58.7394 145.958 59.9987 144.073 60.8818 142.092C61.324 141.1 61.6863 140.069 61.9363 139.03C62.1739 138.044 62.1718 137.023 62.4259 136.048C62.4433 135.981 62.5107 135.934 62.5879 135.914C62.5696 135.87 62.5976 135.812 62.6697 135.808L68.2835 135.503C73.2736 135.232 78.2636 134.953 83.2492 134.635L84.1302 134.581C84.0618 128.606 84.1198 122.631 84.2477 116.654C84.3648 111.173 84.3673 105.691 84.5604 100.211C84.6564 97.4907 84.8635 94.7773 85.0939 92.0631C85.3296 89.2873 85.7068 86.5349 86.0459 83.7674ZM33.3348 115.546C33.275 115.242 33.7286 115.054 33.9378 115.332C36.3282 118.512 37.4808 121.966 37.9666 125.688C38.3957 128.973 38.2693 132.305 38.0556 135.598C37.8276 139.11 37.5617 142.622 37.2927 146.132L36.8796 151.516L35.8428 165.012C35.7685 165.977 35.5089 166.855 34.5242 167.304C34.3995 167.391 34.2695 167.47 34.118 167.539C33.586 167.779 32.8803 167.657 32.5727 167.197L32.6961 167.265C32.8035 167.322 32.6829 167.242 32.334 167.026L32.038 166.703C31.8229 166.43 31.6856 166.162 31.6303 165.837C31.5445 165.333 31.6557 164.78 31.6947 164.274L32.3743 155.424C32.9029 148.544 33.52 141.666 33.9852 134.783C34.2019 131.575 34.3537 128.364 34.251 125.15C34.1486 121.954 33.9557 118.704 33.3348 115.546ZM54.0142 56.3047L54.1469 56.2859C58.8948 55.6203 64.0578 55.7448 68.397 57.6767C68.4329 57.6925 68.4165 57.7429 68.3762 57.7414L66.9796 57.6943C62.558 57.5482 58.1502 57.4617 53.8026 58.3385L53.3576 58.429C51.7919 58.7513 50.1569 59.1459 48.8993 60.0187C47.6974 60.853 47.0988 62.14 46.5233 63.3248L46.4464 63.4811C45.8625 64.6513 45.1234 65.7611 43.8436 66.4928C42.1858 67.4404 40.1922 67.3243 38.2914 67.453C34.9447 67.68 32.2085 69.7272 30.8471 72.2324C30.0227 73.7493 29.6712 75.45 29.6015 77.1088C29.5658 77.9534 29.5607 78.8309 29.694 79.6698C29.7366 79.9381 30.1295 80.9153 30.3298 80.8919C30.775 80.8398 31.182 81.0357 31.3208 81.3361C32.4204 80.4394 33.5517 79.5685 34.7194 78.729C37.6301 76.6369 40.7652 74.7406 44.0669 73.1112C46.5868 71.8675 49.2448 70.6353 51.9972 69.7037C51.7791 69.6999 51.564 69.7364 51.3559 69.8277C51.2648 69.8679 51.1742 69.7714 51.2462 69.7076C52.1131 68.9377 53.1515 68.8281 54.1984 69.0335C54.4218 68.9735 54.6453 68.9154 54.8697 68.8604C54.9814 68.8329 55.037 68.9628 54.9459 69.013L54.6888 69.1516C55.8308 69.4745 56.952 70.1092 57.8397 70.61C60.3897 72.0484 62.6341 73.8069 64.9094 75.5324L65.3231 75.8452C67.3258 77.3545 69.3795 78.8212 71.6549 80.032C72.846 80.6658 74.097 81.252 75.4093 81.688C76.5348 82.0623 78.3673 82.2979 78.8945 83.3019C79.363 83.7823 79.1673 84.3954 78.6185 84.7187C77.693 85.5784 75.8416 85.0231 74.7388 84.665C73.4093 84.2333 72.1213 83.7144 70.893 83.1059C68.5081 81.9242 66.3092 80.455 64.2609 78.892C62.1216 77.2596 60.1037 75.5255 58.023 73.8419C57.1215 73.1124 56.2407 72.3658 55.3378 71.6373L54.8843 71.2748C54.4235 70.9101 53.7669 70.3415 53.065 69.9974C51.7425 70.6632 50.3996 71.3015 49.0891 71.9846C47.2598 72.938 45.4842 73.9601 43.7361 75.0159C40.3707 77.0484 37.1816 79.3248 34.2209 81.7648C28.791 86.2395 24.1649 91.3493 20.1236 96.7599L19.8167 97.1722C17.5203 100.269 15.3485 103.466 13.8087 106.888C12.1144 110.653 11.2904 114.613 10.8427 118.61C10.3985 122.579 10.2486 126.567 9.75209 130.532C9.24291 134.598 8.23966 138.575 7.09853 142.544L6.82637 143.485C5.79382 147.04 4.72809 150.594 4.19732 154.233C3.91397 156.176 3.74354 158.147 3.78205 160.106C3.82075 162.077 4.18764 164.004 4.48366 165.954C4.5971 166.701 3.72612 167.324 2.94678 167.423C2.05047 167.537 1.28045 167.054 1.00185 166.351C0.133336 164.161 -0.0244323 161.739 0.00282979 159.439C0.0302677 157.105 0.383267 154.786 0.879964 152.492C1.85683 147.979 3.36433 143.56 4.62542 139.101C5.73683 135.171 6.48276 131.234 6.88483 127.208C7.3022 123.031 7.55213 118.84 8.31353 114.694C9.06509 110.6 10.4792 106.69 12.6118 102.957C14.5536 99.558 16.9741 96.3589 19.5117 93.2582C22.5934 89.4929 25.9779 85.9099 29.7612 82.6454C29.4214 82.633 29.0724 82.5403 28.752 82.3717C27.7716 81.8555 27.315 80.8459 27.1747 79.9239C26.8461 77.7673 26.9254 75.5159 27.5825 73.4074C28.6426 70.006 31.3938 66.9837 35.3811 65.7576C36.4073 65.442 37.4984 65.3268 38.586 65.3041C39.6181 65.2824 40.7454 65.396 41.7412 65.1199C43.3263 64.6801 44.0058 63.1044 44.6009 61.9099L44.6284 61.8551C45.3915 60.333 46.3075 59.0283 47.9605 58.0779C49.724 57.0637 51.9336 56.6025 54.0142 56.3047ZM99.1281 62.3243C100.555 61.9065 102.339 62.2857 103.734 62.6506C105.288 63.0573 106.725 63.8064 107.956 64.6961C109.256 65.6344 110.329 66.7929 111.088 68.0871L111.161 68.2118C111.853 69.4124 112.643 71.0605 112.293 72.3794C112.283 72.4168 112.272 72.4529 112.259 72.4878C115.09 73.664 117.704 75.1372 119.981 77.0045C122.632 79.1786 124.876 81.6526 126.776 84.3254C134.32 94.941 135.648 107.69 136.539 119.797L136.761 122.866C137.245 129.495 137.811 136.107 139.282 142.644L139.389 143.116C140.961 149.96 143.212 156.857 142.984 163.878C142.916 165.981 139.232 165.967 139.125 163.878C138.723 156.013 136.549 148.421 135.077 140.679C132.486 127.06 133.784 113.019 130.113 99.5362C128.673 94.245 126.442 89.1125 123.255 84.3894C121.681 82.0561 119.88 79.8015 117.771 77.7886C115.956 76.0566 114.069 74.3898 111.948 72.9337C111.27 73.5068 109.916 73.2148 109.562 72.3794C109.319 71.8053 109.39 71.1342 109.234 70.5328C109.089 69.9747 108.89 69.4214 108.624 68.8959C108.094 67.8486 107.316 66.8428 106.417 65.9951C105.447 65.0788 104.332 64.3176 103.084 63.689C101.827 63.0561 100.453 62.8672 99.1281 62.4047C99.0834 62.3891 99.0792 62.3387 99.1281 62.3243ZM104.671 135.111C104.673 135.056 104.751 135.03 104.798 135.067C105.298 135.455 105.601 136.013 105.969 136.49C106.393 137.042 106.839 137.581 107.307 138.107C108.244 139.161 109.286 140.153 110.337 141.126C111.315 142.031 112.357 142.897 113.438 143.714C114.609 144.6 115.921 145.389 116.985 146.369C119.205 148.414 119.564 151.221 120.032 153.857L120.083 154.142C120.369 155.706 120.625 157.274 120.856 158.845C120.968 159.609 121.08 160.373 121.171 161.139L121.199 161.382C121.281 162.132 121.303 162.892 120.793 163.548C120.246 164.248 119.005 164.494 118.267 163.822C116.998 162.668 117.236 160.617 117.071 159.131C116.935 157.903 116.78 156.677 116.607 155.452L116.519 154.839C116.315 153.446 116.149 152.025 115.772 150.656C115.439 149.45 114.804 148.54 113.763 147.666C112.715 146.787 111.625 145.965 110.657 145.018C109.631 144.013 108.705 142.935 107.87 141.81C107.157 140.848 106.585 139.801 106.06 138.756L105.974 138.581C105.467 137.562 104.632 136.234 104.671 135.111ZM122.983 91.3101C122.994 91.1679 123.243 91.1657 123.247 91.3101C123.278 92.5334 123.309 93.7567 123.339 94.9801C123.581 104.838 123.432 114.719 124.603 124.543C125.156 129.175 126.174 133.738 127.351 138.283C127.954 140.609 128.586 142.929 129.186 145.255C129.772 147.521 130.4 149.799 130.864 152.087C131.32 154.335 131.729 156.601 131.912 158.879L131.935 159.176C132.014 160.279 132.391 161.902 131.671 162.88C130.891 163.939 129.398 163.958 128.562 162.947C127.778 161.997 127.973 160.308 127.834 159.176C127.693 158.022 127.544 156.867 127.375 155.716C127.045 153.47 126.61 151.23 126.158 148.999C125.216 144.354 123.849 139.768 122.84 135.131C121.806 130.379 121.072 125.593 121.041 120.755C121.01 115.875 121.622 111.006 121.931 106.137C122.244 101.192 122.601 96.2513 122.983 91.3101ZM67.8116 60.6492C68.1252 59.758 69.2319 59.2009 70.3115 59.4512C71.3008 59.6807 72.1176 60.6942 71.7308 61.5613C71.3087 62.5076 70.5711 63.3144 69.9491 64.1744C69.3747 64.9691 68.5368 65.5948 67.9516 66.3754L68.5965 66.9622C68.9191 67.2549 69.2426 67.5458 69.5698 67.8317L70.6944 68.8151C71.5704 69.5793 72.4518 70.3394 73.3581 71.0771C76.0231 73.2468 78.7303 75.3452 81.7149 77.2032C82.3944 77.626 83.0791 78.0465 83.783 78.4402L84.0454 78.587C84.5283 78.8538 85.0671 79.1162 85.6505 79.071C87.068 78.9611 88.3489 77.6904 89.323 76.8996L89.374 76.8584C91.788 74.9197 94.0233 72.8001 95.9775 70.521C96.4114 70.0146 96.8316 69.4996 97.2407 68.9786C96.2959 68.047 96.5216 66.2286 96.4695 65.0988C96.4327 64.3045 96.4299 63.5099 96.4248 62.7149L96.4222 62.5546C96.4107 62.0401 96.3832 61.5466 96.7789 61.1232C96.8019 61.0987 96.8496 61.0995 96.8789 61.1124C97.4208 61.352 97.5878 61.7533 97.819 62.2034L97.8431 62.2501C98.1245 62.7904 98.394 63.3356 98.6666 63.879C98.9521 64.4479 99.2138 65.0251 99.479 65.6008C99.6025 65.8686 99.7204 66.1374 99.8356 66.4078C99.9057 66.5804 99.9784 66.7522 100.053 66.9236L100.071 66.9369C100.169 67.0074 100.253 67.0819 100.325 67.1588C100.627 67.2865 100.867 67.5191 100.98 67.8608C101.225 68.6047 100.717 69.2113 100.265 69.8017C98.4248 72.2008 96.3276 74.4868 93.9964 76.5606C92.8384 77.5909 91.6204 78.5748 90.3522 79.5082L90.1305 79.6702C88.9914 80.4965 87.7546 81.2792 86.2332 81.4725C84.4528 81.6986 83.0038 80.9513 81.6409 80.0904L81.5049 80.004C80.2129 79.1784 78.9468 78.3239 77.7202 77.4301C75.2193 75.6077 72.8401 73.6509 70.7287 71.5041C68.6747 69.4159 66.6444 67.081 65.3784 64.5684C65.3012 64.4153 65.5042 64.2552 65.6632 64.383C66.2816 64.8799 66.8766 65.4038 67.4646 65.9343C67.4809 65.1533 67.3102 64.3656 67.4052 63.5797C67.5211 62.6244 67.4876 61.569 67.8116 60.6492Z" fill="black"/>
<path fill-rule="evenodd" clip-rule="evenodd" d="M109.939 24.1838C108.347 18.5197 104.867 13.2487 99.2951 8.98874C82.5284 -5.00253 51.7376 2.59167 51.8771 23.6755C51.2757 26.1381 51.0316 28.6701 51.2307 31.1815C51.313 32.2531 51.8625 33.7485 51.1243 34.7128C49.4592 36.517 48.4915 37.8469 49.0582 40.2468C49.5317 42.3422 51.2212 43.8268 53.5014 44.616C54.8689 44.9472 56.1664 45.6687 56.6729 46.7684C59.7168 51.472 61.9718 55.3844 66.7704 58.59C68.0087 59.4153 80.7085 64.3651 84.893 64.3651C97.1436 64.3651 112.584 60.6195 112.84 49.0698C112.884 46.533 112.357 43.9666 112.026 41.4499C111.221 35.7064 111.505 29.755 109.939 24.1838Z" fill="white"/>
<path fill-rule="evenodd" clip-rule="evenodd" d="M109.663 21.3509C109.667 21.2808 109.786 21.265 109.809 21.3342C110.265 22.6978 110.523 24.0869 110.879 25.4717C111.222 26.8055 111.546 28.1433 111.815 29.4888C112.324 32.0284 112.752 34.5745 113.15 37.1273L113.25 37.7657C113.942 42.2574 115.086 46.9369 114.086 51.455C113.232 55.3102 110.37 58.4173 106.682 60.6954C103.19 62.8523 98.9561 64.2365 94.7521 65.0234C90.24 65.8683 84.8917 66.1204 81.2205 63.3276C79.7508 62.2093 81.7543 59.9905 83.3487 60.9997C87.0926 63.3689 91.8552 62.6704 96.0797 61.7277L96.2076 61.6991C99.9154 60.8655 103.648 59.602 106.591 57.4705C109.846 55.1138 111.455 51.843 111.641 48.2558C111.745 46.2403 111.523 44.2272 111.282 42.2236L111.256 42.0011C110.98 39.7098 110.691 37.4196 110.424 35.1275C110.181 33.0373 109.971 30.935 109.86 28.8355L109.808 27.7766C109.7 25.6417 109.555 23.4755 109.663 21.3509ZM65.7552 3.6117C71.8475 0.934618 78.8491 -0.0235091 85.6291 0.874939C92.147 1.73865 98.1288 4.5774 102.6 8.64788C104.783 10.6352 106.72 12.9341 107.959 15.4455C108.574 16.6931 109.055 17.9946 109.312 19.3313C109.444 20.0185 109.573 20.7305 109.598 21.4272C109.621 22.0722 109.397 22.6772 109.423 23.3329C109.427 23.4355 109.241 23.4552 109.213 23.3569C109.001 22.6258 108.491 22.073 108.17 21.3785C107.931 20.8599 107.66 20.3537 107.383 19.849L107.146 19.4165C106.457 18.1595 105.633 16.9542 104.818 15.7532C103.178 13.3343 101.072 11.136 98.6071 9.28104C94.2787 6.02424 88.7259 3.92198 82.9303 3.54342C76.9149 3.15031 70.8135 4.36051 65.6763 7.04131C60.5394 9.72196 56.6552 13.8891 54.6385 18.687C53.621 21.1081 53.059 23.6308 52.9284 26.1958C52.8622 27.4942 52.924 28.8034 53.0318 30.0993L53.0853 30.7173C53.1481 31.4583 53.1911 32.1965 53.0599 32.9197C53.9865 32.6757 54.9577 32.5746 55.9325 32.6953C57.3809 32.8747 58.2462 33.3759 58.8959 34.4682C58.9299 34.5252 58.8618 34.5822 58.7945 34.5538C57.9521 34.199 56.5894 34.3858 55.6973 34.5718C54.769 34.7654 53.9328 35.1021 53.144 35.5573C51.6847 36.3988 50.5407 37.703 50.26 39.1993C49.9886 40.6446 50.6916 42.1081 51.8725 43.144C52.4804 43.6776 53.207 44.1388 54.0204 44.4262C55.0077 44.7753 55.9849 44.7644 56.8583 45.3406C57.3983 45.6967 57.2678 46.3061 56.9016 46.7016C58.7443 48.407 60.3785 50.2728 62.221 51.985C63.0751 52.7786 63.9224 53.5731 64.7408 54.3923L65.0463 54.7006C65.8634 55.533 67.1636 56.4123 67.537 57.4592C67.7693 58.1105 66.943 58.9623 66.1077 58.6656C64.8265 58.2102 63.9118 57.0255 63.046 56.1168L62.9896 56.058C62.0817 55.1163 61.2757 54.1223 60.5387 53.0806L60.2964 52.7374C58.9638 50.8457 57.6426 48.8838 56.7929 46.8057C56.7368 46.8544 56.6773 46.8987 56.6147 46.9363C55.3906 47.671 53.611 47.1061 52.3884 46.629C51.2342 46.1787 50.1761 45.5012 49.3514 44.6846C47.5577 42.9087 46.7309 40.6089 47.33 38.3041C47.8374 36.3518 49.4406 34.4527 51.5424 33.4652C50.5722 32.5225 50.1705 31.2518 49.9032 30.0093C49.5619 28.4234 49.4939 26.7981 49.5866 25.1899C49.7714 21.9867 50.7481 18.8292 52.2579 15.896C54.9591 10.6477 59.7347 6.25761 65.7552 3.6117ZM52.9331 38.6338C54.2117 38.4316 55.4034 38.3828 56.6367 38.8394C57.9744 39.3351 58.9159 40.1534 59.7911 41.1121C60.787 42.2026 58.2348 43.394 57.5913 41.9463L57.5724 41.9016C57.4 41.473 57.0913 41.0587 56.7003 40.6773C56.583 40.829 56.4261 40.9626 56.2418 41.0391C56.0186 41.1317 55.6777 41.0676 55.6241 40.827C55.5646 40.5599 55.6304 40.2363 55.813 40.0102L55.838 39.9793C54.9508 39.3767 53.8837 38.9365 52.9331 38.7949C52.8381 38.7806 52.8391 38.6487 52.9331 38.6338Z" fill="black"/>
<path fill-rule="evenodd" clip-rule="evenodd" d="M92.9702 54.2765C91.7878 53.8694 90.7329 53.1903 89.9616 52.3228C89.6935 52.0212 89.6239 51.7028 89.6802 51.4115C89.7434 51.084 89.973 50.7871 90.2861 50.588C90.6001 50.3883 90.9929 50.2898 91.3727 50.34C91.7027 50.3836 92.0313 50.5361 92.2912 50.8524L92.3456 50.9157C92.8041 51.4393 93.4016 51.8689 94.0824 52.1458C94.7386 52.4127 95.4725 52.5373 96.232 52.4648C97.6784 52.3269 98.6754 51.6666 99.7351 50.77C99.8664 50.6568 99.9978 50.5401 100.13 50.4215C100.213 50.3139 100.329 50.2448 100.458 50.2085C100.6 50.1683 100.762 50.1706 100.909 50.2141C101.052 50.2561 101.18 50.3357 101.265 50.4416C101.346 50.5423 101.392 50.6667 101.377 50.8097C101.28 51.7389 100.705 52.5682 99.8873 53.2194C98.9793 53.9425 97.7757 54.4428 96.6425 54.6183C95.3941 54.8116 94.122 54.6731 92.9702 54.2765ZM97.2314 39.9418C98.5596 40.6232 100.583 42.2121 99.1545 43.9014C97.4727 45.391 95.0512 43.6831 93.858 42.9107C92.7515 42.3121 91.5084 43.8517 92.5349 44.5507C101.157 49.9389 104.657 40.12 97.9032 39.1406C97.1596 39.0327 96.8835 39.731 97.2314 39.9418ZM81.7798 33.6739C81.9266 32.1365 84.7007 31.7874 84.9767 33.3087C85.2238 34.6715 84.9329 35.9235 84.2056 37.1504C83.5107 38.3226 81.7641 37.7758 81.632 36.7084C81.4549 35.2776 81.6885 34.6303 81.7798 33.6739ZM102.897 32.9933C103.284 32.5657 103.842 32.2739 104.511 32.4388C106.602 32.9544 105.986 35.4593 105.252 36.6785C104.853 37.3406 103.563 37.5085 102.981 36.9255C102.031 35.9748 101.576 34.0763 102.783 33.1398C102.816 33.0914 102.852 33.0426 102.897 32.9933ZM84.1762 26.9466L84.5064 26.8978C85.5279 26.7487 86.798 26.6054 87.5206 27.2985C87.9039 27.6661 88.0358 28.3493 87.5206 28.7012C86.6145 29.3202 85.6126 29.0803 84.5267 29.1327C83.6318 29.1761 82.7717 29.3011 81.9097 29.509C80.0186 29.9652 78.4777 30.7981 76.8626 31.7126C76.6506 31.8325 76.4343 31.6037 76.5354 31.4364C77.4678 29.895 79.2746 28.6289 81.0845 27.857C82.0504 27.4451 83.1075 27.1033 84.1762 26.9466ZM100.992 26.2561L101.244 26.2997C103.995 26.785 107.568 27.7543 108.87 30.0345C108.92 30.3569 108.868 30.426 108.825 30.4712L108.811 30.4862C108.776 30.5247 108.748 30.5779 108.582 30.6218C108.536 30.6125 108.49 30.6027 108.443 30.5924C107.846 30.4603 107.373 30.2784 106.916 30.0896L106.42 29.8834C105.845 29.6454 105.265 29.416 104.65 29.2466C103.337 28.8853 101.987 28.6308 100.616 28.4948C100.319 28.4654 100.033 28.3808 99.8074 28.2357C99.5932 28.098 99.4295 27.9074 99.3549 27.654C99.2581 27.326 99.2859 27.0777 99.4944 26.7819C99.6511 26.5597 99.8754 26.4057 100.133 26.3173C100.396 26.2271 100.694 26.2058 100.992 26.2561Z" fill="black"/>
<path fill-rule="evenodd" clip-rule="evenodd" d="M100.956 56.5601C99.3176 55.3284 97.4815 52.8522 95.1284 54.8115C94.5464 55.3651 94.3107 56.6061 93.4207 56.8496C92.2388 57.1732 91.0674 56.1177 90.6646 55.3072C89.0166 50.8035 95.8293 49.5682 99.7103 50.2958C101.606 50.953 103.003 53.5984 103.087 54.9791C103.142 55.9069 102.211 57.2712 100.956 56.5601ZM113.313 49.6184C113.297 49.5585 113.275 49.5045 113.248 49.4554C112.524 49.2242 111.95 49.46 111.596 49.9003C111.608 50.0097 111.646 50.1206 111.671 50.2291C111.397 50.7152 111.151 51.3165 110.78 51.7365C110.707 51.7413 110.632 51.7347 110.559 51.7169C104.418 52.2582 107.416 46.8353 101.188 45.4884C96.3733 44.8179 87.6716 45.5859 85.4004 49.8155C83.6092 56.5714 74.5014 51.8639 71.511 48.3504C68.3203 45.1528 66.2572 41.2455 64.2679 37.454C63.8476 36.6516 62.5356 37.2254 62.6783 37.9952C60.8396 41.1085 60.9008 44.8481 60.4454 48.2587C59.6708 55.0631 58.9161 64.6055 66.4065 68.7603C76.1658 78.0709 100.536 81.3565 111.792 72.8017C115.689 65.7308 115.208 57.1045 113.313 49.6184Z" fill="black"/>
</svg>
