<svg width="130" height="179" viewBox="0 0 130 179" fill="none" xmlns="http://www.w3.org/2000/svg">
<path fill-rule="evenodd" clip-rule="evenodd" d="M8.74858 175.522C30.0457 178.487 51.7291 178.636 73.2031 177.56C81.7018 176.976 90.2264 176.871 98.7182 177.617C103.736 177.959 125.737 179.501 127.534 175.381C126.403 153.442 124.111 131.316 117.082 110.216C114.192 102.724 111.709 96.5062 106.067 90.3064C104.289 88.6137 100.454 85.0635 98.2566 83.9057C96.3529 82.9027 95.5572 83.2605 94.4642 81.5665C93.3779 79.695 92.5768 76.5696 91.0344 75.2491C89.4641 73.9046 87.1368 74.3856 84.2523 74.8187C84.7822 68.2536 81.4766 66.5816 76.9226 65.3331C68.9178 62.5324 61.0122 63.9394 58.9975 72.8726C55.2618 72.8726 53.1634 74.3464 50.8949 75.7624C49.9676 76.3413 50.6126 77.8161 49.505 78.271C47.4556 78.9399 43.8341 78.7761 41.8609 79.5993C32.888 83.3428 24.8961 88.7714 19.6476 96.6995C7.88115 113.626 -0.201499 149.283 1.19716 169.345C0.584364 170.226 1.43177 171.489 1.64716 172.436C1.91904 173.26 2.7995 173.808 3.71837 173.715C5.00063 174.979 6.98393 175.26 8.74858 175.522Z" fill="white"/>
<path fill-rule="evenodd" clip-rule="evenodd" d="M96.9001 83.4098C96.7694 83.343 96.8845 83.1717 97.0159 83.2283C103.332 85.9446 108.177 90.7102 111.586 96.2164C115.117 101.918 117.129 108.391 118.864 114.718L118.926 114.947C120.776 121.715 122.349 128.553 123.765 135.408C125.199 142.35 126.35 149.334 127.276 156.348C127.734 159.816 128.142 163.29 128.461 166.771C128.62 168.51 128.764 170.251 128.894 171.993C128.946 172.689 128.995 173.386 129.037 174.083L129.067 174.606C129.093 175.08 129.154 175.556 129.027 176.024C128.916 176.427 128.683 176.792 128.478 177.162C128.073 177.894 126.962 177.774 126.525 177.162L126.399 176.984C126.109 176.574 125.868 176.193 125.777 175.682C125.69 175.188 125.686 174.669 125.647 174.17C125.574 173.251 125.513 172.331 125.442 171.412C125.294 169.477 125.128 167.543 124.944 165.611C124.581 161.796 124.19 157.985 123.711 154.181C122.86 147.42 121.792 140.677 120.533 133.97C119.302 127.419 117.747 120.933 116.124 114.456L115.956 113.786C113.115 102.477 108.736 89.4534 96.9001 83.4098ZM29.6258 127.693C29.6723 127.58 29.8722 127.554 29.9059 127.693C30.3314 129.449 30.3734 131.258 30.4385 133.056C30.5025 134.829 30.4999 136.611 30.4717 138.385C30.3677 144.908 30.1724 151.424 30.0036 157.945C29.9191 161.207 29.8399 164.469 29.7791 167.732C29.7561 168.955 29.7368 170.179 29.7207 171.402L29.7011 173.016C29.6913 173.73 29.6709 174.435 29.576 175.147C29.5134 175.616 29.38 176.063 29.0977 176.465C28.8973 176.75 28.6117 176.895 28.3334 177.089L28.2813 177.126C27.9262 177.383 27.5523 177.385 27.2007 177.126L27.0986 177.052C26.7627 176.811 26.4724 176.623 26.258 176.242C25.9596 175.713 25.9119 175.137 25.8612 174.554C25.7842 173.669 25.8353 172.772 25.8452 171.884C25.8651 170.105 25.892 168.325 25.9261 166.545C26.0511 160.019 26.2982 153.492 26.7486 146.977C26.9608 143.908 27.2485 140.83 27.6345 137.774L27.708 137.201C27.825 136.302 27.9318 135.386 28.0521 134.468C26.2562 133.31 24.6775 131.905 23.3313 130.311C23.2322 130.194 23.3954 130.029 23.5151 130.143C24.8906 131.449 26.4678 132.489 28.2138 133.308C28.4999 131.386 28.8933 129.474 29.6258 127.693ZM59.6292 69.5171C59.6538 69.4996 59.6923 69.492 59.7157 69.5171C60.1018 69.9296 60.0235 70.5604 60.0359 71.0833L60.0374 71.1319C60.0651 71.8963 60.0703 72.6583 60.0675 73.4232L60.0589 75.8578C60.0577 76.1925 60.0281 76.541 60.0469 76.8777L60.0566 77.008C60.2594 77.1984 60.3536 77.4735 60.2848 77.7498C60.2724 78.1043 60.0703 78.4001 59.7754 78.586L60.4074 79.408L61.0401 80.2295C62.344 81.925 63.6623 83.6053 65.0362 85.2541C66.4372 86.9352 67.9317 88.5529 69.4957 90.1083C70.2597 90.8683 71.0368 91.6178 71.832 92.3505C72.1552 92.6483 72.4864 92.9387 72.8139 93.2324L73.1397 93.5275C73.3322 93.704 73.5745 93.8785 73.7023 94.1023C73.7774 94.2342 73.7946 94.5594 73.8214 94.6132C74.0627 95.0993 73.6511 95.8745 72.9671 95.632L72.9981 95.613C73.1227 95.5336 73.0429 95.5325 72.7586 95.6097C72.5793 95.6091 72.4111 95.5713 72.2541 95.4964L72.2073 95.4728C71.9861 95.3698 71.7886 95.1703 71.6089 95.0108L71.5643 94.9719C71.1534 94.6189 70.7617 94.2445 70.3678 93.8756C69.5457 93.1058 68.7422 92.3196 67.9643 91.5123C66.4124 89.9016 64.9412 88.2256 63.5479 86.4976C62.1287 84.7376 60.8096 82.8872 59.6752 80.9609C59.2446 80.2298 58.85 79.4847 58.4716 78.7309C57.7351 78.5142 57.5641 77.7962 57.6155 76.9872C57.3437 76.4071 57.0989 75.815 56.9541 75.2101C56.9344 75.1271 57.0506 75.049 57.1202 75.1215C57.3558 75.3668 57.5739 75.6281 57.7835 75.896C57.91 75.3289 58.0701 74.8069 58.1454 74.4741L58.4719 73.0054C56.632 72.9175 54.6158 73.6104 53.3474 74.8236C53.2793 75.1395 53.014 75.3656 52.7555 75.6609C52.4601 75.9985 52.2024 76.3774 52.0102 76.7735C51.5839 77.6517 51.8245 78.9457 50.9972 79.5899C50.911 79.657 50.8146 79.7037 50.7152 79.7325C51.1078 81.4971 50.9296 83.4414 50.9211 85.2316L50.9208 85.3892C50.9227 87.3928 50.8497 89.398 50.7652 91.3999L50.6793 93.3812C50.568 96.0236 50.4957 98.6673 50.7758 101.295C52.0547 100.257 53.3771 99.2659 54.7449 98.3219C55.6443 97.701 56.5618 97.1022 57.4959 96.5259L58.2549 96.061C59.1644 95.5019 60.096 94.9266 61.0918 94.5262C62.3942 94.0027 63.6328 94.1827 64.8903 94.7196C66.1426 95.2545 67.3576 95.8757 68.5859 96.4554C69.8352 97.0448 71.0872 97.6292 72.3383 98.2152C73.1671 98.6035 74.3816 98.9539 74.9895 99.6685C75.0283 99.5104 75.0734 99.3528 75.1262 99.1957C75.0659 98.9561 75.0892 98.6973 75.2358 98.4506C77.2784 95.01 79.1682 91.4872 81.0448 87.9687C81.9947 86.1881 82.8978 84.3864 83.8495 82.6069L84.7746 80.8737C84.9292 80.5849 85.0843 80.2964 85.2402 80.0084C85.4736 79.5771 85.7167 79.15 85.9527 78.7197C86.0525 78.538 86.1775 78.3574 86.2746 78.1739L86.3206 78.0819C86.3229 78.0771 86.547 77.4309 86.3739 77.4925L86.3589 77.4991C86.2706 77.545 86.1998 77.443 86.2571 77.378C86.5019 77.1005 86.8429 77.3464 86.9826 77.6032C87.3676 78.3102 86.6623 79.42 86.3909 80.0969L86.3761 80.1348C85.5341 82.3195 84.5808 84.4632 83.604 86.5995C81.7311 90.6953 79.7192 94.7281 77.7116 98.768L77.6878 98.8375C78.1159 98.5367 78.573 98.2636 78.9644 97.9979C79.9518 97.3274 80.968 96.6899 81.9826 96.0544C83.8433 94.8891 85.7544 93.8005 87.6971 92.755L88.0861 92.5464C89.0565 92.0282 90.0178 91.6079 91.1697 91.7635C92.2398 91.9081 93.2347 92.4351 94.2015 92.8631L94.3014 92.907L97.2886 94.209C96.9693 93.0415 96.6235 91.8798 96.2628 90.7223C95.5592 88.4647 94.785 86.2261 93.9455 84.0074C93.1614 81.9345 92.3138 79.8843 91.4172 77.8503L91.1472 77.2398C90.7817 76.4023 90.4182 75.4891 89.3734 75.2313C88.3293 74.9735 87.1316 75.3558 86.1773 74.8102C86.0906 74.7606 86.1014 74.6295 86.2065 74.6053L86.7954 74.4692C87.901 74.2171 89.1971 73.9635 90.2426 74.2087C91.3803 74.4759 92.3215 75.3511 92.8735 76.2611C93.4872 77.2733 93.9199 78.4062 94.3856 79.4856L94.4595 79.6555C94.994 80.8771 95.5082 82.1059 96.0002 83.3426C96.9838 85.8143 97.8792 88.3159 98.6897 90.8399C99.0803 92.0564 99.4508 93.2787 99.807 94.504C99.9094 94.8563 100.078 95.2836 100.217 95.7292C100.376 95.8712 100.526 96.0296 100.667 96.2103C100.901 96.5101 100.733 96.8616 100.442 97.041C100.431 97.3477 100.357 97.6361 100.179 97.8833C99.4852 98.8485 97.6515 98.5999 97.726 97.3023C97.7372 97.1037 97.8217 96.914 97.9495 96.7538L97.9459 96.7278L97.9314 96.6803C97.613 96.5404 97.2933 96.3845 96.9564 96.232L93.8213 94.8118C92.9133 94.4004 91.9068 93.7648 90.8971 93.6081C89.9558 93.4619 88.9626 94.1049 88.1537 94.4928L88.1012 94.5177C86.1459 95.4365 84.205 96.3857 82.2718 97.3428C81.3281 97.8101 80.3967 98.2968 79.4566 98.7696C78.6705 99.1651 77.8222 99.7326 76.9386 99.9558C76.5612 100.225 76.113 100.189 75.7527 99.9854C75.9173 100.92 75.9072 101.879 75.9578 102.835C76.0257 104.113 76.0361 105.394 76.0585 106.673L76.0676 107.153C76.127 109.981 76.1588 112.81 76.1705 115.639C76.2122 125.713 76.0908 135.789 76.0624 145.863C76.0481 150.924 75.9387 155.99 75.7952 161.049C75.7344 163.193 75.6073 165.335 75.47 167.475L75.3944 168.643C75.2345 171.106 75.1401 173.597 74.6426 176.027C74.5777 176.344 73.9925 176.352 73.9351 176.027C73.4772 173.423 73.4517 170.762 73.3637 168.127L73.3451 167.6C73.2393 164.772 73.1891 161.944 73.1999 159.114C73.239 149.036 73.5248 138.965 73.7585 128.89C73.8761 123.828 73.9551 118.764 74.1377 113.704C74.229 111.172 74.3323 108.641 74.4549 106.111C74.5097 104.98 74.5624 103.852 74.6442 102.723L74.6812 102.24C74.7066 101.924 74.7272 101.613 74.7521 101.304C73.6398 101.676 72.6226 100.987 71.622 100.515C70.4689 99.9712 69.3162 99.4264 68.1625 98.8837L67.008 98.3418L64.6973 97.261C63.657 96.7743 62.8554 96.2899 61.7458 96.8608C57.7482 98.9168 54.0746 101.653 50.7455 104.523C50.1072 105.074 48.7582 104.926 48.5965 104.003C47.9057 100.061 48.3258 96.0628 48.6785 92.1092L48.8085 90.6414C48.966 88.8883 49.1376 87.1352 49.3662 85.3892C49.4685 84.6081 49.5703 83.8276 49.683 83.048L49.7697 82.4636C49.9106 81.5396 50.0025 80.6211 50.3028 79.7349C50.2081 79.7068 50.1169 79.6608 50.0354 79.5899C49.1326 78.8048 49.5679 77.4423 49.9798 76.5083C50.3866 75.5864 51.0068 74.7818 51.7836 74.0893C51.953 73.938 52.1918 73.8407 52.4317 73.8357C54.3151 72.6918 56.3811 72.121 58.5314 72.7453C58.5918 72.4806 58.6534 72.2163 58.7183 71.9526L58.7843 71.6892C58.9515 71.0351 59.0136 69.9546 59.6292 69.5171ZM78.9311 172.814C79.5155 172.667 80.1554 172.822 80.5836 173.215C81.0117 173.607 81.1812 174.194 81.0201 174.73C80.9396 174.993 80.7941 175.222 80.5836 175.417C80.3868 175.596 80.1573 175.724 79.8951 175.8L79.8341 175.817L79.7385 175.854C79.4456 175.926 79.1525 175.926 78.8597 175.854C78.5797 175.782 78.3366 175.652 78.1302 175.464C77.9253 175.275 77.7836 175.052 77.7051 174.795C77.6263 174.526 77.6263 174.258 77.7051 173.989L77.745 173.902C77.8255 173.638 77.9711 173.409 78.1816 173.215C78.3935 173.022 78.6434 172.888 78.9311 172.814ZM113.632 119.428C113.728 119.327 113.884 119.456 113.824 119.564C112.914 121.2 111.899 122.824 110.902 124.418C110.982 124.86 111.061 125.298 111.152 125.726C111.541 127.547 112.017 129.335 112.327 131.174C113.442 137.782 114.021 144.462 114.517 151.129C115.016 157.821 115.079 164.515 115.154 171.22C115.161 171.801 114.673 172.476 114.02 172.585C113.721 172.636 113.497 172.626 113.198 172.585C112.518 172.494 112.093 171.78 112.064 171.22C111.869 167.472 111.607 163.73 111.303 159.989C110.764 153.356 110.435 146.706 110 140.066L109.847 137.745C109.682 135.231 109.532 132.715 109.483 130.196C109.45 128.528 109.548 126.86 109.488 125.194C109.432 123.655 109.262 121.982 109.632 120.471C109.646 120.414 109.744 120.4 109.772 120.454C110.157 121.196 110.4 122.003 110.588 122.827C111.579 121.678 112.589 120.526 113.632 119.428ZM48.6874 78.7873C48.8266 78.7782 48.821 78.9699 48.6874 78.9841C46.7416 79.191 44.862 79.9169 43.0248 80.5338L42.8674 80.5864C41.0113 81.2038 39.2017 81.9217 37.4602 82.7774C34.0553 84.4505 30.9286 86.6079 28.1642 89.0776C17.1273 98.9366 12.0975 113.154 8.41186 126.514C6.36406 133.937 4.90785 141.485 3.96399 149.092C3.49728 152.854 3.16733 156.63 2.97497 160.412C2.87651 162.35 2.8144 164.29 2.78849 166.23C2.77512 167.224 2.77121 168.218 2.77251 169.212C2.77316 169.667 2.86184 170.241 2.72899 170.683C2.60575 171.092 2.2582 171.453 2.00112 171.795C1.69645 172.2 1.14888 172.178 0.839966 171.795L0.726051 171.655C0.396593 171.254 0.0742328 170.871 0.0271721 170.348C-0.0231996 169.786 0.0123378 169.208 0.0100556 168.644C0.00483911 167.508 0.0201626 166.372 0.0449409 165.236C0.0927043 163.06 0.186275 160.884 0.325327 158.71C0.607669 154.299 1.07243 149.898 1.73785 145.521C2.92069 137.743 4.69364 130.039 7.01596 122.479C9.20688 115.348 11.8024 108.238 15.4999 101.632C18.933 95.4992 23.4368 89.7937 29.3797 85.5074C32.1433 83.5141 35.1517 81.8529 38.3952 80.602C40.0311 79.971 41.7489 79.4559 43.496 79.1622C45.2236 78.8719 46.9437 78.9124 48.6874 78.7873ZM79.266 160.209C79.5746 160.207 79.9188 160.27 80.1835 160.426L80.5372 160.677C80.6331 160.789 80.7284 160.903 80.8235 161.016C81.0447 161.28 81.074 161.708 81.0279 162.023C81.0175 162.233 80.9493 162.429 80.8235 162.61L80.5542 162.93C80.2953 163.123 80.0795 163.261 79.766 163.354C79.6021 163.403 79.4443 163.413 79.287 163.406L79.2346 163.403L79.266 163.406L79.2109 163.401C79.1598 163.397 79.1084 163.392 79.0569 163.385C79.0218 163.381 78.9866 163.379 78.9516 163.374C78.9178 163.372 78.8852 163.371 78.8512 163.373C78.4528 163.408 78.0522 163.201 77.7694 162.963C77.5146 162.748 77.2859 162.294 77.3214 161.971L77.3366 161.836C77.3634 161.609 77.3855 161.52 77.4905 161.292C77.5925 161.069 77.7352 160.874 77.9293 160.708C78.301 160.391 78.756 160.213 79.266 160.209ZM78.0328 143.579C78.5616 143.051 79.4698 143.012 80.1256 143.331C80.2853 143.409 80.432 143.534 80.5729 143.639C80.9278 143.902 81.0671 144.376 81.0867 144.776C81.1061 145.171 80.8787 145.641 80.5729 145.914L80.4987 145.98C80.316 146.142 80.0542 146.284 79.7986 146.327C79.3863 146.397 79.0401 146.395 78.6562 146.246C78.3263 146.118 78.0421 145.913 77.8487 145.635L77.8173 145.588C77.804 145.568 77.7915 145.549 77.7797 145.528L77.7627 145.498C77.3952 144.85 77.494 144.117 78.0328 143.579ZM78.3067 126.861C78.5452 126.792 78.7835 126.783 79.022 126.832C79.1839 126.832 79.3348 126.87 79.4747 126.944C79.6266 126.983 79.7587 127.053 79.8705 127.155C80.0051 127.228 80.1126 127.327 80.1923 127.45C80.3509 127.609 80.4578 127.795 80.5134 128.009L80.5773 128.447L80.5134 128.884L80.3325 129.277C80.2828 129.336 80.2327 129.396 80.1822 129.455C80.1023 129.579 79.9947 129.678 79.8596 129.751C79.7717 129.831 79.671 129.891 79.5583 129.932C79.1589 130.195 78.6268 130.28 78.1536 130.161C77.8726 130.089 77.6285 129.958 77.4217 129.77C77.2161 129.58 77.0738 129.356 76.9952 129.099L76.9628 128.893C76.9211 128.617 76.9144 128.465 76.9996 128.114C77.037 127.96 77.1454 127.742 77.2021 127.651C77.4447 127.26 77.841 126.992 78.3067 126.861ZM99.0149 114.834C99.6997 114.829 100.384 114.83 101.069 114.837L101.583 114.844C102.443 114.856 103.179 114.775 103.855 115.322C104.346 115.719 104.13 116.384 103.664 116.684C102.958 117.136 102.073 116.909 101.262 116.859C100.406 116.806 99.5503 116.762 98.6938 116.727C97.0354 116.659 95.3764 116.616 93.7164 116.609C92.06 116.603 90.4012 116.617 88.745 116.642C87.0597 116.667 85.305 116.811 83.6292 116.651C83.399 116.629 83.3472 116.351 83.5744 116.279C85.1536 115.778 86.93 115.616 88.5849 115.424C90.2918 115.227 91.9987 115.087 93.7164 114.996C95.4808 114.903 97.2477 114.845 99.0149 114.834ZM78.3035 109.915L78.3601 109.916C78.6615 109.917 78.9436 109.982 79.2066 110.111L79.2627 110.14L79.6246 110.396C79.8461 110.6 79.9995 110.841 80.0843 111.119L80.1482 111.555C80.1576 111.781 80.1061 111.991 79.9943 112.186C79.9221 112.39 79.7988 112.565 79.6246 112.714C79.4625 112.874 79.2707 112.987 79.0491 113.053C78.8523 113.148 78.6416 113.195 78.4166 113.195L78.3601 113.194C78.0374 113.193 77.7365 113.119 77.4578 112.97L77.0957 112.714C76.8742 112.509 76.7208 112.268 76.636 111.991L76.5719 111.555C76.5628 111.329 76.614 111.119 76.7262 110.923C76.7982 110.72 76.9214 110.544 77.0957 110.396C77.2577 110.236 77.4494 110.123 77.6713 110.057C77.868 109.962 78.0787 109.915 78.3035 109.915ZM83.6046 71.408C83.9898 70.8965 84.688 71.3514 84.5881 71.7626C84.6145 72.9177 84.6789 74.0386 84.9656 75.1701C85.0968 75.688 85.2688 76.2066 85.534 76.6811L85.6454 76.8809C85.9888 77.5026 86.2553 78.089 85.7929 78.7712C85.575 79.0928 85.1811 79.3343 84.7542 79.3174C82.8608 79.2425 82.6006 76.8265 82.4855 75.4778C82.3668 74.0887 82.7359 72.5621 83.6046 71.408Z" fill="black"/>
<path fill-rule="evenodd" clip-rule="evenodd" d="M43.8465 15.4617C44.6919 14.63 45.7732 14.0105 46.9552 13.8124C45.8748 14.3072 44.8186 14.823 43.8465 15.4617ZM42.1906 22.6325C42.0411 21.9987 41.9407 21.3588 41.9091 20.7191C42.098 20.9824 42.3998 21.1583 42.7387 21.2491C42.5197 21.6985 42.3336 22.1615 42.1906 22.6325ZM98.7601 32.5694C97.7843 28.8458 93.2317 21.6834 92.1556 20.3049C90.9871 16.8915 97.36 14.1541 93.8941 11.4849C92.3249 10.2805 90.2511 9.85431 88.3056 9.42721C74.8357 6.46168 60.3635 7.95729 47.8707 13.4106C45.9704 13.044 43.9906 13.7604 42.6087 15.0187C36.1167 21.0006 44.9641 31.7936 46.8988 38.5374C50.2181 46.0568 43.3806 47.3217 44.1139 53.6839C44.6836 56.9708 48.3151 57.8395 51.3796 58.3362C51.8708 58.4416 52.5274 58.4574 52.6859 58.9334C53.1824 61.7117 54.8846 64.3593 57.1699 66.1562C56.9701 66.699 57.1226 67.3579 57.8273 67.8346C64.2123 72.1844 72.2632 74.3613 80.2268 73.97C89.7172 73.5036 94.6251 68.517 95.8094 67.233C102.358 59.1262 101.575 48.43 100.239 38.7687C99.3088 32.0384 100.489 39.1658 98.7601 32.5694Z" fill="white"/>
<path fill-rule="evenodd" clip-rule="evenodd" d="M69.4969 1.58518C69.7952 0.730366 70.6396 0.216285 71.6063 0.322388C72.4621 0.415043 73.3783 1.19364 73.274 2.05293C73.2544 2.21881 73.2283 2.37423 73.1973 2.52068L73.2014 2.52199L73.2055 2.52218L73.1843 2.57897C73.1207 2.85245 73.0327 3.09753 72.9023 3.32917C72.736 3.77301 72.5763 4.21835 72.4181 4.66518C72.6464 4.65621 72.8795 4.66817 73.1158 4.70852C73.3604 4.13466 73.6065 3.5623 73.851 2.98694C74.1135 2.37274 74.2977 1.58368 74.8161 1.10845C75.4796 0.501719 76.6304 0.376188 77.439 0.80957C78.2932 1.26686 78.598 2.07983 78.4122 2.95108C78.3178 3.39549 77.9939 3.70476 77.5931 3.89908L77.5499 3.91946L77.2418 4.58896C77.3363 4.5516 77.4341 4.51723 77.5401 4.48884C77.7063 4.44401 77.8694 4.41561 78.0291 4.40366C78.4693 3.67288 78.9534 2.96303 79.4539 2.26663C80.0293 1.46562 81.1541 1.12489 82.098 1.6315C82.9424 2.08431 83.3956 3.27387 82.7908 4.05546C82.3311 4.64874 81.8958 5.25398 81.4671 5.8652C81.5405 5.87716 81.6138 5.8921 81.6839 5.91153C81.7165 5.87118 81.7507 5.83083 81.7866 5.79048C82.2545 5.25847 82.7989 4.85945 83.3581 4.41711C83.8814 4.00166 84.1226 3.34859 84.8105 3.03327C85.6762 2.63725 86.7195 2.82704 87.2346 3.6161C88.3398 5.30629 86.4847 6.54068 85.298 7.56436C86.3298 6.97406 87.4041 6.43458 88.5061 5.96832C89.1256 5.70679 89.7548 5.45423 90.3938 5.23605C91.3409 4.91325 92.1071 5.01652 92.8847 5.61713C93.2319 5.88612 93.4047 6.47358 93.2449 6.86497C92.9352 7.61517 92.4462 8.07097 91.5887 8.28766C90.9856 8.44009 90.3677 8.5432 89.7646 8.70311C88.7539 8.96912 87.7725 9.29341 86.8205 9.69839C86.889 9.73725 86.9542 9.77909 87.0145 9.82691C87.7253 9.6162 88.449 9.43388 89.1761 9.27846C90.3819 9.01927 91.6092 8.84414 92.8419 8.73461L93.2514 8.69966C94.7292 8.56965 96.5062 8.32972 97.4132 9.62666C97.7116 10.0541 97.7442 10.7594 97.4132 11.1824C96.7807 11.9953 96.1515 12.1567 95.105 12.1717C96.1352 12.2718 97.1638 12.3958 98.1876 12.5408C98.8932 12.6394 99.5988 12.7512 100.301 12.8753L100.652 12.9383C101.508 13.0952 102.463 13.1864 103.199 13.6407C104.803 14.633 104.05 16.5653 102.273 16.7715C101.414 16.8701 100.46 16.5369 99.6172 16.3815C98.7989 16.2305 97.9773 16.0975 97.1524 15.9809C96.7253 15.9197 96.2982 15.8659 95.8695 15.8166C96.7416 15.9316 97.6072 16.0945 98.45 16.3247L98.6841 16.3894C100.313 16.8446 102.513 17.5697 103.021 19.1656C103.329 20.1354 102.486 20.9813 101.466 21.0381C100.517 21.0904 99.7264 20.5718 98.9211 20.1892C98.3343 19.9113 97.7376 19.7036 97.1052 19.5257C96.4515 19.3419 95.7847 19.1895 95.1131 19.0654C95.6807 19.3521 96.2335 19.6672 96.7641 20.0196L97.008 20.1848C98.4183 21.1481 100.569 22.6396 100.072 24.4454C99.9155 25.0147 99.2227 25.5587 98.5576 25.5004C96.8264 25.3525 95.8711 23.6623 94.5654 22.7567C94.2247 22.5205 93.8514 22.2874 93.4601 22.0603C95.4391 24.2242 97.0139 26.7258 98.212 29.3097C100.845 34.9942 101.653 40.2584 101.672 46.3705L101.673 46.5598C101.676 49.9312 101.593 53.3639 101.234 56.7204C100.902 59.8213 100.292 62.8819 98.7581 65.6901C96.1874 70.3988 91.1779 74.0661 85.6533 75.4619C79.506 77.0161 72.6349 75.8012 67.5994 72.2146C66.3148 71.3 68.0184 69.314 69.3306 70.1582C74.5716 73.5282 81.3497 74.5952 87.365 72.3147C92.1364 70.5064 95.9787 66.6165 97.6072 62.1377C98.6438 59.2884 98.9456 56.2503 99.3153 53.2808L99.3401 53.083C99.7313 49.9776 99.9579 46.8512 99.9547 43.7249C99.9498 37.9191 99.0401 33.1399 96.2542 27.8736C94.9436 25.3928 93.2433 23.099 91.2122 21.0859C90.596 21.201 89.9406 21.0396 89.3179 20.9783C89 20.9469 88.6822 20.917 88.3643 20.8901C88.689 21.0826 89.0075 21.2827 89.3205 21.4875L89.7311 21.759C91.0159 22.6025 92.646 23.5633 92.3158 25.1941C92.2261 25.6349 91.7468 26.0399 91.2822 26.14C89.5983 26.5077 88.4409 25.0073 87.3031 24.1166C86.3135 23.3425 85.2784 22.6491 84.2237 21.9542C83.9841 21.7972 83.7428 21.6403 83.4999 21.4849C83.7281 21.7288 83.9501 21.9765 84.1666 22.2265L84.4868 22.5985C85.4555 23.7096 86.8519 25.1539 85.9891 26.5943C85.7446 27.0008 85.223 27.2713 84.7176 27.2623C82.9799 27.2295 82.2887 25.4212 81.4736 24.2795C80.7727 23.3006 80.0114 22.3786 79.224 21.4565C79.0072 21.204 78.7888 20.9514 78.5671 20.6988C74.9172 20.8722 71.2803 21.3145 67.707 22.0214C65.252 22.5071 62.8377 23.1364 60.4414 23.8252L60.2423 23.8832C58.9454 24.266 57.6092 24.7559 56.6741 25.5961C56.5407 26.1749 56.6431 26.7853 56.7708 27.3634L56.8703 27.8058C57.2803 29.656 57.5597 31.472 57.3506 33.3715C57.1338 35.3307 56.4899 37.0926 55.7042 38.9129C55.3325 39.7707 54.9478 39.6152 54.8158 40.5358C54.7146 41.237 54.7772 41.9608 54.8463 42.6679L54.904 43.2673C55.0489 44.8375 55.1217 46.5494 53.9991 47.845C53.8246 48.0438 53.4513 47.9646 53.3274 47.7658C53.2785 47.6866 53.2264 47.6104 53.1693 47.5372C52.6281 46.8183 51.7984 46.4089 50.8496 46.2505C50.729 46.231 50.7762 46.0831 50.8773 46.0711C51.6794 45.9845 52.439 46.1683 53.0845 46.5479C52.7784 45.5774 50.4085 46.0494 49.6294 46.2379L49.6025 46.2445C48.631 46.4836 47.7116 46.8721 46.9014 47.4221C45.2712 48.528 44.329 50.2525 44.3763 52.1101C44.4235 53.9363 45.4522 55.6235 47.2193 56.4977C48.0718 56.9191 49.0418 57.1224 50.0068 57.1134C51.0142 57.1045 51.9108 56.6995 52.9199 56.7563C53.5035 56.7891 53.9502 57.363 53.6127 57.8636C53.3878 58.1984 53.0943 58.4614 52.7553 58.6631C53.5817 60.4101 54.6364 62.0764 55.8525 63.6142C56.5258 64.4675 57.2887 65.255 58.1282 65.9738C58.7836 66.5358 60.2034 67.1858 60.1235 68.1228C60.0958 68.4606 59.9051 68.6668 59.5693 68.7923C58.5252 69.1836 57.2557 67.8363 56.5574 67.1868L56.5013 67.135C55.6308 66.34 54.837 65.4613 54.1458 64.5287C52.9199 62.8729 52.1586 61.0064 51.844 59.0457C50.1698 59.5075 47.9528 59.0741 46.5868 58.5077C42.2929 56.7294 40.8894 51.4286 43.4993 47.8988C44.0046 47.2159 44.6371 46.6315 45.3576 46.1593C45.1995 46.0801 45.0512 45.9785 44.9191 45.85C44.1887 45.1387 43.6723 44.2105 43.1597 43.3549L43.0982 43.2527C42.6432 42.4995 42.214 41.7345 41.8117 40.9577L41.6621 40.6658C40.7639 38.8949 39.9765 38.1208 39.3358 36.2588C38.7196 34.4625 38.2339 32.6318 37.9192 30.7697L37.8356 30.2769C37.6537 29.1964 37.4816 28.041 37.6144 26.944C36.6999 27.2175 35.7805 27.3864 34.8758 26.9754C34.2791 26.7049 33.9498 25.9159 34.1536 25.3495C34.3019 24.9325 34.5497 24.6053 34.8643 24.3482C34.6769 24.2615 34.5008 24.151 34.346 24.0284L34.2106 23.921C33.6629 23.4844 33.6238 22.655 33.9563 22.1081C33.9889 22.0558 34.0216 22.002 34.0525 21.9497C34.3688 21.4311 35.0225 21.0919 35.668 21.1008C35.7723 21.1023 35.8767 21.1023 35.9826 21.1008C35.681 21.0396 35.386 20.9454 35.1056 20.787C33.8406 20.0742 34.0004 18.1419 35.5311 17.8012C36.1734 17.6592 36.8825 17.7175 37.59 17.8699C37.5639 17.8564 37.5378 17.843 37.5117 17.8281C36.977 17.5277 36.5287 16.9404 36.5793 16.3381C36.6347 15.6716 36.8694 15.1964 37.5117 14.8467C38.0692 14.5448 38.8582 14.5164 39.4125 14.8467C39.8934 15.1351 40.3645 15.4534 40.8177 15.7956C40.3628 15.283 39.9683 14.7256 39.8086 14.1338C39.6113 13.3971 39.9406 12.5946 40.6644 12.206C41.2415 11.8967 41.8512 11.9311 42.3956 12.1702C42.3663 11.7831 42.469 11.3886 42.7494 11.0389C43.3232 10.3217 44.3665 9.90911 45.2745 10.4322C45.3935 10.5009 45.5532 10.619 45.7081 10.7639C45.4065 9.8837 45.6788 8.96015 46.7074 8.56263C47.335 8.31904 48.1843 8.44158 48.7288 8.86152C48.3832 7.14741 51.143 5.88762 52.2157 7.65851C52.4591 8.05968 52.7 8.4821 52.9154 8.91423L52.9949 9.07671L53.003 9.07372L52.9482 8.95492L52.8922 8.83611C52.5939 8.20098 52.214 7.54045 52.1097 6.85152C51.9565 5.83232 52.452 4.86543 53.6616 4.71599C54.286 4.63828 54.9804 4.89831 55.3994 5.35276C55.1728 3.77152 57.0996 2.6223 58.4869 3.8029C59.1438 4.36181 59.4943 5.17926 59.9116 5.89658C60.148 6.30157 60.3892 6.70507 60.6256 7.11155C60.6859 7.04579 60.7511 6.98004 60.8196 6.91578C60.4691 5.95337 60.1969 4.96705 59.967 3.97476C59.7486 3.03925 60.2588 2.06787 61.3119 1.80351C62.2688 1.56126 63.467 2.10239 63.6805 3.03641C63.8305 3.69381 64.0082 4.34403 64.2038 4.99096C64.3375 4.96108 64.4695 4.94015 64.5999 4.92521C64.6108 4.80366 64.6231 4.68145 64.6369 4.55991L64.6882 4.12761C64.8022 3.13989 64.9172 2.01234 65.4802 1.17271C66.4404 -0.261931 68.9019 0.332849 68.928 2.02902C68.9426 2.90624 68.553 3.776 68.4177 4.64426C68.3591 5.02235 68.3248 5.40492 68.3053 5.78749C68.5677 4.51723 68.928 3.26341 69.3453 2.02902C69.3942 1.88107 69.4464 1.73312 69.4969 1.58518ZM48.2593 50.5694C50.4192 50.263 52.3933 51.3674 53.673 52.9141C53.9061 53.1966 53.7529 53.5956 53.5426 53.8332C53.391 54.0081 53.1872 54.029 52.9574 54.0559C52.6933 54.0873 52.3591 53.8915 52.2434 53.6808C51.4201 52.1744 49.9514 51.2225 48.2593 50.6366C48.2283 50.6262 48.2185 50.5754 48.2593 50.5694ZM51.2535 23.5795L51.3189 23.5151C51.756 23.0995 51.0653 22.4646 50.6273 22.8811C50.1661 23.3196 49.8596 23.8522 49.5649 24.392C49.284 24.9067 50.1274 25.3613 50.4095 24.8447L50.5379 24.6098C50.7394 24.2447 50.9544 23.884 51.2535 23.5795ZM45.1876 22.7265C45.8071 22.6308 45.5444 21.7666 44.9276 21.8619C44.1285 21.9854 43.3325 22.1257 42.5332 22.2493C41.9139 22.3449 42.1765 23.2092 42.7934 23.114C43.5925 22.9904 44.3885 22.8501 45.1876 22.7265ZM82.089 16.8263C81.4906 16.6433 81.2338 17.509 81.829 17.691C82.6514 17.9425 83.4671 18.2003 84.2473 18.5496C84.8109 18.8018 85.3073 18.0288 84.7409 17.7753C83.8846 17.392 82.9918 17.1025 82.089 16.8263ZM45.0468 15.6643C44.4623 15.45 44.2085 16.3169 44.7867 16.5289L46.8994 17.3035C47.4838 17.5178 47.7376 16.651 47.1594 16.439L45.0468 15.6643ZM89.4661 13.559L89.389 13.5144C88.8592 13.1997 88.3684 13.9756 88.8952 14.2887C89.2045 14.4724 89.5806 14.5969 89.8638 14.8158L89.923 14.8642C90.3805 15.2602 91.0734 14.6274 90.6147 14.2301C90.2791 13.9396 89.8542 13.7779 89.4661 13.559Z" fill="black"/>
<path fill-rule="evenodd" clip-rule="evenodd" d="M87.381 63.7682C86.339 63.776 85.1677 63.4176 84.3845 63.1369L84.1802 63.0628C83.5023 62.8139 82.806 62.5281 82.2867 62.0486C82.1206 61.8927 81.9438 61.7164 81.854 61.5309C81.8014 61.4223 81.7796 61.3098 81.8304 61.1981C82.0182 61.1812 82.1961 61.1591 82.3647 61.1309C82.4449 61.1174 82.5218 61.1035 82.5808 61.1031C82.798 61.1019 83.0129 61.1272 83.2277 61.1521C83.2588 61.1557 83.2899 61.1593 83.321 61.1628C83.4882 61.1818 83.6546 61.2023 83.8207 61.2227C84.3037 61.2822 84.7843 61.3412 85.2744 61.3627C85.6282 61.3783 85.9993 61.36 86.3736 61.3414C87.3444 61.2929 88.3481 61.2268 89.0962 61.8502C89.292 62.0135 89.3739 62.2191 89.3739 62.4286C89.3739 62.6832 89.2571 62.9423 89.0788 63.1456C88.675 63.6059 88.0535 63.7632 87.381 63.7682ZM93.0625 55.7402C92.6092 56.3636 91.854 56.7645 90.8192 56.7209C88.7625 56.6347 86.3079 55.9234 84.5853 54.8948C84.1367 54.627 83.8459 54.1988 83.7937 53.7401L83.7009 52.924L83.1994 53.6036C83.1471 53.6744 83.0944 53.745 83.0417 53.8157C82.8965 54.0102 82.7514 54.2047 82.6145 54.4041C82.089 55.1695 81.6073 55.9426 81.1698 56.7534C80.8601 57.3276 80.6337 57.9697 80.4066 58.6176C80.0233 59.7114 79.653 60.7872 78.8339 61.556C78.7101 61.6722 78.5197 61.7139 78.3455 61.6933C78.1919 61.6752 78.0414 61.6061 77.9676 61.4686C76.989 59.6443 78.3053 57.4458 79.373 55.9174L79.4859 55.7578C80.476 54.3767 82.093 52.5489 83.9448 52.3004L84.1568 52.6104L84.4651 52.4219C84.9692 52.1137 85.6346 52.128 86.2172 52.3692L86.7999 52.6102C87.8844 53.0564 88.9543 53.4681 90.1277 53.6936C90.2132 53.71 90.2987 53.7254 90.384 53.7396C90.4645 53.7531 90.5455 53.7657 90.6269 53.7773C90.6094 53.704 90.5906 53.631 90.5718 53.5582C90.552 53.4812 90.5319 53.404 90.5105 53.327C90.4883 53.2476 90.4646 53.1685 90.441 53.0898C90.347 52.7761 90.2408 52.4651 90.1149 52.1606C89.6411 51.016 88.8846 49.9455 88.1486 48.9245L88.0619 48.8044C87.9564 48.6581 87.8409 48.5054 87.7213 48.3475C87.1473 47.5898 86.5108 46.7675 86.4657 45.942C87.2276 45.986 87.8651 46.4199 88.4263 46.7977C89.1965 47.3159 89.9103 47.9084 90.5577 48.5521C91.8136 49.8009 92.9408 51.3974 93.4351 53.0477C93.7181 53.9928 93.5936 55.0096 93.0625 55.7402ZM72.9684 46.3253L72.9682 46.2916C72.9705 45.3387 73.5759 43.1628 75.0724 43.1628C76.0073 43.1628 76.5749 44.6436 76.6732 46.1701L76.6766 46.2324C76.72 47.1814 76.4359 49.2558 75.0724 49.2558C73.6945 49.2558 72.9826 47.2911 72.9684 46.3253ZM95.0008 46.0264L95.001 45.9927C94.9987 45.0398 94.3933 42.864 92.8968 42.864C91.9852 42.864 91.4229 44.2716 91.3043 45.7569L91.296 45.8712C91.237 46.7882 91.5027 48.9569 92.8968 48.9569C94.2746 48.9569 94.9866 46.9922 95.0008 46.0264ZM78.0083 39.876C77.81 39.8973 77.6127 39.9252 77.4155 39.9539C76.84 40.038 76.2677 40.1389 75.6993 40.2564C74.6197 40.4799 73.5487 40.762 72.4983 41.0808C71.5153 41.3792 70.5476 41.7165 69.5802 42.0537C69.5285 42.0717 69.4769 42.0897 69.4253 42.1077C69.0837 42.2268 68.7432 42.3601 68.4018 42.494C67.882 42.6977 67.3599 42.9028 66.8271 43.0573C68.2308 41.2781 70.3938 39.9597 72.4751 39.0163C73.6625 38.4781 74.9223 38.044 76.1895 37.6884L76.8953 37.494C77.9344 37.2129 79.0706 36.9533 80.0468 37.5137C80.4329 37.7354 80.6792 38.0799 80.7568 38.4524C80.8329 38.8177 80.7461 39.2093 80.471 39.5362C80.2312 39.8209 79.9325 39.9831 79.6146 40.0387C79.2637 40.1 78.8918 40.0326 78.5532 39.8669C78.282 39.8484 78.202 39.8551 78.1217 39.8632L78.0083 39.876ZM93.6411 40.057C92.9456 39.9184 92.2569 39.8628 91.5434 39.8827C91.2207 39.8916 90.9085 39.9373 90.5972 39.9833C90.1136 40.0547 89.632 40.1285 89.111 40.0418C88.8392 39.9966 88.6077 39.8508 88.4289 39.6606C88.2199 39.4382 88.0816 39.1539 88.0372 38.8837C87.9914 38.6045 88.037 38.3603 88.1497 38.1447C88.2828 37.89 88.5071 37.6753 88.7781 37.4873C89.5982 36.9181 91.0054 37.055 91.9733 37.1701C92.9297 37.2841 93.8809 37.5559 94.7264 37.9878C95.5606 38.414 96.2857 38.9882 96.8516 39.6901C97.3286 40.2816 97.5532 40.9625 97.7852 41.6557C96.6939 40.8164 95.0237 40.3321 93.6411 40.057Z" fill="black"/>
<path fill-rule="evenodd" clip-rule="evenodd" d="M91.5487 60.5162C91.9953 60.9361 92.4241 61.3859 92.8283 61.8507C92.9408 62.589 92.9669 63.3362 92.8642 64.1073C92.7142 65.2251 92.3817 66.3175 91.9317 67.3666C91.666 67.3323 91.4036 67.2635 91.1476 67.1559C90.3358 66.8137 89.8826 66.1248 89.3333 65.5165C88.2395 64.3075 86.2442 63.5932 84.8487 64.847C84.2423 65.3925 83.8543 66.1472 83.3131 66.7464C82.7181 67.4055 82.0498 68.0316 81.3521 68.5995C81.2657 68.6713 81.176 68.749 81.0831 68.8252C80.6951 68.4187 80.3137 68.0092 79.9404 67.5938C78.8302 66.3564 77.8717 64.986 77.368 63.4408C77.2082 62.9506 77.1088 62.4395 77.0697 61.9239C77.5636 61.362 78.1276 60.8509 78.7683 60.428C80.7 59.1503 82.9252 58.9426 85.24 58.832C87.6347 58.7184 89.7914 58.8678 91.5487 60.5162ZM97.3911 66.4446C97.2982 65.5898 97.1548 64.7006 96.9428 63.8129C96.1685 60.5192 94.4911 57.2359 91.1281 55.7311C89.5371 55.0182 87.7292 54.7671 86.0143 55.1109C83.005 54.0782 79.6632 55.1318 77.2946 57.0207C74.5005 59.2489 73.2111 62.7459 72.7775 66.0216C72.4759 68.3006 72.3623 71.3455 73.0676 72.9991C73.773 74.6527 78.2558 79.0745 84.6547 79.1053C93.7689 79.1491 95.9843 73.5147 96.2533 73.0215C97.3765 70.9712 97.6373 68.7071 97.3911 66.4446Z" fill="black"/>
<path fill-rule="evenodd" clip-rule="evenodd" d="M100.787 50.2344C99.2908 51.9484 93.4325 53.8509 90.3146 51.7856C87.1967 49.7204 85.9646 48.2811 85.5478 45.7005C85.5034 45.4253 84.9607 45.2423 84.7312 45.4376C83.4465 46.5316 82.6149 47.9249 81.7909 49.3218C80.8617 50.8972 79.9464 52.4823 78.2577 53.5488C75.2666 55.0186 69.8555 55.228 68.2569 54.5796C65.1945 53.3377 62.772 50.6815 62.2211 47.0261C61.8475 45.9452 61.4971 45.291 61.1699 45.0636C60.7046 44.7401 58.1367 44.452 57.8554 44.4042C52.7857 43.5418 46.374 42.9921 41.8586 46.026C41.2476 46.3646 39.1556 47.6367 39.1242 47.3239C39.1028 46.0986 40.6175 43.3254 44.0623 42.0058C48.3222 40.3739 54.6545 40.2785 58.323 40.6386C58.5075 40.6567 59.1364 40.515 59.1808 40.4974C64.7386 38.2915 71.1335 38.8774 77.0803 39.8045C77.9324 39.9561 85.561 41.6877 88.5954 40.6386C93.6124 38.761 98.9614 37.4007 104.379 37.9359C104.424 37.9404 105.108 41.7461 104.576 42.0058C104.152 42.2124 103.43 42.7418 103.174 43.0316C102.945 43.2906 102.8 43.6126 102.813 44.0587C102.916 46.6395 102.113 48.716 100.787 50.2344ZM80.1594 47.9317C80.7956 47.0881 80.9963 45.193 80.73 43.8105C80.5951 43.1104 80.3333 42.5533 80.0047 42.2759C79.7863 42.0915 79.537 42.0047 79.2653 42.0176C79.1162 42.0247 78.9548 42.0635 78.7839 42.148C76.4702 41.0007 73.6673 40.5876 71.0103 40.7064C68.8952 40.706 67.3862 41.1637 66.3628 41.8761C65.1315 42.7333 64.5767 43.9656 64.5446 45.3021C64.5065 46.8879 65.2171 48.6228 66.3828 49.9956C67.4985 51.3095 69.0248 52.2836 70.6806 52.5083C72.5603 52.8504 74.4757 52.5195 76.1412 51.71C77.8493 50.8797 79.2921 49.5463 80.1594 47.9317ZM98.7071 48.8263C99.7792 47.6649 100.492 46.154 100.601 44.657C100.699 43.2946 100.301 41.9451 99.2011 40.8298C98.2036 40.0449 96.441 40.0319 94.5867 40.469C92.1891 41.0342 89.7087 42.2972 88.8819 43.113C88.6871 43.2066 88.5063 43.3696 88.3488 43.7193L88.3477 43.844C88.0972 44.903 88.2458 45.9777 88.6791 46.9691C89.1498 48.046 89.957 49.0236 90.9413 49.7696C92.2489 50.7571 93.614 51.0594 94.8916 50.8999C96.3389 50.7193 97.6846 49.934 98.7071 48.8263Z" fill="white"/>
<path fill-rule="evenodd" clip-rule="evenodd" d="M88.4227 40.219C93.5031 38.3175 98.9336 36.9469 104.431 37.49C104.886 37.3314 105.45 37.465 105.652 38.0544C107.61 43.5233 103.243 42.0024 103.302 44.0468C103.76 55.5094 86.9536 57.467 85.064 45.766L85.0292 45.7848C82.3105 48.1106 81.7378 51.8952 78.535 53.9179C72.0743 58.2495 62.9157 54.8175 61.7394 47.1063L61.7138 47.002C61.3189 45.4283 60.8468 45.038 58.8994 45.0458L58.5917 44.9898C53.5319 44.0759 46.794 43.2546 42.1336 46.3975C41.12 46.9379 41.0724 48.3271 40.2159 48.9307C39.2776 49.0978 38.6995 48.0632 38.6359 47.3472C38.4873 40.2094 52.4202 39.6959 58.6601 40.3085C58.7792 40.1954 59.0337 40.2094 59.1194 40.3503C64.7627 38.1105 71.1205 38.4204 77.1628 39.3624C80.9058 40.0266 84.6026 41.5397 88.4227 40.219ZM103.926 38.8078C100.877 38.6681 98.0572 38.8209 95.0649 39.4927C93.4879 39.8415 92.2777 40.2825 90.7682 40.8128C81.3528 44.6369 80.2667 37.8395 59.1615 40.5041C59.4346 41.5762 59.4848 42.6377 59.4994 43.6449C63.8087 43.4857 62.7941 47.2579 64.4086 49.9075L64.4584 49.9874C66.8113 53.8532 72.3636 55.6563 76.8424 53.0922C80.5791 51.0957 80.9436 46.0318 84.6639 44.0221C87.8888 43.9059 86.6007 47.896 88.3557 49.5359C90.8261 52.5578 96.0769 52.9803 99.1745 50.1379C100.628 48.7702 101.4 47.0337 101.443 45.168C101.524 43.9761 101.301 42.7649 102.284 41.9265C102.973 41.2848 104.197 41.4989 104.338 40.5289C104.427 39.9553 104.167 39.3332 103.926 38.8078ZM70.7943 40.3701C73.8227 40.2334 77.0269 40.7155 79.6271 42.077C81.5519 40.6729 82.0235 46.2533 80.7459 47.8675C78.9053 51.3199 74.6201 53.5898 70.4941 52.836C64.0572 51.9809 59.5724 40.3598 70.7943 40.3701ZM79.4423 42.4512L79.2776 42.4292C76.488 42.039 68.8923 40.2312 65.9627 43.0844C63.1196 47.8171 70.3325 55.7665 77.8385 49.4347C79.9276 47.4849 80.7373 45.1206 79.4423 42.4512ZM88.2825 43.0561C89.7272 41.488 97.0897 38.3118 99.6561 40.35C104.34 45.1622 96.9119 54.8958 90.6902 50.1536C88.618 48.5684 87.2547 46.0428 87.8513 43.5972L87.8523 43.4947C87.8535 43.4575 87.8611 43.466 87.9045 43.4197C87.9813 43.2348 88.1195 43.1168 88.2825 43.0561ZM99.5907 45.9728C101.17 38.1185 94.5684 41.1044 89.1465 43.2008C89.4375 43.4445 89.4362 43.7773 89.3525 44.0508C88.7807 49.8784 96.5071 53.1808 99.5907 45.9728ZM58.5505 40.6902C56.289 41.3922 41.3306 40.1366 39.9487 46.5647C41.4074 44.3983 44.4284 43.5385 47.1442 43.072C50.8383 42.4373 54.5122 42.8048 58.1544 43.4726L58.2296 42.7816C58.3104 42.0486 58.3956 41.3629 58.5505 40.6902Z" fill="black"/>
</svg>
