<svg width="285" height="384" viewBox="0 0 285 384" fill="none" xmlns="http://www.w3.org/2000/svg">
<path fill-rule="evenodd" clip-rule="evenodd" d="M66.4623 341.103C74.8335 341.129 82.9677 341.415 91.3625 341.443C125.487 341.557 159.925 341.391 194.174 340.01C203.854 339.62 206.27 339.63 215.908 339.024C221.599 339.003 238.693 338.534 237.837 330.795C237.459 316.381 233.885 302.028 232.759 287.653C230.598 260.63 228.758 232.762 217.909 207.486C215.398 201.45 210.004 197.503 204.665 193.954C199.311 190.124 197.997 185.873 193.056 181.547C192.011 180.632 186.077 180.26 182.885 177.94C178.238 174.563 175.933 169.034 174.2 168.093C172.924 167.401 172.947 162.623 170.39 160.932C166.959 158.663 156.025 156.976 152.047 156.66C148.229 156.357 141.588 156.993 138.006 158.389C132.032 160.717 129.649 165.158 127.018 170.879C92.2593 181.605 60.4891 199.767 50.6224 236.402C42.1138 267.128 41.802 300.068 45.089 331.58C45.7466 333.884 45.2857 337.497 47.2802 339.024C40.3489 339.421 65.522 340.848 66.4623 341.103Z" fill="white"/>
<path fill-rule="evenodd" clip-rule="evenodd" d="M224.558 310.765C223.9 310.437 223.214 310.062 222.463 310.036C221.173 309.991 221.171 307.987 222.463 308.032C223.59 308.071 224.579 308.54 225.571 309.034C226.728 309.611 225.71 311.339 224.558 310.765M222.463 254.359C223.344 254.36 224.231 254.471 224.907 255.085C225.309 255.451 225.277 256.133 224.907 256.502C224.511 256.897 223.888 256.867 223.488 256.502C223.618 256.621 223.489 256.503 223.441 256.477C223.43 256.471 223.424 256.467 223.421 256.464C223.411 256.462 223.401 256.46 223.384 256.455C223.28 256.429 223.176 256.403 223.07 256.384C223.068 256.389 222.846 256.369 222.794 256.367C222.683 256.363 222.573 256.363 222.463 256.363C221.919 256.363 221.46 255.905 221.46 255.361C221.46 254.82 221.921 254.359 222.463 254.359M213.026 276.837C212.739 278.096 210.804 277.559 211.091 276.304C211.508 274.479 211.432 272.609 211.091 270.777C210.856 269.514 212.791 268.978 213.026 270.244C213.435 272.441 213.527 274.647 213.026 276.837M210.491 204.819C208.997 204.464 207.518 204.422 205.989 204.422C204.696 204.421 204.698 202.417 205.989 202.418C207.695 202.418 209.359 202.491 211.025 202.886C212.283 203.185 211.747 205.116 210.491 204.819M205.483 253.629C204.616 253.196 203.749 252.763 202.882 252.33C201.725 251.753 202.743 250.025 203.895 250.6L206.496 251.899C207.652 252.476 206.635 254.204 205.483 253.629M205.122 293.091C204.022 294.674 202.476 295.658 200.621 296.149C199.369 296.48 198.839 294.547 200.087 294.217C201.414 293.865 202.593 293.226 203.389 292.08C204.121 291.026 205.86 292.029 205.122 293.091M198.187 222.538C197.889 221.982 197.441 221.748 196.885 221.735C195.594 221.706 195.594 219.702 196.885 219.732C198.152 219.76 199.314 220.395 199.92 221.526C200.529 222.664 198.796 223.675 198.187 222.538M185.457 236.159C185.097 236.55 184.399 236.54 184.037 236.159C183.816 235.925 183.63 235.664 183.483 235.379C183.427 235.27 183.375 235.16 183.314 235.054C183.286 235.007 183.256 234.961 183.225 234.916C183.214 234.906 183.193 234.884 183.17 234.86C182.784 234.453 182.794 233.852 183.17 233.443C183.53 233.052 184.228 233.062 184.59 233.443C184.811 233.677 184.997 233.937 185.143 234.223C185.199 234.332 185.252 234.442 185.313 234.548C185.34 234.595 185.371 234.641 185.402 234.686C185.412 234.695 185.434 234.718 185.457 234.742C185.842 235.149 185.833 235.75 185.457 236.159M184.386 265.749C183.079 266.346 181.646 266.346 180.339 265.749C179.844 265.522 179.726 264.809 179.979 264.378C180.271 263.878 180.859 263.793 181.352 264.018C181.945 264.289 182.781 264.289 183.374 264.018C183.868 263.792 184.45 263.873 184.746 264.378C185 264.812 184.879 265.523 184.386 265.749M180.821 286.693C180.597 287.224 180.112 287.506 179.545 287.528C178.983 287.549 178.565 287.052 178.541 286.526C178.526 286.186 178.71 285.896 178.974 285.716C178.974 285.697 178.975 285.679 178.975 285.66C178.975 285.098 179.434 284.682 179.978 284.658C180.52 284.634 180.982 285.136 180.982 285.66C180.982 286.014 180.96 286.365 180.821 286.693M175.643 319.991C174.041 320.017 172.476 320.398 170.874 320.424C169.58 320.445 169.584 318.441 170.874 318.42C172.476 318.394 174.041 318.013 175.643 317.987C176.937 317.966 176.933 319.97 175.643 319.991M168.983 191.576C168.045 192.467 166.887 192.907 165.745 193.464C164.588 194.028 163.572 192.299 164.732 191.733C165.699 191.261 166.77 190.913 167.564 190.159C168.499 189.269 169.92 190.684 168.983 191.576M166.466 214.673C165.808 214.345 165.122 213.97 164.372 213.944C163.081 213.899 163.08 211.895 164.372 211.94C165.498 211.979 166.488 212.449 167.479 212.943C168.636 213.519 167.618 215.247 166.466 214.673M154.401 307.375C154.104 306.82 153.656 306.585 153.1 306.573C151.808 306.544 151.808 304.54 153.1 304.569C154.367 304.598 155.529 305.233 156.134 306.364C156.743 307.502 155.01 308.513 154.401 307.375M150.223 263.86C149.823 263.495 149.851 262.815 150.223 262.444C150.656 262.011 151.09 261.578 151.524 261.145C151.92 260.749 152.542 260.778 152.943 261.145C153.342 261.511 153.314 262.191 152.943 262.562C152.509 262.995 152.075 263.428 151.642 263.86C151.245 264.257 150.623 264.228 150.223 263.86M145.296 331.678C143.849 331.644 142.491 331.229 141.128 330.776C139.907 330.371 140.433 328.436 141.662 328.844C142.847 329.238 144.037 329.645 145.296 329.674C146.588 329.704 146.589 331.708 145.296 331.678M138.794 288.826C137.486 288.79 136.4 288.125 135.483 287.234C134.555 286.333 135.976 284.918 136.902 285.817C137.427 286.327 138.033 286.801 138.794 286.822C140.085 286.858 140.086 288.862 138.794 288.826M142.832 233.719C142.848 234.252 143.073 234.824 143.405 235.174C144.292 236.112 142.874 237.531 141.986 236.591C141.253 235.816 140.856 234.779 140.825 233.719C140.788 232.427 142.795 232.432 142.832 233.719M127.523 190.074C127.103 189.253 126.552 188.29 125.715 187.837C124.578 187.221 125.593 185.491 126.728 186.106C127.866 186.723 128.681 187.938 129.256 189.063C129.843 190.21 128.11 191.223 127.523 190.074M124.921 210.914C124.456 210.901 123.993 210.821 123.544 210.7C123.352 210.648 123.163 210.588 122.971 210.536C122.888 210.514 122.539 210.47 122.754 210.481C122.21 210.452 121.75 210.046 121.75 209.48C121.75 208.959 122.212 208.449 122.754 208.478C123.498 208.517 124.176 208.889 124.921 208.91C126.212 208.947 126.213 210.951 124.921 210.914M118.418 242.945H116.251C114.957 242.945 114.959 240.941 116.251 240.941H118.418C119.712 240.941 119.71 242.945 118.418 242.945M115.89 331.541C115.233 331.869 114.458 332.18 113.926 332.683C112.987 333.569 111.566 332.154 112.506 331.266C113.185 330.626 114.052 330.223 114.877 329.811C115.364 329.568 115.962 329.678 116.25 330.17C116.511 330.616 116.375 331.299 115.89 331.541M111.047 306.221C110.963 306.198 110.874 306.182 110.789 306.17C110.448 306.124 110.091 306.14 109.748 306.14C108.454 306.139 108.456 304.135 109.748 304.136C110.766 304.137 111.825 304.151 112.625 304.863C113.031 305.224 112.992 305.913 112.625 306.279C112.226 306.678 111.61 306.639 111.206 306.279C111.249 306.318 111.102 306.237 111.047 306.221M109.748 272.169C110.04 271.569 110.044 271.178 110.045 270.51C110.046 269.219 112.053 269.221 112.052 270.51C112.052 271.479 111.907 272.303 111.482 273.18C111.244 273.669 110.549 273.797 110.109 273.54C109.615 273.252 109.512 272.656 109.748 272.169M103.945 225.162C102.781 225.558 101.742 226.117 100.717 226.793C99.635 227.506 98.6307 225.77 99.704 225.062C100.874 224.292 102.084 223.681 103.412 223.23C104.64 222.813 105.162 224.749 103.945 225.162M97.1758 191.436C96.3111 191.46 95.4184 191.791 94.6477 192.165C93.4894 192.727 92.4731 190.998 93.6349 190.435C94.7358 189.901 95.9403 189.467 97.1758 189.432C98.4701 189.396 98.4646 191.4 97.1758 191.436M94.1412 281.468C93.801 281.483 93.5102 281.3 93.3301 281.036C93.3113 281.036 93.2927 281.035 93.2741 281.035C92.7117 281.035 92.2952 280.576 92.2706 280.033C92.2463 279.492 92.7493 279.031 93.2741 279.031C93.6284 279.031 93.9799 279.053 94.309 279.192C94.8406 279.416 95.1231 279.9 95.1447 280.466C95.166 281.027 94.6678 281.444 94.1412 281.468M89.2056 212.177C87.973 212.579 87.4497 210.644 88.672 210.245C90.1068 209.777 91.5729 209.414 93.0075 208.946C94.24 208.544 94.7634 210.48 93.5408 210.879C92.1066 211.346 90.6402 211.709 89.2056 212.177M84.7046 250C84.3222 251.23 82.3857 250.702 82.769 249.468C83.1393 248.276 83.1659 247.076 83.1667 245.838C83.1674 244.547 85.1745 244.549 85.1737 245.838C85.173 247.248 85.1256 248.644 84.7046 250M71.2857 295.303C71.2127 295.802 70.8163 296.161 70.2975 296.185C69.7694 296.208 69.2749 295.707 69.294 295.183C69.3309 294.174 70.1545 293.352 71.1646 293.315C71.7265 293.294 72.1445 293.79 72.1681 294.317C72.1912 294.829 71.7632 295.228 71.2857 295.303M64.4949 237.715C63.4344 238.068 62.3012 238.405 61.4698 239.189C60.5303 240.074 59.1093 238.659 60.0506 237.772C61.1469 236.738 62.5571 236.251 63.9615 235.782C65.1914 235.373 65.7139 237.309 64.4949 237.715M59.8925 276.643C59.601 277.141 59.0107 277.231 58.5197 277.003C57.8614 276.697 57.1346 276.707 56.4249 276.707C55.1316 276.706 55.1336 274.702 56.4249 274.703C57.5197 274.704 58.5297 274.807 59.5328 275.272C60.0262 275.502 60.1464 276.21 59.8925 276.643M57.2919 323.887C56.7299 323.907 56.312 323.411 56.2884 322.885C56.2653 322.373 56.693 321.973 57.171 321.899C57.2437 321.4 57.6404 321.04 58.1589 321.017C58.6873 320.993 59.1818 321.495 59.1625 322.019C59.1256 323.028 58.3024 323.85 57.2919 323.887M240.14 331.464C239.799 330.239 239.019 329.249 238.429 328.147C238.232 327.776 238.163 327.545 238.056 327.273C237.91 327.563 237.628 327.782 237.203 327.782C236.388 327.783 235.435 327.73 234.675 328.078C234.18 328.305 233.598 328.224 233.302 327.719C233.048 327.285 233.169 326.573 233.662 326.348C234.782 325.835 235.987 325.779 237.203 325.778C237.503 325.778 237.731 325.889 237.891 326.054C238.356 319.702 238.344 313.345 237.905 306.988C237.436 300.195 236.357 293.537 235.228 286.831C234.681 283.58 233.971 280.296 234.109 276.985C234.247 273.696 235.659 270.63 234.658 267.331C234.257 266.008 233.57 264.796 233.123 263.488C232.644 262.081 232.687 260.69 232.905 259.232C233.354 256.264 234.099 253.331 232.907 250.433C232.38 249.148 231.527 248.001 231.116 246.673C230.604 245.022 230.674 243.196 230.589 241.485C230.416 238.034 230.371 234.559 230.085 231.115C229.957 229.572 229.679 228.109 229.044 226.694C228.434 225.331 227.528 224.091 227.125 222.646C226.723 221.223 226.688 219.723 226.472 218.267C226.246 216.729 225.893 215.214 225.416 213.736C223.575 208.015 220.2 202.875 216.214 198.419C211.976 193.682 206.911 190.115 201.535 186.791C198.708 185.043 195.881 183.295 193.056 181.547C192.995 181.875 192.786 182.176 192.384 182.311C191.323 182.664 190.19 183.001 189.358 183.784C188.419 184.67 186.998 183.255 187.939 182.368C188.921 181.442 190.155 180.955 191.411 180.526C190.124 179.716 188.823 178.878 187.37 178.41C186.098 177.999 184.221 178.357 183.19 177.425C182.38 176.691 182.124 175.331 181.813 174.334C181.424 173.097 181.088 171.792 180.594 170.589C180.258 169.768 179.768 168.979 179.151 168.342C178.88 167.3 178.383 166.349 177.505 165.77C175.207 164.252 172.385 165.76 171.374 167.924C170.538 167.922 169.658 168.104 168.845 168.155C167.174 168.26 165.501 168.307 163.827 168.302C160.553 168.292 157.277 168.079 154.031 167.646C148.225 166.87 142.593 165.304 136.885 164.084C136.853 164.009 136.815 163.934 136.77 163.859C135.541 161.8 132.477 162.148 130.548 162.927C129.72 163.26 128.877 163.681 128.403 164.462C127.901 164.801 127.467 165.211 127.179 165.645C126.582 166.539 126.12 168.342 124.908 168.493C124.111 168.59 123.3 168.438 122.49 168.553C121.476 168.693 120.568 169.049 119.632 169.455C112.507 172.543 105.142 175.977 97.4092 177.175C95.5955 177.455 93.7491 177.746 92.1735 178.76C90.894 179.584 89.9053 180.717 88.8494 181.791C87.8208 182.838 86.9728 183.302 85.5051 183.49C83.7239 183.717 82.181 184.208 80.8789 185.501C79.7976 186.576 79.0926 187.948 78.2447 189.196C77.3814 190.468 76.1147 191.185 74.8001 191.923C71.6917 193.672 68.7965 195.784 66.2752 198.316C60.964 203.656 57.7477 210.52 54.5064 217.208C51.0016 224.442 47.7251 231.764 45.4521 239.489C43.2243 247.074 41.8996 254.876 41.2875 262.752C40.6427 271.015 40.5524 279.312 40.0155 287.58C39.7471 291.711 39.5439 295.846 39.3382 299.98C39.1374 304.063 38.8439 308.153 38.8913 312.241C38.9819 320.144 40.5647 328.072 43.3322 335.471C44.0221 337.312 44.787 339.129 45.6024 340.917C46.3176 342.488 48.7637 342.312 49.5314 340.917C49.707 340.596 49.845 340.266 49.9604 339.93C51.9675 339.948 53.9946 339.792 55.9891 339.978C59.5114 340.306 63.0411 340.489 66.5735 340.707C73.5632 341.14 80.5653 341.428 87.5573 341.826C88.2357 341.865 88.9141 341.904 89.5922 341.944C84.6095 326.546 85.2558 309.898 84.4672 293.884C84.4038 292.593 86.4113 292.601 86.4743 293.884C87.2661 309.967 86.592 326.657 91.7508 342.08C93.7523 342.216 95.7511 342.381 97.7431 342.623C99.3535 342.816 100.972 343.044 102.598 342.964C104.442 342.876 106.243 342.455 108.042 342.089C111.311 341.426 114.459 341.726 117.741 342.134C121.251 342.573 124.773 342.816 128.305 342.969C142.45 343.587 156.69 344.151 170.83 343.206C174.252 342.979 177.666 342.658 181.065 342.222C184.568 341.774 188.032 341.02 191.532 340.591C194.982 340.171 198.153 341.325 201.562 341.538C205.039 341.756 208.61 341.032 212.054 340.616C213.178 340.48 214.303 340.348 215.428 340.217C213.979 330.304 213.156 320.316 212.356 310.332C212.253 309.044 214.26 309.056 214.363 310.332C215.156 320.238 215.962 330.151 217.408 339.986C223.373 339.294 229.343 338.592 235.246 337.513C236.926 337.207 238.597 336.709 239.603 335.211C240.348 334.101 240.499 332.741 240.14 331.464" fill="black"/>
<path fill-rule="evenodd" clip-rule="evenodd" d="M192.21 97.4748C192.483 94.9386 189.51 88.1725 189.582 89.545C184.814 82.2059 175.511 79.3197 167.484 76.897C150.444 71.2805 137.138 78.0635 125.165 90.0853C118.097 96.6774 111.371 104.041 107.823 113.167C100.843 130.575 111.306 150.425 127.217 158.742C128.501 159.435 129.901 160.094 131.123 160.932C137.701 164.727 145.425 166.039 152.754 167.691C166.466 170.82 183.688 169.329 191.768 156.294C197.249 147.044 195.793 135.829 195.364 125.563C194.72 116.568 193.588 106.404 192.21 97.4748Z" fill="white"/>
<path fill-rule="evenodd" clip-rule="evenodd" d="M118.916 71.8037C127.8 63.512 140.93 59.4932 152.935 60.196C159.437 60.5768 165.704 62.2034 171.58 64.9982C173.417 65.8721 175.208 66.8951 176.859 68.0997C177.973 68.6187 179.062 69.1803 180.117 69.791C185.401 72.847 189.485 77.4758 192.099 82.9665C193.347 85.5872 194.332 88.3507 194.89 91.1981L194.98 91.6669C195.264 93.0957 195.827 94.9782 195.115 96.3153C194.643 97.2018 193.655 97.7606 192.719 97.6855C192.922 98.5071 193.166 99.3285 193.321 100.155L193.745 102.41C193.815 102.785 193.885 103.161 193.953 103.537C194.362 105.776 194.739 108.013 195.04 110.27C195.669 114.969 196.239 119.678 196.741 124.395C197.1 127.768 197.437 131.145 197.765 134.521L197.96 136.546C198.296 140.033 198.56 143.55 198.331 147.052C197.987 152.305 196.369 157.098 193.228 160.996C193.527 161.715 193.628 162.524 193.854 163.418C194.165 164.654 194.572 165.865 195.004 167.065C195.206 167.536 195.409 168.008 195.609 168.481L196.136 169.734V169.734L196.548 170.555C196.993 171.449 197.424 172.355 197.698 173.28C199.473 174.226 200.922 175.77 200.993 177.885C201.056 179.796 200.062 181.82 198.384 182.794C196.728 183.757 195.023 183.378 193.437 182.643C192.054 183.044 190.575 183.095 189.205 182.666C188.151 183.619 186.791 184.277 185.283 184.455C183.01 184.724 180.852 184.089 178.767 183.254L178.622 183.195C178.557 183.17 178.492 183.142 178.429 183.115C176.031 183 173.642 182.053 171.941 180.375C171.387 179.831 170.908 179.21 170.521 178.513C169.119 175.981 168.901 172.872 170.28 170.36C169.984 170.372 169.686 170.385 169.39 170.393C165.442 170.505 161.488 170.304 157.55 170.045L156.622 169.982C154.074 169.799 150.317 169.367 150.245 166.214C150.235 165.811 150.651 165.508 151.033 165.616C152.48 166.024 153.903 166.665 155.403 166.896C157.365 167.199 159.397 167.231 161.379 167.342L161.949 167.373C165.946 167.592 170.086 167.725 174.018 166.933C176.954 166.345 180.012 165.272 182.701 163.945C185.283 162.667 187.629 160.997 189.52 158.815C193.687 154.016 194.239 147.245 194.036 141.173C193.79 133.921 192.937 126.68 192.456 119.438L192.238 116.185C192.058 113.472 191.894 110.755 191.826 108.041C191.776 106.059 191.808 104.073 191.818 102.092C191.823 101.102 191.811 100.108 191.833 99.1183C191.846 98.5622 191.911 98.0187 191.959 97.4748C191.738 97.3599 191.532 97.1993 191.347 96.9866C191.201 96.8188 191.088 96.641 191.011 96.4606C190.075 96.1873 189.641 95.8241 189.034 95.0003C188.522 94.3064 187.942 93.6651 187.323 93.064C186.003 91.7865 184.495 90.7419 182.902 89.8324C179.608 87.9515 176 86.694 172.363 85.662C166.793 84.0839 161.008 83.2724 155.355 82.0046C153.798 84.1739 152.147 86.2782 150.421 88.3147C145.034 94.6671 138.858 100.33 132.239 105.381C130.892 106.41 129.527 107.425 128.142 108.409C126.318 111.186 124.475 113.949 122.604 116.695L121.8 117.87L121.788 117.892C121.677 118.06 121.572 118.228 121.467 118.396C121.243 118.752 120.992 119.095 120.726 119.428C120.553 119.681 120.378 119.934 120.2 120.187C120.541 120.37 120.852 120.575 121.095 120.803C121.592 121.271 121.509 122.016 121.095 122.491C119.761 124.029 117.648 122.026 116.113 121.492C114.449 121.998 113.062 123.974 112.372 125.485C111.379 127.662 110.98 130.286 111.429 132.644C111.84 134.798 112.949 136.659 114.793 137.826C114.858 137.866 114.928 137.909 114.996 137.946C114.999 137.952 114.999 137.952 115.001 137.949C115.064 137.989 115.129 138.027 115.195 138.062C116.06 138.538 117.011 138.818 117.997 138.886C118.561 138.926 119.151 138.896 119.715 138.964C120.295 139.031 120.772 139.297 121.329 139.437C121.943 139.595 122.34 140.419 121.953 140.972C121.763 141.245 121.582 141.506 121.389 141.739C122.024 142.486 122.575 143.31 123.075 144.093C123.757 145.168 124.362 146.308 124.914 147.47C125.423 148.139 125.91 148.82 126.381 149.517C129.053 153.469 131.098 157.873 132.355 162.474C133.599 167.026 134.377 172.138 133.225 176.785C132.164 181.058 129.066 184.598 124.48 184.826C123.523 184.873 122.581 184.766 121.696 184.523C119.752 185.722 117.342 186.326 115.186 186.396C113.441 186.453 111.532 186.086 110.107 185.033C108.417 185.768 106.583 186.184 104.989 186.279C103.205 186.385 101.338 185.9 99.8836 184.939C98.4997 186.122 97.0065 187.121 95.3098 187.807C92.3921 188.984 88.9199 188.838 86.248 187.078C83.5711 185.314 82.2088 182.148 83.0267 179.007C83.7793 176.111 86.1451 173.987 88.3679 172.158L88.8071 171.799C91.0058 170.007 93.2262 168.273 94.6374 165.748C96.1352 163.071 96.6821 159.96 96.8301 156.929C97.1513 150.256 95.7915 143.643 95.3775 137.005C94.951 130.149 95.1894 123.273 96.1252 116.467C97.944 103.246 102.731 90.286 111.391 79.9807C112.644 78.4895 113.985 77.0682 115.399 75.7211C116.479 74.3103 117.647 72.988 118.916 71.8037ZM234.114 147.29C234.162 147.292 234.207 147.295 234.25 147.312C234.278 147.324 234.302 147.344 234.325 147.365L234.536 147.575C234.611 147.651 234.606 147.766 234.536 147.841C234.474 147.909 234.363 147.911 234.29 147.858L234.27 147.841L234.051 147.623C234.027 147.597 234.007 147.569 233.996 147.533C233.986 147.498 233.986 147.458 233.984 147.42C233.981 147.352 234.046 147.29 234.114 147.29ZM116.406 126.825C118.418 126.216 120.832 127.664 122.031 129.192C122.633 129.959 122.804 131.008 122.031 131.762C121.374 132.403 120.089 132.521 119.454 131.762C118.734 130.898 118.147 129.7 117.119 129.147C116.002 128.546 114.507 128.696 114.244 130.161C114.198 130.409 113.842 130.327 113.827 130.104C113.729 128.621 115.031 127.238 116.406 126.825Z" fill="black"/>
<path fill-rule="evenodd" clip-rule="evenodd" d="M169.993 152.029C168.307 151.342 166.802 150.196 165.702 148.732C165.319 148.223 165.22 147.686 165.3 147.194C165.391 146.642 165.718 146.141 166.165 145.805C166.613 145.468 167.173 145.302 167.715 145.386C168.185 145.46 168.654 145.717 169.025 146.251L169.102 146.358C169.756 147.241 170.609 147.966 171.58 148.433C172.516 148.884 173.563 149.094 174.646 148.972C176.709 148.739 178.131 147.625 179.643 146.112C179.83 145.921 180.017 145.724 180.206 145.524C180.325 145.342 180.49 145.226 180.673 145.165C180.877 145.097 181.107 145.101 181.318 145.174C181.521 145.245 181.703 145.379 181.825 145.558C181.941 145.728 182.006 145.938 181.985 146.179C181.847 147.747 181.026 149.146 179.86 150.245C178.565 151.465 176.848 152.309 175.231 152.605C173.451 152.931 171.636 152.698 169.993 152.029V152.029ZM176.071 127.841C177.966 128.991 180.853 131.672 178.815 134.523C176.416 137.036 172.962 134.154 171.26 132.851C169.681 131.841 167.908 134.439 169.372 135.618C181.671 144.71 186.663 128.142 177.03 126.49C175.969 126.308 175.575 127.486 176.071 127.841ZM154.031 117.266C154.241 114.672 158.198 114.082 158.591 116.649C158.944 118.949 158.529 121.061 157.491 123.132C156.5 125.109 154.009 124.187 153.82 122.386C153.568 119.972 153.901 118.879 154.031 117.266ZM184.153 116.117C184.705 115.396 185.501 114.903 186.456 115.182C189.437 116.052 188.558 120.278 187.511 122.335C186.942 123.453 185.103 123.736 184.272 122.752C182.917 121.148 182.268 117.945 183.991 116.364C184.037 116.283 184.089 116.2 184.153 116.117ZM157.449 105.915L157.92 105.832C159.378 105.581 161.189 105.339 162.22 106.508C162.767 107.129 162.955 108.281 162.22 108.875C160.927 109.92 159.498 109.515 157.949 109.603C156.673 109.676 155.446 109.887 154.217 110.238C151.519 111.008 149.321 112.413 147.017 113.956C146.715 114.159 146.406 113.773 146.551 113.49C147.881 110.889 150.458 108.753 153.04 107.451C154.417 106.756 155.925 106.179 157.449 105.915ZM181.435 104.749L181.795 104.823C185.718 105.642 190.815 107.277 192.673 111.125C192.744 111.669 192.669 111.785 192.608 111.862L192.588 111.887C192.538 111.952 192.498 112.042 192.262 112.116C192.196 112.1 192.13 112.084 192.063 112.066C191.212 111.843 190.538 111.536 189.886 111.218L189.178 110.87C188.358 110.468 187.53 110.081 186.653 109.795C184.781 109.186 182.855 108.756 180.9 108.527C180.476 108.477 180.068 108.334 179.746 108.09C179.44 107.857 179.207 107.536 179.1 107.108C178.962 106.555 179.002 106.136 179.299 105.637C179.523 105.262 179.843 105.002 180.21 104.853C180.585 104.701 181.011 104.665 181.435 104.749Z" fill="black"/>
</svg>
