<svg width="285" height="384" viewBox="0 0 285 384" fill="none" xmlns="http://www.w3.org/2000/svg">
<path fill-rule="evenodd" clip-rule="evenodd" d="M221.416 217.032C217.933 200.559 205.583 187.777 188.973 181.409C185.78 179.606 182.685 171.869 178.394 170.452C177.706 170.225 178.792 172.033 178.394 172.141C176.975 172.526 175.385 172.566 173.818 171.176C171.018 168.691 170.139 161.431 168.437 158.149C159.457 140.844 137.038 147.615 134.035 166.746C131.94 168.109 128.98 169.309 126.7 170.407C124.353 171.538 122.288 174.278 119.869 175.257C117.71 176.131 114.154 175.512 111.979 176.273C101.975 179.777 93.5023 184.198 86.8597 193.155C85.4601 195.044 83.8823 197.367 82.6086 199.276C76.042 206.823 71.481 215.283 67.2803 224.358C55.5276 250.998 52.3308 280.494 49.4628 309.197C49.528 314.219 46.1903 328.145 51.1269 330.552C50.8318 330.858 50.9387 331.471 51.4861 331.466C64.0033 331.34 76.4914 332.458 88.8144 334.633C94.76 335.682 100.674 337.121 106.73 337.357C119.302 337.271 131.829 335.167 144.384 337.158C159.477 337.158 177.821 336.718 194.612 336.074C210.305 335.472 226.082 336.832 241.581 334.167C242.808 333.974 243.407 332.48 243.15 331.409C241.331 324.794 240.439 317.985 239.419 311.214C239.622 306.871 239.258 302.337 237.649 298.292C233.445 270.984 228.054 243.854 221.416 217.032Z" fill="white"/>
<path fill-rule="evenodd" clip-rule="evenodd" d="M216.351 252.926C216.02 254.532 215.556 256.137 214.939 257.658C214.344 259.126 213.449 260.441 212.832 261.891C212.749 262.086 212.613 262.234 212.45 262.347L212.501 262.741V262.741L212.548 263.136C212.856 265.798 213.202 268.453 213.501 271.115L213.647 272.447C214.236 278.005 215.167 283.536 215.89 289.079C216.597 294.507 217.317 299.935 218.087 305.356C218.883 310.944 219.693 316.525 220.639 322.091C221.038 324.442 221.455 326.79 221.889 329.137L222.224 330.933C225.676 331.762 226.62 336.567 223.105 338.34C221.51 339.142 219.46 338.949 218.145 337.689C216.779 336.376 216.722 334.009 216.405 332.231L216.099 330.578C213.814 318.153 211.83 305.585 210.902 292.984C210.664 289.731 210.463 286.474 210.333 283.215C210.209 280.15 210.268 277.085 210.22 274.019L210.205 273.183C210.132 269.914 210.192 266.65 210.277 263.381C210.287 262.983 210.305 262.585 210.325 262.184C210.21 262.049 210.127 261.888 210.092 261.733L210.047 261.528C209.934 260.999 210.062 260.381 210.468 260.002C210.644 257.775 210.875 255.551 210.937 253.327C210.942 253.144 211.206 253.149 211.221 253.327C211.369 255.22 211.665 257.119 211.961 259.015C213.865 257.487 215.272 254.967 216.103 252.858C216.163 252.706 216.387 252.761 216.351 252.926ZM171.298 164.398C171.614 165.841 172.239 167.136 173.077 168.341C173.476 168.917 173.93 169.453 174.474 169.901C174.941 170.284 175.473 170.535 175.97 170.868C176.692 170.755 177.447 171.029 177.954 171.559L177.874 170.783C177.849 170.533 178.265 170.483 178.313 170.725C180.508 181.777 182.51 192.836 184.242 203.968L185.002 208.884L185.717 213.5C186.903 221.19 188.051 228.877 188.915 236.624C190.067 246.962 191.035 257.327 191.742 267.707C192.452 278.16 192.889 288.621 193.2 299.094C193.278 301.734 193.361 304.372 193.441 307.011L193.977 303.855C194.512 300.698 195.036 297.538 195.485 294.367C197.099 283.017 198.388 271.587 199.018 260.14C199.595 249.665 199.402 238.981 196.733 228.776C196.06 226.209 195.237 223.681 194.244 221.219C193.28 218.824 191.966 216.605 190.929 214.245C189.725 211.5 189.364 208.91 189.984 205.954C190.526 203.379 191.477 200.957 191.647 198.307C191.966 193.387 190.363 188.623 188.097 184.317C187.5 183.182 186.87 182.063 186.213 180.953C184.224 177.599 181.981 174.367 179.653 171.269C179.527 171.104 179.793 170.921 179.929 171.056C182.051 173.15 184.371 175.209 186.281 177.496C187.209 178.608 188.115 179.743 188.973 180.908C198.386 182.478 206.474 188.332 212.003 196.062C218.278 204.835 221.452 215.393 223.8 225.79C226.412 237.346 228.614 249.006 230.96 260.618C233.388 272.635 235.804 284.65 238.248 296.664C239.462 302.628 240.677 308.592 241.888 314.559C242.503 317.58 243.148 320.593 243.823 323.604C244.169 325.147 244.54 326.688 244.861 328.236C245.222 329.982 244.886 331.098 243.702 332.381C243.266 332.857 242.576 332.85 242.034 332.597L241.864 332.517L241.701 332.438C241.03 332.109 240.504 331.768 240.087 331.036C239.628 330.232 239.555 329.34 239.397 328.446C239.106 326.8 238.818 325.155 238.527 323.506C238.092 321.042 237.619 318.584 237.138 316.127L234.723 303.847C234.08 300.573 233.435 297.299 232.786 294.026C230.471 282.323 228.153 270.623 225.835 258.923C223.609 247.688 221.64 236.376 219.106 225.207L218.962 224.577L218.816 223.949C216.55 214.32 213.384 205.006 207.641 196.847C203.22 190.572 197.081 184.968 189.851 182.133C190.36 182.864 190.849 183.611 191.316 184.372C194.246 189.151 196.386 194.825 195.884 200.516C195.639 203.297 194.58 206.029 194.68 208.832C194.773 211.322 196.316 213.509 197.382 215.676C199.803 220.585 201.555 225.803 202.683 231.156C204.949 241.904 204.941 252.964 204.161 263.875C203.313 275.736 201.703 287.594 199.869 299.339C198.928 305.363 197.676 311.338 196.717 317.352C196.243 320.317 195.598 323.276 195.034 326.227L194.765 327.636C194.614 328.419 194.458 329.199 194.277 329.97L194.166 330.432V330.515C194.161 331.084 194.005 331.555 193.754 331.93C193.411 333.03 192.984 334.102 192.417 335.132C192.126 335.658 191.705 335.953 191.246 336.061C190.784 337.115 189.738 337.927 188.489 337.922L172.058 337.859C162.515 337.822 152.971 337.759 143.428 337.706C141.02 337.694 138.614 337.649 136.208 337.586C133.952 337.524 131.79 337.253 129.559 336.973C127.04 336.657 125.676 334.876 126.052 332.364C126.135 331.81 126.225 331.259 126.311 330.708C125.809 330.873 125.212 330.796 124.808 330.402L124.429 330.032C123.904 329.514 123.435 329.005 123.102 328.313C122.758 327.602 122.479 326.85 122.176 326.124C121.521 324.561 120.884 322.993 120.264 321.417C119.022 318.266 117.781 315.102 116.626 311.919C114.341 305.614 112.319 299.214 110.56 292.741C107.424 281.194 105.156 269.423 103.726 257.548L103.384 254.717L103.285 253.881C102.742 249.278 102.286 244.604 102.502 240.011C102.635 237.135 103.081 234.237 104.158 231.552C105.151 229.074 106.684 226.955 108.142 224.741L108.308 224.485L108.476 224.224C109.751 222.212 110.765 220.11 110.816 217.667C110.867 215.189 110.144 212.776 109.336 210.456L109.134 209.884L108.999 209.505C107.278 204.709 105.321 199.981 105.966 194.762C106.92 187.077 111.586 180.883 117.457 176.106C112.236 177.138 107.068 179.177 102.507 181.762C97.1203 184.818 92.2708 188.851 88.0886 193.402C80.1859 202.004 74.5436 212.324 69.9252 222.98C65.0905 234.132 61.5054 245.817 58.8036 257.655C56.0866 269.561 54.2677 281.657 53.0256 293.801C52.4062 299.845 51.9192 305.904 51.5156 311.966C51.3098 315.072 51.1543 318.184 50.9135 321.285C50.6726 324.383 50.5645 327.529 49.8068 330.545C49.4531 331.95 47.0672 332.093 46.8116 330.545C46.2442 327.088 46.4028 323.513 46.5611 320.012L46.5755 319.694C46.7313 316.207 46.9345 312.723 47.1751 309.239C47.6671 302.117 48.3241 295.006 49.1821 287.917C52.1902 263.033 57.7374 238.28 68.6181 215.566C73.7411 204.867 80.3166 194.472 89.4637 186.747C93.8188 183.072 98.7285 180.139 104.02 178.015C108.751 176.114 113.558 175.214 118.586 175.217C121.107 173.288 123.814 171.607 126.518 170.172C126.682 170.084 126.852 170.295 126.717 170.43C126.647 170.498 126.579 170.567 126.509 170.633C126.815 170.653 127.131 170.796 127.414 171.094C128.408 172.133 129.246 173.433 129.996 174.783C131.137 176.206 132.226 177.676 133.365 179.084C135.189 181.338 137.055 183.56 138.945 185.765C142.118 189.469 145.394 193.104 148.811 196.592L149.381 197.172C151.152 198.963 152.946 201.107 155.041 202.525L155.153 202.599C156.037 203.174 156.663 203.278 157.417 202.42C158.102 201.638 158.672 200.732 159.258 199.87L159.394 199.672C162.387 195.331 165.162 190.83 167.673 186.196C168.818 184.087 169.907 181.947 170.94 179.784L171.248 179.134C171.81 177.942 172.42 176.772 172.884 175.545C172.992 175.257 173.097 174.969 173.2 174.683C171.619 173.649 170.395 171.409 169.951 169.656C169.49 167.835 169.723 165.966 170.545 164.3C170.701 163.987 171.223 164.065 171.298 164.398ZM93.3274 238.4C93.1088 245.324 92.9761 252.255 92.6497 259.173L92.537 261.535C93.0461 262.102 93.3446 262.755 93.1063 263.652C93.0137 263.995 92.74 264.306 92.3988 264.421L92.2924 266.617C91.8082 276.498 91.2407 286.358 90.2036 296.213C88.9065 308.547 87.4063 320.861 85.9088 333.173C85.6955 334.916 84.481 336.299 82.5919 336.043C80.6804 335.785 79.9052 334.124 80.1561 332.394C81.142 325.603 82.0901 318.807 82.9208 311.994L83.8666 304.232C85.0526 294.528 86.2664 284.827 87.6649 275.154C88.2495 271.112 88.8566 267.071 89.466 263.031L89.253 262.755C88.3822 261.626 87.4815 260.521 86.5909 259.409C84.8802 257.265 83.1917 255.138 81.6237 252.893C81.5457 252.781 81.704 252.615 81.8167 252.701C84.0144 254.321 86.0944 256.054 88.1868 257.816L90.0182 259.363C91.0719 252.382 92.1155 245.399 93.0461 238.4C93.0689 238.225 93.3323 238.212 93.3274 238.4ZM124.941 172.141C123.618 173.385 122.266 174.603 120.934 175.84L120.446 176.296L119.96 176.753C117.618 178.971 115.375 181.278 113.506 183.929C110.074 188.796 108.029 194.73 109.456 200.671C110.641 205.593 113.358 210.055 114.088 215.1C114.454 217.627 114.276 220.167 113.322 222.554C112.349 224.989 110.793 227.076 109.396 229.272C106.36 234.047 105.946 239.287 106.248 244.818C106.564 250.594 107.228 256.373 108.049 262.096C109.71 273.694 112.213 285.172 115.527 296.411C117.186 302.039 119.145 307.548 121.095 313.079C122.065 315.831 123.197 318.519 124.363 321.194C124.978 322.602 125.608 324.002 126.248 325.4C126.012 323.426 126.012 321.4 125.896 319.438C125.731 316.628 125.52 313.822 125.327 311.014C124.933 305.316 124.582 299.612 124.268 293.909C123.157 273.569 122.339 253.212 122.399 232.839C122.429 222.652 122.638 212.465 123.077 202.287C123.282 197.494 123.681 192.706 124.041 187.92L124.118 186.895C124.436 182.599 124.818 178.293 125.472 174.034C125.279 173.598 125.11 173.156 124.985 172.702L124.941 172.532L124.973 172.537C124.943 172.404 124.933 172.271 124.941 172.141ZM136.376 154.637C136.403 154.519 136.571 154.529 136.601 154.637C137.347 157.141 137.083 159.897 136.441 162.417C136.095 163.782 135.603 165.107 135.009 166.384L134.801 166.832C134.291 167.92 133.717 169.04 132.725 169.718C132.312 170.002 131.571 170.019 131.157 169.718L130.946 169.559C130.911 169.531 130.877 169.504 130.844 169.476C130.458 169.152 130.267 168.438 130.445 167.968C130.904 166.753 131.945 165.861 132.665 164.779C133.303 163.817 133.867 162.802 134.336 161.748C135.347 159.466 135.801 157.044 136.376 154.637Z" fill="black"/>
<path fill-rule="evenodd" clip-rule="evenodd" d="M195 101.528C197.855 99.4809 193.598 92.746 192.152 90.7421C190.894 88.128 189.636 85.5137 188.378 82.8993C188.531 80.7554 186.434 78.8479 184.362 79.5002C182.56 78.2094 179.541 78.8273 178.624 80.8483C158.693 72.1809 124.205 75.7867 122.422 102.532C118.566 110.147 114.745 117.827 111.324 125.647C106.578 125.902 104.277 131.659 107.103 135.379C107.479 141.421 111.315 141.899 116.437 141.63C118.493 142.171 120.625 142.464 122.168 144.05C123.34 145.246 124.137 146.763 124.906 148.234C128.455 155.024 132.963 160.898 139.075 165.595C148.579 172.696 161.444 177.795 173.295 174.338C198.774 164.348 203.778 124.423 195 101.528V101.528Z" fill="white"/>
<path fill-rule="evenodd" clip-rule="evenodd" d="M141.828 62.6206C158.474 58.7605 177.174 63.9407 188.727 76.7031C189.54 77.5998 189.452 78.7671 188.737 79.5236C189.071 79.7941 189.397 80.0722 189.728 80.3502C190.074 80.6433 190.024 81.2319 189.728 81.53C189.435 81.8231 188.825 81.8832 188.547 81.53L188.134 81.012C187.929 80.7532 187.726 80.4935 187.53 80.2275C187.292 80.3151 187.059 80.4078 186.826 80.498C190.355 82.8401 193.298 85.9512 195.315 89.696C197.498 93.7464 198.89 98.0698 199.796 102.569C201.41 110.594 201.645 118.824 201.429 126.985L201.417 127.422C201.138 137.259 200.177 147.258 196.023 156.304C192.691 163.553 186.77 170.218 179.347 173.392C175.072 175.218 170.476 175.997 165.832 175.671C163.383 175.501 160.942 175.115 158.559 174.527L157.986 174.385C155.815 173.842 153.563 173.212 151.71 171.972C149.808 170.697 151.09 168.164 153.187 168.472C155.714 168.846 158.12 169.898 160.626 170.444C163.077 170.98 165.558 171.26 168.07 171.188C172.513 171.062 176.559 169.7 180.232 167.225C194.274 157.759 195.98 138.727 196.346 123.347C196.525 115.832 196.249 108.22 194.517 100.878C192.854 93.819 189.992 86.8679 185.94 80.8387C185.047 81.1718 184.154 81.4499 183.203 81.5375C181.508 82.5548 179.492 82.5817 177.533 82.5821L177.259 82.5821C175.22 82.5796 173.18 82.4593 171.151 82.2765C163.968 81.6402 156.577 80.0271 149.357 81.0541L149.062 81.0971C146.089 81.5436 142.405 82.4804 140.222 84.616C137.864 86.9205 139.444 91.2816 141.311 92.6668C142.518 93.5635 142.894 95.5825 141.311 96.3966C138.185 98.0072 130.618 97.113 129.768 98.0047C128.747 99.0706 128.818 100.695 128.789 102.078L128.787 102.17C128.681 106.108 128.779 110.033 129.113 113.961C129.434 117.758 130.164 121.563 130.327 125.371C130.382 126.626 128.865 127.006 128.034 126.317C127.871 126.182 127.703 126.054 127.535 125.939C126.027 124.872 124.314 124.421 122.475 124.136C122.378 124.12 122.303 124.072 122.248 124.009L122.226 123.98L122.031 124.141C122.412 124.614 122.738 125.15 122.997 125.751C123.049 125.872 122.936 126.024 122.803 125.944C120.259 124.434 117.49 123.793 114.562 124.404C111.928 124.952 109.544 126.621 108.772 129.291C108.062 131.748 108.583 134.581 110.177 136.603C112.532 139.598 116.358 139.328 119.79 139.466C120.463 139.493 121.213 139.819 121.526 140.46C121.895 141.217 121.87 141.733 121.526 142.487C121.479 142.594 121.416 142.692 121.343 142.78C121.634 143.02 121.909 143.282 122.177 143.55L123.073 144.451C123.686 145.069 124.295 145.693 124.883 146.332C126.609 148.21 128.232 150.209 129.76 152.251L129.901 152.441C131.691 154.886 133.547 158.415 136.649 159.187C137.713 159.452 138.702 159.976 139.018 161.125C139.334 162.275 138.589 163.39 137.588 163.871C135.852 164.705 133.649 163.713 132.216 162.661C129.127 160.389 127.109 156.682 125.211 153.419L124.692 152.527C123.714 150.843 122.76 149.14 121.945 147.371C121.481 146.362 120.982 145.36 120.55 144.335C120.425 144.037 120.3 143.734 120.202 143.423C120.064 143.453 119.923 143.474 119.79 143.481C115.648 143.752 110.879 143.095 107.886 139.957C103.759 135.631 103.275 127.896 107.964 123.768C108.458 123.332 109.015 122.948 109.617 122.62C108.779 121.205 108.225 119.564 107.816 118.024C107.219 115.774 106.885 113.482 106.719 111.163C106.386 106.431 106.94 101.614 108.079 97.0178C112.209 80.3577 124.888 66.5483 141.828 62.6206ZM111.83 131.753C111.01 127.007 120.523 130.517 122.597 130.847L122.658 130.856C125.037 131.186 123.711 135.353 121.369 134.112L121.298 134.073C120.031 133.348 118.638 132.828 117.309 132.214L117.026 132.081C115.969 131.575 112.48 129.303 112.101 131.753C112.081 131.888 111.852 131.886 111.83 131.753Z" fill="black"/>
<path fill-rule="evenodd" clip-rule="evenodd" d="M169.993 152.029C168.307 151.342 166.802 150.196 165.702 148.732C165.319 148.223 165.22 147.686 165.3 147.194C165.391 146.642 165.718 146.141 166.165 145.805C166.613 145.468 167.173 145.302 167.715 145.386C168.185 145.46 168.654 145.717 169.025 146.251L169.102 146.358C169.756 147.241 170.609 147.966 171.58 148.433C172.516 148.884 173.563 149.094 174.646 148.972C176.709 148.739 178.131 147.625 179.643 146.112C179.83 145.921 180.017 145.724 180.206 145.524C180.325 145.342 180.49 145.226 180.673 145.165C180.877 145.097 181.107 145.101 181.318 145.174C181.521 145.245 181.703 145.379 181.825 145.558C181.941 145.728 182.006 145.938 181.985 146.179C181.847 147.747 181.026 149.146 179.86 150.245C178.565 151.465 176.848 152.309 175.231 152.605C173.451 152.931 171.636 152.698 169.993 152.029V152.029ZM176.071 127.841C177.966 128.991 180.853 131.672 178.815 134.523C176.416 137.036 172.962 134.154 171.26 132.851C169.681 131.841 167.908 134.439 169.372 135.618C181.671 144.71 186.663 128.142 177.03 126.49C175.969 126.308 175.575 127.486 176.071 127.841ZM154.031 117.266C154.241 114.672 158.198 114.082 158.591 116.649C158.944 118.949 158.529 121.061 157.491 123.132C156.5 125.109 154.009 124.187 153.82 122.386C153.568 119.972 153.901 118.879 154.031 117.266ZM184.153 116.117C184.705 115.396 185.501 114.903 186.456 115.182C189.437 116.052 188.558 120.278 187.511 122.335C186.942 123.453 185.103 123.736 184.272 122.752C182.917 121.148 182.268 117.945 183.991 116.364C184.037 116.283 184.089 116.2 184.153 116.117ZM157.449 105.915L157.92 105.832C159.378 105.581 161.189 105.339 162.22 106.508C162.767 107.129 162.955 108.281 162.22 108.875C160.927 109.92 159.498 109.515 157.949 109.603C156.673 109.676 155.446 109.887 154.217 110.238C151.519 111.008 149.321 112.413 147.017 113.956C146.715 114.159 146.406 113.773 146.551 113.49C147.881 110.889 150.458 108.753 153.04 107.451C154.417 106.756 155.925 106.179 157.449 105.915ZM181.435 104.749L181.795 104.823C185.718 105.642 190.815 107.277 192.673 111.125C192.744 111.669 192.669 111.785 192.608 111.862L192.588 111.887C192.538 111.952 192.498 112.042 192.262 112.116C192.196 112.1 192.13 112.084 192.063 112.066C191.212 111.843 190.538 111.536 189.886 111.218L189.178 110.87C188.358 110.468 187.53 110.081 186.653 109.795C184.781 109.186 182.855 108.756 180.9 108.527C180.476 108.477 180.068 108.334 179.746 108.09C179.44 107.857 179.207 107.536 179.1 107.108C178.962 106.555 179.002 106.136 179.299 105.637C179.523 105.262 179.843 105.002 180.21 104.853C180.585 104.701 181.011 104.665 181.435 104.749Z" fill="black"/>
<path fill-rule="evenodd" clip-rule="evenodd" d="M183.793 146.255C184.481 146.959 185.14 147.713 185.763 148.492C185.936 149.73 185.976 150.982 185.818 152.275C185.587 154.148 185.075 155.979 184.383 157.738C183.974 157.68 183.57 157.565 183.176 157.385C181.927 156.811 181.229 155.656 180.384 154.637C178.7 152.61 175.63 151.413 173.482 153.515C172.549 154.429 171.952 155.694 171.119 156.698C170.203 157.803 169.174 158.852 168.101 159.804C167.968 159.925 167.83 160.055 167.687 160.183C167.09 159.501 166.503 158.815 165.928 158.119C164.22 156.044 162.744 153.747 161.969 151.157C161.723 150.336 161.57 149.479 161.51 148.615C162.27 147.673 163.138 146.816 164.124 146.108C167.097 143.966 170.522 143.618 174.084 143.432C177.77 143.242 181.089 143.492 183.793 146.255M192.785 156.192C192.642 154.759 192.421 153.269 192.095 151.781C190.903 146.26 188.322 140.757 183.146 138.235C180.697 137.04 177.915 136.619 175.276 137.195C170.645 135.464 165.502 137.23 161.856 140.396C157.556 144.131 155.572 149.993 154.904 155.483C154.44 159.303 154.265 164.407 155.351 167.179C156.437 169.95 163.335 177.362 173.184 177.414C187.21 177.487 190.62 168.043 191.034 167.216C192.762 163.78 193.164 159.985 192.785 156.192" fill="black"/>
</svg>
