<svg width="186" height="250" viewBox="0 0 186 250" fill="none" xmlns="http://www.w3.org/2000/svg">
<path fill-rule="evenodd" clip-rule="evenodd" d="M146.176 169.59C145.086 166.239 146.385 162.369 145.536 158.758C145.245 157.329 144.693 152.021 144.138 148.918C143.827 147.182 145.684 146.642 145.97 145.95C147.978 139.725 133.325 125.081 132.431 124.541C131.091 123.766 129.905 123.099 128.595 122.308C124.775 120.965 120.193 117.23 116.73 119.629C110.729 110.693 113.103 99.6825 109.847 98.3739C106.59 97.0653 96.9746 94.4205 91.477 97.7979C88.1818 100.237 88.4247 104.436 86.9213 107.898C86.0387 109.528 85.6051 111.889 84.5778 112.953C81.0871 116.565 76.7342 117.187 71.8678 117.801C71.4972 117.847 71.1072 116.839 70.7471 116.963C62.5383 119.802 52.9866 120.63 43.6901 136.522C42.3772 138.795 38.8354 142.442 40.0197 145.069C32.2165 163.221 24.5384 204.078 45.9496 214.267C46.634 214.705 51.277 212.357 52.0336 212.378C53.2947 212.415 50.8783 215.478 52.0336 214.932C60.5151 215.576 107.184 213.915 125.073 215.576C137.375 215.484 145.166 217.641 148.007 215.484C146.871 212.739 146.924 209.798 147.283 206.896C149.897 204.95 146.665 191.234 146.939 187.218C149.386 184.283 147.438 173.277 146.176 169.59Z" fill="white"/>
<path fill-rule="evenodd" clip-rule="evenodd" d="M142.276 149.5C141.103 151.207 140.024 152.965 139.05 154.793C138.547 155.736 138.078 156.698 137.656 157.68C137.569 155.558 137.549 153.411 137.301 151.31C137.284 151.158 137.031 151.084 137.004 151.269C136.73 153.174 136.685 155.129 136.582 157.055C136.463 157.018 136.331 156.997 136.186 156.997C134.777 156.997 133.39 157.112 131.987 157.226C131.358 157.277 130.7 157.316 130.058 157.416C130.575 156.846 131.055 156.243 131.499 155.615C131.952 154.974 132.469 153.972 131.681 153.356C130.809 152.676 129.101 153.566 128.258 153.911C127.831 154.087 127.413 154.277 127.001 154.48C126.48 153.022 124.886 152.829 123.519 153.03C122.545 153.174 121.599 153.507 120.649 153.761C119.443 154.083 118.232 154.387 117.017 154.671C114.828 155.184 112.625 155.632 110.411 156.02C110.353 155.952 110.271 155.898 110.163 155.871C109.405 155.682 108.568 155.827 107.791 155.841C106.991 155.856 106.192 155.855 105.392 155.838C103.964 155.809 102.538 155.797 101.11 155.773C100.704 155.526 100.189 155.173 100.063 154.71C99.9059 154.132 100.397 153.491 100.625 152.999C101.501 151.109 101.807 148.995 101.464 146.937C101.403 146.57 101.276 146.168 101.094 145.793C102.659 145.96 104.203 146.074 105.776 146.125C108.916 146.227 112.057 146.335 115.199 146.358C121.482 146.405 127.765 146.405 134.048 146.359C137.6 146.333 141.144 146.3 144.692 146.119C144.403 146.486 144.122 146.86 143.848 147.24C143.791 147.223 143.717 147.254 143.725 147.324C143.728 147.349 143.731 147.373 143.734 147.398C143.233 148.098 142.751 148.809 142.276 149.5ZM135.29 214.481C133.83 214.435 132.37 214.388 130.91 214.342C128.044 214.251 125.179 214.159 122.313 214.068C116.636 213.887 110.958 213.713 105.28 213.556C99.6159 213.4 93.9486 213.235 88.2826 213.411C82.6036 213.589 76.9392 214.047 71.2708 214.415C68.1195 214.619 64.966 214.797 61.8089 214.881C58.8021 214.962 55.7687 214.84 52.7666 215.055C52.6657 214.312 52.7399 213.572 52.729 212.832C53.7137 212.263 54.6803 211.658 55.6355 211.064C59.1182 208.897 62.4101 206.445 65.5152 203.766C65.9925 203.354 66.4605 202.933 66.9238 202.508C66.6014 203.213 66.8594 204.121 67.7836 204.42C68.9105 204.783 70.0643 204.654 71.2348 204.627C72.4233 204.599 73.6119 204.572 74.8006 204.547C77.1237 204.498 79.447 204.454 81.7703 204.415C86.3089 204.339 90.8478 204.282 95.3868 204.245C104.519 204.172 113.645 204.296 122.775 204.461C125.343 204.507 127.908 204.565 130.475 204.507C131.76 204.478 133.049 204.468 134.333 204.399C135.361 204.344 136.395 204.198 137.422 204.067C137.552 205.858 137.688 207.648 137.839 209.438C137.938 210.619 138.041 211.8 138.143 212.982C138.184 213.469 138.187 213.966 138.256 214.429C137.269 214.483 136.288 214.513 135.29 214.481ZM136.294 163.914C136.258 165.285 136.239 166.657 136.229 168.028C136.111 167.96 135.977 167.911 135.827 167.888C134.23 167.644 132.522 167.829 130.906 167.856C129.345 167.882 127.778 167.874 126.218 167.947C124.655 168.021 123.092 168.109 121.529 168.19C120.796 168.229 120.071 168.261 119.343 168.361C118.845 168.429 118.207 168.424 117.675 168.566C119.909 166.401 122.131 164.224 124.359 162.053C124.425 161.988 124.474 161.919 124.507 161.849C125.993 160.944 127.419 159.924 128.711 158.757C129.735 159.152 130.901 159.202 131.987 159.29C133.39 159.404 134.777 159.519 136.186 159.519C136.281 159.519 136.37 159.51 136.454 159.494C136.385 160.966 136.333 162.439 136.294 163.914ZM78.2857 190.543C81.6964 191.632 85.3918 191.62 88.9402 191.838C92.7229 192.071 96.5 192.265 100.287 192.412C107.851 192.706 115.41 193.106 122.972 193.423C127.292 193.605 131.611 193.805 135.929 194.023C136.235 194.038 136.527 193.959 136.785 193.815C136.93 196.66 137.1 199.503 137.297 202.345C137.322 202.7 137.349 203.055 137.375 203.411C135.342 203.156 133.326 202.912 131.278 202.739C128.979 202.545 126.681 202.381 124.379 202.228C119.892 201.931 115.398 201.532 110.903 201.387C101.74 201.091 92.5575 201.191 83.3913 201.257C80.7977 201.275 78.2043 201.3 75.6109 201.331C74.3143 201.347 73.0177 201.365 71.721 201.383C70.4179 201.403 69.0174 201.267 67.7836 201.722C67.7718 201.726 67.7619 201.732 67.7503 201.737C71.4728 198.208 74.8076 194.309 78.2857 190.543ZM90.2757 179.262C95.9759 180.301 101.765 180.229 107.543 180.332C113.455 180.438 119.375 180.368 125.288 180.38C128.647 180.387 132.035 180.535 135.382 180.236C135.778 180.2 136.084 180.05 136.303 179.837C136.364 183.398 136.475 186.958 136.629 190.516C136.412 190.424 136.175 190.368 135.929 190.353C128.373 189.909 120.817 189.505 113.252 189.259C105.693 189.012 98.1244 188.72 90.5613 188.812C86.8705 188.856 82.9676 188.62 79.3275 189.425C80.7108 187.954 82.1239 186.511 83.6019 185.129C85.7568 183.115 88.0563 181.228 90.2757 179.262ZM94.6307 175.071C94.6384 175.062 94.6421 175.052 94.6478 175.043C94.6684 175.059 94.6935 175.069 94.7264 175.068C100.062 174.948 106.048 176.632 111.039 174.047C113.267 172.894 115.112 171.07 116.903 169.318C116.904 169.331 116.905 169.344 116.906 169.357C116.918 169.499 116.978 169.67 117.122 169.733C117.711 169.992 118.4 170.009 119.032 170.1C119.759 170.206 120.473 170.268 121.206 170.312C122.823 170.41 124.439 170.512 126.056 170.604C127.67 170.695 129.29 170.703 130.906 170.743C132.526 170.783 134.223 170.979 135.827 170.748C135.974 170.727 136.105 170.681 136.221 170.616C136.224 172.692 136.243 174.767 136.262 176.841C136.265 177.179 136.272 177.517 136.276 177.854C136.059 177.656 135.762 177.517 135.382 177.484C132.408 177.222 129.412 177.338 126.428 177.348C123.498 177.358 120.567 177.368 117.637 177.378C111.72 177.397 105.808 177.455 99.8917 177.568C97.0148 177.623 94.1505 177.865 91.3156 178.33C92.4634 177.284 93.5793 176.207 94.6307 175.071ZM48.2685 212.801C47.1762 213.136 46.0918 212.991 44.9973 213.22C44.93 213.234 44.8679 213.26 44.811 213.294C41.5334 211.893 39.3487 209.082 37.8535 205.932C36.2775 202.612 35.1911 199.062 34.4634 195.464C32.9631 188.046 32.9604 180.354 33.7371 172.85C34.5001 165.477 36.011 158.144 38.167 151.054C39.6473 146.185 41.5339 141.267 44.1534 136.827C47.1781 138.855 49.5239 141.774 51.7338 144.627C54.3744 148.037 56.7541 151.645 58.8843 155.394C58.664 156.037 58.6298 156.842 58.5242 157.416C58.3205 158.523 58.1367 159.644 57.9921 160.76C57.6832 163.147 57.3868 165.534 57.071 167.92C56.4465 172.637 55.7009 177.341 54.8772 182.027C54.8105 182.407 54.9171 182.728 55.1132 182.968C53.4795 183.83 51.8671 184.729 50.2961 185.705C46.8423 187.849 43.6145 190.346 41.0802 193.549C41.0144 193.633 41.1176 193.744 41.1991 193.668C46.6337 188.645 53.3854 185.491 60.0144 182.374C63.4021 180.781 66.773 179.163 70.0232 177.3C73.4221 175.353 76.6635 173.153 79.7702 170.768C83.3178 168.045 86.6571 165.067 89.7875 161.873C90.1563 161.497 90.0669 161.025 89.7895 160.728C89.8832 160.699 89.9588 160.617 89.9637 160.481C90.0389 158.395 90.665 156.618 91.8909 154.93C93.0281 153.364 94.4775 152.073 95.7848 150.656C96.3658 150.026 96.9211 149.37 97.4168 148.67C97.9272 147.949 98.2381 147.154 98.6823 146.402C99.2011 145.522 99.6426 145.971 99.883 146.768C100.156 147.67 100.139 148.727 100.029 149.654C99.9134 150.636 99.6146 151.593 99.1842 152.481C98.7799 153.314 98.3139 154.162 98.5859 155.117C99.0331 156.687 100.95 157.596 102.402 157.95C104.02 158.344 105.711 158.267 107.349 158.063C109.399 157.807 111.44 157.433 113.467 157.034C115.815 156.573 118.149 156.041 120.464 155.44C121.553 155.157 122.633 154.786 123.732 154.552C124.124 154.468 124.85 154.343 125.31 154.547C119.39 158.078 112.936 160.43 106.381 162.479C105.567 162.734 105.901 163.964 106.734 163.76C113.776 162.038 120.402 158.841 126.707 155.34C126.804 155.286 126.885 155.203 126.946 155.105C127.58 154.881 128.225 154.687 128.882 154.527C129.176 154.456 130.688 153.957 130.877 154.149C131.145 154.42 130.218 155.302 129.987 155.558C128.339 157.384 126.379 158.875 124.257 160.107C122.105 161.356 119.816 162.353 117.515 163.293C114.938 164.346 112.214 165.174 109.71 166.384C108.715 166.865 109.413 168.499 110.461 168.168C111.812 167.74 113.125 167.113 114.438 166.579C115.553 166.127 116.669 165.674 117.778 165.206C118.551 164.88 119.319 164.542 120.079 164.19C118.94 165.262 117.801 166.334 116.662 167.407C114.689 169.265 112.815 171.381 110.404 172.684C108.022 173.972 105.304 174.121 102.652 174.094C101.321 174.08 99.9952 174.037 98.6639 174.091C97.2627 174.147 96.0184 174.363 94.6907 174.804C94.6662 174.812 94.6485 174.827 94.6335 174.843C94.587 174.787 94.5083 174.759 94.4269 174.807C90.8189 176.941 87.5301 179.709 84.3671 182.445C81.1071 185.265 78.0397 188.264 75.117 191.432C72.3195 194.464 69.5443 197.507 66.5002 200.297C63.5279 203.021 60.3516 205.494 57.0348 207.783C55.2277 209.03 53.3758 210.231 51.4597 211.305C50.4358 211.879 49.396 212.457 48.2685 212.801ZM48.5719 130.708C49.864 129.256 51.2547 127.91 52.7262 126.665C53.3755 126.858 54.0571 126.911 54.7438 126.918C55.7919 126.929 56.8422 126.972 57.8902 126.962C59.9082 126.941 61.9253 126.877 63.9438 126.866C68.0708 126.844 72.1992 126.843 76.3262 126.879C76.8669 126.883 77.257 126.652 77.4978 126.316C78.3333 127.264 79.1943 128.189 80.0625 129.1C81.4731 130.58 82.9769 131.992 84.5777 133.279C84.266 133.281 83.9545 133.284 83.6446 133.282C82.2171 133.272 80.7894 133.263 79.3621 133.256C76.4974 133.24 73.6327 133.228 70.7681 133.221C65.073 133.206 59.3601 133.253 53.6723 133.545C52.0937 133.626 50.5027 133.658 48.9296 133.812C48.0764 133.896 47.2241 133.993 46.3717 134.084C46.1973 134.103 46.03 134.126 45.8659 134.152C46.7007 132.952 47.5999 131.8 48.5719 130.708ZM71.3815 117.766C71.343 117.792 71.3014 117.816 71.2646 117.844C71.1808 117.907 71.194 118.02 71.2928 118.059C71.4242 118.11 71.5623 118.149 71.7044 118.179C72.1361 118.806 72.4734 119.58 72.7089 119.972C73.3856 121.1 74.1637 122.174 74.9553 123.223C75.1144 123.433 75.2766 123.641 75.4394 123.849C71.6061 123.84 67.7748 123.86 63.9438 124.005C61.9268 124.081 59.9029 124.145 57.8902 124.297C57.0626 124.359 56.2354 124.463 55.4104 124.567C59.7042 121.462 64.5331 119.091 69.5355 117.33C69.5287 117.338 69.5216 117.344 69.5148 117.351C69.4046 117.474 69.5691 117.632 69.6931 117.53C70.3439 116.992 70.9087 117.244 71.3815 117.766ZM90.7503 154.263C90.6414 154.428 90.5343 154.599 90.4298 154.773C90.1784 154.523 89.8273 154.355 89.3749 154.341C84.3532 154.184 79.334 154.047 74.3096 154.044C71.8317 154.042 69.3314 153.959 66.8567 154.081C65.614 154.143 64.3718 154.216 63.1298 154.287C62.2614 154.336 61.3389 154.397 60.4909 154.649C58.5365 151.229 56.367 147.941 53.9977 144.797C59.3733 145.457 64.841 145.387 70.2471 145.57C76.372 145.778 82.5004 145.822 88.6275 145.967C90.3082 146.007 91.9889 146.051 93.6692 146.098C94.5365 146.122 95.4039 146.147 96.2713 146.174C96.5424 146.182 96.8229 146.189 97.1038 146.182C97.0826 146.226 97.0611 146.27 97.0401 146.313C96.5672 147.29 95.9725 148.19 95.2795 149.024C93.8062 150.799 92.0265 152.327 90.7503 154.263ZM84.1624 164.797C83.9764 164.28 83.5232 163.882 82.8012 163.915C78.6867 164.102 74.5645 164.231 70.4547 164.502C68.4528 164.634 66.4426 164.723 64.4439 164.898C63.413 164.989 62.3839 165.157 61.3574 165.291C60.6536 165.382 59.9168 165.489 59.2417 165.739C59.3726 164.293 59.4881 162.847 59.5883 161.398C59.6687 160.234 59.6931 159.059 59.6869 157.892C59.6838 157.301 59.6638 156.707 59.6353 156.117C59.6959 156.129 59.7567 156.135 59.8164 156.128C59.9217 156.115 60.02 156.102 60.1113 156.078C61.0572 156.448 62.1279 156.53 63.1298 156.601C64.3182 156.686 65.5063 156.776 66.6946 156.861C69.2232 157.041 71.7755 157.03 74.3096 157.112C79.298 157.275 84.2874 157.37 89.2768 157.503C89.0453 158.497 89.0372 159.517 89.4077 160.479C89.1496 160.394 88.8525 160.433 88.5988 160.684C87.1617 162.104 85.6817 163.474 84.1624 164.797ZM69.6485 175.362C69.5469 175.081 69.3552 174.823 69.1283 174.648C68.2558 173.975 66.6632 174.363 65.616 174.414C64.3762 174.475 63.1363 174.535 61.8966 174.596C61.5204 174.614 59.6001 174.712 58.1896 175.013C58.4811 172.811 58.7455 170.606 58.9819 168.396C59.0315 167.933 59.0774 167.469 59.1229 167.005C59.7874 167.219 60.5095 167.297 61.1948 167.33C62.2218 167.379 63.2535 167.461 64.2815 167.478C66.3354 167.51 68.4006 167.408 70.4547 167.374C74.1539 167.313 77.8535 167.136 81.551 166.99C77.8387 170.005 73.916 172.755 69.8244 175.257C69.766 175.293 69.7068 175.327 69.6485 175.362ZM57.9648 176.669C58.2773 176.71 58.5872 176.724 58.8243 176.748C60.0143 176.868 61.1857 176.977 62.3817 176.994C63.5677 177.012 64.7534 177.029 65.9394 177.046C66.1916 177.05 66.4438 177.054 66.6959 177.057C63.5732 178.764 60.3547 180.292 57.1816 181.901C57.4611 180.16 57.7221 178.415 57.9648 176.669ZM91.9915 137.813C99.1081 140.838 108.236 141.113 114.352 136.087C114.96 136.253 115.632 136.309 116.168 136.363C117.374 136.484 118.569 136.595 119.78 136.633C122.141 136.707 124.505 136.817 126.867 136.846C131.646 136.905 136.425 136.933 141.204 136.976C141.611 136.979 141.936 136.855 142.183 136.656C142.667 137.477 143.117 138.319 143.528 139.181C144.127 140.44 144.635 141.74 145.053 143.07C144.963 143.055 144.87 143.044 144.771 143.042C138.49 142.933 132.205 143.114 125.924 143.14C119.64 143.167 113.358 143.14 107.075 143.184C105.337 143.197 103.611 143.197 101.876 143.326C100.974 143.394 100.06 143.423 99.1664 143.569C99.0665 143.585 98.9648 143.599 98.8623 143.614C97.6643 142.913 96.1771 143.059 94.8077 143.034C93.2355 143.004 91.6633 142.978 90.0912 142.954C87.0011 142.908 83.9107 142.875 80.8202 142.854C74.6868 142.812 68.5683 142.968 62.4388 143.182C59.3891 143.288 56.351 143.469 53.3406 143.938C53.1385 143.677 52.9383 143.414 52.7335 143.154C50.6005 140.449 48.0718 136.987 44.5617 136.149C44.6964 135.93 44.833 135.711 44.9717 135.495C47.4036 136.136 50.0863 136.104 52.571 136.238C55.435 136.393 58.293 136.5 61.1604 136.57C66.8603 136.71 72.5589 136.798 78.2599 136.885C79.8421 136.909 81.4244 136.934 83.0066 136.961C83.86 136.975 84.7135 136.991 85.5671 137.004C86.0439 137.012 86.4702 137.01 86.9245 136.852C87.3452 136.706 87.7554 136.486 88.1623 136.303C88.3042 136.24 88.4197 136.146 88.5139 136.035C89.6312 136.702 90.7889 137.302 91.9915 137.813ZM119.8 127.753C120.695 128.001 121.619 128.043 122.565 128.114C123.807 128.208 125.047 128.224 126.292 128.232C128.278 128.245 130.264 128.231 132.249 128.176C133.102 128.153 133.6 127.582 133.748 126.928C133.768 126.944 133.79 126.961 133.81 126.978C136.226 128.969 138.415 131.247 140.27 133.768C135.803 133.782 131.335 133.785 126.867 133.815C124.505 133.831 122.141 133.928 119.78 133.988C118.622 134.018 117.48 134.114 116.327 134.224C116.304 134.226 116.28 134.228 116.257 134.23C116.379 134.089 116.5 133.946 116.619 133.799C117.997 132.09 119.132 129.984 119.8 127.753ZM148.847 217.477C149.241 216.392 149.088 215.229 149.066 214.088C149.043 212.917 149.031 211.747 149.027 210.577C149.019 208.288 149.004 206 148.978 203.711C148.927 199.082 148.874 194.449 148.692 189.822C148.332 180.676 147.638 171.552 146.507 162.467C145.957 158.05 145.274 153.643 144.348 149.289C144.361 149.271 144.373 149.253 144.386 149.236C145.309 148.003 146.358 146.863 147.264 145.621C147.345 145.511 147.378 145.37 147.378 145.227C147.411 145.211 147.444 145.194 147.478 145.175C148.229 144.746 147.55 143.579 146.799 144.013C146.886 143.963 145.637 140.758 145.505 140.435C145.03 139.276 144.495 138.143 143.893 137.044C143.529 136.381 143.14 135.733 142.733 135.096C142.661 134.62 142.405 134.18 141.964 133.944C141.19 132.835 140.354 131.768 139.462 130.752C135.814 126.594 131.257 123.237 126.278 120.846C125.559 120.5 124.818 120.212 124.08 119.911C123.294 119.589 122.565 119.169 121.791 118.832C120.531 118.283 119.287 118.315 118.05 118.896C117.944 118.945 118.02 119.108 118.127 119.08C118.924 118.872 119.74 118.837 120.539 119.063C121.322 119.284 121.917 119.773 122.6 120.181C123.818 120.907 125.179 121.381 126.428 122.059C128.078 122.956 129.691 123.941 131.234 125.023C129.635 125.107 128.036 125.168 126.435 125.211C125.247 125.243 124.059 125.248 122.872 125.317C122.027 125.366 121.149 125.352 120.304 125.489C120.508 124.089 120.508 122.676 120.254 121.312C120.254 121.312 120.254 121.311 120.254 121.311C120.192 120.982 120.118 120.656 120.026 120.334C119.831 119.648 119.206 119.545 118.752 119.804C118.707 119.771 118.662 119.739 118.618 119.703C118.074 119.262 117.585 118.733 117.159 118.178C116.275 117.024 115.561 115.689 115.02 114.342C114.472 112.979 114.083 111.553 113.703 110.135C113.512 109.425 113.306 108.718 113.112 108.008C112.943 107.391 112.82 106.709 112.51 106.146C112.452 106.041 112.276 106.061 112.249 106.181C112.084 106.885 112.171 107.689 112.201 108.407C112.235 109.204 112.28 109.994 112.386 110.785C112.606 112.427 112.961 114.041 113.53 115.6C114.074 117.095 114.794 118.491 115.771 119.75C116.419 120.587 117.341 121.695 118.409 122.146C118.548 123.717 118.532 125.289 118.161 126.844C117.676 128.88 116.747 130.815 115.471 132.472C112.794 135.948 108.654 137.912 104.334 138.317C99.865 138.736 95.2914 137.736 91.2755 135.769C86.8087 133.582 83.1032 130.208 79.775 126.565C77.8563 124.466 75.8668 122.4 74.0887 120.179C73.7736 119.785 73.2692 118.986 72.6709 118.266C73.2798 118.26 73.9046 118.169 74.4436 118.1C75.5586 117.957 76.6483 117.735 77.7379 117.458C79.7751 116.94 81.9233 116.219 83.7035 115.078C87.4703 112.664 88.9407 109.602 89.4429 105.383C89.6017 104.049 87.2965 103.726 87.0818 105.063C86.752 107.12 86.253 108.12 85.5969 110.096C84.9659 111.994 84.0518 112.702 82.3048 113.748C80.6647 114.731 78.8008 115.302 76.9939 115.892C75.9927 116.219 74.9796 116.517 73.9698 116.817C73.3271 117.008 72.564 117.175 71.9119 117.471C71.5717 117.172 71.2168 116.947 70.8595 116.861C70.8858 116.817 70.8517 116.749 70.7858 116.762C70.6808 116.783 70.5762 116.806 70.4712 116.827C70.3657 116.835 70.2608 116.856 70.1559 116.894C63.8626 118.257 57.819 121.16 52.6941 125.115C52.4357 125.223 52.1858 125.355 51.948 125.523C51.8255 125.608 51.7444 125.745 51.721 125.886C50.9506 126.516 50.203 127.168 49.4807 127.844C43.6634 133.287 39.9774 140.528 37.3971 147.976C34.8552 155.313 33.1345 163.007 32.1884 170.71C31.2238 178.562 31.1127 186.577 32.5117 194.385C33.2628 198.578 34.4789 202.698 36.2739 206.565C37.8858 210.038 40.5095 213.994 44.6305 214.417C44.6437 214.43 44.6561 214.444 44.671 214.456C46.2879 215.788 48.6953 214.868 50.3858 214.073C50.6538 213.946 50.9197 213.814 51.1844 213.678C51.0445 214.216 50.9814 214.78 50.9523 215.309C50.8915 216.406 52.4386 216.469 52.7316 215.558C55.2396 215.999 57.8294 216.005 60.3661 215.991C63.2004 215.975 66.0338 215.877 68.8649 215.744C74.482 215.479 80.0925 215.074 85.7134 214.89C97.0948 214.517 108.507 215.313 119.88 215.715C123.07 215.827 126.26 215.94 129.45 216.052C132.71 216.167 135.966 216.189 139.199 216.63C140.388 216.792 140.844 215.627 140.508 214.901C140.592 214.413 140.509 213.878 140.463 213.304C140.377 212.23 140.297 211.156 140.221 210.082C140.073 207.987 139.931 205.892 139.795 203.796C139.521 199.55 139.285 195.3 139.056 191.051C138.599 182.603 138.25 174.148 137.993 165.692C137.93 163.631 137.849 161.569 137.745 159.509C137.868 159.313 137.991 159.118 138.11 158.92C138.505 158.261 138.892 157.597 139.293 156.941C140.095 155.625 140.903 154.318 141.747 153.028C142.476 151.914 143.228 150.818 144.014 149.744C144.99 157.985 145.857 166.234 146.255 174.527C146.693 183.662 146.926 192.811 147.052 201.955C147.088 204.509 147.111 207.064 147.139 209.619C147.153 210.949 147.167 212.279 147.156 213.609C147.145 214.881 146.953 216.273 147.404 217.477C147.668 218.18 148.588 218.192 148.847 217.477Z" fill="black"/>
<path fill-rule="evenodd" clip-rule="evenodd" d="M124.515 56.682C119.616 49.9361 110.595 47.9961 102.772 49.6368C87.478 52.4258 72.8662 64.0985 70.1638 79.9733C65.9478 89.5772 68.6401 104.704 80.9014 105.834C82.647 105.933 84.3761 105.531 86.1248 105.748C96.7976 107.453 109.41 114.754 118.857 106.144C119.331 106.484 119.954 106.648 120.485 106.442C124.507 104.888 124.696 100.391 125.038 96.6938C125.481 91.917 125.897 87.1377 126.284 82.3563C126.422 74.1107 129.689 63.8069 124.515 56.682Z" fill="white"/>
<path fill-rule="evenodd" clip-rule="evenodd" d="M94.8639 39.492C101.303 39.1495 113.167 42.0999 118.785 45.559C127.938 51.1948 128.647 62.4372 128.274 64.3811C128.132 65.1229 127.679 65.8095 126.97 65.5813C127.571 70.6888 127.524 73.6081 127.625 78.7451L127.694 82.1747C127.74 84.4611 127.778 86.7478 127.788 89.0352C128.02 88.9489 128.248 89.0547 128.333 89.2767C128.354 89.3305 128.28 89.3599 128.244 89.3289C127.837 88.9732 128.127 89.7837 128.267 89.9486C128.461 90.1753 128.784 90.3889 129.011 90.583L129.626 91.116L130.241 91.6479C131.036 92.334 131.805 93.0215 132.547 93.7607L132.749 93.9636C134.1 95.3367 135.794 96.6656 136.635 98.4417C137.439 100.138 137.191 102.06 135.856 103.412C135.37 103.903 134.803 104.278 134.186 104.562C135.283 106.369 135.443 108.758 134.299 110.617C133.153 112.483 130.949 113.46 128.826 113.31C128.761 113.575 128.66 113.835 128.527 114.081C127.685 115.628 126.011 115.829 124.423 115.746L124.361 115.743C120.788 115.537 117.35 114.642 114.22 112.902C113.135 112.975 112.166 112.083 111.954 111.105C111.384 111.084 110.81 111.036 110.225 110.969C108.489 110.769 106.709 110.395 105.178 109.513C104.943 109.378 105.052 109.021 105.313 109.014C107.178 108.972 109.045 109.101 110.906 108.898C112.615 108.714 114.435 108.243 116.028 107.602C118.891 106.447 121.346 104.489 122.7 101.775C124.454 98.2622 124.295 94.0435 124.485 90.2274C124.697 86.0034 124.957 81.7833 125.235 77.5636L125.37 75.5409C125.64 71.5983 125.863 69.4892 126.548 65.3971C124.485 65.5813 115.919 62.4969 113.255 57.4517C108.199 68.1847 82.5838 63.7921 81.4477 80.3155C81.4381 80.4556 81.2163 80.4166 81.2081 80.2827L81.187 79.9062C81.1767 79.7201 81.1675 79.537 81.1612 79.3552L81.1559 79.174L80.7533 79.1788C80.7533 79.2292 80.6816 79.2473 80.6636 79.1935C80.2838 78.1154 78.4743 78.4628 77.687 78.719C76.9779 78.9504 76.3095 79.3059 75.7096 79.7447C74.5049 80.6254 73.5708 81.8109 73.2611 83.2932C72.6726 86.1081 74.4642 88.975 76.8426 90.3334C78.3423 91.1896 79.9855 91.7424 81.4233 92.7128C82.6932 93.5689 83.8767 94.5719 84.902 95.7118C88.9644 100.227 91.3542 107.077 89.4322 113.037C89.2855 113.492 88.8975 114.012 88.384 114.086C87.5347 114.208 86.6854 114.084 86.2094 113.275C86.0236 112.959 85.9355 112.599 85.9551 112.243C85.6258 113.375 84.5581 114.494 83.5735 114.914C82.2318 115.488 80.7207 115.317 79.5372 114.577L79.3877 114.687C77.463 116.104 75.313 117.396 72.8471 117.135C71.0604 116.946 69.3064 116.036 68.3185 114.601C67.0046 115.34 65.601 115.929 64.1535 116.33L63.9994 116.372C62.0078 116.915 59.4674 117.412 57.6084 116.31C55.8234 115.252 55.23 112.941 55.649 111.012C55.6995 110.782 55.7631 110.558 55.8413 110.342C54.4981 110.413 53.1565 110.285 51.8817 109.89C50.5792 109.487 49.337 108.712 48.7127 107.457C48.0084 106.036 48.1959 104.422 48.7208 102.975C49.5603 100.655 50.9101 98.59 52.5908 96.7914C54.207 95.0603 56.1566 93.5916 58.1827 92.3674L58.5243 92.1629C60.3482 91.0747 62.5477 89.7994 64.7028 89.8834C64.6963 89.8556 64.6914 89.8294 64.6881 89.8018C64.3621 87.3997 64.3996 84.9502 64.323 82.5285C64.2529 80.3008 64.173 78.0732 64.1209 75.8439C64.0361 72.0538 64.0638 68.2477 64.5577 64.4838C64.9962 61.144 65.7852 57.8871 67.2247 54.8294C68.7358 51.6169 71.0115 48.8755 73.8219 46.7196C79.7198 42.1942 87.5103 39.8834 94.8639 39.492ZM74.8309 84.0076C75.4732 82.7959 76.9355 82.4143 78.2184 82.6328C80.0164 82.9394 81.2391 84.5116 82.2889 85.8636C83.3909 87.2805 81.0923 88.6162 80.5006 87.2432L80.3604 86.9188C79.8855 85.83 79.3245 84.6818 78.3553 83.9717C77.3251 83.2183 75.871 83.1074 74.9613 84.1087C74.8961 84.182 74.7869 84.0875 74.8309 84.0076Z" fill="black"/>
<path fill-rule="evenodd" clip-rule="evenodd" d="M101.778 90.0975C104.572 89.7582 107.281 90.614 110.013 91.0454C111.455 91.2731 112.899 91.443 114.359 91.5063C114.653 91.5191 114.946 91.5266 115.24 91.5326C115.268 91.2739 115.412 91.0363 115.726 90.894C116.369 90.6025 116.883 90.471 117.589 90.4991C118.235 90.5246 118.884 90.5911 119.52 90.7076C120.675 90.9195 121.835 91.4003 122.68 92.2357C124.636 94.1687 124.339 97.2736 122.827 99.379C119.705 103.73 114.007 103.931 109.127 103.875L108.676 103.869C104.233 103.805 97.8751 104.468 95.8562 99.4103C95.1138 97.5504 95.217 95.3947 96.1259 93.6108C97.2101 91.4832 99.4923 90.375 101.778 90.0975ZM115.659 97.3412L115.619 97.3428C113.57 97.4218 111.522 97.4773 109.472 97.5136C109.533 98.0402 109.596 98.567 109.667 99.0925C109.723 99.506 109.783 99.9191 109.846 100.332C109.873 100.506 109.97 100.778 109.942 100.951L109.932 101.019C110.038 101.067 110.133 101.143 110.204 101.255C110.229 101.293 110.247 101.332 110.265 101.371C111.856 101.383 113.569 101.352 115.191 101.063L115.195 101.028C115.224 100.82 115.31 100.681 115.425 100.585C115.539 99.9238 115.528 99.2192 115.573 98.5633C115.6 98.1557 115.63 97.7485 115.659 97.3412ZM107.906 97.5415C106.429 97.5666 104.952 97.586 103.476 97.568L102.805 97.5576C102.947 98.3172 103.101 99.0743 103.229 99.839C103.362 100.636 102.661 101.143 102.054 101.122C102.122 101.133 102.19 101.145 102.259 101.155C104.155 101.423 106.124 101.352 108.048 101.35C107.944 100.745 107.986 100.063 107.971 99.5584L107.968 99.4802C107.938 98.8336 107.918 98.1876 107.906 97.5415ZM97.8754 97.4021C97.9266 97.7971 98.0264 98.1837 98.1755 98.5436C98.8058 100.064 100.251 100.774 101.78 101.073C101.515 100.981 101.304 100.761 101.251 100.384C101.118 99.4459 101.071 98.4926 101.067 97.5404C100.001 97.5305 98.9287 97.5077 97.8754 97.4021ZM121.216 97.0774C120.457 97.2565 119.575 97.1744 118.831 97.2082C118.134 97.2399 117.436 97.2676 116.739 97.2958C116.772 97.7721 116.804 98.2482 116.838 98.7241C116.883 99.3393 116.887 99.9894 117.005 100.602C118.409 100.123 119.666 99.3544 120.61 98.1257C120.845 97.8195 121.055 97.4603 121.216 97.0774ZM101.457 92.5923C100.195 92.8915 98.9993 93.5234 98.3569 94.6795C97.9756 95.3656 97.8079 96.1787 97.8401 96.9799C98.9075 96.8556 99.9933 96.8085 101.074 96.7695C101.077 96.5749 101.082 96.3804 101.088 96.1864L101.105 95.689C101.134 94.7405 101.149 93.5494 101.457 92.5923ZM107.994 92.708L107.438 92.6456C105.894 92.4696 104.351 92.2848 102.806 92.3907C102.583 92.4061 102.356 92.4305 102.129 92.4638C102.402 93.4492 102.379 94.6064 102.493 95.5819C102.537 95.959 102.592 96.3331 102.654 96.7057L102.922 96.6931C104.579 96.6033 106.238 96.548 107.896 96.4822C107.896 96.1707 107.898 95.8591 107.903 95.5473L107.909 95.2354C107.928 94.4391 107.876 93.5419 107.994 92.708ZM115.749 92.5816C114.131 92.8427 112.46 92.8983 110.871 92.9003C110.237 92.9011 109.602 92.8621 108.968 92.8059C109.01 93.1435 109.031 93.4851 109.062 93.818C109.125 94.4909 109.196 95.1627 109.274 95.8338L109.344 96.4211C111.382 96.3287 113.42 96.2287 115.458 96.1252L115.746 96.1098L115.826 94.9811C115.881 94.2285 115.941 93.4761 116.027 92.7269L115.963 92.7038C115.888 92.6729 115.816 92.6304 115.749 92.5816ZM116.451 92.8618C116.54 93.9259 116.59 94.9945 116.655 96.0604L117.999 95.9886C118.223 95.9764 118.446 95.9639 118.67 95.951C119.541 95.9008 120.66 95.6371 121.52 95.8831C121.586 95.1004 121.362 94.3378 120.656 93.812C119.416 92.8884 117.838 93.2173 116.451 92.8618ZM111.861 83.3488C113.862 82.2027 118.881 81.0313 119.199 84.6329C119.345 86.2902 118.114 87.6635 116.675 88.2763L116.621 88.2989C115.272 88.8537 112.881 89.4802 111.714 88.2772C110.742 87.2759 112.031 85.4806 113.238 86.3008C113.859 86.7222 115.165 86.4117 115.857 86.2112L115.9 86.1986C116.648 85.9789 117.644 85.2759 117.335 84.3556C117.061 83.5415 115.898 83.3928 115.169 83.3664C114.082 83.3274 113.024 83.58 111.946 83.6622C111.775 83.6753 111.723 83.428 111.861 83.3488ZM120.148 77.5574C122.863 77.4302 124.552 80.396 123.928 82.826C123.82 83.2453 123.351 83.6569 122.899 83.6098L122.785 83.5993C122.727 83.5937 122.669 83.5864 122.615 83.5716C122.185 83.4526 121.8 83.0054 121.831 82.5419L121.84 82.4069C121.903 81.2589 121.779 79.9364 120.415 79.6584C119.258 79.4225 118.613 80.5362 118.599 81.5613C118.596 81.7433 118.392 81.8704 118.231 81.7725C117.395 81.2635 117.25 80.251 117.57 79.379C117.974 78.2741 118.987 77.6117 120.148 77.5574ZM99.9989 78.1935C101.975 77.534 104.107 78.5876 105.063 80.3352C105.399 80.4324 105.734 80.6912 105.688 81.0875C105.62 81.6576 105.519 82.017 105.124 82.4494C104.506 83.1257 103.348 82.7799 103.091 81.9473L103.08 81.9097C102.788 80.8336 101.604 80.1235 100.526 80.5002C99.2655 80.9402 99.302 82.2716 98.4182 83.0472C98.3143 83.1384 98.1898 83.1529 98.0652 83.0927C97.1264 82.6389 97.2952 81.2729 97.6298 80.4911C98.0688 79.4652 98.9221 78.5528 99.9989 78.1935ZM97.308 72.191C98.9091 70.5566 103.084 68.9751 104.18 71.9932C104.388 72.568 103.944 73.3431 103.346 73.4624C102.366 73.6574 101.497 73.2319 100.524 73.3082C99.7357 73.3704 98.914 73.6338 98.2841 74.122C96.5395 75.4743 96.1558 77.7614 94.9402 79.4826C94.881 79.5664 94.7661 79.5312 94.7551 79.4323C94.4783 76.9266 95.5542 73.9809 97.308 72.191ZM118.189 70.5821C119.252 70.2067 120.455 70.2388 121.523 70.5718C122.599 70.9074 123.587 71.5447 124.348 72.3774C124.693 72.7554 125.013 73.1726 125.269 73.6166C125.405 73.852 125.548 74.3381 125.703 74.6276C126.54 75.111 126.898 76.2126 126.148 76.9963L126.114 77.0307L126.014 77.1302C125.611 77.5291 125.004 77.7019 124.454 77.5426C123.224 77.1864 123.074 76.2169 122.648 75.1879C122.367 74.5082 121.885 73.9068 121.3 73.465C119.919 72.4213 117.654 72.0888 115.991 72.5806C115.903 72.6069 115.799 72.494 115.862 72.4121C116.177 72.0038 116.359 71.6687 116.781 71.3392C117.209 71.0049 117.676 70.7634 118.189 70.5821Z" fill="black"/>
<path fill-rule="evenodd" clip-rule="evenodd" d="M123.372 71.1025C127.198 71.1025 129.381 71.9257 130.182 71.9898L130.206 71.9915C130.539 72.0128 130.837 72.0407 131.15 72.1618C132.302 72.6056 132.49 73.8141 131.818 74.5757C131.77 76.1517 131.978 77.993 131.622 79.5741C131.184 86.2393 128.05 87.3641 126.269 87.7746C125.375 87.9808 124.315 88.0628 123.365 87.8452C121.745 87.7847 120.143 87.2773 118.773 86.3937C116.864 85.1621 115.446 83.2691 114.986 81.0226C114.768 79.9518 114.666 78.8372 114.785 77.7487L114.802 77.5987C114.182 77.3019 113.463 77.2457 112.722 77.2195C112.368 77.2069 112.019 77.1956 111.68 77.2106C111.349 77.2477 111.021 77.2969 110.693 77.3641C110.334 77.4723 109.995 77.651 109.683 77.9339L109.661 78.3469C109.602 79.3786 109.467 80.4133 109.258 81.4254C108.95 82.9189 108.454 84.3451 107.398 85.4045C107.041 85.9383 106.599 86.4148 106.062 86.8275C104.112 88.3292 101.464 88.8806 99.0324 88.6729C94.0968 88.2516 91.2439 84.332 90.5864 82.6567L90.5472 82.5552C90.0722 81.3097 89.6937 79.6936 88.193 79.426L87.8738 79.3687C87.189 79.2401 86.557 79.061 86.1555 78.3926C85.9795 78.1008 85.8889 77.7744 85.8667 77.4417C85.6325 77.4597 85.3985 77.4769 85.1654 77.4936C83.3056 77.8871 72.1509 78.2207 71.2605 78.2207C71.2605 78.2207 69.549 78.9413 68.8264 78.3829C68.3256 77.9947 68.1608 77.4772 68.4365 76.891C68.8525 76.009 70.7718 75.4784 71.624 75.3104C71.624 75.3104 85.3767 75.4247 86.3666 75.2369C86.979 74.6052 88.0745 74.6916 88.9899 74.5918C89.7477 74.0512 90.8078 73.6892 91.6452 73.4468C91.8159 73.3821 91.9849 73.3196 92.1492 73.2606C93.6844 72.7137 95.2801 72.424 96.9001 72.2685C98.5707 72.1096 100.246 72.1815 101.907 72.4091C102.607 72.5041 103.3 72.6269 103.989 72.7875C105.221 72.9501 106.447 73.2179 107.68 73.5356L107.927 73.5998C109.226 73.9404 110.56 74.2349 111.904 74.0041C112.999 73.8173 114.051 73.396 115.06 72.9403L115.192 72.8807C117.41 71.8673 120.875 71.1025 123.372 71.1025ZM103.855 74.8081C103.037 74.628 102.687 75.8906 103.508 76.0713C104.09 76.1992 104.583 76.4925 104.916 76.9896L104.951 77.0436C105.398 77.755 106.527 77.0983 106.078 76.3824C105.571 75.5767 104.785 75.0124 103.855 74.8081ZM127.832 74.0252C127.544 73.8218 127.107 73.9728 126.94 74.2602C126.755 74.5766 126.876 74.929 127.146 75.136L127.174 75.1562C127.422 75.331 127.663 75.6444 127.694 75.9654L127.696 76.0056C127.729 76.8458 129.034 76.8501 129.001 76.0056C128.97 75.1795 128.491 74.4893 127.832 74.0252Z" fill="black"/>
</svg>
