<svg width="307" height="384" viewBox="0 0 307 384" fill="none" xmlns="http://www.w3.org/2000/svg">
<path fill-rule="evenodd" clip-rule="evenodd" d="M292.023 231.04C294.592 229.701 297.101 228.246 299.571 226.731C301.31 225.693 299.77 223.076 297.987 224.021C297.075 224.505 296.166 224.993 295.255 225.474C295.972 224.857 296.637 224.185 297.234 223.453L297.192 223.412C299.492 221.355 296.538 217.475 293.924 219.164C291.618 220.833 289.291 222.536 286.644 223.635C281.162 225.956 275.115 226.34 269.231 226.407C267.078 226.245 265.021 226.618 262.932 227.033C263.751 223.752 265.801 221.274 266.888 218.097C267.69 214.888 263.052 212.703 261.408 215.787C261.005 216.544 260.62 217.31 260.244 218.08C256.691 221.307 250.758 221.023 247.175 224.487C245.134 226.296 244.135 228.75 243.741 231.213C243.473 232.886 243.889 234.562 242.876 236.044C237.979 242.959 230.242 253.89 226.312 261.501C223.53 243.416 216.101 221.047 208.426 204.511C205.888 199.222 202.985 194.055 199.174 189.572C199.606 188.077 198.081 185.423 197.111 186.24C194.126 182.6 188.85 181.657 184.608 179.847C178.881 177.402 174.13 172.32 171.794 166.544C168.793 155.545 161.405 154.147 151.16 154.634C141.354 154.621 134.099 158.809 131.96 168.775C127.613 176.339 117.351 175.088 109.968 177.09C104.557 178.325 99.3057 180.233 94.3152 182.655C88.7634 177.397 68.8799 199.464 67.0726 205.143C68.1366 205.349 69.194 205.597 70.2419 205.899C71.1752 206.168 70.7833 207.576 69.842 207.35C68.6707 207.069 67.4918 206.876 66.3074 206.742C66.2713 206.855 66.2396 206.967 66.2161 207.078C66.0831 207.069 65.9504 207.058 65.8174 207.049C66.1122 207.202 66.3959 207.38 66.6724 207.61C67.3408 208.164 66.4707 209.233 65.7605 208.791C65.0914 208.292 64.215 208.371 63.4125 208.203C63.3648 209.851 57.4759 208.007 56.5612 207.461C52.4957 206.953 48.3132 207.498 44.5179 205.541C39.468 204.479 34.3801 203.305 29.3868 201.952C28.065 202.467 26.8226 204.308 27.8725 205.659C28.4631 206.274 27.7039 207.278 26.9603 206.841C24.4663 205.375 22.5376 203.087 20.9023 200.622C20.1326 199.847 18.7663 200.014 17.7322 199.692C17.594 199.94 17.5124 200.216 17.5137 200.5C13.127 201.221 16.2563 206.004 18.4615 207.495C17.2917 208.255 17.2473 209.745 17.3496 210.988C17.1017 211.431 17.0189 211.98 17.2347 212.477C18.0596 214.375 19.8436 215.973 21.2001 217.511C22.6979 219.209 24.0333 220.917 25.8557 222.293C32.8021 227.58 41.1847 230.536 49.7844 231.691C52.8379 232.16 57.23 232.876 59.1207 235.454C58.6568 238.514 57.805 241.448 57.0323 244.432C55.9518 248.392 56.0253 252.538 56.011 256.575C55.86 256.454 55.57 256.479 55.5268 256.71C55.2754 258.383 55.0885 260.095 54.0697 261.501C53.1766 264.116 52.5822 266.905 52.2483 269.652C50.9106 282.676 50.5912 296.085 53.6073 308.906C54.7712 313.663 56.664 318.183 59.2431 322.346C60.012 323.587 61.2484 323.951 62.3585 323.707C66.0741 325.634 70.7547 326.252 74.7595 325.762C88.4127 321.903 83.6555 331.196 102.798 328.35C135.841 324.148 169.234 332.406 202.207 327.558C203.019 333.82 213.65 332.024 217.342 329.376C228.415 321.158 233.912 295.138 239.469 281.938C243.289 271.535 249.685 253.108 258.061 246.127C260.572 244.165 263.608 243.133 266.646 242.299C277.983 239.382 289.363 236.624 300.722 233.788C302.648 233.315 302.302 230.035 300.242 230.245C297.508 230.524 294.765 230.777 292.023 231.04Z" fill="white"/>
<path fill-rule="evenodd" clip-rule="evenodd" d="M39.6503 229.089C38.8826 228.994 38.13 228.721 37.3824 228.506C36.2409 228.173 35.1219 227.784 34.0206 227.341C31.7476 226.432 29.5424 225.357 27.4751 224.042C24.1359 221.915 21.1855 219.19 18.9602 215.909L18.8075 215.68C17.537 213.748 15.1936 209.458 17.8212 207.991C16.1277 206.578 14.5271 204.041 14.6174 202.082C14.7454 199.311 18.1473 199.349 19.906 200.524C21.0575 201.293 21.9205 202.37 22.7861 203.43C23.7444 204.607 24.768 205.729 25.8318 206.808C26.114 207.094 26.3991 207.374 26.6891 207.649L26.9808 207.923C26.9356 207.815 26.8955 207.705 26.8604 207.592C26.2733 205.766 26.9733 203.389 28.8022 202.553C29.9214 202.04 31.0838 202.353 32.1684 202.788L32.3346 202.856C33.7947 203.459 35.2724 203.993 36.7927 204.421C42.9895 206.167 49.4572 206.458 55.8069 207.33C58.253 207.668 60.7443 208.093 63.1778 208.719C64.106 204.784 66.3815 201.012 68.8502 197.909C80.6716 183.062 100.168 178.155 118.003 174.979C119.628 174.691 120.976 176.84 121.921 176.331C123.715 175.37 125.293 174.007 126.678 172.527C129.631 169.368 131.726 165.653 134.187 162.134C135.404 160.395 138.204 161.951 137.075 163.817L136.522 164.729C134.244 168.465 131.723 172.315 128.457 175.212C126.721 176.75 124.794 177.965 122.591 178.723C120.923 179.297 118.582 179.781 116.756 179.224L116.537 178.906C116.609 179.012 116.682 179.118 116.756 179.225C121.522 186.12 127.503 191.957 133.806 197.465C140.167 203.022 147.029 207.998 153.933 212.863L154.508 213.268C165.755 205.078 175.256 194.394 181.922 182.188C180.525 182.02 179.142 181.126 177.948 180.459C176.511 179.653 175.158 178.691 174.105 177.409C171.809 174.616 172.108 171.016 171.694 167.627C171.669 167.416 171.947 167.364 172.075 167.469C173.319 168.501 173.756 170.192 174.275 171.652C174.847 173.258 175.494 174.581 176.807 175.71C178.028 176.762 179.519 177.536 180.966 178.225C181.713 178.579 185.419 179.487 185.841 180.239C192.243 178.739 198.48 181.331 203.224 185.705C207.808 189.931 211.172 195.424 214.143 200.847C217.311 206.633 219.908 212.665 222.146 218.864C224.414 225.157 226.152 231.587 227.108 238.21C227.915 243.794 228.41 249.465 228.73 255.111L228.769 255.817C233.505 248.395 238.36 241.05 243.315 233.771C242.188 230.768 243.435 227.702 245.545 225.382C247.883 222.815 251.117 221.622 254.211 220.235L254.617 220.051C256.108 219.372 257.594 218.624 258.882 217.607C260.121 216.625 261.032 215.272 262.337 214.368C264.233 213.051 267.675 213.331 267.763 216.209C267.808 217.79 267.128 219.523 266.506 220.944C265.801 222.549 264.85 224.005 263.721 225.342C263.669 225.404 263.612 225.454 263.554 225.493L263.511 225.52C265.071 225.778 266.644 225.986 268.247 226.059C271.481 226.206 274.75 225.968 277.916 225.287C281.158 224.591 284.299 223.459 287.214 221.88C289.705 220.533 292.013 218.789 294.843 218.379C295.104 218.339 295.367 218.313 295.638 218.298C296.09 218.273 296.542 218.804 296.363 219.25C296.266 219.496 296.163 219.739 296.05 219.984C295.071 222.136 293.571 224.223 291.699 225.807L291.554 225.928C292.214 225.7 292.864 225.445 293.504 225.157C297.264 223.466 300.676 220.911 304.708 219.884C304.898 219.834 305.092 219.789 305.285 219.746C306.532 219.478 307.189 220.831 306.456 221.758C306.339 221.908 306.221 222.056 306.098 222.204C304.299 224.433 302.314 226.502 300.127 228.36C299.377 228.997 298.604 229.613 297.816 230.202C297.484 230.451 297.15 230.695 296.813 230.936L296.647 231.053C297.041 230.775 297.43 230.492 297.816 230.202C300.285 229.455 302.718 228.571 305.099 227.592C306.045 227.203 306.78 228.16 306.88 228.947C307.217 231.582 304.286 233.488 302.38 234.755C300.468 236.028 298.363 236.995 296.208 237.771C292.064 239.266 287.712 239.945 283.367 240.554L281.257 240.847C272.903 242.014 264.178 243.408 258.185 249.898C254.825 253.535 252.552 258.053 250.472 262.5C248.395 266.941 246.571 271.5 244.84 276.084C243.046 280.828 241.483 285.66 239.823 290.452C238.297 294.852 236.475 299.195 234.671 303.495L234.386 304.174C230.555 313.312 225.979 321.918 219.602 329.548C218.55 330.808 216.852 329.02 217.823 327.772C224.494 319.185 229.135 309.053 232.966 298.946C234.71 294.347 236.17 289.638 237.846 285.014L238.843 282.267C240.174 278.605 241.518 274.948 242.918 271.315C244.692 266.718 246.642 262.177 248.872 257.783L249.108 257.32C251.292 253.082 253.886 248.904 257.457 245.697C263.884 239.921 272.436 238.535 280.704 237.438L283.306 237.095C286.802 236.632 290.307 236.12 293.707 235.186C295.669 234.651 297.585 233.964 299.387 233.017C300.104 232.641 300.804 232.228 301.481 231.777C299.55 232.344 297.59 232.807 295.596 233.17C294.62 233.348 293.654 233.481 292.691 233.573C290.209 233.819 287.748 233.809 285.207 233.676C284.991 233.663 284.921 233.325 285.152 233.283C286.922 232.969 288.693 232.576 290.458 232.149L290.987 232.02C290.997 231.727 291.113 231.416 291.353 231.121C292.232 230.054 293.9 229.508 295.056 228.754C296.268 227.965 297.442 227.113 298.561 226.201C299.585 225.367 300.568 224.485 301.514 223.564L301.798 223.286C301.704 223.379 301.609 223.471 301.514 223.564C298.96 224.741 296.539 226.251 293.872 227.184C291.752 227.927 289.53 228.428 287.287 228.606L287.147 228.617L287.008 228.626C284.667 228.794 282.312 228.726 280.006 229.232C279.748 229.29 279.667 228.944 279.898 228.847C281.913 228.01 284.008 227.687 286.125 227.296C286.17 227.131 286.286 226.983 286.486 226.888L287.028 226.629C288.641 225.856 290.145 225.075 291.486 223.819C292.671 222.709 293.657 221.412 294.397 219.974C291.434 220.623 288.832 222.865 286.138 224.125C283.202 225.5 280.096 226.487 276.905 227.048L276.542 227.11C270.578 228.104 263.407 227.977 258.064 224.881C257.894 224.781 258.016 224.553 258.192 224.581C259.707 224.829 261.208 225.122 262.708 225.382C262.414 225.114 262.284 224.633 262.623 224.248C263.97 222.706 265.036 220.944 265.717 219.015L265.847 218.638C266.161 217.744 266.691 216.355 266.15 215.548C265.633 214.779 264.416 214.884 263.689 215.21C262.176 215.891 261.17 217.592 259.896 218.619C258.506 219.741 256.925 220.573 255.307 221.317L254.965 221.472C252.166 222.729 249.176 223.787 246.975 226.006C245.791 227.198 244.772 228.689 244.431 230.359C244.276 231.126 244.276 231.915 244.481 232.674C244.644 233.268 244.986 233.634 244.79 234.237C244.534 235.016 243.628 235.948 243.162 236.642C242.62 237.444 242.081 238.247 241.541 239.051C240.465 240.66 239.394 242.273 238.322 243.883C236.18 247.11 234.06 250.351 231.957 253.602C231.273 254.661 230.592 255.721 229.912 256.782L228.894 258.374L228.356 259.214L227.439 260.653C227.472 260.786 227.469 260.927 227.427 261.049C227.27 261.494 226.977 261.798 226.613 262.018L226.549 262.056C221.195 270.505 215.926 279.009 210.605 287.479C210.322 290.063 210.056 292.651 209.825 295.239C209.3 301.095 208.942 306.967 208.826 312.846C208.771 315.691 208.999 318.554 209.122 321.397C209.183 322.754 209.265 324.109 209.373 325.464L209.452 326.425C209.558 327.744 209.618 329.054 209.142 330.312C208.721 331.417 207.436 331.665 206.676 330.823C196.759 330.425 186.834 330.122 176.909 329.934C159.145 329.593 141.372 329.646 123.605 329.989C114.681 330.162 105.755 330.405 96.8334 330.705C92.438 330.851 88.04 331.056 83.6421 331.116C81.2726 331.149 77.5434 330.287 77.3522 327.626L77.3475 327.544C77.0515 327.624 76.7454 327.69 76.4318 327.737C76.2922 327.759 76.1581 327.752 76.0342 327.724L75.9727 327.707C72.4406 328.782 67.9727 327.248 64.6165 326.355L64.3394 326.282C61.1357 325.448 58.5617 324.255 56.4618 321.605C52.7864 316.964 51.532 310.731 50.8797 304.988C50.2676 299.582 50.2324 294.077 50.9775 288.681C50.5385 284.285 50.9675 279.749 51.4667 275.377C51.7126 273.216 52.0011 271.056 52.3473 268.907C52.5405 267.707 52.7939 266.52 53.0523 265.335C53.1555 264.862 53.2414 264.352 53.3721 263.859L53.4311 263.649C53.0297 263.702 52.5907 263.614 52.1667 263.382C51.1581 262.828 50.8646 261.708 50.847 260.636C50.7918 257.405 51.1782 254.081 51.5194 250.87C51.8631 247.663 52.3348 244.444 52.9519 241.278L53.1116 240.462C53.5793 238.093 54.1144 235.648 55.0568 233.423C51.517 232.822 47.9871 232.183 44.5525 231.096C42.8766 230.562 41.2259 229.899 39.6503 229.089ZM224.414 262.718C224.358 262.73 224.306 262.745 224.253 262.76C222.838 263.156 221.408 263.492 219.983 263.852C217.519 264.471 215.111 265.162 212.82 266.237C212.341 272.284 211.629 278.311 210.953 284.341L210.818 285.547C211.857 283.623 212.921 281.715 214.032 279.829C217.416 274.08 220.879 268.376 224.414 262.718ZM54.2941 263.316C54.3017 264.035 54.1512 264.782 54.0709 265.473C53.9404 266.595 53.8351 267.723 53.7021 268.845C53.4311 271.099 53.2003 273.356 53.0322 275.62C52.9244 277.066 52.8541 278.516 52.7914 279.967C54.2139 274.658 56.098 269.466 57.8893 264.266C57.5899 264.234 57.2838 264.161 56.9681 264.077L56.4365 263.934C56.1231 263.854 55.1064 263.604 54.2941 263.316ZM228.894 258.374L228.904 258.612C228.942 259.456 228.435 259.932 227.821 260.055C228.177 259.494 228.536 258.933 228.894 258.374ZM66.1231 218.366C67.6209 218.499 69.0885 218.817 70.4885 219.368L70.6235 219.421C71.659 219.82 73.1729 220.321 73.5116 221.425C73.6069 221.738 73.351 221.996 73.0575 222.021C71.9335 222.111 70.6089 220.908 69.5677 220.503C68.4087 220.052 67.1944 219.716 65.9651 219.538C63.2029 219.135 60.3228 219.441 57.7237 220.445C57.5706 220.505 57.4753 220.262 57.6133 220.19C60.2325 218.767 63.1452 218.103 66.1231 218.366ZM34.3844 225.53C34.2111 225.377 34.038 225.217 33.8674 225.057C32.5224 223.786 31.3312 222.304 30.4493 220.674L30.2172 220.233C29.4989 218.845 28.6168 216.867 30.3049 215.866C31.3135 215.268 32.5277 215.418 33.6517 215.781C33.7244 215.803 33.7972 215.829 33.8699 215.854C34.3717 216.029 34.8559 216.239 35.2874 216.44C37.1615 217.299 38.8148 218.549 40.5459 219.651C42.4215 220.846 44.2736 221.61 46.4384 222.057L46.6423 222.098C48.6744 222.499 50.8771 222.757 52.2946 224.425C52.6508 224.846 52.3247 225.635 51.71 225.427C47.7913 224.107 43.6442 223.817 40.0466 221.65C38.5564 220.753 37.1464 219.724 35.6236 218.874C34.8158 218.423 33.9817 218.029 33.0929 217.758L32.6073 217.615C32.3229 217.532 31.9833 217.451 31.755 217.532C31.3204 217.682 31.4591 217.915 31.5936 218.32L31.607 218.361C32.6632 221.623 35.6738 224.353 38.4636 226.159C39.1033 226.575 39.7581 226.956 40.4254 227.309C44.9427 229.713 49.9971 230.832 54.9613 232.16C54.9613 232.16 57.8316 232.96 58.7824 233.26C59.8411 233.172 61.0479 233.546 61.8457 233.992C62.6209 234.425 63.2456 235.006 63.7172 235.69C63.7172 235.69 64.1713 236.068 64.2541 236.654C64.4925 237.198 64.653 237.784 64.7333 238.395C64.7785 238.753 64.6882 239.029 64.5176 239.224C65.0307 247.088 62.9034 254.907 60.505 262.38L60.2673 263.117L60.1146 263.584C57.528 271.507 54.5601 279.373 53.2355 287.634C52.3499 293.152 52.3775 298.863 53.0272 304.406L53.0731 304.789C53.7133 310.03 54.9451 315.909 58.2832 320.127C59.9858 322.28 62.003 323.237 64.582 323.93L64.7233 323.967C67.0565 324.581 69.4649 325.45 71.8709 325.713C74.1037 325.956 75.9753 325.127 77.9848 324.35L77.9873 324.348C82.2196 320.608 84.1414 315.163 85.5614 309.667C89.2418 295.444 88.7852 280.68 86.6979 266.25C85.609 258.71 84.1288 251.235 82.6537 243.763C81.9161 240.028 81.1208 236.301 80.461 232.554L80.0691 230.348C79.8529 229.123 79.6437 227.897 79.465 226.665C79.2241 225.009 79.1514 223.381 79.0686 221.715C77.0415 218.361 74.0986 215.598 70.6892 213.617C68.2481 212.197 65.6641 211.212 62.9972 210.498C55.3729 208.447 47.0613 208.592 39.3893 207.014C36.812 206.484 34.3656 205.698 31.9204 204.756L31.587 204.627C30.4655 204.191 29.3215 203.948 28.7646 205.268C28.3682 206.207 28.604 207.184 29.1986 207.973C30.6562 209.907 33.5865 210.804 35.7917 211.5C37.1189 211.921 38.4736 212.254 39.8434 212.502C41.2132 212.75 42.5881 212.813 43.9027 213.296C44.4095 213.482 44.5098 214.286 43.9027 214.428C42.2368 214.817 40.5609 214.483 38.9051 214.16C37.0863 213.802 35.295 213.294 33.5539 212.65C33.2327 212.532 32.9004 212.407 32.5619 212.275L32.307 212.174C32.5704 212.365 32.8338 212.552 33.0998 212.74C33.17 212.79 33.1274 212.923 33.0345 212.89C28.9407 211.365 25.2157 208.614 22.3301 205.359L22.1865 205.196C21.1704 204.033 18.8548 200.516 16.9029 201.496C15.0701 202.414 18.1944 205.955 19.3818 207.403L19.5197 207.573C20.8694 207.608 22.1765 208.447 23.2703 209.123C25.1695 210.298 27.154 211.31 29.1761 212.256C33.1952 214.143 37.4626 215.473 41.4391 217.454C41.4918 217.482 41.4516 217.549 41.4014 217.542C38.8701 217.139 36.3663 216.495 33.9202 215.696L33.8111 215.662L33.7019 215.626C32.1741 215.125 30.6663 214.559 29.1836 213.955C27.5353 213.284 25.9246 212.53 24.3617 211.676C22.9467 210.904 21.3762 209.514 19.7354 209.308C19.5598 209.286 19.4043 209.283 19.2688 209.296C17.3847 209.454 18.9427 212.57 19.4695 213.502C20.33 215.032 21.3687 216.445 22.5604 217.735C24.9763 220.355 27.9041 222.431 31.0727 224.047C32.154 224.598 33.2604 225.084 34.3844 225.53Z" fill="black"/>
<path fill-rule="evenodd" clip-rule="evenodd" d="M201.683 112.733C200.732 97.1525 195.668 79.4877 180.765 71.8378C147.91 58.6726 104.713 91.8263 102.426 125.695C101.628 137.289 108.075 149.958 119.857 153.181C122.476 156.646 126.438 158.762 130.348 160.599C176.918 184.723 207 165.112 201.683 112.733V112.733Z" fill="white"/>
<path fill-rule="evenodd" clip-rule="evenodd" d="M212.292 103.041C210.647 98.4774 208.908 93.9485 207.079 89.4547C205.298 85.0812 203.689 80.6131 201.477 76.4468C188.266 51.5632 164.241 51.5632 151.823 54.8146C145.383 52.0442 133.32 52.8256 126.614 55.3256C115.758 59.3727 102.525 75.2933 97.9999 82.4463C88.0101 98.2394 81.7757 119.26 88.4115 137.509C89.2788 139.895 90.3849 142.104 91.6303 144.232C90.8458 145.294 89.9429 146.3 88.9426 147.287C85.9702 150.224 82.9977 153.063 80.43 156.375C77.8783 159.666 75.7629 163.166 74.1881 167.025C71.2187 174.302 71.0757 182.542 75.0014 189.486C78.4169 195.528 84.4674 200.027 91.2841 200.456C91.634 200.504 91.9845 200.549 92.3365 200.584C93.2397 202.07 94.341 203.437 95.598 204.63C99.449 208.287 108.629 210.163 113.865 210.283C114.133 210.499 114.404 210.714 114.675 210.927C117.879 213.444 121.24 215.984 124.918 217.775C127.41 218.99 130.676 220.005 133.275 219.128C134.454 219.915 136.389 219.749 137.558 219.105C139.479 218.048 141.042 216.145 141.993 214.196C144.299 209.464 143.744 204.287 143.152 199.232C142.5 193.648 141.873 188.062 141.236 182.479C140.736 178.113 140.214 173.674 138.885 169.469C138.197 167.289 137.297 165.195 136.133 163.226C136.163 163.061 136.158 162.896 136.11 162.74C135.729 161.503 134.941 160.854 134.008 160.013C133.887 159.905 133.767 159.795 133.649 159.682C133.182 159.151 132.683 158.657 132.149 158.239C131.943 158.031 131.74 157.821 131.537 157.61C129.848 155.844 128.253 153.988 126.835 151.999C125.46 150.071 124.218 148.057 123.037 146.005C121.835 143.919 121.04 141.617 119.841 139.545C119.738 139.367 119.477 139.332 119.331 139.48C118.96 139.863 118.722 140.289 118.767 140.737L118.581 140.765C118.511 140.089 117.886 139.538 117.038 139.685C115.769 139.906 114.725 139.988 113.626 139.568C113.819 138.288 113.998 137.005 114.173 135.72C114.494 133.355 114.793 130.983 115.049 128.611C115.668 128.759 116.283 128.972 116.885 129.242C117.743 129.626 118.553 130.142 119.246 130.775C119.928 131.402 120.4 132.246 121.233 132.682C122.191 133.18 123.348 132.356 123.067 131.274C122.497 129.087 119.274 127.835 117.279 127.421C116.594 127.279 115.894 127.218 115.194 127.234C115.352 125.711 115.493 124.188 115.608 122.662C115.663 121.941 115.714 121.219 115.761 120.495C117.312 120.027 118.972 119.887 120.586 120.107C121.117 120.53 121.649 120.949 122.164 121.372C123.797 122.72 125.423 124.075 127.028 125.455C127.174 125.578 127.317 125.701 127.462 125.826C128.416 126.645 129.605 125.833 129.444 124.674C128.135 115.17 133.965 107.61 140.792 101.754C148.348 95.2686 162.086 94.5134 171.073 83.2802C175.212 84.1212 184.452 86.6192 188.266 92.6861C193.604 101.188 192.907 108.805 193.313 118.449C193.72 128.1 194.753 138.167 192.558 147.683C190.534 156.458 185.052 163.955 176.547 167.402C176.336 167.487 176.123 167.57 175.91 167.65C171.512 169.306 166.712 169.774 162.086 168.902C156.966 167.936 152.691 165.596 148.431 162.718C148.185 162.555 147.826 162.891 148.012 163.136C153.627 170.566 164.655 173.048 173.403 171.087C173.812 170.994 174.219 170.894 174.623 170.784C172.666 176.402 173.06 182.569 175.609 188.04C177.142 191.331 179.48 194.179 182.327 196.426C185.466 198.901 189.359 200.9 191.537 204.374C193.532 207.558 192.939 211.135 189.525 212.973C188.664 213.439 188.333 214.945 189.186 215.606C189.512 215.857 189.839 216.112 190.172 216.363C192.084 217.803 197.335 220.508 198.185 220.608C205.737 221.503 210.815 215.967 214.069 209.437C217.89 201.772 216.896 192.431 212.686 185.132C209.309 179.275 202.659 173.504 205.303 166.092C206.246 163.444 208.175 161.187 210.05 159.148C212.187 156.826 214.485 154.652 216.535 152.247C218.572 149.86 220.378 147.263 221.387 144.267C222.859 139.888 222.127 135.154 221.021 130.783C218.65 121.4 215.571 112.142 212.292 103.041Z" fill="black"/>
<path fill-rule="evenodd" clip-rule="evenodd" d="M169.993 152.029C168.307 151.342 166.802 150.196 165.702 148.732C165.319 148.223 165.22 147.686 165.3 147.194C165.391 146.642 165.718 146.141 166.165 145.805C166.613 145.468 167.173 145.302 167.715 145.386C168.185 145.46 168.654 145.717 169.025 146.251L169.102 146.358C169.756 147.241 170.609 147.966 171.58 148.433C172.516 148.884 173.563 149.094 174.646 148.972C176.709 148.739 178.131 147.625 179.643 146.112C179.83 145.921 180.017 145.724 180.206 145.524C180.325 145.342 180.49 145.226 180.673 145.165C180.877 145.097 181.107 145.101 181.318 145.174C181.521 145.245 181.703 145.379 181.825 145.558C181.941 145.728 182.006 145.938 181.985 146.179C181.847 147.747 181.026 149.146 179.86 150.245C178.565 151.465 176.848 152.309 175.231 152.605C173.451 152.931 171.636 152.698 169.993 152.029V152.029ZM176.071 127.841C177.966 128.991 180.853 131.672 178.815 134.523C176.416 137.036 172.962 134.154 171.26 132.851C169.681 131.841 167.908 134.439 169.372 135.618C181.671 144.71 186.663 128.142 177.03 126.49C175.969 126.308 175.575 127.486 176.071 127.841ZM154.031 117.266C154.241 114.672 158.198 114.082 158.591 116.649C158.944 118.949 158.529 121.061 157.491 123.132C156.5 125.109 154.009 124.187 153.82 122.386C153.568 119.972 153.901 118.879 154.031 117.266ZM184.153 116.117C184.705 115.396 185.501 114.903 186.456 115.182C189.437 116.052 188.558 120.278 187.511 122.335C186.942 123.453 185.103 123.736 184.272 122.752C182.917 121.148 182.268 117.945 183.991 116.364C184.037 116.283 184.089 116.2 184.153 116.117ZM157.449 105.915L157.92 105.832C159.378 105.581 161.189 105.339 162.22 106.508C162.767 107.129 162.955 108.281 162.22 108.875C160.927 109.92 159.498 109.515 157.949 109.603C156.673 109.676 155.446 109.887 154.217 110.238C151.519 111.008 149.321 112.413 147.017 113.956C146.715 114.159 146.406 113.773 146.551 113.49C147.881 110.889 150.458 108.753 153.04 107.451C154.417 106.756 155.925 106.179 157.449 105.915ZM181.435 104.749L181.795 104.823C185.718 105.642 190.815 107.277 192.673 111.125C192.744 111.669 192.669 111.785 192.608 111.862L192.588 111.887C192.538 111.952 192.498 112.042 192.262 112.116C192.196 112.1 192.13 112.084 192.063 112.066C191.212 111.843 190.538 111.536 189.886 111.218L189.178 110.87C188.358 110.468 187.53 110.081 186.653 109.795C184.781 109.186 182.855 108.756 180.9 108.527C180.476 108.477 180.068 108.334 179.746 108.09C179.44 107.857 179.207 107.536 179.1 107.108C178.962 106.555 179.002 106.136 179.299 105.637C179.523 105.262 179.843 105.002 180.21 104.853C180.585 104.701 181.011 104.665 181.435 104.749Z" fill="black"/>
</svg>
