<svg width="138" height="168" viewBox="0 0 138 168" fill="none" xmlns="http://www.w3.org/2000/svg">
<path fill-rule="evenodd" clip-rule="evenodd" d="M121.612 95.0495C119.192 85.2173 110.609 77.5877 99.0664 73.787C96.8477 72.7108 94.6969 68.093 91.7151 67.2473C91.2371 67.1117 91.9916 68.1906 91.7151 68.255C90.7289 68.4849 89.624 68.5089 88.5352 67.6789C86.5893 66.1957 85.9788 61.8624 84.7956 59.9038C78.5558 49.5746 62.9764 53.6161 60.8892 65.0348C59.4339 65.8483 57.3766 66.5649 55.7924 67.2204C54.1612 67.8955 52.7263 69.5304 51.0452 70.1149C49.5452 70.6365 47.0738 70.267 45.5623 70.7217C38.6107 72.8129 32.7229 75.4517 28.1069 80.7982C27.1342 81.9258 26.0378 83.3121 25.1527 84.4512C20.5895 88.9562 17.42 94.0055 14.5008 99.4228C6.33372 115.324 4.11228 132.929 2.11923 150.061C2.16456 153.059 -0.154863 161.371 3.27562 162.808C3.0706 162.99 3.14487 163.356 3.52528 163.353C12.2236 163.278 20.9017 163.945 29.4651 165.243C33.5968 165.87 37.7064 166.728 41.9149 166.87C50.6513 166.818 59.3562 165.562 68.0811 166.75C78.5697 166.75 91.3167 166.488 102.985 166.104C113.891 165.744 124.854 166.556 135.625 164.966C136.477 164.85 136.894 163.958 136.715 163.319C135.451 159.371 134.831 155.307 134.122 151.265C134.263 148.673 134.01 145.967 132.892 143.552C129.971 127.253 126.224 111.059 121.612 95.0495Z" fill="white"/>
<path fill-rule="evenodd" clip-rule="evenodd" d="M118.092 116.473C117.862 117.432 117.54 118.39 117.111 119.298C116.697 120.174 116.075 120.959 115.646 121.824C115.589 121.941 115.495 122.029 115.381 122.097L115.417 122.332L115.449 122.568C115.663 124.157 115.904 125.741 116.112 127.33L116.213 128.125C116.623 131.443 117.269 134.744 117.771 138.052C118.263 141.292 118.764 144.532 119.299 147.768C119.851 151.103 120.414 154.435 121.072 157.757C121.349 159.16 121.639 160.562 121.94 161.962L122.173 163.034C124.572 163.529 125.228 166.397 122.785 167.456C121.677 167.934 120.252 167.819 119.339 167.067C118.389 166.283 118.35 164.87 118.129 163.809L117.917 162.823C116.329 155.406 114.95 147.904 114.306 140.383C114.14 138.441 114 136.498 113.91 134.552C113.824 132.723 113.865 130.893 113.832 129.063L113.821 128.564C113.77 126.613 113.812 124.665 113.871 122.714C113.878 122.476 113.891 122.239 113.905 121.999C113.825 121.919 113.767 121.823 113.743 121.73L113.711 121.608C113.633 121.292 113.721 120.923 114.004 120.697C114.126 119.368 114.286 118.04 114.33 116.713C114.333 116.603 114.516 116.607 114.527 116.713C114.63 117.843 114.836 118.976 115.041 120.108C116.364 119.196 117.343 117.692 117.92 116.433C117.961 116.342 118.117 116.375 118.092 116.473ZM86.7842 63.6327C87.0039 64.4939 87.438 65.267 88.0203 65.9862C88.2976 66.3301 88.613 66.65 88.9913 66.9176C89.3158 67.1463 89.6854 67.2958 90.0304 67.4948C90.5325 67.4273 91.0573 67.5905 91.4094 67.9073L91.3538 67.4439C91.3362 67.2944 91.6258 67.2645 91.6589 67.4094C93.1841 74.0061 94.5752 80.6071 95.7793 87.2516L96.3071 90.1858L96.8037 92.9405C97.6283 97.5308 98.4259 102.119 99.0265 106.743C99.8267 112.914 100.5 119.1 100.991 125.296C101.485 131.535 101.788 137.779 102.004 144.03C102.058 145.606 102.116 147.18 102.171 148.756L102.544 146.872C102.915 144.988 103.28 143.102 103.592 141.209C104.713 134.434 105.61 127.612 106.047 120.779C106.448 114.527 106.314 108.15 104.459 102.059C103.992 100.526 103.42 99.0178 102.729 97.5481C102.06 96.1189 101.146 94.794 100.426 93.3858C99.5895 91.7471 99.3384 90.2012 99.7692 88.4369C100.146 86.8999 100.807 85.4542 100.925 83.8723C101.146 80.9359 100.032 78.092 98.4582 75.5221C98.0431 74.8448 97.6055 74.1765 97.1487 73.514C95.7664 71.5122 94.2076 69.5833 92.5899 67.734C92.5027 67.6353 92.6873 67.5262 92.7817 67.6069C94.2564 68.8568 95.869 70.0858 97.1959 71.4509C97.8408 72.1147 98.4702 72.7918 99.0664 73.4872C105.608 74.4247 111.229 77.9186 115.071 82.5327C119.431 87.7686 121.636 94.0706 123.268 100.277C125.083 107.174 126.614 114.134 128.244 121.065C129.932 128.237 131.61 135.409 133.309 142.58C134.152 146.14 134.996 149.7 135.838 153.261C136.265 155.064 136.714 156.863 137.182 158.66C137.423 159.581 137.681 160.5 137.904 161.424C138.155 162.466 137.922 163.133 137.099 163.899C136.795 164.183 136.316 164.178 135.939 164.027L135.822 163.98L135.708 163.933C135.242 163.736 134.877 163.533 134.587 163.096C134.267 162.616 134.217 162.084 134.107 161.55C133.905 160.567 133.704 159.585 133.502 158.601C133.2 157.13 132.871 155.663 132.537 154.197L130.859 146.867C130.412 144.913 129.964 142.959 129.513 141.005C127.904 134.02 126.293 127.036 124.682 120.053C123.136 113.347 121.767 106.595 120.007 99.9283L119.906 99.5527L119.805 99.1776C118.23 93.4303 116.031 87.8708 112.039 83.0007C108.967 79.2554 104.701 75.9108 99.6766 74.2182C100.031 74.6549 100.371 75.1004 100.695 75.555C102.731 78.4077 104.218 81.7941 103.869 85.191C103.699 86.8506 102.963 88.4818 103.033 90.1548C103.097 91.641 104.17 92.9462 104.91 94.2394C106.593 97.1699 107.81 100.284 108.594 103.479C110.169 109.895 110.163 116.496 109.621 123.008C109.032 130.088 107.913 137.166 106.638 144.176C105.984 147.772 105.114 151.338 104.448 154.928C104.119 156.698 103.671 158.464 103.278 160.225L103.092 161.067C102.987 161.534 102.878 161.999 102.753 162.46L102.675 162.735V162.785C102.672 163.124 102.564 163.405 102.389 163.63C102.151 164.286 101.854 164.926 101.46 165.54C101.258 165.854 100.965 166.031 100.646 166.095C100.325 166.724 99.5982 167.209 98.7301 167.206L87.3124 167.169C80.6805 167.146 74.0487 167.109 67.4168 167.077C65.7433 167.07 64.0714 167.043 62.3994 167.006C60.8321 166.968 59.3293 166.807 57.7794 166.639C56.0289 166.451 55.0807 165.388 55.3422 163.888C55.3997 163.558 55.4623 163.229 55.5217 162.9C55.1731 162.999 54.7581 162.952 54.4774 162.718L54.2143 162.497C53.8495 162.187 53.5232 161.883 53.2919 161.47C53.0531 161.046 52.8594 160.597 52.6484 160.164C52.1934 159.231 51.7508 158.295 51.32 157.355C50.4572 155.474 49.5942 153.585 48.792 151.685C47.204 147.922 45.7986 144.102 44.5767 140.238C42.3974 133.346 40.8212 126.32 39.8275 119.232L39.5899 117.543L39.5208 117.044C39.144 114.296 38.8268 111.506 38.9767 108.765C39.0693 107.048 39.3794 105.318 40.1275 103.715C40.8177 102.237 41.8829 100.972 42.8959 99.6503L43.0118 99.4978L43.1283 99.3415C44.0141 98.141 44.719 96.886 44.7543 95.4281C44.7901 93.9487 44.2875 92.5089 43.7256 91.1238L43.5856 90.7823L43.4916 90.5562C42.2961 87.6936 40.9357 84.8716 41.3843 81.7567C42.047 77.1697 45.2896 73.4723 49.3693 70.6211C45.7411 71.2371 42.1499 72.4539 38.9804 73.997C35.2371 75.8211 31.8671 78.2282 28.9609 80.9449C23.4692 86.079 19.5483 92.239 16.3388 98.5993C12.9791 105.256 10.4878 112.23 8.61036 119.296C6.72225 126.403 5.45829 133.623 4.59513 140.871C4.16469 144.479 3.82629 148.095 3.54578 151.713C3.40282 153.567 3.29473 155.424 3.12737 157.275C2.96 159.125 2.88486 161.003 2.35835 162.803C2.11253 163.642 0.454561 163.727 0.276909 162.803C-0.117356 160.739 -0.00716947 158.605 0.102866 156.516L0.112855 156.326C0.22112 154.245 0.362335 152.165 0.529527 150.085C0.871408 145.835 1.328 141.59 1.92425 137.359C4.01458 122.506 7.86941 107.731 15.4305 94.1737C18.9906 87.7881 23.56 81.5833 29.9164 76.9723C32.9428 74.7788 36.3546 73.0281 40.0315 71.7603C43.3197 70.6255 46.66 70.0888 50.1538 70.0903C51.9059 68.9391 53.7871 67.9358 55.6663 67.079C55.7796 67.0268 55.8981 67.1524 55.8042 67.2331C55.7554 67.2735 55.7081 67.3152 55.6595 67.3542C55.8722 67.3662 56.0917 67.4514 56.2887 67.6293C56.9792 68.2497 57.5615 69.0258 58.0826 69.8315C58.8759 70.6809 59.6325 71.5584 60.4242 72.3986C61.6914 73.7442 62.9885 75.0704 64.3015 76.3861C66.5064 78.5973 68.7832 80.7666 71.1574 82.8487L71.554 83.1949C72.7847 84.264 74.0314 85.5437 75.487 86.39L75.5647 86.4343C76.1788 86.7774 76.6143 86.8397 77.138 86.3273C77.6141 85.8608 78.0104 85.3196 78.4177 84.8053L78.5119 84.6872C80.5918 82.0961 82.52 79.4094 84.2652 76.6434C85.0606 75.3847 85.8173 74.1076 86.5353 72.8164L86.7495 72.4287C87.14 71.717 87.5637 71.0188 87.886 70.286C87.961 70.1142 88.0342 69.9423 88.1057 69.7718C87.0073 69.1543 86.1567 67.8177 85.8482 66.7711C85.5274 65.6842 85.6895 64.5687 86.2612 63.5746C86.3693 63.3877 86.7319 63.4339 86.7842 63.6327ZM32.6014 107.803C32.4494 111.936 32.3572 116.073 32.1304 120.202L32.0521 121.612C32.4059 121.95 32.6133 122.34 32.4477 122.876C32.3834 123.08 32.1932 123.266 31.9561 123.335L31.8821 124.645C31.5457 130.543 31.1513 136.428 30.4306 142.311C29.5292 149.673 28.4867 157.023 27.4461 164.371C27.2979 165.412 26.4539 166.237 25.1411 166.085C23.8128 165.93 23.2741 164.939 23.4484 163.906C24.1336 159.853 24.7924 155.797 25.3697 151.73L26.0269 147.097C26.8511 141.305 27.6946 135.514 28.6664 129.741C29.0726 127.328 29.4945 124.916 29.918 122.505L29.77 122.34C29.1649 121.666 28.539 121.007 27.9201 120.343C26.7313 119.063 25.558 117.794 24.4683 116.454C24.4141 116.387 24.5241 116.288 24.6024 116.339C26.1296 117.306 27.5751 118.341 29.0291 119.392L30.3017 120.316C31.034 116.149 31.7592 111.98 32.4058 107.803C32.4217 107.699 32.6048 107.691 32.6014 107.803ZM54.5698 68.2543C53.6509 68.9972 52.7114 69.724 51.7855 70.4626L51.4463 70.7344L51.1087 71.0075C49.4815 72.3308 47.9225 73.7084 46.6234 75.2903C44.2385 78.1953 42.8176 81.7371 43.8094 85.2837C44.6325 88.2215 46.5206 90.8844 47.0279 93.8956C47.2823 95.4042 47.1586 96.9203 46.496 98.345C45.8195 99.7984 44.7386 101.044 43.7676 102.355C41.6581 105.205 41.3704 108.333 41.5798 111.634C41.7994 115.081 42.2613 118.531 42.8315 121.947C43.9855 128.87 45.7254 135.72 48.0284 142.429C49.181 145.788 50.5424 149.076 51.8972 152.377C52.5717 154.02 53.3582 155.625 54.1687 157.221C54.5958 158.062 55.0336 158.897 55.4781 159.732C55.3141 158.554 55.3141 157.344 55.2339 156.173C55.1188 154.496 54.9724 152.821 54.8382 151.145C54.5646 147.744 54.3205 144.34 54.1026 140.935C53.3303 128.795 52.7619 116.644 52.8036 104.484C52.8247 98.4034 52.9694 92.3228 53.2745 86.2479C53.4175 83.3873 53.6945 80.5293 53.9448 77.6727L53.998 77.0606C54.2194 74.4964 54.4844 71.9263 54.9393 69.3846C54.8046 69.124 54.6877 68.8601 54.6009 68.5894L54.5698 68.4875L54.5925 68.4905C54.5716 68.4111 54.5646 68.332 54.5698 68.2543ZM62.5163 57.8063C62.5353 57.7361 62.6521 57.7421 62.673 57.8063C63.1908 59.3015 63.0078 60.9461 62.5616 62.4502C62.321 63.265 61.9793 64.056 61.5661 64.8185L61.4215 65.0853C61.0675 65.7347 60.6689 66.4038 59.9795 66.8085C59.692 66.9774 59.1775 66.9879 58.8898 66.8085L58.7431 66.713C58.719 66.6968 58.6952 66.6804 58.6719 66.6634C58.4036 66.4706 58.2709 66.0445 58.3947 65.7634C58.7138 65.0382 59.4374 64.506 59.9376 63.8601C60.3806 63.286 60.7729 62.6804 61.0987 62.051C61.8013 60.6889 62.1169 59.2432 62.5163 57.8063Z" fill="black"/>
<path fill-rule="evenodd" clip-rule="evenodd" d="M75.281 1.19727C83.0864 1.19727 92.4516 4.44236 93.2478 4.50727L93.2693 4.50825C93.6882 4.50825 95.3252 5.57774 98.1801 7.71673L95.0879 12.889L95.3381 13.0939C96.5356 14.0785 97.5579 14.9759 98.3648 15.6833C104.953 21.4596 106.138 44.1391 104.585 52.0481C103.032 59.9572 100.156 67.6964 86.7672 67.6964C73.3782 67.6964 58.4826 60.7923 56.188 58.6423C54.6583 57.2089 52.94 56.5223 51.0332 56.5822C50.9548 56.4974 50.8771 56.4128 50.8 56.3285L50.5194 56.2944C47.8804 55.9667 45.9895 55.5255 44.8467 54.9711C42.6146 53.8881 40.1613 48.1948 40.1613 46.9406C40.1613 45.699 36.4979 36.6666 36.4247 35.7108L36.4235 35.6843C36.4235 34.8852 31.6377 31.2121 31.6377 30.0456C31.6377 28.8791 30.6731 28.9498 31.6377 24.8392L31.918 23.6316C32.9445 19.255 34.9538 12.008 42.6146 8.8589C51.0332 5.39839 67.3967 1.19727 75.281 1.19727Z" fill="white"/>
<path fill-rule="evenodd" clip-rule="evenodd" d="M41.3142 8.69621C45.5128 4.87441 69.3489 -1.037 81.4082 0.216078L81.77 0.256253C82.7323 0.360911 83.6807 0.519394 84.6168 0.734692C87.6423 1.34066 90.7675 2.25822 93.2673 3.79087C95.3544 5.04468 101.938 7.09225 99.9976 10.3722C100.717 11.5413 100.986 12.9856 100.499 14.137C100.438 14.5347 100.295 14.901 100.112 15.2807C101.649 17.226 102.866 19.426 103.852 21.5184C105.573 26.7843 106.645 32.2646 106.802 37.6373C107.323 47.8448 106.018 60.0377 95.6518 66.6383C89.3893 70.8209 79.5796 70.9615 72.542 65.7755C72.1426 65.3702 70.2644 64.2763 70.8912 64.0845C71.0777 64.2534 71.2695 64.4179 71.4647 64.5794C71.4558 64.5614 71.4541 64.5435 71.4578 64.5241L71.2741 64.3814C70.9283 64.1071 70.4802 63.7091 70.9905 63.787C71.013 63.8094 71.0376 63.8288 71.0618 63.8513C71.1699 63.9069 71.2516 63.9551 71.3151 63.9976L71.3478 64.02L71.3377 64.011C71.0437 63.7422 70.8675 63.468 71.307 63.6431L71.3652 63.6674C71.5606 63.8438 71.7592 64.0127 71.9614 64.1772C71.9581 64.1578 71.9614 64.1383 71.9738 64.1174L71.7852 63.9612C71.6012 63.8065 71.6293 63.8058 71.7193 63.6808C71.3281 63.2106 72.0584 63.4899 72.1096 63.6733C72.5666 63.5807 72.9677 64.3162 73.262 64.406C86.163 72.9117 104.885 65.3645 104.582 41.6631L104.577 41.1993C104.488 33.6206 103.745 25.8311 100.089 18.9707C99.7339 18.3098 99.3363 17.6669 98.8989 17.045C98.5973 16.5785 98.2747 16.124 97.9278 15.6814C96.9565 15.6141 95.9977 15.4616 95.0529 15.2254C94.7285 15.1551 94.4077 15.0774 94.0871 14.9862C89.4008 15.2054 84.819 15.4438 80.1197 15.6699L78.6518 15.7483C74.6709 15.9678 70.5539 16.3193 67.3414 18.431C64.1894 20.3534 64.1751 24.1443 61.4768 26.2549C57.6291 28.4945 57.601 30.5139 56.8601 33.8143C56.915 36.3021 58.9266 39.9169 55.2353 40.9639C55.858 41.7254 54.99 41.3595 54.9216 41.0925C54.9146 41.094 54.9077 41.0955 54.9024 41.0955C55.4574 41.9802 54.6416 41.4231 54.5695 41.1389C54.5259 41.1284 54.4823 41.1015 54.4387 41.0641C54.9978 41.8392 54.094 41.2964 54.1476 41.1553C53.0672 39.7312 50.8436 39.5101 49.2763 39.8875C49.2571 39.9383 49.1876 39.9428 49.144 39.9159C42.4795 41.1544 44.199 52.9862 51.0286 51.8424C51.321 51.7913 51.314 51.9117 51.3721 51.9232C51.2143 51.5679 51.659 51.7125 51.6543 51.7871L51.6814 51.786C51.7029 51.7844 51.6941 51.7824 51.7101 51.7871C51.5576 51.0606 52.416 52.1132 52.3482 52.1564C52.3745 52.143 52.4042 52.1355 52.4303 52.1325L52.4008 52.0635C52.2583 51.738 52.2705 51.8733 52.2715 51.687C52.1644 51.4566 52.1566 51.5573 52.1817 51.4072C52.5579 51.1572 52.669 51.9156 52.7945 51.971C52.5794 51.7139 52.7504 51.5038 52.9533 51.6434C54.4915 54.4181 56.4785 57.0251 59.0463 59.0788C59.3272 59.2687 59.6114 59.4556 59.9058 59.632C60.9981 60.4479 62.6735 60.9726 63.696 61.6953C63.696 61.7073 63.6892 61.7222 63.6787 61.7372L63.7021 61.7553L63.7258 61.7745L64.0814 61.9211C64.186 61.9973 64.2802 62.0825 64.3637 62.1767C64.4528 62.2649 64.5311 62.3621 64.5975 62.4653C64.6306 62.5909 64.5574 62.6432 64.4179 62.5894C64.3567 62.5714 64.2959 62.5505 64.2349 62.5311C64.2383 62.5356 64.2399 62.5385 64.2436 62.5415C64.2636 62.5675 64.399 62.8367 64.243 62.7929L64.2244 62.7867C64.1388 62.7598 64.0535 62.7299 63.9699 62.7015C64.0692 62.8077 64.1597 62.9228 64.2399 63.02C64.3255 63.0962 64.3776 63.1859 64.3987 63.2876C64.3951 63.3444 64.3586 63.3683 64.2924 63.3609C64.1913 63.3325 64.0919 63.3026 63.9923 63.2712L64.0207 63.3175C64.091 63.4361 64.191 63.6351 64.0134 63.5687C63.8616 63.5283 63.7153 63.482 63.5689 63.4311C63.5565 63.4521 63.5323 63.4595 63.4835 63.4401C63.018 63.2981 62.5682 63.1246 62.1375 62.9198C61.7592 62.6836 61.3773 62.4518 60.9974 62.2171C60.6398 62.0332 60.2946 61.8284 59.9653 61.5981C57.7606 60.3769 55.8305 58.8256 54.2992 57.0978C51.7383 58.9997 46.6182 57.1827 43.4509 55.6939C40.6495 54.3632 39.5483 51.9028 39.2636 49.2502C38.6717 45.679 35.2686 44.4565 35.5054 36.6206C35.5002 36.6221 35.4947 36.6221 35.4878 36.6221C35.364 36.5907 35.2439 36.5488 35.1306 36.495C35.0137 36.4472 34.9039 36.3904 34.8009 36.3216L34.6736 36.1706C34.6075 36.1392 34.5483 36.1063 34.5029 36.0734L34.4794 36.0994C34.405 36.1764 34.455 36.0605 34.4593 36.0375L34.2383 35.7797C33.714 35.1659 33.1389 34.4772 32.6704 33.9264L32.6557 33.9488C32.6451 33.9657 32.6395 33.9779 32.6445 33.9832C31.5296 32.6095 30.4811 30.9502 30.1898 29.3438C29.8458 28.1065 29.9802 26.8314 30.2802 25.6853C31.5667 21.6716 35.7808 12.5891 41.3142 8.69621ZM71.5705 64.2031L71.5007 64.1497L71.5621 64.2157C71.5943 64.2498 71.6272 64.2805 71.6809 64.3118C71.6774 64.3013 71.6774 64.2908 71.679 64.2789C71.6434 64.2556 71.607 64.2301 71.5705 64.2031ZM81.3549 2.2328C73.1769 1.62982 65.1334 3.17488 57.3296 5.04513L56.7913 5.17782C52.3539 6.26366 47.6619 7.24074 43.9121 9.56488C38.673 13.0062 35.9676 18.4807 33.6066 23.5353C31.5451 27.2907 32.599 31.5254 35.7057 34.1477C36.0289 31.5418 36.58 29.0122 37.4413 26.503C37.621 26.1109 37.485 25.9825 37.8724 25.9314C38.4575 32.6935 35.5758 37.6896 41.2785 45.7038C43.7529 49.4852 40.8885 52.2521 47.876 54.242L48.0651 54.3039C49.5209 54.775 51.1107 55.1469 52.5365 54.8835L52.4087 54.7053C52.2785 54.5218 52.2389 54.4327 52.4284 54.3542C52.4233 54.3453 52.4164 54.3363 52.4092 54.3258C52.256 54.0777 52.1078 53.8265 51.9664 53.5723C51.909 53.5887 51.8515 53.6007 51.792 53.6142C51.8306 53.6755 51.8356 53.7368 51.7277 53.7577C51.3435 53.8707 50.949 53.916 50.5452 53.8948L50.4585 53.8893C50.0023 53.8653 49.7148 53.794 49.4576 53.7278C49.3724 53.7158 49.287 53.7039 49.2031 53.6889C48.3759 53.5316 47.5001 53.1315 46.9334 52.735C40.4727 49.5881 41.1404 38.8757 49.1039 37.8631C49.2673 31.1183 53.0081 19.7392 59.2163 13.3121C64.828 7.40024 80.1479 4.8379 90.8064 5.74141C90.9617 5.78551 91.117 5.83007 91.2724 5.87507C92.9167 6.00036 94.4839 6.62861 96.1295 6.92046C94.948 6.16109 93.6076 5.65529 92.227 5.22544C89.4763 3.7825 86.3229 3.00174 83.2763 2.45109C82.6452 2.31803 82.0053 2.24476 81.3549 2.2328ZM48.7394 43.2814C49.1676 43.0819 49.1186 43.2745 49.2171 43.2186C52.297 43.0031 55.618 45.3156 57.3396 47.2434C57.2036 47.3645 56.8357 47.0057 56.7712 46.9489C56.7625 46.9564 56.7521 46.9624 56.7416 46.9653L56.7895 47.0234C57.4873 47.8821 56.104 46.8716 55.9745 46.6633C55.9518 46.6738 55.9292 46.6798 55.903 46.6753C56.0127 46.7675 56.3476 47.0081 56.4051 47.1791L56.4939 47.2425C57.3312 47.8574 57.2617 48.3199 56.3112 47.4468C56.3336 47.4871 56.3424 47.5245 56.3267 47.5544L56.3594 47.5731C56.8268 47.8532 57.2112 48.6341 56.2343 47.8325C56.3359 48.418 55.2662 47.2863 55.2318 47.2943C53.3807 46.0481 50.6552 44.8361 48.3332 44.6733L48.2533 44.6654C47.8272 44.6185 47.6257 44.5101 47.7753 44.2711C47.2505 44.1641 47.3735 43.9425 47.6219 43.9497C47.2518 43.741 47.5849 43.5414 47.7997 43.6193C47.652 43.2687 48.2443 43.5022 48.2983 43.4533C48.6057 43.0468 48.6885 43.3859 48.7394 43.2814ZM42.2836 21.5498C43.7629 21.0851 48.1324 22.4761 47.7828 24.3184C47.5747 24.7414 46.8888 24.9838 46.4068 24.745L45.7776 24.3826C44.6827 23.7538 43.6952 23.2024 42.5197 22.6539C41.8798 22.3816 41.6044 21.8036 42.2836 21.5498ZM50.6999 18.812L50.1286 18.4932C47.0455 16.7628 42.6872 14.1408 50.4166 16.8536C51.2975 17.1775 52.468 17.3692 52.9487 18.0887C53.7037 19.4147 51.7166 19.5038 50.6999 18.812ZM51.0463 11.048C50.7989 10.2429 53.8772 11.1876 54.7733 11.4367L54.9098 11.4809C55.7815 11.7595 56.7808 12.0179 57.3021 12.663C57.913 13.5544 56.6766 13.7391 55.9107 13.3364C54.3405 12.4564 52.6188 11.7924 51.0463 11.048ZM58.8742 7.2975C57.1415 5.67479 61.7787 7.22929 62.4733 7.66079L62.4932 7.67352C63.0115 7.98645 62.9064 8.66045 62.4194 8.85841C61.0339 8.88098 60.0144 7.89061 58.8742 7.2975ZM66.7589 5.51962C64.0043 3.82191 67.6329 4.62942 68.8932 5.29475C69.7522 5.94438 68.8674 7.04106 66.7589 5.51962Z" fill="black"/>
<path fill-rule="evenodd" clip-rule="evenodd" d="M82.3139 49.5754C83.2892 48.1996 85.368 51.5699 85.5889 52.1494C85.7845 52.6628 85.9136 53.1887 85.9793 53.7206C86.7354 53.866 87.5205 53.8662 88.2953 53.7389C89.4467 53.5494 90.1506 53.0186 91.1513 52.5627C91.8426 52.2477 92.7137 52.6171 93.0732 53.1395C93.496 53.7544 93.2266 54.3926 92.6705 54.851C91.6159 55.7202 89.541 55.9199 88.1644 55.689C87.3757 55.5568 86.6528 55.3032 86.0145 54.9345C86.0103 55.0033 86.0074 55.0721 86.0011 55.1408L85.9889 55.26C85.8832 56.224 85.5742 57.4363 84.701 58.0636C83.2689 59.0926 81.5016 57.1136 82.8931 56.0858L82.9362 56.0549C83.8012 55.4556 83.9898 53.8476 83.9433 52.9619C83.9127 52.3838 83.7899 51.7984 83.5771 51.2478L83.5334 51.1382C83.4693 50.9826 82.7708 49.5073 82.5184 49.6952L82.5063 49.7058C82.4022 49.8124 82.234 49.6882 82.3139 49.5754ZM90.1007 41.812C91.4172 42.4983 93.4232 44.0985 92.0069 45.7999C90.3399 47.3 87.9397 45.58 86.7569 44.8021C85.6602 44.1992 84.4279 45.7498 85.4455 46.4537C93.9923 51.8803 97.4607 41.9915 90.7666 41.0051C90.0296 40.8964 89.7558 41.5997 90.1007 41.812ZM76.0427 35.4687C77.3294 35.273 78.6474 35.5473 79.7121 36.1929L79.7928 36.2427C80.8185 36.886 81.9661 38.0156 81.3775 39.1245C81.1413 39.5698 80.4338 39.6396 79.9849 39.4378C79.2375 39.1017 79.1021 38.2747 78.4352 37.8171C77.8883 37.4419 77.1519 37.2144 76.4476 37.2693C74.7929 37.3981 73.7751 38.7977 73.2611 40.0038C73.1954 40.1581 72.9313 40.2181 72.8281 40.0524C71.6162 38.11 73.7613 35.8158 76.0427 35.4687ZM96.6516 34.7356C99.1162 34.5614 102.001 36.7527 101.352 38.9837C101.041 40.0542 99.1893 40.0236 98.8601 38.9837C98.679 38.4115 98.6971 37.9053 98.2168 37.4301C97.8203 37.0378 97.257 36.8099 96.6516 36.8449C95.9842 36.8835 95.3686 37.1695 94.9008 37.5716C94.4784 37.9346 94.2258 38.4658 93.7882 38.7871C93.6805 38.866 93.5363 38.8711 93.4299 38.7871C92.6768 38.1916 93.1288 36.9518 93.6064 36.3302C94.2898 35.4406 95.4026 34.824 96.6516 34.7356ZM71.3493 31.5118C72.9304 30.3115 75.8034 29.1524 77.9354 29.7431C79.1612 30.0826 79.6955 31.7764 78.3271 32.3133C76.7426 32.935 74.9156 32.682 73.3028 33.3264C72.6255 33.5972 71.9885 33.9355 71.5169 34.4318C71.1454 34.8229 70.7674 35.3375 70.2301 35.563C70.0889 35.6223 69.8976 35.6238 69.7845 35.5138C68.6066 34.3712 70.3209 32.2924 71.3493 31.5118ZM93.934 29.6835C94.9112 29.4483 95.9952 29.4531 96.9879 29.6008C97.9803 29.7485 98.9878 30.1012 99.7979 30.6157L99.892 30.6759C100.776 31.2475 101.832 32.0791 101.775 33.0916C101.728 33.9371 100.691 34.509 99.7955 34.0658C99.0655 33.7045 98.7221 32.9805 98.104 32.4985C97.5941 32.1007 96.9951 31.787 96.3559 31.5672C95.646 31.323 94.9349 31.2087 94.173 31.1978C93.5864 31.1894 92.9962 31.3544 92.4206 31.4072C92.468 31.4907 92.0129 31.4518 91.7521 31.3778C91.559 31.3072 91.5579 31.0977 91.6249 30.9618C91.957 30.2886 93.1653 29.8683 93.934 29.6835Z" fill="black"/>
</svg>
