<svg width="285" height="384" viewBox="0 0 285 384" fill="none" xmlns="http://www.w3.org/2000/svg">
<path fill-rule="evenodd" clip-rule="evenodd" d="M151.508 150.316C158.817 150.677 170.197 153.805 170.766 155.804C171.654 158.926 169.745 170.631 172.938 176.936C174.299 179.623 179.468 179.382 181.471 180.258C188.171 183.186 208.009 188.74 212.099 195.734C213.738 198.536 223.808 233.301 229.159 251.037C229.762 253.037 230.443 254.886 231.184 256.599L231.456 255.268C233.638 244.548 234.729 238.059 234.729 235.799C234.729 232.269 231.909 217.375 234.729 213.588C237.521 209.838 244.25 206.772 247.277 206.711L247.368 206.71C249.356 206.71 251.08 206.09 252.542 204.849L254.685 203.773C265.588 198.311 271.958 195.314 273.795 194.784C276.727 193.938 281.716 195.74 279.221 198.447C277.558 200.251 273.379 203.443 266.685 208.022L264.16 210.024L264.465 210.183C267.728 211.898 269.646 213.341 270.22 214.513C270.812 215.721 270.528 217.15 269.368 218.8L269.544 218.971C271.011 220.408 271.744 221.372 271.744 221.862V224.26C273.203 226.393 273.567 228.172 272.838 229.597C272.108 231.022 270.952 232.256 269.368 233.301C268.201 236.366 266.811 238.547 265.199 239.845C263.587 241.143 260.8 242.223 256.839 243.086L253.254 251.644L250.35 263.666L248.886 277.08L249.311 277.387C251.281 278.82 252.542 279.881 252.542 280.979C252.542 282.688 244.595 322.886 232.231 324.685C229.557 325.074 215.689 323.166 211.136 319.468L211.203 319.867C212.274 326.328 212.048 329.683 210.523 329.933C191.785 333 138.569 333.947 50.8751 332.776C50.3533 286.304 52.7125 255.355 57.9527 239.928C71.3547 200.473 86.1311 186.997 91.3006 185.843C95.8288 184.832 111.531 178.592 115.92 176.936C118.786 175.855 119.4 172.613 122.665 172.613L122.929 172.615C126.086 172.646 128.886 173.21 130.46 171.589C134.588 167.334 133.434 161.444 135.147 155.804C136.091 152.697 142.539 149.875 151.508 150.316Z" fill="white"/>
<path fill-rule="evenodd" clip-rule="evenodd" d="M131.429 161.458C131.858 160.609 132.997 160.719 133.748 161.104C136.002 162.749 133.644 165.938 133.02 167.945C131.417 171.839 128.631 175.644 124.786 177.464C125.105 181.334 125.466 185.197 125.599 189.079C130.515 195.167 138.803 197.389 146.161 199.098C157.717 202.289 170.759 195.752 174.659 184.347C170.22 181.829 168.783 175.236 170.108 170.636C170.223 170.312 170.725 170.17 170.903 170.53C172.119 173.026 171.957 176.072 173.338 178.538C186.602 179.805 203.719 184.802 212.409 195.512C216.259 200.87 217.785 207.838 219.681 214.048C223.728 226.85 226.952 239.911 230.921 252.726L231.389 250.301C232.671 243.622 233.836 236.852 232.97 230.059L232.955 229.734C232.672 224.329 230.978 214.285 235.176 210.636C238.974 207.738 244.475 205.41 249.24 206.746C257.721 202.978 265.041 196.633 274.073 194.162C276.852 193.59 280.851 194.267 280.194 198.032C278.373 204.617 270.748 207.173 265.535 210.569C268.877 211.473 272.95 215.53 270.339 219.068C270.317 219.13 270.297 219.178 270.277 219.215C272.394 220.152 272.69 222.507 272.171 224.526C272.118 225.059 271.978 224.601 272.292 225.084C274.68 227.334 273.624 233.604 270.026 233.816C270.261 236.787 268.35 239.673 265.929 241.294C263.32 243.039 259.547 243.115 257.386 245.504C252.314 254.434 250.565 264.975 250.012 275.201C253.355 276.45 256.355 280.187 253.317 283.357C253.257 283.364 253.197 283.371 253.137 283.376C251.376 288.068 250.696 293.069 249.765 297.969C248.332 306.33 244.598 314.007 239.83 320.972C234.316 330.192 219.489 328.73 212.02 322.78C212.05 324.341 212.307 325.893 211.807 327.402C211.067 329.029 209.265 328.326 209.087 326.723C205.138 328.94 204.208 321.622 208.598 322.782C208.26 317.492 208.064 312.194 207.906 306.894C202.936 308.5 202.722 300.269 207.805 301.914L207.799 299.639C207.762 282.189 207.955 264.68 210.261 247.368C210.474 246.073 210.836 244.82 211.046 243.533C211.069 243.4 211.277 243.438 211.278 243.565C211.635 267.803 210.048 292.092 211.704 316.338C213.082 316.757 213.631 318.336 214.652 319.256C216.917 321.344 220.002 322.36 223.018 322.715C231.465 323.897 235.112 321.321 238.874 313.991C237.177 315.123 234.885 313.123 235.919 311.332L235.951 311.278C237.025 309.379 240.058 310.517 239.674 312.643C243.456 306.596 245.436 299.778 246.897 292.859L247.095 292.033C247.806 289.096 248.728 285.73 250.435 283.073C240.028 280.425 229.847 272.356 228.219 261.286C225.577 269.575 221.997 277.677 218.585 285.738C217.532 288.541 217.093 291.554 215.582 294.154C215.231 294.755 214.34 294.6 214.142 293.966C212.784 287.903 216.899 282.136 219.036 276.677C220.782 273.593 225.791 259.506 228.896 259.472C225.407 244.2 220.752 229.042 216.319 213.961C212.033 193.596 203.298 189.67 184.794 183.258C188.131 200.24 203.37 216.678 195.261 234.49L195.064 234.952C194.234 236.916 193.546 238.895 194.125 241.051C194.687 243.142 195.966 244.958 196.99 246.839C202.712 257.465 198.773 269.875 196.561 280.941C193.766 293.918 191.005 306.907 188.116 319.865C187.546 322.449 187.177 325.112 186.317 327.617C185.873 328.91 183.658 328.787 183.801 327.279C184.074 324.353 184.897 321.5 185.5 318.627C189.097 300.026 193.964 281.644 197.059 262.961C199.05 249.131 191.213 247.006 191.505 238.07C192.57 233.5 195.39 229.421 195.228 224.551C195.855 209.643 184.979 197.343 183.636 182.844L181.265 182C180.08 181.576 178.897 181.149 177.717 180.712C183.927 224.078 182.041 268.392 178.937 311.972C178.303 313.983 178.906 328.03 176.247 326.783C176.113 327.568 175.695 328.34 174.787 328.336C166.54 328.411 158.291 328.541 150.045 328.64C146.078 328.275 140.626 329.787 137.252 327.502C133.357 326.392 132.909 315.859 131.868 312.104L131.462 309.374C124.842 264.76 118.919 219.225 123.677 174.168C117.057 174.422 115.691 181.556 115.2 186.749C113.972 198.212 106.554 208.084 106.199 219.679C106.168 222.492 106.7 225.217 107.827 227.8C110.814 234.128 115.982 241.443 112.12 248.51C107.552 254.012 107.947 255.46 109.624 262.259C114.339 284.736 122.171 306.345 129.621 328.016C128.002 336.439 118.266 305.169 117.35 302.811C113.04 304.975 110.686 297.794 115.629 297.283C112.454 286.672 109.532 275.981 107.099 265.173L107.035 264.868C105.96 259.874 103.846 254.027 107.416 249.597C116.62 240.304 101.335 229.917 103.263 218.659C101.598 219.892 99.0783 218.595 99.1162 216.525C99.0407 214.195 102.176 213.001 103.685 214.779C105.236 205.645 110.633 197.672 112.267 188.565L112.34 188.137C112.894 184.919 113.05 181.532 114.633 178.599C112.478 179.996 110.183 181.126 107.822 182.123C112.043 185.643 103.869 188.856 104.545 183.418C81.397 190.105 76.1649 199.429 67.6658 220.844C69.2534 219.304 71.973 221.297 71.0226 223.261C70.2645 225.33 66.9571 224.725 66.9584 222.519L66.571 223.442C61.4172 235.746 56.7265 248.348 54.3692 261.516C58.9934 260.864 57.816 268.242 53.6263 266.162C51.9449 277.873 51.9183 289.749 52.1238 301.554C56.0242 299.512 56.1417 306.451 52.1614 304.472C52.307 314.146 52.5202 323.82 52.6808 333.494C52.7134 335.553 49.5322 335.543 49.482 333.494C49.1105 318.629 48.4334 303.738 48.7552 288.869C48.4524 263.062 55.883 238.189 66.9543 215.071C76.7505 188.453 90.2819 185.426 115.178 177.687C117.476 174.281 122.385 171.059 126.391 173.198C128.632 169.586 129.77 165.307 131.429 161.458ZM88.7749 254.229C88.8678 253.901 89.3369 253.983 89.352 254.307C89.5602 258.482 89.3745 262.685 89.0885 266.879C88.9152 269.439 88.7022 271.996 88.5215 274.539C88.0424 281.247 87.656 287.962 87.3625 294.683C87.4653 294.64 87.5707 294.602 87.6811 294.573C88.1879 294.435 88.6949 294.435 89.2014 294.573C89.6534 294.699 90.0484 294.919 90.3888 295.237L90.4608 295.307C90.7393 295.564 90.9375 295.87 91.0529 296.223C91.2173 296.538 91.3005 296.874 91.3003 297.233L91.2985 297.323C91.2963 297.839 91.1683 298.317 90.9074 298.763C90.654 299.192 90.3128 299.532 89.8838 299.788C89.4373 300.046 88.9578 300.174 88.4413 300.176C88.3861 300.181 88.3306 300.186 88.2757 300.189C87.8916 300.204 87.5331 300.123 87.2017 299.951L87.1517 299.936V299.936C87.0263 303.345 86.9234 306.756 86.8482 310.168C86.7804 313.141 86.6901 316.115 86.6299 319.088L86.6019 320.575V320.575L86.5473 323.862C86.5296 325.214 86.5383 326.508 86.078 327.783L86.0228 327.93C85.6916 328.782 85.4335 329.967 84.5474 330.44C83.8401 330.818 82.8868 330.678 82.4804 329.941C82.1392 329.326 82.4349 328.439 82.9395 328.023C82.9294 327.995 82.9144 327.97 82.9018 327.943C82.8241 327.717 82.7059 327.504 82.6359 327.277C82.4149 326.555 82.4753 325.786 82.4728 325.037C82.4728 323.715 82.5177 322.392 82.5531 321.072C82.6309 318.261 82.7212 315.453 82.8313 312.645C83.2042 303.226 83.9064 293.806 84.7106 284.413L84.9835 281.243C85.3471 277.027 85.7234 272.806 86.2561 268.612C86.2809 268.412 86.3063 268.211 86.3339 268.011C86.0479 267.868 85.7819 267.67 85.5709 267.45C84.7258 266.563 84.2131 265.239 83.7324 264.097L83.6219 263.838C83.1 262.62 82.6183 261.388 82.37 260.08L82.3462 259.96C82.2329 259.403 82.0093 258.416 82.6008 258.147C82.9094 258.006 83.1048 258.106 83.2054 258.415C83.2182 258.455 83.2077 258.5 83.1853 258.535C83.4287 258.908 83.81 259.256 84.0509 259.602L84.8752 260.779V260.779L85.2827 261.37C85.7995 262.129 86.3514 262.856 86.9209 263.572C87.3698 260.426 87.9194 257.292 88.7749 254.229ZM122.579 324.338C123.61 323.532 125.288 323.97 125.288 325.458C125.288 326.953 123.607 327.384 122.579 326.577L122.527 326.54V326.54L122.478 326.5C121.918 326.063 121.899 324.925 122.436 324.451L122.478 324.416C122.511 324.388 122.543 324.363 122.579 324.338ZM77.6601 321.431L77.7487 321.432C78.2153 321.432 78.6493 321.55 79.0532 321.786C79.2289 321.919 79.402 322.054 79.5776 322.189C79.8987 322.51 80.1195 322.891 80.2424 323.329L80.3355 324.015V324.015C80.3478 324.371 80.275 324.701 80.112 325.01C80.0066 325.33 79.8285 325.608 79.5776 325.841C79.3418 326.094 79.0658 326.272 78.7449 326.375C78.4618 326.524 78.16 326.6 77.8372 326.6L77.7487 326.598C77.2798 326.598 76.8455 326.48 76.4416 326.244C76.266 326.112 76.0929 325.976 75.9172 325.841C75.5986 325.521 75.3753 325.14 75.2527 324.701C75.2223 324.473 75.1924 324.243 75.1596 324.015C75.1473 323.659 75.2223 323.329 75.3829 323.021C75.4882 322.7 75.6664 322.422 75.9172 322.189C76.1533 321.936 76.429 321.758 76.7502 321.655C77.033 321.506 77.337 321.431 77.6601 321.431V321.431ZM195.1 316.668L195.758 316.756V316.756C196.388 316.899 196.894 317.362 197.233 317.891C197.414 318.174 197.511 318.479 197.526 318.807C197.599 319.133 197.584 319.461 197.481 319.789C197.406 320.11 197.258 320.39 197.04 320.629C196.965 320.746 196.877 320.854 196.777 320.949C196.571 321.292 196.26 321.518 195.938 321.748C195.668 321.921 195.374 322.014 195.058 322.029C194.849 322.084 194.639 322.084 194.428 322.029C194.114 322.014 193.821 321.921 193.55 321.748C193.39 321.625 193.229 321.5 193.071 321.377C192.931 321.215 192.8 321.047 192.677 320.872C192.594 320.679 192.514 320.488 192.434 320.298C192.285 319.839 192.358 319.434 192.439 318.975C192.451 318.898 192.471 318.828 192.499 318.752L192.553 318.607C192.698 318.226 192.775 318.097 193.031 317.765L193.128 317.635C193.177 317.57 193.227 317.507 193.284 317.45C193.445 317.284 193.673 317.146 193.853 317.004C194.24 316.781 194.656 316.671 195.1 316.668ZM109.923 315.064L110.007 315.065C110.371 315.068 110.712 315.158 111.028 315.341L111.439 315.659V315.659C111.69 315.912 111.863 316.207 111.961 316.551C111.984 316.731 112.009 316.911 112.034 317.089C112.044 317.367 111.987 317.627 111.858 317.871C111.778 318.121 111.638 318.336 111.439 318.522C111.256 318.717 111.038 318.858 110.787 318.94C110.568 319.054 110.333 319.114 110.082 319.115L110.007 319.113C109.641 319.113 109.299 319.02 108.983 318.837L108.572 318.522V318.522C108.321 318.269 108.148 317.971 108.05 317.627C108.027 317.447 108.002 317.269 107.977 317.089C107.967 316.811 108.025 316.551 108.153 316.31C108.236 316.06 108.374 315.842 108.572 315.659C108.755 315.461 108.973 315.321 109.224 315.24C109.443 315.126 109.674 315.067 109.923 315.064V315.064ZM93.3661 314.236C93.8902 314.231 94.4223 314.379 94.8513 314.682C95.2677 314.977 95.5836 315.296 95.7871 315.774C95.8423 315.904 95.8972 316.032 95.9451 316.162C96.1609 316.736 96.201 317.312 95.9025 317.873C95.614 318.417 94.9918 318.655 94.4346 318.817C93.9632 318.958 93.4288 318.98 92.9596 318.812C92.7263 318.73 92.498 318.642 92.2873 318.514C91.8934 318.271 91.6802 317.983 91.4167 317.627C91.211 317.277 91.1081 316.896 91.1081 316.49C91.1081 316.082 91.211 315.704 91.4167 315.351C91.8204 314.662 92.5683 314.241 93.3661 314.236ZM66.7727 314.719C67.4352 314.719 68.017 315.025 68.4162 315.541C68.8198 316.065 68.9679 316.716 68.7897 317.365C68.6016 318.051 68.0323 318.652 67.3271 318.825C66.8055 318.953 66.3788 318.948 65.8595 318.86C65.4204 318.785 65.0845 318.524 64.7481 318.254C64.3642 317.94 64.2463 317.37 64.309 316.909C64.3692 316.448 64.5827 316.147 64.9064 315.874L64.9086 315.867L64.7882 315.959C64.8336 315.919 64.8785 315.877 64.9239 315.834C64.9387 315.809 64.9513 315.782 64.9638 315.754C65.1495 315.438 65.4003 315.19 65.7139 315.005C66.0426 314.815 66.3938 314.719 66.7727 314.719ZM221.212 307.132C221.576 307.035 221.942 307.035 222.306 307.132C222.575 307.195 222.808 307.318 223.006 307.5C223.207 307.631 223.371 307.798 223.495 308.006L223.535 308.077C223.821 308.563 223.866 309.118 223.743 309.659C223.591 310.328 222.973 310.937 222.306 311.095L222.283 311.099V311.099L222.261 311.105C221.99 311.19 221.716 311.203 221.446 311.14C221.172 311.128 220.918 311.047 220.685 310.897C220.389 310.707 220.141 310.461 219.95 310.166C219.8 309.93 219.719 309.677 219.707 309.404C219.659 309.224 219.659 309.043 219.707 308.863C219.719 308.59 219.8 308.337 219.95 308.102L220.271 307.688V307.688L220.304 307.661V307.661C220.56 307.405 220.863 307.23 221.212 307.132ZM195.953 293.876C199.243 293.876 199.237 298.971 195.953 298.971C192.665 298.971 192.669 293.876 195.953 293.876ZM75.5358 293.232C75.8822 293.155 76.2284 293.17 76.5721 293.278C76.7804 293.365 76.9861 293.453 77.1918 293.538L77.7187 293.944V293.944C77.8165 294.027 77.8642 294.117 77.9545 294.234L78.0674 294.382C78.2306 294.6 78.2345 294.646 78.4136 295.111C78.534 295.557 78.534 296.003 78.4136 296.449C78.3556 296.664 78.2681 296.867 78.1552 297.055C78.052 297.235 77.9285 297.394 77.7895 297.539L77.7187 297.611C77.4828 297.864 77.2044 298.042 76.8832 298.147C76.68 298.265 76.4618 298.322 76.2284 298.322C75.8822 298.4 75.5358 298.385 75.1923 298.277C74.9841 298.19 74.7783 298.102 74.5724 298.017L74.0458 297.611L73.6394 297.085L73.5097 296.777V296.777L73.3784 296.466L73.2856 295.777C73.2731 295.419 73.3458 295.089 73.5086 294.778C73.5714 294.56 73.682 294.367 73.8423 294.207C73.958 294.012 74.1133 293.856 74.3092 293.741C74.4695 293.58 74.6629 293.47 74.8812 293.408C75.0844 293.29 75.3027 293.232 75.5358 293.232ZM238.212 289.593C238.485 289.583 238.741 289.64 238.977 289.766C239.06 289.793 239.14 289.828 239.218 289.869C239.521 290.046 239.762 290.287 239.94 290.587C240.086 290.818 240.166 291.066 240.179 291.334C240.233 291.575 240.228 291.819 240.163 292.06L240.141 292.133C240.086 292.331 240.003 292.513 239.893 292.681C239.882 292.701 239.87 292.721 239.855 292.739C239.687 293.005 239.464 293.222 239.188 293.385C238.882 293.561 238.553 293.651 238.197 293.653C237.487 293.653 236.875 293.27 236.501 292.681C236.448 292.599 236.418 292.493 236.381 292.408C236.348 292.328 236.295 292.226 236.267 292.133C236.172 291.777 236.172 291.422 236.267 291.066C236.33 290.805 236.448 290.577 236.626 290.384C236.769 290.167 236.957 289.994 237.191 289.869C237.48 289.7 237.791 289.61 238.121 289.595L238.212 289.593ZM99.3444 287.101C99.6917 287.006 100.037 286.998 100.382 287.079L100.469 287.101C100.744 287.166 100.983 287.291 101.188 287.476C101.417 287.627 101.6 287.824 101.733 288.07C101.924 288.398 102.019 288.754 102.021 289.134C102.019 289.515 101.924 289.871 101.733 290.199C101.545 290.517 101.291 290.768 100.973 290.956L100.697 291.088V291.088C100.466 291.234 100.22 291.311 99.954 291.324C99.7761 291.371 99.5978 291.371 99.4224 291.324C99.2415 291.324 99.0734 291.279 98.9181 291.189C98.7475 291.141 98.6018 291.056 98.4763 290.93C98.2581 290.79 98.0877 290.605 97.9623 290.372L97.7588 289.893V289.893L97.6888 289.362V289.362L97.7588 288.834V288.834L97.8694 288.573V288.573C97.9695 288.215 98.1504 287.905 98.4136 287.642C98.677 287.381 98.9881 287.201 99.3444 287.101ZM223.761 282.875C224.127 282.76 224.491 282.744 224.855 282.825C225.101 282.825 225.331 282.887 225.545 283.013C225.778 283.078 225.979 283.193 226.149 283.363C226.448 283.556 226.681 283.811 226.854 284.13L227.13 284.784V284.784C227.296 285.207 227.236 285.831 227.135 286.256C227.053 286.607 226.892 286.913 226.654 287.173C226.533 287.376 226.373 287.536 226.169 287.657C225.937 287.868 225.669 288.018 225.365 288.107L225.281 288.13L225.251 288.137C225.246 288.14 225.241 288.14 225.236 288.14C225.234 288.143 225.229 288.143 225.226 288.143C225.106 288.172 224.983 288.19 224.855 288.195C224.491 288.275 224.127 288.26 223.761 288.145C223.545 288.055 223.327 287.962 223.109 287.87C222.923 287.729 222.74 287.586 222.554 287.444C222.411 287.258 222.268 287.073 222.125 286.89C221.924 286.577 221.817 286.236 221.802 285.873C221.736 285.63 221.736 285.39 221.802 285.147C221.802 284.899 221.864 284.671 221.987 284.458C222.098 284.117 222.286 283.824 222.554 283.576C222.74 283.433 222.923 283.29 223.109 283.15C223.327 283.057 223.545 282.965 223.761 282.875ZM63.7497 273.907C64.1283 273.805 64.5073 273.805 64.8862 273.907L65.3952 274.12V274.12C65.6461 274.255 65.8445 274.438 65.9951 274.671C66.1857 274.876 66.3134 275.12 66.3786 275.398C66.5269 275.778 66.5094 276.382 66.3914 276.77C66.2585 277.211 66.0528 277.562 65.7341 277.893C65.2048 278.439 64.3917 278.596 63.6719 278.431C63.4735 278.386 63.2853 278.298 63.1147 278.191C62.5705 277.855 62.2043 277.269 62.2068 276.62C62.2068 276.55 62.2118 276.48 62.2218 276.41C62.1867 276.267 62.1739 276.119 62.1792 275.964L62.2544 275.398V275.398L62.2592 275.383C62.3598 275.024 62.5404 274.714 62.8036 274.451C63.047 274.21 63.3308 274.036 63.6552 273.932L63.7371 273.907H63.7497ZM253.061 217.66C252.376 212.05 249.799 206.014 241.94 209.309L241.356 209.527C239.411 210.262 237.145 211.228 235.962 212.926C235.146 214.095 235.422 216.362 235.309 217.728C234.797 222.166 235.072 226.599 235.606 231.019C236.295 241.379 234.113 252.112 229.77 261.528C234.117 268.551 239.934 275.101 247.87 278.028C248.206 270.043 249.772 262.205 251.438 254.414L251.504 254.075C252.17 250.561 252.504 246.956 254.815 244.034C259.516 238.938 265.981 241.822 269.075 233.636C268.425 233.308 268.784 232.186 269.567 232.401C272.28 232.882 272.721 227.86 270.864 226.65C268.929 225.472 270.877 223.299 270.053 221.73C269.594 221.054 268.603 221.032 268.154 220.252C266.963 217.384 272.922 215.547 265.915 212.313C264.48 211.804 262.877 212.12 261.431 212.114C259.303 212.313 257.612 213.81 255.665 214.281C257.784 219.759 252.438 225.034 247.612 220.658C244.986 223.136 242.05 228.785 248.433 226.152C251.557 224.07 254.247 221.379 257.873 220.097L257.95 220.073C259.296 219.633 265.188 216.775 264.896 219.248C262.689 221.375 259.049 221.35 256.494 223.076C252.95 224.712 250.685 228.676 246.443 228.621C245.465 234.549 252.203 230.942 254.712 229.307L255.408 228.931C258.947 227.022 262.539 225.253 266.667 225.23C267.806 225.222 267.801 226.976 266.667 226.991C261.288 227.024 256.91 230.381 252.404 232.877C251.96 236.337 257.036 234.822 258.962 234.312C260.981 234.029 264.225 231.848 265.992 233C266.683 234.773 263.641 234.641 262.582 235.179C267.417 237.498 263.181 238.958 261.885 235.395L261.505 235.524C258.267 236.61 250.417 238.846 251.351 233.371C250.166 233.894 248.721 234.207 247.412 233.917C244.146 238.739 238.938 236.873 246.508 233.586C244.802 232.794 244.233 229.735 245.871 228.596C239.912 228.233 244.336 221.991 246.803 219.91C246.57 219.675 246.345 219.436 246.134 219.193C244.712 219.869 243.217 220.28 241.618 220.425C240.088 220.563 239.747 217.963 241.257 217.75C242.876 217.522 244.366 217.091 245.791 216.279C247.95 215.348 248.687 219.349 250.849 219.491C252.028 219.724 252.825 218.692 253.061 217.66ZM202.89 269.283C203.412 269.283 203.876 269.501 204.255 269.847C204.634 270.192 204.797 270.711 204.819 271.207C204.83 271.472 204.774 271.72 204.654 271.951C204.576 272.189 204.443 272.394 204.255 272.57C203.904 272.918 203.384 273.133 202.89 273.133C202.369 273.133 201.905 272.915 201.525 272.57C201.147 272.221 200.984 271.705 200.961 271.207C200.951 270.944 201.006 270.696 201.127 270.465C201.197 270.251 201.311 270.061 201.471 269.9L201.525 269.847C201.877 269.496 202.396 269.283 202.89 269.283ZM218.702 257.403L218.786 257.405C219.228 257.408 219.637 257.518 220.018 257.738C220.183 257.866 220.349 257.991 220.512 258.119C220.816 258.424 221.024 258.783 221.14 259.196C221.257 259.627 221.257 260.06 221.14 260.491C221.099 260.739 221.007 260.98 220.861 261.187C220.645 261.545 220.359 261.834 219.998 262.046C219.624 262.265 219.22 262.372 218.786 262.375C218.352 262.372 217.948 262.265 217.574 262.046C217.213 261.834 216.927 261.545 216.714 261.187C216.566 260.98 216.473 260.739 216.433 260.491C216.315 260.06 216.315 259.627 216.433 259.196C216.54 258.812 216.727 258.476 216.996 258.185L217.06 258.119C217.281 257.881 217.542 257.713 217.845 257.615C218.112 257.475 218.398 257.405 218.702 257.403ZM98.0297 257.538C98.2156 257.487 98.3987 257.487 98.5844 257.538C98.8603 257.55 99.1185 257.633 99.3571 257.783C99.4976 257.893 99.6381 258.001 99.7786 258.109L99.901 258.256C100.163 258.574 100.169 258.628 100.37 259.113C100.453 259.384 100.466 259.654 100.406 259.925C100.406 260.108 100.358 260.278 100.268 260.436C100.218 260.609 100.132 260.759 100.004 260.884C99.9138 261.037 99.7936 261.16 99.6403 261.25C99.4449 261.428 99.2141 261.551 98.9482 261.613L98.4085 261.686V261.686C98.3385 261.676 98.2658 261.666 98.1955 261.658C98.1108 261.656 98.0286 261.646 97.9481 261.631L97.8666 261.613V261.613L97.7924 261.593C97.6942 261.565 97.5985 261.527 97.5056 261.478C97.33 261.428 97.1769 261.34 97.0462 261.21C96.8207 261.065 96.6401 260.869 96.5096 260.626L96.4745 260.546V260.546C96.4268 260.461 96.3867 260.373 96.3563 260.278C96.2713 260.128 96.2286 259.968 96.2261 259.795C96.1762 259.565 96.1795 259.337 96.2392 259.109L96.2612 259.033L96.4544 258.575C96.5548 258.42 96.6601 258.262 96.7953 258.134C96.8769 258.062 97.076 257.906 97.1882 257.829L97.257 257.783V257.783C97.4956 257.633 97.754 257.55 98.0297 257.538ZM67.7838 253.956C68.145 252.535 70.0116 252.087 71.0277 253.102C72.0435 254.116 71.5947 255.98 70.1724 256.34L70.0091 256.381V256.381C68.6343 256.729 67.3949 255.489 67.7436 254.116L67.7838 253.956V253.956ZM239.98 242.371C239.97 242.23 240.151 242.18 240.241 242.263C241.451 243.345 242.221 244.643 243.688 245.482C245.164 246.324 246.684 246.256 248.222 246.799C248.744 246.985 248.746 247.681 248.222 247.864C245.312 248.879 240.201 245.439 239.98 242.371ZM103.238 242.15C103.562 242.05 103.888 242.035 104.212 242.108C104.433 242.108 104.638 242.163 104.826 242.273C105.034 242.331 105.213 242.436 105.366 242.586C105.549 242.694 105.694 242.842 105.805 243.024C106.021 243.26 106.166 243.535 106.241 243.851L106.326 244.5V244.5L106.241 245.149V245.149C106.158 245.341 106.076 245.537 105.995 245.73L105.771 246.033C105.589 246.275 105.56 246.277 105.12 246.604C104.839 246.782 104.535 246.879 104.212 246.892C103.996 246.952 103.78 246.952 103.562 246.892C103.344 246.892 103.138 246.837 102.947 246.727C102.741 246.669 102.561 246.564 102.408 246.414C102.142 246.241 101.934 246.013 101.78 245.73C101.698 245.537 101.615 245.341 101.535 245.149L101.447 244.5V244.5L101.535 243.851V243.851L101.54 243.831V243.831C101.655 243.425 101.861 243.072 102.157 242.774L102.644 242.398V242.398C102.834 242.276 103.032 242.213 103.238 242.15ZM220.352 242.636C221.046 242.446 221.809 242.646 222.318 243.155C222.828 243.663 223.029 244.422 222.838 245.116C222.65 245.792 222.105 246.341 221.425 246.524C221.222 246.579 221.016 246.609 220.808 246.599C220.459 246.596 220.133 246.509 219.83 246.333L219.438 246.03V246.03C219.248 245.855 219.115 245.647 219.037 245.407C218.914 245.176 218.859 244.928 218.869 244.66L218.866 244.613C218.859 244.517 218.871 244.422 218.902 244.33C218.902 244.232 218.917 244.136 218.942 244.044C219.125 243.368 219.677 242.821 220.352 242.636ZM70.5359 235.853C70.7592 235.845 70.9675 235.89 71.1606 235.993C71.3638 236.058 71.5369 236.168 71.6825 236.329C71.843 236.474 71.9534 236.649 72.0186 236.85C72.1215 237.043 72.1667 237.251 72.1591 237.474C72.1591 237.767 72.0839 238.04 71.9384 238.29C71.8531 238.401 71.7678 238.511 71.6825 238.618C71.4818 238.821 71.2434 238.959 70.9675 239.037L70.8069 239.092V239.092C70.5711 239.177 70.3402 239.182 70.0944 239.15C69.836 239.114 69.5974 239.044 69.3869 238.884C69.1809 238.764 69.0181 238.601 68.8977 238.395L68.7597 238.07V238.07C68.7296 237.96 68.7171 237.794 68.7095 237.679C68.7095 237.661 68.7095 237.647 68.707 237.629C68.707 237.531 68.7371 237.293 68.762 237.196C68.8174 236.99 68.9301 236.795 69.0583 236.629C69.1686 236.457 69.3192 236.321 69.5048 236.221L69.5213 236.209V236.209L69.5399 236.196C69.5974 236.156 69.6579 236.116 69.7181 236.073C69.9689 235.928 70.2424 235.853 70.5359 235.853ZM200.088 234.074C200.49 234.074 200.863 234.177 201.21 234.378C201.222 234.382 201.234 234.388 201.244 234.393C201.576 234.588 201.839 234.851 202.035 235.182C202.236 235.525 202.336 235.896 202.336 236.291C202.336 236.69 202.236 237.058 202.035 237.401C201.839 237.732 201.576 237.995 201.244 238.19C201.234 238.197 201.222 238.202 201.21 238.207C200.863 238.408 200.49 238.508 200.088 238.511C199.689 238.508 199.315 238.408 198.969 238.207C198.292 237.812 197.868 237.073 197.868 236.291C197.868 235.509 198.292 234.771 198.969 234.378C199.315 234.177 199.689 234.074 200.088 234.074ZM95.902 231.178L95.9703 231.176C96.2362 231.166 96.4843 231.221 96.7126 231.344C96.951 231.422 97.1592 231.555 97.3351 231.743L97.7014 232.048V232.048L97.8077 232.134C97.8252 232.149 97.8424 232.163 97.8592 232.178C98.1053 232.426 98.2734 232.717 98.3687 233.052C98.3988 233.246 98.4236 233.436 98.444 233.629C98.4989 234.129 98.2031 234.643 97.877 234.999C97.7014 235.187 97.4929 235.319 97.2523 235.399C97.0215 235.52 96.7706 235.575 96.5044 235.565C95.96 235.517 95.4434 235.402 95.0521 234.981C95.0066 234.931 94.964 234.878 94.9191 234.826L94.6055 234.465V234.465C94.3672 234.225 94.2013 233.942 94.1113 233.616C94.0859 233.443 94.0636 233.273 94.041 233.102C94.0182 232.589 94.2691 232.108 94.6055 231.743C94.9161 231.404 95.4429 231.197 95.902 231.178ZM83.2382 225.903C85.8471 225.903 85.842 229.944 83.2382 229.944C80.6313 229.944 80.6363 225.903 83.2382 225.903ZM214.419 220.239L214.501 220.24C214.933 220.242 215.336 220.35 215.71 220.568L216.197 220.941V220.941C216.493 221.242 216.699 221.593 216.814 221.998C216.842 222.211 216.869 222.424 216.9 222.635C216.912 222.965 216.842 223.273 216.691 223.559C216.596 223.855 216.43 224.112 216.197 224.33C215.979 224.563 215.723 224.729 215.424 224.824C215.138 224.974 214.83 225.044 214.501 225.032C214.067 225.029 213.663 224.922 213.289 224.704C213.126 224.578 212.966 224.453 212.803 224.33C212.529 224.053 212.333 223.733 212.216 223.366L212.188 223.273L212.1 222.635C212.088 222.307 212.158 221.998 212.308 221.713C212.404 221.415 212.569 221.159 212.803 220.941C213.021 220.708 213.279 220.543 213.575 220.448C213.837 220.31 214.119 220.239 214.419 220.239ZM202.667 212.675C202.9 212.668 203.116 212.715 203.319 212.821C203.527 212.888 203.708 213.006 203.861 213.168C204.185 213.427 204.383 213.942 204.383 214.361C204.383 214.779 204.185 215.295 203.861 215.553C203.65 215.761 203.402 215.906 203.116 215.986L202.667 216.047V216.047C202.23 216.067 201.786 215.839 201.475 215.553C201.413 215.496 201.352 215.438 201.29 215.383C201.006 215.122 200.883 214.734 200.866 214.361C200.858 214.163 200.901 213.978 200.991 213.805C201.049 213.625 201.149 213.472 201.29 213.339C201.352 213.284 201.413 213.226 201.475 213.168C201.814 212.855 202.21 212.698 202.667 212.675ZM277.123 199.201C278.772 197.196 277.812 195.769 275.334 196.265C271.067 196.842 267.051 199.535 263.292 201.466C259.19 203.629 254.963 205.413 250.778 207.446C252.505 208.504 253.789 210.161 254.77 212.051C256.728 210.567 259.231 209.857 261.674 209.765C266.107 205.526 273.448 204.555 277.123 199.201ZM82.3602 205.857C82.8072 205.859 83.226 205.964 83.6184 206.174L83.7021 206.22L84.239 206.636C84.4999 206.876 84.6831 207.162 84.791 207.49C84.9565 207.806 85.0318 208.149 85.0193 208.515C85.0318 208.88 84.9565 209.221 84.791 209.537C84.6831 209.867 84.4999 210.15 84.239 210.391C84.091 210.584 83.9003 210.734 83.672 210.844C83.4585 210.932 83.248 211.022 83.0348 211.112C82.7965 211.187 82.5205 211.197 82.2621 211.21C81.7929 211.207 81.3567 211.09 80.9497 210.854L80.4231 210.449V210.449C80.1697 210.213 79.9889 209.935 79.8835 209.612C79.7342 209.327 79.6585 209.023 79.6586 208.699L79.6605 208.61C79.6605 208.59 79.6605 208.567 79.6632 208.545C79.6931 208.309 79.7259 208.074 79.758 207.838C79.8411 207.493 79.9991 207.189 80.235 206.934C80.2952 206.814 80.3755 206.716 80.4786 206.636C80.8095 206.305 81.2006 206.08 81.6524 205.952C81.8883 205.922 82.1241 205.889 82.3602 205.857ZM198.767 199.22L198.844 199.221C199.182 199.221 199.496 199.307 199.787 199.474C199.915 199.572 200.04 199.67 200.166 199.767C200.399 200 200.56 200.276 200.647 200.592L200.715 201.087V201.087C200.723 201.346 200.67 201.583 200.552 201.807C200.477 202.037 200.349 202.237 200.166 202.408C199.998 202.59 199.797 202.718 199.564 202.793C199.343 202.911 199.102 202.964 198.844 202.954C198.507 202.954 198.191 202.868 197.9 202.698C197.775 202.603 197.647 202.505 197.521 202.408C197.31 202.194 197.157 201.945 197.066 201.662L197.042 201.583L196.975 201.087C196.965 200.83 197.017 200.592 197.135 200.369C197.21 200.136 197.341 199.935 197.521 199.767C197.692 199.584 197.893 199.457 198.124 199.382C198.324 199.276 198.54 199.223 198.767 199.22V199.22ZM97.0241 196.507L97.1116 196.508C97.6109 196.511 98.075 196.636 98.5065 196.887C98.6922 197.03 98.8781 197.173 99.0635 197.318C99.4072 197.661 99.643 198.067 99.7762 198.535L99.8738 199.266V199.266C99.8889 199.647 99.8086 200 99.6355 200.328C99.5254 200.672 99.3344 200.967 99.0635 201.218C98.8154 201.486 98.5191 201.676 98.1754 201.787C97.8467 201.959 97.493 202.04 97.1116 202.024C96.6124 202.024 96.1483 201.899 95.7167 201.649C95.5313 201.506 95.3457 201.361 95.1575 201.218C94.8161 200.872 94.5802 200.466 94.4473 200L94.3494 199.266V199.266C94.3344 198.888 94.4147 198.533 94.5878 198.204C94.6982 197.864 94.8888 197.566 95.1575 197.318C95.4084 197.047 95.7042 196.857 96.0479 196.746C96.3513 196.587 96.676 196.508 97.0241 196.507ZM189.92 189.62C190.148 189.56 190.376 189.56 190.605 189.62C190.946 189.635 191.265 189.738 191.561 189.926L192.08 190.327V190.327C192.087 190.334 192.095 190.342 192.103 190.352C192.416 190.667 192.634 191.041 192.755 191.469L192.845 192.143V192.143C192.858 192.491 192.785 192.816 192.627 193.117C192.533 193.406 192.377 193.658 192.163 193.875L192.08 193.956C191.846 194.206 191.573 194.384 191.254 194.487C191.054 194.605 190.835 194.663 190.605 194.663C190.264 194.74 189.92 194.725 189.578 194.617C189.376 194.53 189.17 194.444 188.964 194.359L188.899 194.322C188.123 193.899 187.644 193.012 187.644 192.143C187.644 191.273 188.123 190.384 188.899 189.961C188.921 189.951 188.941 189.938 188.964 189.926C189.26 189.738 189.578 189.635 189.92 189.62Z" fill="black"/>
<path fill-rule="evenodd" clip-rule="evenodd" d="M191.629 87.0634C184.089 76.7017 170.205 73.7219 158.166 76.242C134.628 80.5259 112.141 98.4552 107.982 122.839C101.493 137.59 105.637 160.825 124.507 162.561C127.193 162.713 129.854 162.095 132.546 162.429C148.971 165.048 168.381 176.262 182.921 163.038C183.65 163.559 184.61 163.811 185.427 163.495C191.616 161.108 191.906 154.2 192.434 148.521C193.115 141.184 193.755 133.843 194.351 126.499C194.564 113.834 199.592 98.0073 191.629 87.0634V87.0634Z" fill="white"/>
<path fill-rule="evenodd" clip-rule="evenodd" d="M145.995 60.6601C155.905 60.1341 174.164 64.6659 182.809 69.9791C196.896 78.6357 197.987 95.904 197.413 98.8898C197.195 100.029 196.497 101.084 195.406 100.733C196.332 108.578 196.259 113.062 196.414 120.953L196.521 126.221C196.591 129.733 196.65 133.245 196.665 136.758C197.022 136.626 197.373 136.789 197.503 137.129C197.536 137.212 197.423 137.257 197.368 137.21C196.741 136.663 197.187 137.908 197.403 138.161C197.701 138.51 198.198 138.838 198.547 139.136L199.494 139.955V139.955L200.441 140.772C201.664 141.826 202.848 142.882 203.989 144.017L204.3 144.329C206.379 146.438 208.986 148.479 210.281 151.207C211.517 153.812 211.136 156.765 209.081 158.842C208.334 159.596 207.461 160.172 206.512 160.608C208.201 163.383 208.447 167.053 206.685 169.908C204.922 172.774 201.53 174.275 198.263 174.044C198.163 174.452 198.007 174.851 197.802 175.229C196.506 177.605 193.93 177.914 191.487 177.787L191.392 177.781C185.892 177.466 180.601 176.091 175.785 173.418C174.114 173.531 172.623 172.16 172.297 170.657C171.419 170.625 170.536 170.552 169.635 170.449C166.964 170.141 164.224 169.568 161.868 168.213C161.507 168.005 161.675 167.456 162.076 167.446C164.946 167.381 167.819 167.579 170.684 167.268C173.313 166.985 176.116 166.261 178.567 165.277C182.972 163.503 186.75 160.495 188.835 156.327C191.535 150.931 191.289 144.451 191.582 138.59C191.908 132.102 192.308 125.62 192.736 119.138L192.944 116.031C193.359 109.975 193.703 106.736 194.756 100.45C191.582 100.733 178.399 95.9958 174.299 88.2463C166.518 104.732 127.096 97.9851 125.348 123.365C125.333 123.58 124.991 123.52 124.979 123.315L124.946 122.736C124.93 122.451 124.916 122.169 124.907 121.89L124.898 121.612L124.279 121.619C124.279 121.697 124.168 121.724 124.141 121.642C123.556 119.986 120.771 120.519 119.56 120.913C118.468 121.268 117.44 121.814 116.517 122.488C114.663 123.841 113.225 125.662 112.748 127.939C111.843 132.262 114.6 136.666 118.26 138.753C120.568 140.068 123.097 140.917 125.31 142.407C127.264 143.722 129.086 145.263 130.664 147.014C136.916 153.95 140.594 164.47 137.636 173.626C137.41 174.325 136.813 175.123 136.022 175.236C134.715 175.424 133.408 175.234 132.676 173.991C132.39 173.506 132.254 172.952 132.284 172.406C131.778 174.144 130.134 175.863 128.619 176.509C126.554 177.391 124.229 177.127 122.407 175.99L122.177 176.16C119.215 178.337 115.906 180.321 112.111 179.921C109.361 179.63 106.662 178.232 105.142 176.028C103.12 177.163 100.959 178.067 98.7317 178.683L98.4946 178.748C95.4295 179.581 91.5198 180.345 88.6588 178.653C85.9117 177.027 84.9985 173.478 85.6432 170.514C85.721 170.161 85.8188 169.818 85.9393 169.485C83.872 169.595 81.8073 169.397 79.8454 168.791C77.8409 168.172 75.9291 166.983 74.9683 165.054C73.8845 162.872 74.173 160.392 74.9808 158.171C76.2729 154.606 78.3501 151.435 80.9367 148.672C83.4241 146.013 86.4245 143.757 89.5427 141.877L90.0684 141.563C92.8753 139.891 96.2604 137.932 99.5771 138.061C99.5671 138.019 99.5596 137.978 99.5545 137.936C99.0528 134.246 99.1105 130.484 98.9926 126.764C98.8847 123.343 98.7618 119.921 98.6815 116.497C98.551 110.675 98.5937 104.829 99.3538 99.0476C100.029 93.9176 101.243 88.9151 103.458 84.2184C105.784 79.284 109.286 75.0733 113.611 71.7618C122.688 64.8107 134.678 61.2613 145.995 60.6601ZM115.164 129.036C116.153 127.175 118.403 126.589 120.378 126.924C123.145 127.395 125.026 129.81 126.642 131.887C128.338 134.063 124.801 136.115 123.89 134.006L123.674 133.508C122.943 131.835 122.08 130.072 120.588 128.981C119.003 127.824 116.765 127.653 115.365 129.191C115.265 129.304 115.097 129.159 115.164 129.036Z" fill="black"/>
<path fill-rule="evenodd" clip-rule="evenodd" d="M169.993 152.029C168.307 151.342 166.802 150.196 165.702 148.732C165.319 148.223 165.22 147.686 165.3 147.194C165.391 146.642 165.718 146.141 166.165 145.805C166.613 145.468 167.173 145.302 167.715 145.386C168.185 145.46 168.654 145.717 169.025 146.251L169.102 146.358C169.756 147.241 170.609 147.966 171.58 148.433C172.516 148.884 173.563 149.094 174.646 148.972C176.709 148.739 178.131 147.625 179.643 146.112C179.83 145.921 180.017 145.724 180.206 145.524C180.325 145.342 180.49 145.226 180.673 145.165C180.877 145.097 181.107 145.101 181.318 145.174C181.521 145.245 181.703 145.379 181.825 145.558C181.941 145.728 182.006 145.938 181.985 146.179C181.847 147.747 181.026 149.146 179.86 150.245C178.565 151.465 176.848 152.309 175.231 152.605C173.451 152.931 171.636 152.698 169.993 152.029V152.029ZM176.071 127.841C177.966 128.991 180.853 131.672 178.815 134.523C176.416 137.036 172.962 134.154 171.26 132.851C169.681 131.841 167.908 134.439 169.372 135.618C181.671 144.71 186.663 128.142 177.03 126.49C175.969 126.308 175.575 127.486 176.071 127.841ZM154.031 117.266C154.241 114.672 158.198 114.082 158.591 116.649C158.944 118.949 158.529 121.061 157.491 123.132C156.5 125.109 154.009 124.187 153.82 122.386C153.568 119.972 153.901 118.879 154.031 117.266ZM184.153 116.117C184.705 115.396 185.501 114.903 186.456 115.182C189.437 116.052 188.558 120.278 187.511 122.335C186.942 123.453 185.103 123.736 184.272 122.752C182.917 121.148 182.268 117.945 183.991 116.364C184.037 116.283 184.089 116.2 184.153 116.117ZM157.449 105.915L157.92 105.832C159.378 105.581 161.189 105.339 162.22 106.508C162.767 107.129 162.955 108.281 162.22 108.875C160.927 109.92 159.498 109.515 157.949 109.603C156.673 109.676 155.446 109.887 154.217 110.238C151.519 111.008 149.321 112.413 147.017 113.956C146.715 114.159 146.406 113.773 146.551 113.49C147.881 110.889 150.458 108.753 153.04 107.451C154.417 106.756 155.925 106.179 157.449 105.915ZM181.435 104.749L181.795 104.823C185.718 105.642 190.815 107.277 192.673 111.125C192.744 111.669 192.669 111.785 192.608 111.862L192.588 111.887C192.538 111.952 192.498 112.042 192.262 112.116C192.196 112.1 192.13 112.084 192.063 112.066C191.212 111.843 190.538 111.536 189.886 111.218L189.178 110.87C188.358 110.468 187.53 110.081 186.653 109.795C184.781 109.186 182.855 108.756 180.9 108.527C180.476 108.477 180.068 108.334 179.746 108.09C179.44 107.857 179.207 107.536 179.1 107.108C178.962 106.555 179.002 106.136 179.299 105.637C179.523 105.262 179.843 105.002 180.21 104.853C180.585 104.701 181.011 104.665 181.435 104.749Z" fill="black"/>
</svg>
