<svg width="285" height="384" viewBox="0 0 285 384" fill="none" xmlns="http://www.w3.org/2000/svg">
<path fill-rule="evenodd" clip-rule="evenodd" d="M56.3639 339.024C89.1401 343.994 122.511 344.244 155.559 342.439C168.639 341.462 181.758 341.286 194.827 342.536C202.55 343.109 236.408 345.693 239.175 338.787C237.434 302.014 233.907 264.928 223.09 229.561C218.641 217.004 214.82 206.581 206.137 196.189C203.4 193.352 197.498 187.401 194.117 185.46C191.187 183.779 189.962 184.379 188.28 181.539C186.608 178.403 185.375 173.164 183.002 170.951C180.585 168.697 177.003 169.503 172.564 170.229C173.38 159.225 168.292 156.422 161.284 154.33C148.964 149.635 136.798 151.994 133.697 166.967C127.948 166.967 124.718 169.437 121.227 171.811C119.8 172.781 120.793 175.253 119.088 176.016C115.934 177.137 110.361 176.862 107.324 178.242C93.5144 184.517 81.2149 193.616 73.1375 206.905C55.0289 235.277 42.5897 295.043 44.7423 328.67C43.7992 330.146 45.1033 332.264 45.4348 333.852C45.8532 335.233 47.2083 336.152 48.6224 335.995C50.5958 338.113 53.6481 338.585 56.3639 339.024Z" fill="white"/>
<path fill-rule="evenodd" clip-rule="evenodd" d="M192.03 184.629C191.828 184.517 192.006 184.23 192.208 184.324C201.928 188.877 209.385 196.865 214.632 206.094C220.065 215.651 223.162 226.501 225.831 237.106L225.928 237.489C228.774 248.834 231.195 260.296 233.374 271.786C235.581 283.421 237.352 295.129 238.777 306.885C239.482 312.697 240.111 318.52 240.601 324.355C240.846 327.271 241.068 330.189 241.268 333.108C241.348 334.275 241.424 335.443 241.488 336.611L241.534 337.488C241.574 338.283 241.669 339.08 241.472 339.864C241.302 340.54 240.944 341.153 240.628 341.773C240.005 343 238.295 342.798 237.623 341.773L237.428 341.475C236.982 340.787 236.612 340.148 236.472 339.292C236.337 338.463 236.332 337.595 236.271 336.757C236.159 335.217 236.064 333.675 235.956 332.135C235.728 328.891 235.473 325.65 235.19 322.411C234.63 316.017 234.03 309.629 233.292 303.252C231.982 291.92 230.338 280.618 228.4 269.376C226.506 258.394 224.113 247.524 221.615 236.667L221.357 235.544C216.984 216.588 210.245 194.759 192.03 184.629ZM88.4946 258.854C88.5661 258.665 88.8736 258.621 88.9256 258.854C89.5804 261.798 89.6451 264.829 89.7452 267.843C89.8438 270.816 89.8398 273.802 89.7964 276.777C89.6363 287.709 89.3358 298.632 89.0759 309.562C88.9459 315.029 88.824 320.498 88.7304 325.966C88.695 328.017 88.6653 330.067 88.6406 332.118L88.6103 334.823C88.5953 336.019 88.5638 337.201 88.4178 338.395C88.3215 339.181 88.1162 339.931 87.6817 340.604C87.3733 341.082 86.9338 341.325 86.5055 341.65L86.4253 341.712C85.8789 342.143 85.3034 342.146 84.7622 341.712L84.6051 341.588C84.0882 341.184 83.6414 340.869 83.3114 340.231C82.8523 339.343 82.7788 338.379 82.7007 337.401C82.5823 335.918 82.6608 334.413 82.6761 332.926C82.7068 329.943 82.7482 326.96 82.8006 323.977C82.993 313.038 83.3733 302.097 84.0665 291.177C84.3931 286.034 84.8359 280.874 85.4298 275.751L85.543 274.791C85.7231 273.284 85.8874 271.75 86.0726 270.211C83.3086 268.27 80.8791 265.915 78.8073 263.243C78.6548 263.046 78.9059 262.771 79.0901 262.961C81.207 265.149 83.6343 266.894 86.3214 268.266C86.7617 265.044 87.3671 261.84 88.4946 258.854ZM134.67 161.342C134.708 161.313 134.767 161.3 134.803 161.342C135.397 162.034 135.277 163.091 135.296 163.967L135.298 164.049C135.341 165.33 135.349 166.607 135.344 167.889L135.331 171.97V171.97C135.329 172.531 135.284 173.115 135.312 173.68L135.328 173.898V173.898C135.64 174.217 135.785 174.678 135.679 175.142C135.66 175.736 135.349 176.231 134.895 176.543L135.867 177.921V177.921L136.841 179.298C138.848 182.14 140.877 184.956 142.991 187.72C145.147 190.538 147.447 193.249 149.854 195.856C151.03 197.13 152.226 198.387 153.45 199.615C153.947 200.114 154.457 200.601 154.961 201.093L155.462 201.588C155.759 201.883 156.132 202.176 156.328 202.551C156.444 202.772 156.47 203.317 156.512 203.407C156.883 204.222 156.249 205.521 155.197 205.115L155.245 205.083C155.436 204.95 155.313 204.948 154.876 205.078C154.6 205.077 154.341 205.013 154.099 204.888L154.027 204.848C153.687 204.675 153.383 204.341 153.106 204.074L153.038 204.008C152.405 203.417 151.803 202.789 151.196 202.171C149.931 200.881 148.695 199.563 147.497 198.21C145.109 195.51 142.845 192.701 140.701 189.804C138.516 186.854 136.486 183.753 134.74 180.524C134.078 179.298 133.471 178.05 132.888 176.786C131.755 176.423 131.492 175.219 131.571 173.863C131.152 172.891 130.776 171.899 130.553 170.885C130.522 170.746 130.701 170.615 130.808 170.736C131.171 171.147 131.507 171.585 131.829 172.034C132.024 171.084 132.27 170.209 132.386 169.651L132.889 167.189V167.189C130.057 167.042 126.954 168.203 125.002 170.237C124.897 170.766 124.489 171.145 124.091 171.64C123.636 172.206 123.24 172.841 122.944 173.505C122.288 174.977 122.658 177.146 121.385 178.226C121.252 178.338 121.104 178.417 120.951 178.465C121.555 181.423 121.281 184.682 121.268 187.682L121.267 187.946C121.27 191.305 121.158 194.666 121.028 198.021L120.896 201.342C120.725 205.771 120.613 210.203 121.044 214.607C123.013 212.867 125.048 211.206 127.153 209.624C128.537 208.583 129.949 207.579 131.387 206.613L132.555 205.834C133.954 204.897 135.388 203.933 136.921 203.262C138.925 202.384 140.831 202.686 142.767 203.586C144.694 204.482 146.564 205.523 148.454 206.495C150.377 207.483 152.304 208.463 154.229 209.445C155.505 210.096 157.374 210.683 158.309 211.881C158.369 211.616 158.438 211.352 158.52 211.088C158.427 210.687 158.463 210.253 158.688 209.839C161.832 204.072 164.74 198.168 167.628 192.27C169.09 189.285 170.48 186.266 171.945 183.283L173.369 180.378C173.606 179.894 173.845 179.41 174.085 178.927C174.444 178.204 174.818 177.488 175.182 176.767C175.335 176.463 175.528 176.16 175.677 175.852L175.748 175.698C175.751 175.69 176.096 174.607 175.83 174.71L175.807 174.721C175.671 174.798 175.562 174.627 175.65 174.518C176.027 174.053 176.552 174.465 176.767 174.896C177.359 176.081 176.274 177.941 175.856 179.076L175.833 179.139C174.537 182.801 173.07 186.394 171.567 189.975C168.685 196.84 165.588 203.6 162.499 210.371L162.462 210.488V210.488C163.121 209.984 163.824 209.526 164.427 209.081C165.946 207.957 167.51 206.888 169.072 205.823C171.935 203.87 174.876 202.045 177.866 200.293L178.465 199.943C179.958 199.074 181.438 198.37 183.211 198.631C184.857 198.873 186.389 199.756 187.876 200.474L188.03 200.547L192.628 202.73C192.136 200.773 191.604 198.826 191.049 196.886C189.966 193.101 188.775 189.349 187.483 185.63C186.276 182.156 184.971 178.719 183.591 175.31L183.176 174.287C182.613 172.883 182.054 171.352 180.446 170.92C178.839 170.488 176.996 171.129 175.527 170.214C175.394 170.131 175.41 169.911 175.572 169.871L176.478 169.643C178.18 169.22 180.175 168.795 181.784 169.206C183.535 169.654 184.983 171.121 185.833 172.646C186.777 174.343 187.443 176.242 188.16 178.051L188.274 178.336C189.096 180.383 189.887 182.443 190.645 184.516C192.158 188.659 193.537 192.852 194.784 197.083C195.385 199.122 195.955 201.17 196.503 203.224C196.661 203.815 196.921 204.531 197.134 205.278C197.378 205.516 197.61 205.781 197.827 206.084C198.187 206.587 197.928 207.176 197.481 207.477C197.464 207.991 197.349 208.474 197.076 208.889C196.008 210.506 193.186 210.09 193.301 207.915C193.318 207.582 193.448 207.264 193.645 206.995L193.639 206.952V206.952L193.617 206.872V206.872C193.127 206.638 192.635 206.376 192.116 206.121L187.291 203.74V203.74C185.894 203.051 184.345 201.985 182.791 201.723C181.342 201.478 179.814 202.555 178.569 203.205L178.488 203.247C175.479 204.787 172.492 206.378 169.517 207.983C168.064 208.766 166.631 209.582 165.184 210.374C163.974 211.037 162.669 211.988 161.309 212.362C160.728 212.813 160.038 212.753 159.484 212.412C159.737 213.979 159.722 215.587 159.799 217.188C159.904 219.33 159.92 221.477 159.954 223.622L159.968 224.426C160.06 229.167 160.109 233.909 160.127 238.65C160.191 255.535 160.004 272.425 159.96 289.31C159.938 297.794 159.77 306.285 159.549 314.765C159.456 318.359 159.26 321.948 159.049 325.536L158.932 327.493C158.686 331.622 158.541 335.797 157.775 339.871C157.675 340.402 156.775 340.415 156.686 339.871C155.982 335.506 155.943 331.045 155.807 326.628L155.779 325.746C155.616 321.004 155.538 316.265 155.555 311.521C155.615 294.629 156.055 277.748 156.415 260.861C156.596 252.376 156.717 243.888 156.998 235.406C157.139 231.162 157.298 226.921 157.487 222.679C157.571 220.785 157.652 218.892 157.778 217.001L157.835 216.191C157.874 215.662 157.905 215.139 157.944 214.622C156.232 215.246 154.667 214.09 153.127 213.3C151.352 212.388 149.578 211.475 147.803 210.565L146.026 209.657V209.657L142.47 207.845C140.868 207.03 139.635 206.218 137.927 207.175C131.775 210.621 126.121 215.206 120.998 220.018C120.015 220.941 117.939 220.693 117.69 219.146C116.627 212.54 117.274 205.837 117.817 199.21L118.017 196.75C118.259 193.811 118.523 190.873 118.875 187.946C119.032 186.637 119.189 185.329 119.363 184.022L119.496 183.043C119.713 181.494 119.854 179.954 120.316 178.469C120.171 178.422 120.03 178.345 119.905 178.226C118.516 176.91 119.185 174.626 119.819 173.061C120.445 171.515 121.4 170.167 122.595 169.006C122.856 168.752 123.224 168.589 123.593 168.581C126.491 166.664 129.671 165.707 132.98 166.753C133.073 166.309 133.168 165.866 133.268 165.425L133.369 164.983C133.627 163.887 133.722 162.076 134.67 161.342ZM164.375 334.485C165.275 334.238 166.259 334.498 166.919 335.156C167.577 335.814 167.838 336.797 167.59 337.695C167.466 338.137 167.242 338.521 166.919 338.847C166.616 339.147 166.262 339.362 165.859 339.49L165.765 339.518L165.618 339.579C165.167 339.7 164.716 339.7 164.265 339.579C163.834 339.458 163.46 339.241 163.143 338.926C162.827 338.609 162.609 338.236 162.488 337.805C162.367 337.355 162.367 336.905 162.488 336.455L162.55 336.308V336.308C162.674 335.866 162.898 335.482 163.222 335.156C163.548 334.833 163.933 334.609 164.375 334.485ZM217.78 245.001C217.928 244.831 218.167 245.048 218.076 245.228C216.675 247.97 215.113 250.693 213.579 253.365C213.701 254.106 213.823 254.841 213.964 255.557C214.562 258.609 215.294 261.607 215.771 264.688C217.487 275.765 218.378 286.961 219.143 298.137C219.909 309.353 220.007 320.574 220.123 331.812C220.133 332.786 219.382 333.918 218.377 334.101C217.916 334.185 217.572 334.169 217.112 334.101C216.066 333.948 215.411 332.751 215.367 331.812C215.067 325.531 214.663 319.258 214.195 312.987C213.366 301.87 212.86 290.723 212.19 279.594L211.954 275.704C211.701 271.489 211.47 267.272 211.394 263.051C211.344 260.254 211.494 257.458 211.402 254.665C211.317 252.086 211.055 249.282 211.624 246.749C211.646 246.654 211.796 246.63 211.839 246.721C212.431 247.965 212.806 249.318 213.095 250.698C214.621 248.772 216.175 246.841 217.78 245.001ZM117.83 176.881C118.044 176.865 118.036 177.187 117.83 177.21C114.836 177.557 111.943 178.774 109.115 179.808L108.873 179.896C106.017 180.931 103.232 182.134 100.552 183.569C95.3115 186.373 90.4996 189.989 86.2451 194.129C69.2593 210.654 61.5184 234.484 55.8462 256.878C52.6947 269.32 50.4536 281.973 49.001 294.722C48.2827 301.027 47.7749 307.357 47.4789 313.696C47.3273 316.945 47.2318 320.197 47.1919 323.449C47.1713 325.115 47.1653 326.781 47.1673 328.447C47.1683 329.21 47.3048 330.171 47.1003 330.912C46.9106 331.599 46.3758 332.204 45.9801 332.776C45.5112 333.455 44.6685 333.419 44.1931 332.776L44.0178 332.542C43.5107 331.87 43.0146 331.228 42.9422 330.351C42.8647 329.41 42.9194 328.44 42.9159 327.495C42.9078 325.591 42.9314 323.686 42.9696 321.783C43.0431 318.134 43.1871 314.487 43.4011 310.844C43.8356 303.451 44.5509 296.073 45.5749 288.738C47.3953 275.7 50.1239 262.786 53.6979 250.116C57.0698 238.162 61.0643 226.245 66.7548 215.173C72.0383 204.892 78.9696 195.329 88.1157 188.145C92.3689 184.803 96.9989 182.019 101.991 179.922C104.508 178.865 107.152 178.001 109.841 177.509C112.5 177.022 115.147 177.09 117.83 176.881ZM164.891 313.357C165.366 313.354 165.895 313.458 166.303 313.72L166.847 314.14V314.14C166.995 314.329 167.141 314.519 167.288 314.71C167.628 315.152 167.673 315.869 167.602 316.397C167.586 316.749 167.481 317.077 167.288 317.381L166.873 317.917V317.917C166.475 318.241 166.143 318.472 165.66 318.628C165.408 318.71 165.165 318.727 164.923 318.715L164.842 318.709L164.891 318.716L164.806 318.706V318.706C164.727 318.7 164.648 318.691 164.569 318.68C164.515 318.674 164.461 318.67 164.407 318.662C164.355 318.658 164.305 318.656 164.252 318.661C163.639 318.718 163.023 318.371 162.587 317.972C162.195 317.613 161.843 316.851 161.898 316.31L161.921 316.084C161.963 315.703 161.997 315.554 162.158 315.171C162.315 314.799 162.535 314.47 162.834 314.193C163.406 313.662 164.106 313.363 164.891 313.357ZM162.993 285.482C163.807 284.596 165.204 284.531 166.214 285.067C166.459 285.198 166.685 285.407 166.902 285.582C167.448 286.023 167.663 286.818 167.693 287.488C167.723 288.151 167.373 288.938 166.902 289.395L166.788 289.506V289.506C166.507 289.779 166.104 290.016 165.71 290.088C165.076 290.205 164.543 290.201 163.952 289.952C163.445 289.738 163.007 289.395 162.709 288.928L162.661 288.849C162.641 288.817 162.621 288.783 162.603 288.749L162.577 288.698C162.012 287.612 162.164 286.383 162.993 285.482ZM163.414 257.46C163.781 257.345 164.148 257.329 164.515 257.411C164.764 257.411 164.997 257.474 165.212 257.599C165.446 257.664 165.649 257.782 165.821 257.953C166.028 258.076 166.194 258.24 166.316 258.448C166.56 258.714 166.725 259.026 166.811 259.385L166.909 260.118L166.811 260.85L166.532 261.509V261.509C166.456 261.609 166.379 261.708 166.301 261.808C166.178 262.015 166.012 262.181 165.804 262.304C165.669 262.438 165.514 262.538 165.341 262.608C164.726 263.048 163.907 263.191 163.179 262.991C162.746 262.87 162.371 262.651 162.052 262.336C161.736 262.017 161.517 261.642 161.396 261.211L161.346 260.866C161.282 260.404 161.272 260.148 161.403 259.56C161.46 259.301 161.627 258.937 161.714 258.783C162.088 258.128 162.698 257.679 163.414 257.46ZM195.284 237.3C196.338 237.293 197.392 237.295 198.446 237.306L199.236 237.317C200.56 237.338 201.693 237.201 202.733 238.118C203.489 238.783 203.156 239.9 202.439 240.401C201.353 241.16 199.991 240.778 198.742 240.694C197.426 240.606 196.108 240.533 194.79 240.474C192.238 240.36 189.685 240.287 187.13 240.276C184.581 240.265 182.028 240.289 179.479 240.33C176.885 240.372 174.185 240.614 171.606 240.346C171.251 240.309 171.172 239.844 171.521 239.723C173.952 238.883 176.686 238.611 179.233 238.29C181.859 237.959 184.486 237.725 187.13 237.572C189.845 237.417 192.565 237.319 195.284 237.3ZM163.41 229.055L163.496 229.057C163.96 229.058 164.394 229.167 164.799 229.384L164.886 229.432L165.443 229.861C165.784 230.205 166.02 230.609 166.15 231.074L166.248 231.804V231.804C166.263 232.183 166.184 232.535 166.012 232.863C165.9 233.204 165.711 233.498 165.443 233.747C165.193 234.015 164.898 234.204 164.557 234.315C164.254 234.474 163.93 234.554 163.584 234.554L163.496 234.552C163 234.55 162.537 234.425 162.108 234.177L161.551 233.747V233.747C161.21 233.404 160.974 233 160.843 232.535L160.745 231.804V231.804C160.731 231.426 160.809 231.073 160.982 230.746C161.093 230.405 161.282 230.11 161.551 229.861C161.8 229.594 162.095 229.404 162.437 229.293C162.739 229.135 163.063 229.055 163.41 229.055V229.055ZM171.568 164.512C172.161 163.654 173.235 164.417 173.081 165.106C173.122 167.042 173.221 168.921 173.662 170.817C173.864 171.686 174.129 172.555 174.537 173.35L174.709 173.685C175.237 174.727 175.647 175.71 174.936 176.854C174.6 177.393 173.994 177.797 173.337 177.769C170.423 177.644 170.023 173.594 169.846 171.333C169.663 169.005 170.231 166.446 171.568 164.512Z" fill="black"/>
<path fill-rule="evenodd" clip-rule="evenodd" d="M195.067 121.238C194.527 116.5 195.226 106.596 195.272 105.995C195.568 102.191 193.783 87.1707 190.409 88.5547C184.749 84.0807 177.21 83.0928 170.16 82.6209C155.517 81.6404 139.939 83.8911 128.632 93.7303C123.04 98.84 117.596 106.272 118.033 114.01C112.953 121.345 105.79 131.406 112.121 139.981C114.272 142.721 117.692 143.741 120.395 145.816C125.832 150.194 129.243 156.478 134.732 160.831C149.273 173.877 173.964 176.602 188.25 161.763C199.298 151.016 197.512 134.938 195.568 121.238C194.262 112.026 196.12 130.481 195.067 121.238Z" fill="white"/>
<path fill-rule="evenodd" clip-rule="evenodd" d="M150.599 62.5284C154.515 61.7394 158.536 61.2484 162.536 61.3962L162.844 61.4082C165.853 61.5282 169.664 61.7938 172.289 63.5409C172.44 63.3896 172.683 63.3119 172.903 63.4169C176.023 64.9035 179.454 65.9784 182.738 67.0465C186.008 68.1093 189.399 68.8109 192.826 69.0937C194.115 69.2002 195.219 70.5902 194.402 71.8368C194.208 72.1339 194.019 72.434 193.831 72.7348C194.146 72.702 194.461 72.6682 194.776 72.6364C195.813 72.5322 196.849 73.6371 196.787 74.6451C196.749 75.2791 196.68 75.9055 196.579 76.5245C196.974 76.5162 197.367 76.5753 197.746 76.7354C199.667 77.5452 199.533 79.8294 199.389 81.5673C199.19 83.9791 198.287 86.5335 196.609 88.3386C197.862 89.6374 198.748 91.1884 199.277 93.0305C199.661 94.3756 199.874 95.8084 199.769 97.2086L199.735 97.6279C199.605 99.1474 199.346 100.83 198.251 101.923C197.689 102.486 196.997 102.692 196.337 102.627C196.736 106.129 196.992 109.65 197.232 113.16L197.345 114.837C197.883 122.948 198.286 131.112 198.181 139.236C198.083 146.828 196.58 154.197 191.916 160.362C187.669 165.975 181.57 170.114 174.671 171.687C170.953 172.536 167.157 172.596 163.394 172.055C161.57 171.792 159.733 171.389 158.002 170.752C156.086 170.046 154.708 169.006 153.419 167.448C152.809 166.709 153.102 165.136 154.317 165.284C156.154 165.506 157.83 165.774 159.591 166.317L159.843 166.396C161.597 166.957 163.414 167.376 165.247 167.554C169.003 167.917 172.817 167.551 176.414 166.414C182.272 164.56 187.318 160.43 190.551 155.239C194.39 149.087 194.824 142.104 194.769 135.03C194.709 127.268 194.456 119.501 194.044 111.747L193.973 110.455C193.755 106.464 193.544 102.471 193.359 98.4786C193.301 97.2262 193.213 95.9637 193.055 94.7138C191.608 93.8671 190.311 92.6998 189.465 91.2595C187.767 91.9609 185.98 92.4669 184.337 92.8702C180.53 93.805 176.578 94.0319 172.703 93.4465C171.658 93.8776 170.592 94.2566 169.509 94.5828C169.217 94.7123 168.924 94.8395 168.632 94.9643C166.023 96.0789 163.376 97.0233 160.621 97.7146L159.945 97.8831C158.495 98.2399 156.921 98.5912 155.378 98.7016C155.125 98.7993 154.851 98.8819 154.552 98.9546C153.148 99.2952 151.69 99.4029 150.25 99.2827C148.847 99.165 147.834 97.7497 148.607 96.4246C149.171 95.4577 149.741 94.4933 150.315 93.5315C148.316 94.3631 146.251 95.0544 144.169 95.6406C142.066 96.2317 139.934 96.7302 137.799 97.1886C136.657 97.4316 135.511 97.647 134.372 97.89C133.557 98.0628 132.305 98.153 131.64 98.689C130.905 99.2777 130.696 100.65 130.418 101.497C130.051 102.597 129.708 103.701 129.394 104.819C128.77 107.048 128.258 109.31 127.862 111.594C127.465 113.881 127.199 116.191 127.051 118.508C126.903 120.822 126.968 123.152 126.73 125.456C126.602 126.679 125.287 127.307 124.317 126.453C124.203 126.353 124.088 126.252 123.974 126.149L123.805 125.995C122.974 125.243 122.169 124.447 121.504 123.55C121.384 123.385 121.268 123.212 121.161 123.037C121.143 123.037 121.128 123.032 121.11 123.019L120.926 122.881C118.897 121.373 115.507 119.407 113.529 121.912C112.898 122.71 112.575 123.726 112.308 124.706L111.838 126.461C111.533 127.606 111.247 128.758 111.08 129.93C110.701 132.555 110.892 135.581 112.701 137.685C113.423 138.527 114.419 139.128 115.531 139.286C116.15 139.371 116.763 139.266 117.377 139.188C118.002 139.11 118.604 139.236 119.229 139.176C120.222 139.078 120.656 140.265 120.285 141.012C120.084 141.412 119.848 141.758 119.58 142.051C119.795 142.237 120.001 142.437 120.2 142.647C120.787 142.835 121.313 143.239 121.707 143.772C122.026 144.203 122.191 144.671 122.219 145.165C122.254 145.288 122.284 145.413 122.312 145.541L122.85 146.413C122.969 146.604 123.087 146.793 123.205 146.978C124.575 149.133 126.095 150.956 127.984 152.674C129.803 154.328 131.778 155.808 133.486 157.582L133.688 157.792C135.281 159.468 136.96 161.497 136.336 163.934C136.176 164.56 135.3 165.011 134.728 164.588C132.889 163.225 131.963 161.066 130.403 159.413C128.797 157.709 127.018 156.179 125.408 154.481C123.885 152.877 122.683 151.061 121.778 149.062C121.416 149.461 120.89 149.744 120.159 149.854C118.905 150.042 117.736 149.308 117.189 148.223C116.838 148.379 116.479 148.519 116.118 148.629C114.216 149.21 113.019 147.099 113.737 145.538C114.121 144.701 114.6 143.975 115.195 143.364C113.335 143.108 111.444 142.149 110.222 140.952C107.156 137.943 106.735 133.422 107.425 129.402C107.791 127.27 108.423 125.113 109.244 123.112C109.386 122.764 109.54 122.413 109.708 122.067C109.615 122.065 109.519 122.025 109.459 121.947C108.905 121.19 108.23 120.572 107.818 119.725C107.44 118.949 107.018 118.162 106.72 117.353C106.105 115.697 105.804 113.829 105.603 112.078C105.189 108.493 105.35 104.931 105.899 101.369C106.835 95.3024 109.095 89.4966 112.424 84.4021C112.243 84.307 112.069 84.1922 111.907 84.0565L111.828 83.9868L111.698 83.8696C110.747 83.0112 110.83 81.4023 111.698 80.5328L111.972 80.2584C112.319 79.9141 112.618 79.6413 113.179 79.2663C113.262 79.211 113.346 79.1589 113.432 79.1103C113.138 78.5687 113.037 77.9355 113.241 77.2369C113.953 74.8031 117.461 74.8893 119.684 75.9506C122.143 73.7591 124.87 71.8566 127.826 70.3161C134.866 66.649 142.826 64.0915 150.599 62.5284ZM114.209 126.629C115.523 126.2 117.269 127.1 118.451 127.641C119.949 128.327 121.223 129.341 122.458 130.413C123.072 130.95 123.182 131.826 123.03 132.575C123.014 132.65 123 132.728 122.982 132.806C122.819 133.605 121.926 134.233 121.135 134.211C119.482 134.166 118.694 132.741 117.758 131.533C117.648 131.729 117.51 131.909 117.339 132.044L117.224 132.134C116.836 132.43 116.408 132.666 115.894 132.643C115.531 132.625 115.182 132.533 114.861 132.365C114.058 131.941 113.704 130.904 113.922 130.06C114.058 129.529 114.369 129.113 114.775 128.825L114.624 128.722C114.3 128.497 114.004 128.259 113.774 127.909L113.722 127.826H113.742C113.491 127.395 113.654 126.809 114.209 126.629Z" fill="black"/>
<path fill-rule="evenodd" clip-rule="evenodd" d="M169.993 152.029C168.307 151.342 166.802 150.196 165.702 148.732C165.319 148.223 165.22 147.686 165.3 147.194C165.391 146.642 165.718 146.141 166.165 145.805C166.613 145.468 167.173 145.302 167.715 145.386C168.185 145.46 168.654 145.717 169.025 146.251L169.102 146.358C169.756 147.241 170.609 147.966 171.58 148.433C172.516 148.884 173.563 149.094 174.646 148.972C176.709 148.739 178.131 147.625 179.643 146.112C179.83 145.921 180.017 145.724 180.206 145.524C180.325 145.342 180.49 145.226 180.673 145.165C180.877 145.097 181.107 145.101 181.318 145.174C181.521 145.245 181.703 145.379 181.825 145.558C181.941 145.728 182.006 145.938 181.985 146.179C181.847 147.747 181.026 149.146 179.86 150.245C178.565 151.465 176.848 152.309 175.231 152.605C173.451 152.931 171.636 152.698 169.993 152.029V152.029ZM176.071 127.841C177.966 128.991 180.853 131.672 178.815 134.523C176.416 137.036 172.962 134.154 171.26 132.851C169.681 131.841 167.908 134.439 169.372 135.618C181.671 144.71 186.663 128.142 177.03 126.49C175.969 126.308 175.575 127.486 176.071 127.841ZM154.031 117.266C154.241 114.672 158.198 114.082 158.591 116.649C158.944 118.949 158.529 121.061 157.491 123.132C156.5 125.109 154.009 124.187 153.82 122.386C153.568 119.972 153.901 118.879 154.031 117.266ZM184.153 116.117C184.705 115.396 185.501 114.903 186.456 115.182C189.437 116.052 188.558 120.278 187.511 122.335C186.942 123.453 185.103 123.736 184.272 122.752C182.917 121.148 182.268 117.945 183.991 116.364C184.037 116.283 184.089 116.2 184.153 116.117ZM157.449 105.915L157.92 105.832C159.378 105.581 161.189 105.339 162.22 106.508C162.767 107.129 162.955 108.281 162.22 108.875C160.927 109.92 159.498 109.515 157.949 109.603C156.673 109.676 155.446 109.887 154.217 110.238C151.519 111.008 149.321 112.413 147.017 113.956C146.715 114.159 146.406 113.773 146.551 113.49C147.881 110.889 150.458 108.753 153.04 107.451C154.417 106.756 155.925 106.179 157.449 105.915ZM181.435 104.749L181.795 104.823C185.718 105.642 190.815 107.277 192.673 111.125C192.744 111.669 192.669 111.785 192.608 111.862L192.588 111.887C192.538 111.952 192.498 112.042 192.262 112.116C192.196 112.1 192.13 112.084 192.063 112.066C191.212 111.843 190.538 111.536 189.886 111.218L189.178 110.87C188.358 110.468 187.53 110.081 186.653 109.795C184.781 109.186 182.855 108.756 180.9 108.527C180.476 108.477 180.068 108.334 179.746 108.09C179.44 107.857 179.207 107.536 179.1 107.108C178.962 106.555 179.002 106.136 179.299 105.637C179.523 105.262 179.843 105.002 180.21 104.853C180.585 104.701 181.011 104.665 181.435 104.749Z" fill="black"/>
<path fill-rule="evenodd" clip-rule="evenodd" d="M193.676 132.107C189.911 133.917 184.658 131.247 182.126 128.45C181.204 127.431 180.493 124.517 180.848 122.669C181.808 117.664 185.416 114.66 189.224 113.635C194.504 112.212 199.817 115.815 199.198 120.067C198.61 124.097 197.72 129.942 193.676 132.107M168.048 122.493C167.746 127.947 163.359 132.721 158.116 134.136C149.668 136.489 145.492 130.56 143.601 124.172C143.413 123.537 142.972 121.6 144.157 119.938C148.819 113.402 160.162 114.516 165.828 116.311C167.486 117.894 168.164 120.179 168.048 122.493M197.767 113.085C197.764 113.088 197.761 113.091 197.759 113.094C197.739 113.082 197.72 113.07 197.7 113.059C197.722 113.068 197.745 113.076 197.767 113.085M204.835 113.715C204.344 108.162 186.892 110.289 184.852 110.744C179.283 112.379 174.474 116.828 168.248 114.872C161.797 107.692 140.073 109.751 135.519 113.409C134.657 113.071 133.609 113.252 132.499 113.571C126.795 113.365 100.758 115.328 106.083 122.596C106.892 123.156 107.699 122.586 107.722 121.433C135.485 111.427 132.794 120.799 136.086 119.705C136.589 119.849 137.114 119.941 137.572 120.037C140.121 120.855 140.986 120.602 141.322 123.459C143.628 145.515 173.045 137.902 170.632 119.811C173.021 119.68 175.111 118.648 177.637 119.655C179.391 136.698 193.127 137.386 197.261 131.478C200.378 127.377 199.142 121.189 203.426 117.964C205.118 119.377 205.227 114.607 204.835 113.715" fill="black"/>
</svg>
