<svg width="186" height="250" viewBox="0 0 186 250" fill="none" xmlns="http://www.w3.org/2000/svg">
<path fill-rule="evenodd" clip-rule="evenodd" d="M42.5966 220.277C44.5481 220.397 46.4994 220.493 48.4506 220.566C73.9675 221.517 99.4636 218.607 124.965 217.97C133.845 217.736 142.68 217.853 151.538 218.566C152.406 218.636 153.398 217.702 153.292 216.812C151.655 202.68 149.608 188.586 148.547 174.397C148.546 173.646 148.643 172.897 148.901 172.19C148.949 172.134 149.201 171.513 149.426 171.474C149.352 171.528 149.684 171.433 149.473 171.45C150.754 171.24 152.01 169.857 151.08 168.534C141.506 153.854 128.436 140.455 124.232 123.019C123.238 118.305 119.65 118.014 115.827 116.069C114.635 115.359 111.718 113.394 111.243 112.027C110.11 107.102 112.106 102.276 106.273 100.283C102.422 99.2152 95.6161 98.3116 91.7199 99.438C86.9672 101.02 87.3229 106.378 84.5662 110.064C83.1404 112.196 80.7098 115.115 78.4654 115.442C77.3776 115.6 76.5764 113.399 75.4903 113.551C58.5605 117.664 35.4949 145.724 28.2185 161.258C26.5787 166.146 31.8671 164.671 31.5422 169.585C31.1417 178.907 30.2657 190.84 30.7852 200.173C31.2718 205.59 30.9117 211.265 32.5948 216.479C32.1418 217.029 32.7927 217.585 33.3238 217.824C33.993 218.962 40.5775 220.119 42.5966 220.277Z" fill="white"/>
<path fill-rule="evenodd" clip-rule="evenodd" d="M86.6721 104.193C87.1122 102.212 90.2633 103.062 89.7237 105.035C88.8874 108.086 87.153 110.97 84.7046 112.993C82.8135 114.556 80.2364 115.95 77.6802 116.207C77.9198 116.441 78.1496 116.69 78.3909 116.928C78.9354 117.47 79.5141 117.972 80.1107 118.455C81.3367 119.446 82.6114 120.338 84.0035 121.085C89.564 124.07 95.8451 124.758 102.056 124.063C105.003 123.734 107.994 123.174 110.766 122.096C112.05 121.597 113.299 120.942 114.401 120.113L114.69 119.897C115.269 119.459 116.042 118.841 116.404 118.166C115.302 118.414 113.909 117.24 113.144 116.557C112.308 115.806 111.604 114.839 111.084 113.848C110.065 111.902 109.525 109.393 110.38 107.307C110.436 107.168 110.619 107.191 110.635 107.341C110.888 109.773 111.543 112.052 113.288 113.853C114.062 114.65 114.989 115.319 116.002 115.783L116.144 115.849C116.575 116.049 117.03 116.283 117.211 116.71C117.282 116.702 117.352 116.708 117.418 116.726C117.479 116.742 117.534 116.76 117.588 116.78C117.467 116.544 117.404 116.265 117.415 115.935C117.458 114.658 119.21 114.619 119.453 115.756C119.409 115.606 119.35 115.751 119.461 115.797C119.459 115.783 119.456 115.769 119.453 115.756L119.456 115.768L119.463 115.797L119.461 115.797C119.465 115.817 119.469 115.839 119.471 115.86L119.474 115.889L119.472 115.865C119.471 115.847 119.469 115.831 119.466 115.817L119.463 115.797C119.479 115.805 119.502 115.81 119.528 115.81L119.539 115.814C119.579 115.832 119.723 115.899 119.766 115.916C120.058 116.023 120.384 116.057 120.682 116.15C121.329 116.349 121.9 116.679 122.294 117.24C122.578 117.643 122.736 118.104 122.801 118.583C125.665 119.962 128.376 121.752 130.647 123.969C135.715 128.913 139.249 135.102 142.149 141.508C143.625 144.769 144.941 148.099 146.227 151.439L146.43 151.966C147.809 155.555 149.029 159.184 149.329 163.042C149.356 163.388 149.242 163.712 149.045 163.982C149.115 164.272 149.151 164.562 149.141 164.846C149.139 164.89 149.136 164.934 149.133 164.978C149.596 164.97 150.049 165.164 150.479 165.709C150.654 165.653 150.843 165.646 151.029 165.707C152.162 166.069 152.344 167.313 152.558 168.355C152.778 169.432 152.874 170.534 152.876 171.631C152.876 172.025 152.651 172.52 152.269 172.688C151.552 173.005 150.78 173.212 150.038 173.499C149.48 173.714 148.921 173.918 148.357 174.109C148.67 174.655 148.771 175.415 148.941 175.991C149.206 176.889 149.42 177.791 149.599 178.711C150.815 184.965 151.658 191.286 152.796 197.553C153.365 200.692 154.027 203.81 154.702 206.928C155.034 208.461 155.388 209.991 155.768 211.514C155.97 212.326 156.18 213.138 156.397 213.946C156.46 214.181 156.524 214.417 156.588 214.652L156.702 215.063C156.95 215.2 157.161 215.407 157.308 215.69C157.845 216.728 157.536 217.897 156.508 218.481C155.389 219.117 154.055 218.517 153.438 217.484C153.005 216.756 152.863 215.79 152.649 214.979C152.408 214.07 152.178 213.155 151.956 212.24C150.45 206.025 149.442 199.7 148.681 193.352L148.628 192.899C148.241 189.631 147.868 186.354 147.627 183.072C147.508 181.459 147.413 179.846 147.354 178.23C147.325 177.398 147.372 176.561 147.42 175.731C147.441 175.368 147.472 175.002 147.483 174.639L147.487 174.587C147.49 174.55 147.494 174.502 147.498 174.451L147.501 174.389C146.376 174.742 145.235 175.035 144.083 175.283C141.631 175.813 139.122 176.108 136.62 175.958C136.969 180.104 137.424 184.239 138.059 188.347C138.672 192.303 139.38 196.251 140.179 200.175C140.578 202.147 141.01 204.114 141.465 206.074C141.709 207.121 141.988 208.161 142.208 209.213C142.338 209.839 142.379 210.363 142.117 210.948C142.406 211.736 142.662 212.527 142.915 213.272L142.991 213.494C143.437 214.799 144.285 216.132 143.4 217.414C142.942 218.076 142.195 218.455 141.444 218.478C141.43 218.486 141.416 218.496 141.401 218.504C140.997 218.72 140.531 218.763 140.087 218.67C139.414 218.802 138.739 218.929 138.063 219.045C136.392 219.334 134.713 219.572 133.03 219.773C129.827 220.154 126.603 220.363 123.38 220.479C111.581 220.904 99.7687 220.157 87.9649 220.372C81.9511 220.482 75.9375 220.752 69.9337 221.111C66.9375 221.291 63.9396 221.483 60.9418 221.632L60.0138 221.677C57.3329 221.805 54.65 221.904 51.971 221.708C51.9189 221.705 51.8781 221.684 51.8504 221.654C50.9261 221.55 49.9971 220.699 50.0898 219.715C50.4892 215.527 50.8886 211.34 51.2896 207.15C52.002 199.686 52.7209 192.222 53.448 184.759L53.553 183.682C53.7973 181.167 54.0305 178.647 54.1489 176.123C53.5523 176.08 52.9574 176.027 52.3623 175.961C45.9141 175.255 39.7326 173.304 33.7973 170.741L33.5569 170.637C33.0222 170.403 32.4369 170.17 31.837 169.921C31.847 171.061 31.8093 172.202 31.8044 173.331C31.7963 175.205 31.811 177.078 31.8158 178.95C31.8273 182.809 31.974 186.669 32.1663 190.521C32.5038 197.325 32.8999 204.118 33.4998 210.906C33.6514 212.613 33.857 214.317 34.0019 216.025C34.0884 217.031 33.8812 217.869 32.9604 218.398C32.507 218.659 32.1566 218.549 31.7066 218.339C30.6079 217.824 30.5769 216.606 30.4726 215.546C30.3929 214.746 30.3194 213.947 30.2476 213.147C30.0946 211.439 29.9624 209.732 29.8548 208.021C29.4295 201.224 29.3054 194.433 29.5988 187.628C29.7351 184.445 29.9318 181.255 30.1928 178.077L30.2542 177.344C30.4693 174.805 30.6079 172.14 31.0529 169.585C29.2581 168.789 27.4796 167.776 26.6548 166.093C25.5856 163.908 26.7608 162.039 28.4349 160.752C28.4186 160.536 28.4349 160.32 28.4806 160.125C28.9615 158.042 29.7667 155.984 30.5443 153.998C31.3284 152.002 32.194 150.037 33.1461 148.114C36.9671 140.412 42.1869 133.373 48.4092 127.444C51.4999 124.499 54.8825 121.777 58.4933 119.493C60.2832 118.364 62.1187 117.32 64.0195 116.39L64.3005 116.253C65.6237 115.611 67.1078 114.928 68.5792 114.57C68.7323 114.456 68.8871 114.349 69.0436 114.246C69.6223 113.861 70.4081 114.14 70.7504 114.689C70.9168 114.56 71.109 114.446 71.3291 114.343L71.5466 114.244C72.8669 113.649 74.4522 113.093 75.8854 113.484C76.7754 113.727 77.4764 114.383 77.7912 115.218C78.5132 114.836 79.2223 114.443 79.9151 113.962C81.0285 113.192 82.0375 112.236 82.9439 111.234C84.7615 109.216 86.082 106.853 86.6721 104.193ZM149.741 167.794C149.617 167.83 149.487 167.843 149.351 167.827C149.596 167.856 149.106 168 148.972 168.069L148.962 168.075C148.717 168.215 148.471 168.35 148.222 168.481C147.64 168.787 147.045 169.063 146.44 169.322C145.248 169.83 144.018 170.219 142.754 170.505C141.519 170.783 140.223 170.947 138.956 170.973C138.108 170.989 137.102 170.95 136.225 170.7C136.327 172.238 136.439 173.774 136.564 175.309L138.297 174.912C140.029 174.514 141.759 174.107 143.468 173.611C144.751 173.24 146.016 172.804 147.266 172.334C147.922 172.088 148.572 171.827 149.214 171.547C149.534 171.407 149.834 171.241 150.13 171.073L150.383 170.929C150.325 170.242 150.217 169.569 150.061 168.89C149.979 168.531 149.84 168.163 149.741 167.794ZM31.1344 160.552C30.9144 161.266 30.5769 161.933 29.8075 162.095C29.5353 162.152 29.3072 162.121 29.1179 162.028L29.0726 162.119C28.4399 163.418 28.2541 164.79 29.7097 165.79C30.3668 166.242 31.0823 166.633 31.8224 166.984C33.1458 167.614 34.5553 168.12 35.8841 168.635L36.1488 168.739C38.5256 169.671 40.9398 170.521 43.3916 171.232C45.8793 171.951 48.4108 172.528 50.9735 172.895C52.0542 173.049 53.1431 173.156 54.2339 173.227C54.2516 171.759 54.2435 170.289 54.2386 168.822C53.8506 168.773 53.4659 168.721 53.0944 168.676C51.9629 168.545 50.8348 168.383 49.7133 168.182C47.3708 167.763 45.0527 167.184 42.7917 166.444C38.6022 165.069 34.7045 163.104 31.1344 160.552ZM77.0672 115.594C76.1152 114.587 74.2943 114.95 73.1452 115.439C72.7979 115.588 72.4474 115.738 72.1148 115.919L72.0504 115.955C71.6631 116.178 71.6651 116.311 71.8542 116.755C72.1001 117.341 72.4425 117.907 72.7685 118.45C74.1641 120.78 76.0011 122.809 78.0991 124.523C85.5293 130.589 96.2036 132.729 105.495 130.697C109.955 129.723 114.256 127.757 117.539 124.531L117.838 124.234C119.162 122.909 120.979 120.991 120.851 119.027C120.791 118.083 120.02 118.029 119.233 117.847C118.91 117.772 118.602 117.665 118.334 117.515C118.55 118.443 117.404 119.823 116.812 120.402C115.571 121.617 114.078 122.566 112.499 123.275C109.493 124.627 106.223 125.267 102.967 125.671C99.2731 126.131 95.4993 126.09 91.8331 125.41C88.6429 124.818 85.4984 123.698 82.7532 121.953C81.4947 121.154 80.2542 120.242 79.2043 119.181L78.9812 118.955C78.2233 118.187 77.3414 117.258 76.8879 116.25C76.7151 116.252 76.5439 116.247 76.3728 116.235C76.2521 116.229 76.1871 116.057 76.3076 115.994C76.4429 115.922 76.5782 115.85 76.7135 115.78C76.6908 115.705 76.6711 115.632 76.6548 115.557C76.6418 115.493 76.7086 115.435 76.7673 115.47C76.8488 115.519 76.927 115.572 77.0036 115.627C77.0248 115.617 77.046 115.606 77.0672 115.594Z" fill="black"/>
<path fill-rule="evenodd" clip-rule="evenodd" d="M124.14 55.7209C114.337 49.2299 94.6994 49.9349 83.9088 53.9117C73.3799 57.2521 69.6937 66.5598 67.9455 76.6157C65.8206 87.9176 66.1062 104.21 81.3863 104.013C83.5345 105.052 85.9143 105.503 88.137 106.363C91.1792 107.415 94.1621 108.637 97.2491 109.558C103.329 111.517 110.095 111.347 115.863 108.481C119.049 106.941 120.368 104.543 122.452 101.987C128.515 94.5534 131.565 83.9144 131.292 74.4618C130.812 67.8057 129.712 60.1006 124.14 55.7209Z" fill="white"/>
<path fill-rule="evenodd" clip-rule="evenodd" d="M136.545 83.1201C135.539 76.8742 135.26 70.5223 133.943 64.3253C132.704 58.4938 130.387 52.9832 126.34 48.5376C122.718 44.5601 118.034 41.6394 113.007 39.7884C103.213 36.1828 91.9485 36.9982 82.4741 41.2074C73.606 45.1456 66.5328 52.432 62.4102 61.1762C59.7318 66.8579 58.3853 72.8984 57.787 79.1329C57.1236 86.0588 57.0518 93.0565 56.7812 100.007C56.7486 100.865 56.7014 101.723 56.69 102.581C56.6769 103.52 57.0567 104.343 57.3665 105.217C57.3877 105.279 57.4186 105.338 57.4561 105.394C57.223 105.423 56.9899 105.457 56.7568 105.495C56.496 105.535 56.5074 105.959 56.7568 106.01C58.8678 106.44 61.0376 106.501 63.1845 106.607C65.4096 106.718 67.6381 106.778 69.8665 106.853C72.0395 106.926 74.2125 107 76.3854 107.073C77.5265 107.112 78.6677 107.151 79.8088 107.189C80.3516 107.207 80.8944 107.227 81.4389 107.244C81.7095 107.254 81.9818 107.262 82.2524 107.272C82.4724 107.279 82.8311 107.419 82.8539 107.257C82.8946 107.282 82.9387 107.303 82.9859 107.318C83.0381 107.346 83.0886 107.378 83.1375 107.414C83.4032 107.597 83.8059 107.574 84.0749 107.414C84.0993 107.399 84.1254 107.383 84.1515 107.367C84.352 107.248 84.4922 107.075 84.5704 106.879C85.6855 108.226 87.6596 106.713 86.5185 105.287C85.9055 104.521 79.8088 85.7294 82.3322 71.4143L92.4522 70.0738C93.6857 69.9488 95.4501 69.7618 97.7453 69.5128C98.3072 67.6787 98.6685 66.4665 98.8294 65.8762C98.8473 65.8109 98.8652 65.7441 98.8848 65.6789C99.1261 66.1047 99.3689 66.5285 99.6135 66.9525L100.862 69.4916C113.149 69.2862 120.799 69.1932 123.811 69.2128C123.888 69.2128 124.252 74.7085 124.087 77.1286C123.754 81.9884 123.401 86.8449 122.908 91.6916C122.594 94.795 121.837 97.8386 120.709 100.699C118.926 105.217 113.752 109.512 108.706 109.512C105.566 109.512 98.4691 106.967 97.4356 106.454C96.4021 105.94 95.7862 107.342 96.7281 107.903C98.636 109.04 103.895 111.45 108.706 111.45C115.694 111.45 120.968 104.818 121.616 103.867C127.978 103.518 134.486 103.68 140.84 104.311C141.373 104.363 141.833 103.72 141.662 103.229C139.379 96.695 137.643 89.9549 136.545 83.1201Z" fill="black"/>
<path fill-rule="evenodd" clip-rule="evenodd" d="M110.456 98.9769C109.36 98.5297 108.383 97.7837 107.668 96.8307C107.419 96.4994 107.355 96.1496 107.407 95.8296C107.466 95.4698 107.678 95.1438 107.969 94.925C108.26 94.7056 108.624 94.5974 108.976 94.6526C109.282 94.7005 109.586 94.8681 109.827 95.2155L109.877 95.285C110.302 95.8602 110.856 96.3321 111.487 96.6363C112.095 96.9295 112.775 97.0663 113.479 96.9867C114.82 96.8352 115.744 96.1099 116.726 95.125C116.848 95.0006 116.97 94.8724 117.092 94.7421C117.169 94.6239 117.277 94.548 117.396 94.5082C117.528 94.464 117.678 94.4665 117.815 94.5143C117.947 94.5604 118.065 94.6479 118.144 94.7642C118.219 94.8748 118.262 95.0114 118.248 95.1686C118.158 96.1893 117.625 97.1003 116.867 97.8156C116.026 98.61 114.91 99.1596 113.86 99.3524C112.703 99.5647 111.524 99.4126 110.456 98.9769ZM114.406 83.2301C115.637 83.9786 117.512 85.7241 116.188 87.5798C114.629 89.216 112.385 87.34 111.279 86.4915C110.254 85.8339 109.101 87.5252 110.053 88.293C118.044 94.212 121.288 83.4258 115.028 82.35C114.339 82.2314 114.083 82.9985 114.406 83.2301ZM100.085 76.3448C100.221 74.6559 102.792 74.2724 103.048 75.9436C103.277 77.4407 103.007 78.8159 102.333 80.1638C101.689 81.4514 100.07 80.8507 99.9476 79.6781C99.7835 78.1064 100 77.3954 100.085 76.3448ZM119.657 75.5971C120.015 75.1274 120.533 74.8068 121.153 74.988C123.09 75.5543 122.519 78.306 121.839 79.6453C121.469 80.3727 120.274 80.5571 119.734 79.9167C118.854 78.8723 118.432 76.7867 119.551 75.758C119.582 75.7049 119.615 75.6512 119.657 75.5971ZM102.306 68.9547L102.612 68.9011C103.558 68.7373 104.736 68.5799 105.405 69.3414C105.761 69.7451 105.883 70.4956 105.405 70.8821C104.566 71.5622 103.637 71.2986 102.631 71.3562C101.801 71.4038 101.004 71.5411 100.205 71.7696C98.4523 72.2707 97.0241 73.1856 95.5272 74.1902C95.3307 74.322 95.1302 74.0706 95.224 73.8869C96.0881 72.1936 97.7628 70.8027 99.4402 69.9549C100.335 69.5023 101.315 69.1269 102.306 68.9547ZM117.891 68.1962L118.125 68.2442C120.674 68.7772 123.986 69.842 125.193 72.3468C125.239 72.701 125.19 72.7769 125.151 72.8265L125.138 72.843C125.105 72.8853 125.079 72.9437 124.926 72.9919C124.883 72.9818 124.84 72.971 124.797 72.9596C124.243 72.8146 123.806 72.6147 123.382 72.4074L122.922 72.1809C122.389 71.9194 121.851 71.6674 121.281 71.4813C120.065 71.0844 118.814 70.8048 117.543 70.6555C117.268 70.6232 117.002 70.5302 116.793 70.3708C116.595 70.2196 116.443 70.0101 116.374 69.7318C116.284 69.3715 116.31 69.0988 116.503 68.7738C116.648 68.5297 116.856 68.3605 117.095 68.2634C117.338 68.1644 117.615 68.141 117.891 68.1962Z" fill="black"/>
<path fill-rule="evenodd" clip-rule="evenodd" d="M133.335 70.8132C133.201 70.7908 133.067 70.7698 132.932 70.7501C132.827 70.6905 132.704 70.6447 132.561 70.6171C132.234 70.5341 131.91 70.4782 131.586 70.448C126.935 69.4009 116.175 70.8877 115.73 74.8583C114.249 75.353 112.968 74.91 111.251 74.9541C109.944 69.4901 87.3531 70.2613 86.2666 73.5555C86.2625 73.5544 86.2585 73.5534 86.2542 73.5521C85.2103 73.2289 83.6713 73.3068 82.4764 73.2556C79.925 73.2021 77.3707 73.4296 74.8745 73.9679C70.2 74.7111 63.8204 75.5811 67.0714 81.4206C67.0721 81.4216 67.0726 81.4228 67.0734 81.4237L67.0739 81.4232C67.6342 81.9978 68.585 81.5351 68.6204 80.7574C67.5274 77.9909 69.9961 77.6587 71.8955 76.8637C76.6218 75.1651 81.4337 74.9296 86.3219 75.455C86.6896 75.8882 87.2476 76.2659 87.8374 76.4635C91.1057 77.0062 89.3833 79.4316 91.4492 79.7843C91.0697 88.2386 101.33 92.8534 107.275 87.2959C109.649 84.9743 110.215 81.5351 110.765 78.4351C111.056 78.3698 111.241 78.2106 111.349 77.9999C112.049 77.3009 112.488 76.6555 113.872 76.4635C115.256 76.2717 116.321 76.6568 116.465 76.7747C116.502 76.8479 116.541 76.9213 116.586 76.9947C116.649 77.1041 116.735 77.1913 116.833 77.26C115.467 85.6788 122 91.003 128.595 86.6365C131.461 83.9397 132.067 79.8109 132.186 76.1256C132.575 75.8911 132.821 75.4366 132.686 74.8652C132.501 74.0775 132.936 73.3955 133.628 73.0531C134.527 72.6083 134.368 70.9842 133.335 70.8132ZM104.995 74.8071C104.177 74.627 103.827 75.8897 104.648 76.0703C105.23 76.1982 105.723 76.4916 106.056 76.9886L106.091 77.0427C106.538 77.754 107.668 77.0974 107.218 76.3814C106.711 75.5758 105.925 75.0115 104.995 74.8071ZM128.973 74.0242C128.684 73.8209 128.247 73.9718 128.08 74.2592C127.895 74.5757 128.016 74.928 128.286 75.1351L128.314 75.1553C128.562 75.3301 128.803 75.6434 128.834 75.9645L128.836 76.0047C128.869 76.8449 130.174 76.8491 130.142 76.0047C130.11 75.1785 129.632 74.4883 128.973 74.0242Z" fill="black"/>
</svg>
