<svg width="285" height="384" viewBox="0 0 285 384" fill="none" xmlns="http://www.w3.org/2000/svg">
<path fill-rule="evenodd" clip-rule="evenodd" d="M48.7885 308.469C48.0374 315.344 46.3359 322.917 49.5793 329.403C47.5366 329.495 49.1937 330.085 50.2961 330.288C50.9255 330.774 51.7715 330.967 52.567 330.899C56.6975 331.771 60.9615 332.087 65.1555 332.58C117.519 336.922 170.233 335.769 222.694 333.898C224.4 333.824 225.545 332.587 225.676 330.92C227.598 306.391 228.555 281.787 228.506 257.184C227.652 248.538 234.197 251.911 230.706 240.518C227.899 228.501 223.745 216.804 218.447 205.658C214.785 198.405 211.335 190.774 205.754 184.759C203.99 184.516 202.488 182.767 200.998 181.79C199.488 181.496 198.369 180.216 196.84 179.823C193.924 179.066 187.4 177.455 184.917 179.392C184.819 179.365 184.719 179.343 184.621 179.315C184.135 179.853 183.468 179.449 183.105 178.966C181.864 178.004 176.442 177.905 175.826 176.429C172.618 173.524 171.76 167.408 171.76 163.831C170.56 162.485 170.477 162.735 168.849 162.023C167.252 160.013 165.323 158.261 163.17 156.881C151.055 148.938 133.474 157.307 130.638 171.113C126.154 174.657 121.54 178.258 116.048 180.104C113.368 178.728 110.315 178.289 107.471 178.286C105.351 178.209 102.421 176.985 101.043 179.213C77.8625 186.789 63.8725 208.825 53.9245 229.704C52.5302 232.677 50.8621 235.79 51.2888 239.176C51.5821 243.233 55.991 245.647 55.1579 249.945C53.9469 261.77 52.5693 273.583 51.3086 285.404C50.4684 293.092 49.6285 300.78 48.7885 308.469Z" fill="white"/>
<path fill-rule="evenodd" clip-rule="evenodd" d="M218.371 252.06C216.872 252.602 214.771 253.13 213.699 254.354C213.576 253.213 213.451 252.073 213.325 250.932C216.466 250.858 219.613 250.831 222.755 250.743C221.272 251.105 219.806 251.541 218.371 252.06M211.471 323.812C210.39 323.822 209.305 323.897 208.225 323.939C206.145 324.02 204.065 324.099 201.984 324.177C197.74 324.336 193.496 324.489 189.251 324.637C180.846 324.928 172.439 325.198 164.032 325.445C147.218 325.939 130.395 326.238 113.583 326.802C108.919 326.959 104.255 327.081 99.5953 327.334C97.1805 327.465 94.7545 327.578 92.3513 327.858C90.324 328.093 88.3255 328.49 86.3094 328.786C86.4446 326.164 86.5713 323.54 86.703 320.918C86.8277 318.436 86.9441 315.955 87.0598 313.473C94.9296 313.884 102.809 314.05 110.689 314.12C119.025 314.194 127.358 314.401 135.694 314.417C152.198 314.45 168.702 314.242 185.205 314.077C189.872 314.03 194.54 313.983 199.208 313.936C201.541 313.913 203.875 313.89 206.209 313.866C207.374 313.854 208.546 313.879 209.71 313.831C210.952 313.78 211.707 313.427 212.608 312.592C213.089 312.147 213.109 311.241 212.608 310.799C211.885 310.161 211.213 309.672 210.21 309.6C209.225 309.53 208.197 309.626 207.209 309.639C205.042 309.668 202.875 309.696 200.708 309.725C196.54 309.78 192.373 309.834 188.205 309.889C179.87 309.998 171.535 310.11 163.2 310.237C155.032 310.361 146.862 310.454 138.695 310.659C130.356 310.869 122.027 311.247 113.69 311.515C104.816 311.799 95.946 312.139 87.0919 312.804C87.3046 308.204 87.5006 303.602 87.685 299.001C105.265 299.956 122.858 300.636 140.468 300.666C158.814 300.697 177.159 300.384 195.499 299.906C198.083 299.839 200.668 299.77 203.251 299.69C204.585 299.648 205.919 299.609 207.253 299.561C208.233 299.525 209.24 299.484 210.127 299.015C211.876 298.092 212.178 295.394 210.103 294.656C208.968 294.253 207.765 294.647 207.489 295.668C207.404 295.677 207.323 295.683 207.253 295.686C206.252 295.724 205.252 295.752 204.252 295.783C202.084 295.852 199.917 295.922 197.75 295.99C193.749 296.115 189.747 296.231 185.745 296.336C177.575 296.552 169.404 296.729 161.232 296.865C145.053 297.134 128.875 297.382 112.697 297.752C104.367 297.942 96.0385 298.189 87.7088 298.4C87.9078 293.398 88.0957 288.395 88.265 283.393C88.2848 282.807 88.3064 282.22 88.3277 281.634C89.5214 281.896 90.7437 282.041 91.9597 282.213C94.0699 282.511 96.1866 282.731 98.3057 282.955C102.299 283.375 106.305 283.633 110.313 283.854C118.484 284.304 126.657 284.621 134.836 284.87C151.016 285.362 167.216 285.469 183.403 285.414C192.192 285.384 201.035 285.5 209.821 285.117C210.362 285.265 210.92 285.25 211.46 285.074C211.903 292.894 212.371 300.712 212.831 308.532C213.141 313.807 213.415 319.1 213.796 324.378C213.051 324.012 212.366 323.804 211.471 323.812M59.1531 244.362C57.6117 243.61 55.9117 242.922 54.551 241.856C53.0635 240.69 52.6982 239.32 53.1553 237.49C53.1894 237.354 53.2296 237.218 53.2652 237.081C64.2264 237.108 75.1598 236.626 86.1162 236.367C97.2478 236.103 108.375 235.881 119.51 235.819C141.716 235.694 163.918 236.194 186.114 236.816C194.107 237.04 202.1 237.261 210.093 237.479C209.911 239.425 209.981 241.418 209.94 243.351C209.904 245.048 209.913 246.747 209.938 248.446C205.757 248.436 201.576 248.346 197.394 248.299C187.04 248.182 176.692 248.479 166.341 248.716C145.64 249.189 124.933 249.561 104.236 250.183C98.6141 250.352 92.9565 250.441 87.3092 250.681C87.115 249.764 86.8995 248.852 86.6564 247.946C86.27 246.506 85.834 245.026 84.6787 244.026C84.6232 243.977 84.5465 243.999 84.5216 244.067C84.0828 245.281 84.1937 246.517 84.3222 247.79C84.4238 248.795 84.4925 249.802 84.5434 250.811C81.0319 250.996 77.5276 251.255 74.0416 251.643C73.0449 251.152 72.0476 250.661 71.0488 250.173C67.0842 248.235 63.1183 246.299 59.1531 244.362M186.407 280.515C178.229 280.581 170.05 280.588 161.872 280.536C145.683 280.432 129.5 280.034 113.315 279.713C108.81 279.624 104.312 279.536 99.8065 279.536C97.4741 279.536 95.1339 279.551 92.8039 279.652C91.3375 279.716 89.8508 279.725 88.3912 279.901C88.5673 275.193 88.7507 270.48 88.7449 265.77C104.186 268.105 119.792 268.746 135.385 269.206C151.183 269.671 166.984 269.912 182.789 269.935C187.28 269.942 191.772 269.932 196.263 269.905C198.426 269.893 200.588 269.876 202.75 269.856C203.913 269.845 205.082 269.869 206.243 269.82C207.472 269.768 208.213 269.478 209.071 268.605C209.51 268.159 209.533 267.389 209.071 266.945C207.54 265.47 205.739 265.79 203.748 265.815C201.752 265.84 199.756 265.861 197.76 265.879C193.768 265.915 189.776 265.938 185.783 265.949C177.965 265.968 170.147 265.938 162.329 265.859C146.528 265.697 130.731 265.347 114.935 264.977C106.201 264.773 97.4701 264.829 88.7439 265.252C88.7407 264.47 88.7334 263.688 88.7181 262.906C88.6606 259.944 88.3716 256.982 87.9195 254.053C92.196 254.038 96.4723 253.947 100.729 253.893C111.082 253.76 121.431 253.552 131.782 253.345C142.05 253.139 152.317 252.933 162.585 252.728C172.846 252.522 183.138 252.508 193.387 251.955C198.918 251.656 204.451 251.25 209.986 251.037C209.997 251.544 210.008 252.052 210.018 252.559C210.152 258.782 210.395 265 210.71 271.216C210.861 274.204 211.02 277.191 211.184 280.177C211.105 280.169 211.023 280.165 210.94 280.164C202.768 280.11 194.581 280.449 186.407 280.515M56.9943 226.467C57.9306 224.061 58.9476 221.672 60.047 219.316C64.7144 220.631 69.6931 221.31 74.51 221.761C79.638 222.243 84.776 222.513 89.9251 222.618C100.076 222.825 110.227 222.344 120.368 221.926C141.225 221.066 162.08 220.438 182.957 220.397C188.787 220.386 194.617 220.413 200.447 220.479C203.361 220.511 206.276 220.551 209.191 220.601C210.69 220.626 212.188 220.655 213.687 220.685C214.351 220.699 215.023 220.748 215.686 220.728C216.572 220.701 217.22 220.435 218.043 220.115C218.988 219.747 219.546 218.17 218.366 217.647C217.188 217.124 216.243 216.818 214.936 216.79C213.521 216.76 212.105 216.732 210.69 216.705C208.108 216.658 205.526 216.619 202.945 216.587C197.698 216.521 192.451 216.494 187.204 216.495C176.877 216.496 166.549 216.618 156.225 216.86C135.497 217.347 114.816 218.79 94.0957 219.409C88.3847 219.579 82.6628 219.613 76.9516 219.442C71.4196 219.276 65.8995 218.811 60.3744 218.615C62.2828 214.599 64.4422 210.687 66.8787 206.967C76.0893 207.29 85.28 207.051 94.4926 206.771C99.3268 206.624 104.161 206.475 108.995 206.31C111.412 206.227 113.829 206.144 116.246 206.062C117.413 206.022 118.579 205.982 119.746 205.942C121.003 205.899 122.326 205.98 123.547 205.65C123.768 205.59 123.943 205.463 124.076 205.3C127.325 206.969 130.762 208.285 134.296 209.261C141.967 211.379 150.218 212.173 158.152 211.522C164.52 210.999 170.865 209.425 176.463 206.344C189.106 207.506 201.926 206.96 214.595 206.877C215.806 206.87 216.309 205.762 216.107 204.849C220.173 213.598 222.866 223.083 225.387 232.308C226.954 238.042 228.347 243.811 229.674 249.601C229.618 249.606 229.564 249.611 229.509 249.616C229.662 248.982 229.317 248.234 228.447 248.214C223.319 248.097 218.175 248.391 213.046 248.438C212.902 247.157 212.757 245.876 212.605 244.595C212.398 242.851 212.15 241.111 211.939 239.366C211.862 238.734 211.791 238.123 211.704 237.523C215.765 237.633 219.826 237.744 223.887 237.851C226.523 237.921 226.518 233.845 223.887 233.765C201.57 233.083 179.252 232.394 156.927 232.015C134.589 231.637 112.173 231.403 89.8518 232.547C77.6879 233.169 65.5541 234.002 53.5414 236.057C54.4744 232.806 55.776 229.596 56.9943 226.467M75.9907 195.5C76.3949 195.802 76.5243 195.993 77.1284 196.099C77.7835 196.213 78.4571 196.25 79.1184 196.315C80.5334 196.453 81.9519 196.505 83.3716 196.572C86.2065 196.706 89.0412 196.848 91.8782 196.935C97.5097 197.105 103.262 197.347 108.891 197.097C110.268 197.036 110.894 195.902 110.769 194.869C111.825 196.174 112.979 197.4 114.209 198.517C116.185 200.313 118.318 201.905 120.568 203.309C119.108 203.363 117.623 203.545 116.246 203.604C113.912 203.704 111.578 203.804 109.245 203.904C104.327 204.115 99.4096 204.342 94.4926 204.571C85.3924 204.996 76.3234 205.524 67.2578 206.391C69.8469 202.506 72.7471 198.842 75.9907 195.5M224.103 214.37C220.258 203.832 215.301 192.886 206.38 185.648C201.795 181.928 196.686 179.355 190.901 178.135C190.723 178.098 190.653 178.35 190.826 178.407C200.83 181.684 208.234 190.356 213.243 199.243C214.15 200.853 214.991 202.502 215.786 204.176C215.527 203.861 215.131 203.651 214.595 203.66C202.765 203.858 190.795 203.658 178.991 204.812C179.292 204.612 179.594 204.412 179.889 204.201C183.114 201.907 186.015 199.099 188.414 195.919C189.858 196.285 191.379 196.374 192.853 196.514C194.82 196.701 196.801 196.786 198.774 196.892C200.745 196.998 202.723 197.008 204.695 197.055C206.051 197.088 208.701 197.313 208.703 195.242C208.704 193.17 206.051 193.389 204.695 193.416C202.722 193.455 200.745 193.461 198.774 193.553C196.885 193.641 194.984 193.713 193.1 193.881C191.95 193.984 190.768 194.052 189.612 194.234C191.493 191.433 192.99 188.382 193.989 185.164C194.09 184.84 194.123 184.537 194.106 184.257C194.53 183.81 194.801 183.198 194.801 182.638C194.801 181.305 193.76 180.524 192.544 180.385C187.731 179.835 182.429 179.052 178.55 175.893C176.8 174.467 175.392 172.782 174.067 170.968C172.578 168.929 172.019 166.361 172.014 163.865C172.013 163.725 171.781 163.683 171.759 163.831C171.031 168.89 172.082 174.666 175.719 178.457C179.29 182.179 184.141 183.573 189.063 184.388C187.034 190.176 183.684 195.26 178.98 199.258C173.739 203.713 167.105 206.096 160.341 206.995C153.044 207.965 145.396 207.493 138.22 205.91C131.308 204.384 124.545 201.655 118.919 197.3C116.081 195.103 113.469 192.513 111.194 189.741C109.316 187.453 107.877 184.902 106.265 182.451C112.279 184.097 119.55 181.848 124.587 178.672C127.554 176.801 130.153 174.465 132.289 171.687C133.342 170.317 134.279 168.87 135.052 167.323C135.454 166.519 135.815 165.691 136.148 164.856C136.353 164.34 136.554 163.81 136.554 163.242C136.553 162.824 136.448 162.435 136.238 162.075C135.807 161.618 135.721 161.486 135.981 161.677C135.557 160.812 134.334 160.592 133.551 161.041C133.259 161.209 132.573 161.533 132.236 162.075C132.008 162.441 131.885 162.879 131.739 163.28C131.508 163.915 131.276 164.542 130.987 165.152C130.314 166.571 129.508 167.925 128.588 169.198C126.907 171.524 124.746 173.628 122.393 175.27C119.922 176.994 117.258 178.403 114.37 179.283C111.319 180.212 108.3 180.489 105.152 180.83C105.119 180.783 105.086 180.736 105.052 180.69C104.992 180.606 104.86 180.634 104.855 180.743C104.853 180.796 104.854 180.848 104.852 180.901C104.404 181.111 104.367 181.743 104.867 181.985C105.052 184.892 106.308 187.755 107.677 190.271C108.248 191.318 108.892 192.334 109.59 193.314C109.383 193.236 109.151 193.186 108.891 193.176C103.26 192.96 97.5092 193.238 91.8782 193.444C89.1243 193.544 86.3734 193.698 83.6217 193.846C82.2035 193.921 80.7817 193.97 79.3685 194.116C78.6618 194.189 77.9508 194.247 77.2478 194.353C77.1969 194.361 77.1495 194.369 77.1048 194.377C78.844 192.667 80.6771 191.047 82.6124 189.535C88.9612 184.576 96.2528 180.536 104.033 178.339C104.106 178.318 104.096 178.192 104.014 178.201C88.5402 179.781 75.6507 189.516 66.6341 201.74C61.6311 208.523 57.8365 216.032 54.5713 223.775C52.9255 227.678 51.3683 231.65 50.0642 235.682C49.4014 237.73 49.1026 239.903 50.0519 241.913C50.78 243.455 52.1234 244.601 53.5316 245.511C53.6252 245.572 53.7216 245.628 53.8161 245.688C52.3766 250.695 51.4122 255.833 50.487 260.955C49.4819 266.52 48.6051 272.108 47.852 277.712C46.3467 288.915 45.1936 300.14 44.6901 311.434C44.5509 314.558 44.4578 317.684 44.4172 320.811C44.3968 322.375 44.4059 323.939 44.4272 325.503C44.4515 327.253 44.2142 329.228 45.1066 330.791C46.299 332.878 48.6149 332.159 49.6335 330.732C49.6483 330.751 49.6636 330.771 49.6786 330.791C49.7709 330.609 49.8482 330.428 49.9142 330.247C50.0238 330.007 50.0953 329.755 50.1214 329.499C50.3133 328.529 50.2411 327.545 50.2333 326.491C50.222 325.01 50.2306 323.528 50.2348 322.046C50.2431 319.248 50.275 316.451 50.3547 313.654C50.5145 308.062 50.8266 302.474 51.2534 296.895C52.1014 285.814 53.3523 274.783 54.4228 263.723C54.9677 258.092 55.625 252.446 55.7384 246.785C57.0598 247.479 58.4233 248.109 59.7422 248.779C62.1893 250.023 64.6361 251.266 67.0829 252.51C69.456 253.716 71.8326 254.915 74.2102 256.113C76.6076 257.32 78.989 258.917 81.6862 259.214C83.128 259.372 83.6498 257.433 82.8003 256.528C81.6909 255.345 80.2178 254.61 78.7368 253.922C80.7045 253.994 82.6746 254.032 84.6458 254.047C84.6729 256.523 84.5853 259.005 84.4609 261.476C84.1548 267.536 83.7293 273.586 83.3264 279.64C82.489 292.226 81.6784 304.818 81.0459 317.415C80.8911 320.501 80.7361 323.586 80.581 326.671C80.5058 328.171 80.4012 329.673 80.3585 331.174C80.3108 332.858 80.3522 334.969 81.9135 336.009C83.0163 336.744 84.2033 336.398 85.0312 335.388C86.1383 334.037 86.1365 332.081 86.2256 330.424C86.2462 330.041 86.2645 329.658 86.2843 329.275C87.9752 329.493 89.6539 329.796 91.3521 329.961C93.4264 330.163 95.5137 330.282 97.597 330.335C101.845 330.444 106.087 330.483 110.336 330.483C118.745 330.484 127.154 330.34 135.562 330.205C152.379 329.934 169.194 329.463 186.006 328.942C190.666 328.798 195.327 328.646 199.987 328.488C202.4 328.406 204.813 328.322 207.227 328.237C209.511 328.156 212.007 328.451 214.017 327.267C214.075 327.987 214.135 328.708 214.198 329.428C214.319 330.793 215.279 331.965 216.738 331.965C218.109 331.965 219.287 330.804 219.278 329.428C218.766 316.983 217.658 304.537 216.78 292.113C215.974 280.701 215.219 269.274 214.066 257.889C214.393 258.1 214.793 258.231 215.264 258.233C216.77 258.239 218.273 257.307 219.682 256.811C221.104 256.311 222.549 255.878 224.014 255.523C224.881 255.313 225.751 255.137 226.625 254.987C226.519 256.768 226.546 258.565 226.513 260.34C226.462 263.068 226.377 265.795 226.311 268.523C226.18 273.897 226.134 279.271 226.031 284.646C225.824 295.481 225.482 306.309 224.902 317.131C224.743 320.104 224.564 323.077 224.365 326.048C224.26 327.616 224.15 329.184 224.034 330.751C223.92 332.292 223.654 333.929 224.235 335.405C224.253 335.395 224.272 335.384 224.29 335.373C224.695 336.645 226.476 337.255 227.318 335.808C228.629 333.552 228.327 330.319 228.477 327.781C228.639 325.058 228.784 322.334 228.913 319.608C229.169 314.158 229.348 308.705 229.451 303.249C229.658 292.335 229.622 281.405 228.954 270.507C228.771 267.527 228.515 264.553 228.253 261.58C228.056 259.351 227.947 257.061 227.599 254.831C229.302 254.58 231.018 254.435 232.751 254.392C234.428 254.35 235.51 252.84 235.154 251.241C232.37 238.721 228.497 226.413 224.103 214.37" fill="black"/>
<path fill-rule="evenodd" clip-rule="evenodd" d="M195.152 95.982C192.567 86.6673 182.689 82.6029 173.792 81.9579C149.704 79.4577 125.186 92.8649 114.507 114.605C105.958 131.113 105.691 148.454 124.066 157.88C125.069 158.432 126.117 159.023 127.187 159.559C128.117 160.422 129.075 161.251 130.12 161.948C140.126 168.517 152.407 171.358 164.308 170.742C181.88 170.389 188.153 158.484 191.992 143.217C196.04 128.017 198.304 111.524 195.152 95.982V95.982Z" fill="white"/>
<path fill-rule="evenodd" clip-rule="evenodd" d="M206.686 183.78C205.866 181.303 204.837 178.9 203.876 176.473C203.673 175.263 203.537 174.043 203.503 172.814C203.369 168.42 204.193 163.989 205.116 159.71C206.992 151.016 208.982 142.412 209.98 133.557C211.764 117.718 210.703 101.249 203.487 86.7905C197.235 74.266 186.641 64.0235 172.955 60.1861C168.909 59.0511 164.746 58.4251 160.553 58.1751C160.034 58.0927 159.516 58.0121 159 57.9344C153.168 57.0567 147.265 56.6193 141.371 56.9978C131.597 57.6258 121.914 60.4303 113.773 65.9771C105.577 71.5623 99.7538 79.3936 97.044 88.9455C94.2251 98.8824 94.4642 109.644 89.5964 118.96C88.1584 121.713 86.4797 124.329 84.8789 126.99C80.6312 131.722 76.0195 136.982 75.009 143.488C73.7621 151.529 78.3959 158.325 82.7812 164.6C86.7452 170.266 92.124 178.091 88.0447 185.067C86.1205 188.359 83.0371 190.821 80.7215 193.822C78.3206 196.938 76.4465 200.515 75.4781 204.338C73.6592 211.516 75.3326 218.999 80.1972 224.61C82.7311 227.53 85.985 229.462 89.5073 230.967C93.1125 232.505 96.6349 233.965 99.6153 236.583C100.978 237.778 102.224 239.088 103.404 240.461C104.502 242.176 105.782 243.78 107.225 245.248C108.813 246.863 111.923 244.651 110.466 242.75C110.358 242.61 110.253 242.472 110.145 242.332C109.079 240.944 108.007 239.556 106.886 238.214C103.542 232.923 102.255 226.446 103.918 220.266C104.349 218.661 104.957 217.138 105.712 215.7C105.872 216.118 106.048 216.531 106.234 216.94C106.956 218.523 107.97 220.399 109.259 222.002C109.309 223.101 109.475 224.191 109.796 225.258C111.783 231.874 118.426 235.138 124.417 237.678C125.004 237.928 125.584 238.169 126.153 238.407C127.719 239.06 129.375 236.834 128.399 235.491C128.143 235.138 127.895 234.777 127.659 234.411C124.849 230.068 123.512 224.873 124.269 219.698C125.067 214.224 128.298 209.696 131.507 205.35C134.658 201.076 138.043 196.715 139.453 191.503C141.013 185.744 139.593 180.003 137.185 174.702C134.979 169.852 132.042 165.382 129.578 160.665C130.422 161.505 131.292 162.317 132.189 163.101C133.197 163.982 134.233 164.99 135.428 165.611C136.312 166.071 137.197 164.971 136.497 164.228C135.577 163.252 134.4 162.497 133.379 161.626C132.399 160.79 131.446 159.92 130.518 159.026C129.375 157.926 128.287 156.774 127.238 155.588C126.399 153.453 125.708 151.262 125.145 149.037C124.38 146.026 123.672 142.822 123.727 139.701C123.783 136.5 125.448 134.258 127.666 132.109C128.606 131.199 129.554 130.3 130.5 129.399C132.517 127.921 134.418 126.27 136.265 124.624C139.557 121.691 142.741 118.59 145.781 115.398C146.597 114.542 147.405 113.677 148.204 112.801C150.995 109.941 153.657 106.955 156.166 103.866C158.66 102.96 161.056 101.76 163.304 100.347C162.325 101.336 161.337 102.313 160.353 103.298C158.163 105.492 155.888 107.696 153.349 109.485C153.088 109.67 153.246 110.063 153.567 110.001C156.796 109.357 159.817 108.285 162.636 106.577C165.504 104.838 168.03 102.476 170.389 100.107C171.723 99.5053 173.011 98.7313 174.187 97.9698C174.25 97.9298 174.312 97.8872 174.375 97.8469C173.216 101.514 171.515 105.667 167.89 106.975C167.772 107.018 167.779 107.213 167.92 107.205C170.974 107.027 173.429 105.655 175.367 103.655C176.925 102.535 178.412 101.349 179.832 100.057C181.206 98.8055 182.509 97.4634 183.746 96.0736C182.017 99.4926 180.081 102.836 178.171 106.141C178.071 106.316 178.281 106.554 178.462 106.431C182.494 103.706 185.552 100.189 188.053 96.0308C188.422 95.4186 188.775 94.7964 189.119 94.1694C188.859 95.1506 188.576 96.1255 188.273 97.0954C187.723 98.8511 187.183 100.611 186.633 102.365C186.336 103.312 185.975 104.236 185.578 105.145C185.294 105.795 184.922 106.444 184.864 107.157C184.861 107.205 184.912 107.236 184.954 107.225C186.561 106.824 188.058 104.994 189.204 103.86C189.842 103.228 190.439 102.535 190.989 101.804C191.091 106.014 191.162 110.225 191.069 114.447C190.896 122.202 190.394 129.955 189.752 137.685C189.185 144.518 188.766 151.69 184.947 157.629C181.992 162.225 177.2 165.406 171.994 166.947C171.535 167.085 171.074 167.208 170.609 167.318C163.073 169.104 155.567 167.08 148.903 163.503C146.901 162.428 145.19 165.344 147.122 166.544C154.352 171.038 163.517 172.568 171.701 170.554C171.443 180.205 176.207 189.361 180.946 197.547C183.597 202.128 186.252 206.68 188.126 211.647C189.716 215.865 190.798 220.241 191.162 224.742C191.593 230.048 191.169 235.383 190.426 240.644C190.386 240.929 190.346 241.217 190.304 241.502C190.138 242.632 191.154 243.579 192.255 243.001C197.125 240.446 199.225 235 200.502 229.965C201.696 225.248 202.506 220.439 202.958 215.597C203.62 217.423 204.157 219.294 204.574 221.203C204.632 221.476 204.686 221.749 204.742 222.022C205.058 223.618 207.476 223.505 207.863 222.022C207.933 221.754 208.001 221.486 208.063 221.216C210.058 213.162 210.595 204.763 209.541 196.53C208.987 192.199 208.061 187.926 206.686 183.78" fill="black"/>
<path fill-rule="evenodd" clip-rule="evenodd" d="M169.993 152.029C168.307 151.342 166.802 150.196 165.702 148.732C165.319 148.223 165.22 147.686 165.3 147.194C165.391 146.642 165.718 146.141 166.165 145.805C166.613 145.468 167.173 145.302 167.715 145.386C168.185 145.46 168.654 145.717 169.025 146.251L169.102 146.358C169.756 147.241 170.609 147.966 171.58 148.433C172.516 148.884 173.563 149.094 174.646 148.972C176.709 148.739 178.131 147.625 179.643 146.112C179.83 145.921 180.017 145.724 180.206 145.524C180.325 145.342 180.49 145.226 180.673 145.165C180.877 145.097 181.107 145.101 181.318 145.174C181.521 145.245 181.703 145.379 181.825 145.558C181.941 145.728 182.006 145.938 181.985 146.179C181.847 147.747 181.026 149.146 179.86 150.245C178.565 151.465 176.848 152.309 175.231 152.605C173.451 152.931 171.636 152.698 169.993 152.029V152.029ZM176.071 127.841C177.966 128.991 180.853 131.672 178.815 134.523C176.416 137.036 172.962 134.154 171.26 132.851C169.681 131.841 167.908 134.439 169.372 135.618C181.671 144.71 186.663 128.142 177.03 126.49C175.969 126.308 175.575 127.486 176.071 127.841ZM154.031 117.266C154.241 114.672 158.198 114.082 158.591 116.649C158.944 118.949 158.529 121.061 157.491 123.132C156.5 125.109 154.009 124.187 153.82 122.386C153.568 119.972 153.901 118.879 154.031 117.266ZM184.153 116.117C184.705 115.396 185.501 114.903 186.456 115.182C189.437 116.052 188.558 120.278 187.511 122.335C186.942 123.453 185.103 123.736 184.272 122.752C182.917 121.148 182.268 117.945 183.991 116.364C184.037 116.283 184.089 116.2 184.153 116.117ZM157.449 105.915L157.92 105.832C159.378 105.581 161.189 105.339 162.22 106.508C162.767 107.129 162.955 108.281 162.22 108.875C160.927 109.92 159.498 109.515 157.949 109.603C156.673 109.676 155.446 109.887 154.217 110.238C151.519 111.008 149.321 112.413 147.017 113.956C146.715 114.159 146.406 113.773 146.551 113.49C147.881 110.889 150.458 108.753 153.04 107.451C154.417 106.756 155.925 106.179 157.449 105.915ZM181.435 104.749L181.795 104.823C185.718 105.642 190.815 107.277 192.673 111.125C192.744 111.669 192.669 111.785 192.608 111.862L192.588 111.887C192.538 111.952 192.498 112.042 192.262 112.116C192.196 112.1 192.13 112.084 192.063 112.066C191.212 111.843 190.538 111.536 189.886 111.218L189.178 110.87C188.358 110.468 187.53 110.081 186.653 109.795C184.781 109.186 182.855 108.756 180.9 108.527C180.476 108.477 180.068 108.334 179.746 108.09C179.44 107.857 179.207 107.536 179.1 107.108C178.962 106.555 179.002 106.136 179.299 105.637C179.523 105.262 179.843 105.002 180.21 104.853C180.585 104.701 181.011 104.665 181.435 104.749Z" fill="black"/>
</svg>
