<svg width="186" height="230" viewBox="0 0 186 230" fill="none" xmlns="http://www.w3.org/2000/svg">
<path fill-rule="evenodd" clip-rule="evenodd" d="M131.542 128.068C130.127 127.606 128.762 127.071 127.519 126.285C123.936 123.84 121.599 120.16 119.391 116.673C116.281 111.602 114.066 106.199 112.534 100.562C111.876 98.1398 111.652 95.3318 110.157 93.1846C106.768 88.6886 96.829 89.2711 91.5514 90.0603C88.0172 90.6336 87.2868 94.2594 86.4841 96.9423C85.8157 99.1715 85.3782 101.426 85.0109 103.711C84.1371 104.237 83.1507 104.665 82.2105 105.038C71.9635 107.918 70.1625 113.258 66.2487 121.507C59.6383 133.497 41.7009 138.191 38.9914 152.381C37.2457 161.748 42.21 170.561 47.3282 178.349C52.0947 186.856 58.7492 190.938 69.3466 188.929C79.2865 186.885 88.8392 183.465 98.6041 180.823C103.334 179.757 108.056 176.984 113.031 177.951C123.282 180.061 133.815 181.054 144.32 180.78C159.07 181.327 159.068 168.348 157.554 158.298C156.494 142.657 147.888 132.614 131.542 128.068Z" fill="white"/>
<path fill-rule="evenodd" clip-rule="evenodd" d="M132.528 150.7C133.761 151.448 134.797 152.581 135.63 153.773C132.155 153.442 128.687 153.06 125.227 152.625C125.68 152.359 126.137 152.1 126.605 151.855C128.311 150.973 130.623 149.546 132.528 150.7ZM74.807 160.115C74.1704 159.887 73.9241 158.997 73.676 158.487C72.8981 156.887 72.1881 155.261 71.4495 153.646C74.254 152.913 76.9813 152.1 79.8865 151.709C83.0104 151.289 86.1804 151.188 89.3331 151.282C95.719 151.473 102.046 152.43 108.324 153.456C114.595 154.48 120.866 155.465 127.181 156.237C133.368 156.994 139.574 157.548 145.792 158.035C147 158.129 149.015 158.527 149.986 157.656C150.755 156.966 150.78 155.693 149.818 155.131C149.218 154.782 148.349 154.776 147.664 154.696C146.802 154.594 145.936 154.526 145.068 154.474C144.714 154.452 144.361 154.432 144.007 154.413C146.846 153.431 149.812 152.896 152.89 153.045C153.064 154.015 153.848 155.012 154.277 155.812C155.027 157.207 155.611 158.62 155.995 160.138C156.796 163.31 156.831 166.603 156.605 169.838C156.397 172.536 155.95 175.52 153.642 177.431C151.894 178.877 149.428 179.413 147.141 179.581C144.482 179.777 141.782 179.568 139.145 179.241C135.448 178.783 131.732 178.177 128.107 177.365C121.086 175.791 114.356 173.288 108.147 169.894C105.119 168.239 102.23 166.376 99.1603 164.784C96.0325 163.162 92.7044 161.903 89.2097 161.121C85.2988 160.247 81.2104 159.873 77.1907 160.089C76.4932 160.127 75.4854 160.358 74.807 160.115ZM70.2748 158.491C70.6858 159.713 71.0002 161.109 71.8774 162.137C72.7463 163.155 74.0571 163.514 75.415 163.604C77.0523 163.713 78.7089 163.644 80.3498 163.7C83.7153 163.814 87.0346 164.315 90.2518 165.234C93.25 166.091 96.0332 167.428 98.7141 168.91C101.193 170.281 103.6 171.753 106.08 173.12C105.42 173.397 104.767 173.697 104.111 173.958C102.735 174.506 101.35 175.035 99.9592 175.55C97.2165 176.566 94.4622 177.558 91.6797 178.479C86.069 180.336 80.3661 181.959 74.5946 183.342C71.8419 184.001 69.0501 184.771 66.1903 184.881C63.6545 184.978 61.3056 184.321 59.2604 182.939C55.0184 180.072 51.6435 175.934 48.9153 171.852C47.2944 169.427 45.8799 166.879 44.71 164.244C44.1182 162.912 43.5816 161.559 43.0986 160.191C42.872 159.548 42.6571 158.902 42.4537 158.253C42.3642 157.967 42.2784 157.681 42.1935 157.394C46.5312 156.181 50.9204 155.086 55.4126 154.477C57.811 154.153 60.2414 153.988 62.6661 154.012C63.8696 154.024 65.0725 154.084 66.2697 154.198C66.9141 154.259 67.5559 154.338 68.1949 154.435C68.459 154.476 68.7304 154.535 69.0027 154.579C69.4185 155.885 69.8378 157.19 70.2748 158.491ZM159.94 153.297C160.174 152.864 160.272 152.437 160.356 151.965C160.42 151.605 160.59 151.098 160.441 150.631C160.275 150.107 159.822 149.639 159.497 149.193C159.137 148.699 158.779 148.206 158.42 147.711C157.704 146.723 156.988 145.735 156.274 144.745C153.359 140.704 150.463 136.651 147.562 132.601C144.988 129.007 142.457 125.38 139.805 121.834C137.537 118.802 135.065 115.82 131.96 113.462C128.035 110.48 123.361 109.076 118.479 107.98C117.946 107.472 117.234 107.195 116.472 107.251C115.397 106.133 114.542 105.352 114.154 103.93C113.969 103.249 114.027 101.335 113.303 100.932C112.444 100.453 111.995 101.087 111.758 101.801C110.965 104.19 111.875 107.403 113.97 109.797C113.087 112.593 111.917 116.567 109.83 118.807C107.594 121.206 104.503 121.952 101.168 122.002C94.8073 122.095 88.4535 119.928 83.602 116.173C82.1273 115.031 80.7578 113.756 79.5188 112.4C78.5894 111.383 77.49 109.813 76.763 108.627C76.763 108.164 76.1674 107.681 82.2305 107.307C88.2936 106.933 88.7534 99.3228 88.8882 98.287C88.9978 97.446 89.4637 96.1404 88.8171 95.4546C88.5428 95.1634 87.9797 95.1165 87.6319 95.3143C86.9759 95.6878 86.7604 96.6427 86.5542 97.2911C86.2653 98.1996 85.321 103.838 83.5315 104.49C82.6938 104.796 81.733 104.802 80.8468 104.858C79.7525 104.928 78.6559 104.979 77.566 105.096C77.164 105.139 76.7255 105.259 76.3289 105.262C76.0708 105.264 75.8046 105.149 75.5552 105.069C74.7134 104.796 73.8722 105 73.005 105.107C65.3374 106.052 57.4424 108.208 50.9023 112.087C45.1377 115.507 41.0765 120.424 38.3967 126.173C35.6625 132.041 34.0952 138.386 32.7818 144.632C32.3419 146.724 31.9576 148.827 31.6275 150.937C31.3085 152.975 30.9094 155.059 30.8139 157.118C30.7761 157.933 30.9885 158.69 31.3154 159.434C31.6834 160.272 32.5535 160.602 33.3879 160.993C35.2197 161.852 37.1521 162.518 39.143 162.99C40.3593 165.019 41.3828 167.126 42.2054 169.314C41.9002 169.868 41.8939 170.696 41.8352 171.234C41.6896 172.576 41.6274 173.925 41.6143 175.272C41.5881 177.973 41.7653 180.672 41.9042 183.369C42.045 186.104 42.5132 196.897 42.5895 198.215C42.6488 199.239 42.5689 200.671 43.1573 201.58C44.0613 202.977 46.2927 202.93 47.3262 201.797C73.005 206.858 121.274 205.333 140.714 202.787C143.244 202.456 142.449 202.823 143.093 202.237C143.575 201.797 143.986 201.044 144.12 200.439C144.298 199.631 144.01 198.899 143.505 198.245C142.975 197.558 142.878 196.444 142.681 195.627C142.215 193.695 141.983 185.208 141.765 184.267C141.698 183.974 141.632 183.664 141.553 183.354C145.119 183.664 148.834 183.664 152.227 182.571C154.151 181.951 155.945 180.977 157.326 179.586C158.998 177.903 159.928 175.783 160.407 173.57C161.024 170.717 161.155 167.762 161.034 164.862C160.865 161.434 160.245 157.958 158.706 154.811C159.212 154.38 159.637 153.86 159.94 153.297Z" fill="black"/>
<path fill-rule="evenodd" clip-rule="evenodd" d="M71.7215 42.2029C72.5669 41.3713 73.6482 40.7517 74.8302 40.5537C73.7498 41.0485 72.6936 41.5642 71.7215 42.2029ZM70.0656 49.3737C69.9161 48.7399 69.8157 48.1 69.7841 47.4603C69.973 47.7236 70.2748 47.8995 70.6137 47.9903C70.3947 48.4397 70.2086 48.9027 70.0656 49.3737ZM126.635 59.3106C125.659 55.587 121.107 48.4246 120.031 47.0461C118.862 43.6327 125.235 40.8953 121.769 38.2261C120.2 37.0217 118.126 36.5955 116.181 36.1684C102.711 33.2029 88.2385 34.6985 75.7457 40.1518C73.8454 39.7852 71.8656 40.5016 70.4837 41.76C63.9917 47.7418 72.8391 58.5348 74.7738 65.2786C78.0931 72.7981 71.2556 74.0629 71.9889 80.4251C72.5586 83.712 76.1901 84.5807 79.2546 85.0774C79.7458 85.1828 80.4024 85.1986 80.5609 85.6746C81.0574 88.4529 82.7596 91.1005 85.0449 92.8974C84.8451 93.4402 84.9976 94.0991 85.7023 94.5758C92.0873 98.9256 100.138 101.102 108.102 100.711C117.592 100.245 122.5 95.2582 123.684 93.9742C130.233 85.8674 129.45 75.1712 128.114 65.5099C127.184 58.7797 128.364 65.907 126.635 59.3106Z" fill="white"/>
<path fill-rule="evenodd" clip-rule="evenodd" d="M97.3719 28.3254C97.6702 27.4706 98.5146 26.9565 99.4813 27.0626C100.337 27.1553 101.253 27.9339 101.149 28.7932C101.129 28.959 101.103 29.1145 101.072 29.2609L101.076 29.2622L101.08 29.2624L101.059 29.3192C100.996 29.5927 100.908 29.8378 100.777 30.0694C100.611 30.5132 100.451 30.9586 100.293 31.4054C100.521 31.3964 100.754 31.4084 100.991 31.4488C101.235 30.8749 101.482 30.3025 101.726 29.7272C101.988 29.113 102.173 28.3239 102.691 27.8487C103.355 27.242 104.505 27.1164 105.314 27.5498C106.168 28.0071 106.473 28.8201 106.287 29.6913C106.193 30.1357 105.869 30.445 105.468 30.6393L105.425 30.6597L105.117 31.3292C105.211 31.2918 105.309 31.2575 105.415 31.2291C105.581 31.1842 105.744 31.1558 105.904 31.1439C106.344 30.4131 106.828 29.7033 107.329 29.0069C107.904 28.2059 109.029 27.8651 109.973 28.3717C110.817 28.8245 111.271 30.0141 110.666 30.7957C110.206 31.389 109.771 31.9942 109.342 32.6054C109.415 32.6174 109.489 32.6323 109.559 32.6518C109.592 32.6114 109.626 32.5711 109.662 32.5307C110.129 31.9987 110.674 31.5997 111.233 31.1573C111.756 30.7419 111.998 30.0888 112.686 29.7735C113.551 29.3775 114.594 29.5673 115.11 30.3563C116.215 32.0465 114.36 33.2809 113.173 34.3046C114.205 33.7143 115.279 33.1748 116.381 32.7085C117.001 32.447 117.63 32.1945 118.269 31.9763C119.216 31.6535 119.982 31.7568 120.76 32.3574C121.107 32.6264 121.28 33.2138 121.12 33.6052C120.81 34.3554 120.321 34.8112 119.464 35.0279C118.861 35.1803 118.243 35.2834 117.64 35.4433C116.629 35.7093 115.648 36.0336 114.696 36.4386C114.764 36.4775 114.829 36.5193 114.89 36.5671C115.6 36.3564 116.324 36.1741 117.051 36.0187C118.257 35.7595 119.484 35.5844 120.717 35.4748L121.126 35.4399C122.604 35.3099 124.381 35.07 125.288 36.3669C125.587 36.7943 125.619 37.4997 125.288 37.9226C124.656 38.7356 124.027 38.897 122.98 38.9119C124.01 39.012 125.039 39.1361 126.063 39.281C126.768 39.3797 127.474 39.4915 128.176 39.6155L128.527 39.6785C129.383 39.8354 130.338 39.9266 131.074 40.3809C132.678 41.3732 131.925 43.3055 130.148 43.5117C129.289 43.6104 128.335 43.2771 127.492 43.1217C126.674 42.9707 125.852 42.8377 125.027 42.7212C124.6 42.6599 124.173 42.6061 123.744 42.5568C124.617 42.6719 125.482 42.8348 126.325 43.0649L126.559 43.1297C128.188 43.5849 130.388 44.3099 130.896 45.9058C131.204 46.8757 130.361 47.7215 129.341 47.7783C128.392 47.8306 127.601 47.312 126.796 46.9295C126.209 46.6515 125.613 46.4438 124.98 46.2659C124.326 46.0821 123.66 45.9297 122.988 45.8057C123.556 46.0923 124.108 46.4074 124.639 46.7598L124.883 46.925C126.293 47.8884 128.444 49.3798 127.947 51.1856C127.791 51.755 127.098 52.2989 126.433 52.2406C124.701 52.0927 123.746 50.4025 122.44 49.4969C122.1 49.2608 121.726 49.0276 121.335 48.8005C123.314 50.9644 124.889 53.4661 126.087 56.0499C128.72 61.7344 129.528 66.9987 129.547 73.1107L129.548 73.3C129.551 76.6715 129.468 80.1042 129.109 83.4606C128.777 86.5616 128.167 89.6221 126.633 92.4303C124.062 97.1391 119.053 100.806 113.528 102.202C107.381 103.756 100.51 102.541 95.4744 98.9548C94.1898 98.0402 95.8934 96.0543 97.2056 96.8985C102.447 100.268 109.225 101.335 115.24 99.0549C120.011 97.2467 123.854 93.3567 125.482 88.8779C126.519 86.0286 126.821 82.9905 127.19 80.0211L127.215 79.8232C127.606 76.7178 127.833 73.5915 127.83 70.4651C127.825 64.6593 126.915 59.8801 124.129 54.6138C122.819 52.1331 121.118 49.8393 119.087 47.8261C118.471 47.9412 117.816 47.7798 117.193 47.7185C116.875 47.6871 116.557 47.6573 116.239 47.6304C116.564 47.8228 116.882 48.023 117.196 48.2278L117.606 48.4992C118.891 49.3427 120.521 50.3035 120.191 51.9343C120.101 52.3751 119.622 52.7801 119.157 52.8803C117.473 53.2479 116.316 51.7475 115.178 50.8568C114.189 50.0827 113.153 49.3893 112.099 48.6944C111.859 48.5375 111.618 48.3806 111.375 48.2251C111.603 48.469 111.825 48.7167 112.042 48.9668L112.362 49.3387C113.33 50.4499 114.727 51.8942 113.864 53.3346C113.62 53.741 113.098 54.0115 112.593 54.0026C110.855 53.9697 110.164 52.1614 109.349 51.0197C108.648 50.0409 107.886 49.1188 107.099 48.1967C106.882 47.9442 106.664 47.6916 106.442 47.4391C102.792 47.6124 99.1553 48.0548 95.582 48.7616C93.127 49.2473 90.7127 49.8766 88.3164 50.5654L88.1173 50.6235C86.8204 51.0063 85.4842 51.4962 84.5491 52.3363C84.4157 52.9151 84.5181 53.5256 84.6458 54.1036L84.7453 54.5461C85.1553 56.3963 85.4347 58.2122 85.2256 60.1118C85.0088 62.071 84.3649 63.8329 83.5792 65.6531C83.2075 66.5109 82.8228 66.3555 82.6908 67.276C82.5896 67.9772 82.6522 68.7011 82.7213 69.4081L82.779 70.0076C82.9239 71.5777 82.9967 73.2897 81.8741 74.5852C81.6996 74.784 81.3263 74.7048 81.2024 74.506C81.1535 74.4268 81.1014 74.3506 81.0443 74.2774C80.5031 73.5586 79.6734 73.1491 78.7246 72.9907C78.604 72.9713 78.6512 72.8233 78.7523 72.8114C79.5544 72.7247 80.314 72.9085 80.9595 73.2881C80.6534 72.3177 78.2835 72.7896 77.5044 72.9782L77.4775 72.9847C76.506 73.2238 75.5866 73.6124 74.7764 74.1623C73.1462 75.2682 72.204 76.9928 72.2513 78.8503C72.2985 80.6765 73.3272 82.3637 75.0943 83.2379C75.9468 83.6594 76.9168 83.8626 77.8818 83.8537C78.8892 83.8447 79.7858 83.4397 80.7949 83.4965C81.3785 83.5294 81.8252 84.1032 81.4877 84.6039C81.2628 84.9386 80.9693 85.2016 80.6303 85.4034C81.4567 87.1504 82.5114 88.8166 83.7275 90.3544C84.4008 91.2077 85.1637 91.9953 86.0032 92.7141C86.6586 93.276 88.0784 93.9261 87.9985 94.8631C87.9708 95.2008 87.7801 95.407 87.4443 95.5326C86.4002 95.9238 85.1307 94.5765 84.4324 93.927L84.3763 93.8753C83.5058 93.0802 82.712 92.2015 82.0208 91.269C80.7949 89.6132 80.0336 87.7466 79.719 85.7859C78.0448 86.2477 75.8278 85.8143 74.4618 85.248C70.1679 83.4696 68.7644 78.1689 71.3743 74.639C71.8796 73.9561 72.5121 73.3718 73.2326 72.8995C73.0745 72.8203 72.9262 72.7187 72.7941 72.5902C72.0637 71.8789 71.5473 70.9507 71.0347 70.0952L70.9732 69.9929C70.5182 69.2397 70.089 68.4747 69.6867 67.6979L69.5371 67.406C68.6389 65.6352 67.8515 64.861 67.2108 62.999C66.5946 61.2027 66.1089 59.372 65.7942 57.51L65.7106 57.0171C65.5287 55.9366 65.3566 54.7813 65.4894 53.6843C64.5749 53.9577 63.6555 54.1266 62.7508 53.7156C62.1541 53.4452 61.8248 52.6561 62.0286 52.0897C62.1769 51.6728 62.4247 51.3455 62.7393 51.0885C62.5519 51.0018 62.3758 50.8912 62.221 50.7686L62.0856 50.6612C61.5379 50.2247 61.4988 49.3953 61.8313 48.8483C61.8639 48.796 61.8966 48.7422 61.9275 48.6899C62.2438 48.1713 62.8975 47.8321 63.543 47.8411C63.6473 47.8426 63.7517 47.8426 63.8576 47.8411C63.556 47.7798 63.261 47.6856 62.9806 47.5272C61.7156 46.8144 61.8754 44.8821 63.4061 44.5414C64.0484 44.3994 64.7575 44.4577 65.465 44.6101C65.4389 44.5967 65.4128 44.5832 65.3867 44.5683C64.852 44.2679 64.4037 43.6806 64.4543 43.0783C64.5097 42.4118 64.7444 41.9366 65.3867 41.5869C65.9442 41.285 66.7332 41.2566 67.2875 41.5869C67.7684 41.8753 68.2395 42.1936 68.6927 42.5359C68.2378 42.0233 67.8433 41.4659 67.6836 40.8741C67.4863 40.1373 67.8156 39.3348 68.5394 38.9463C69.1165 38.6369 69.7262 38.6713 70.2706 38.9104C70.2413 38.5233 70.344 38.1288 70.6244 37.7791C71.1982 37.062 72.2415 36.6493 73.1495 37.1724C73.2685 37.2411 73.4282 37.3592 73.5831 37.5042C73.2815 36.6239 73.5538 35.7004 74.5824 35.3029C75.21 35.0593 76.0593 35.1818 76.6038 35.6018C76.2582 33.8876 79.018 32.6279 80.0907 34.3987C80.3341 34.7999 80.575 35.2223 80.7904 35.6545L80.8699 35.8169L80.878 35.814L80.8232 35.6952L80.7672 35.5763C80.4689 34.9412 80.089 34.2807 79.9847 33.5918C79.8315 32.5726 80.327 31.6057 81.5366 31.4562C82.161 31.3785 82.8554 31.6385 83.2744 32.093C83.0478 30.5117 84.9746 29.3625 86.3619 30.5431C87.0188 31.102 87.3693 31.9195 87.7866 32.6368C88.023 33.0418 88.2642 33.4453 88.5006 33.8518C88.5609 33.786 88.6261 33.7203 88.6946 33.656C88.3441 32.6936 88.0719 31.7073 87.842 30.715C87.6236 29.7795 88.1338 28.8081 89.1869 28.5437C90.1438 28.3015 91.342 28.8426 91.5555 29.7766C91.7055 30.434 91.8832 31.0843 92.0788 31.7312C92.2125 31.7013 92.3445 31.6804 92.4749 31.6654C92.4858 31.5439 92.4981 31.4217 92.5119 31.3001L92.5632 30.8678C92.6772 29.8801 92.7922 28.7526 93.3552 27.9129C94.3154 26.4783 96.7769 27.0731 96.803 28.7693C96.8176 29.6465 96.428 30.5162 96.2927 31.3845C96.2341 31.7626 96.1998 32.1452 96.1803 32.5277C96.4427 31.2575 96.803 30.0036 97.2203 28.7693C97.2692 28.6213 97.3214 28.4734 97.3719 28.3254ZM76.1343 77.3096C78.2942 77.0033 80.2683 78.1076 81.548 79.6544C81.7811 79.9368 81.6279 80.3358 81.4176 80.5734C81.266 80.7483 81.0622 80.7692 80.8324 80.7961C80.5683 80.8275 80.2341 80.6317 80.1184 80.421C79.2951 78.9146 77.8264 77.9627 76.1343 77.3769C76.1033 77.3664 76.0935 77.3156 76.1343 77.3096ZM79.1285 50.3197L79.1939 50.2553C79.631 49.8397 78.9403 49.2049 78.5023 49.6214C78.0411 50.0598 77.7346 50.5925 77.4399 51.1322C77.159 51.6469 78.0024 52.1015 78.2845 51.5849L78.4129 51.3501C78.6144 50.985 78.8294 50.6243 79.1285 50.3197ZM73.0626 49.4667C73.6821 49.3711 73.4194 48.5068 72.8026 48.6022C72.0035 48.7256 71.2075 48.8659 70.4082 48.9895C69.7889 49.0852 70.0515 49.9494 70.6684 49.8542C71.4675 49.7306 72.2635 49.5903 73.0626 49.4667ZM109.964 43.5666C109.366 43.3835 109.109 44.2492 109.704 44.4312C110.526 44.6828 111.342 44.9405 112.122 45.2898C112.686 45.542 113.182 44.769 112.616 44.5155C111.76 44.1322 110.867 43.8427 109.964 43.5666ZM72.9218 42.4045C72.3373 42.1902 72.0835 43.0571 72.6617 43.2692L74.7744 44.0437C75.3588 44.258 75.6126 43.3913 75.0344 43.1792L72.9218 42.4045ZM117.341 40.2992L117.264 40.2546C116.734 39.9399 116.243 40.7158 116.77 41.0289C117.08 41.2126 117.456 41.3372 117.739 41.556L117.798 41.6044C118.255 42.0004 118.948 41.3677 118.49 40.9703C118.154 40.6799 117.729 40.5182 117.341 40.2992Z" fill="black"/>
<path fill-rule="evenodd" clip-rule="evenodd" d="M101.115 86.8689C103.111 84.7424 106.474 84.5943 109.259 85.126C111.046 85.4673 112.786 86.0358 114.602 86.2465C115.449 86.345 116.306 86.3744 117.16 86.3599C117.999 86.3457 118.84 86.1908 119.675 86.2196C119.804 86.2239 119.852 86.3786 119.741 86.4415C118.594 87.0873 117.049 87.2944 115.695 87.4207C115.699 87.5126 115.705 87.6023 115.719 87.6783C115.756 87.8811 115.79 88.0826 115.817 88.2867C115.878 88.7471 115.947 89.2061 116.016 89.6656C116.151 90.57 116.194 91.503 116.431 92.3917L116.473 92.5394C116.528 92.7262 116.541 92.8946 116.522 93.0464L116.577 93.0236L116.751 92.9463L116.865 92.8969C117.282 92.72 117.679 92.5911 118.169 92.6341C118.541 92.6667 118.854 92.8997 118.856 93.2645C118.866 94.9016 116.459 95.4281 115.082 95.7415L114.678 95.8327C112.926 96.2245 111.137 96.5679 109.335 96.6501C106.443 96.7817 103.192 96.0504 101.301 93.8997C99.5352 91.8932 99.2117 88.8966 101.115 86.8689ZM114.249 93.7475C113.946 91.2827 110.642 91.1471 109.691 92.7102C109.27 90.5315 103.03 92.5219 103.518 92.955C105.367 94.5968 108.174 94.7445 110.586 94.4409C111.815 94.2862 113.044 94.0344 114.249 93.7475ZM110.583 87.2871L109.752 87.1775L109.425 87.1362C107.365 86.8834 105.05 86.7528 103.356 87.9632C102.738 88.4049 102.39 88.9812 102.261 89.6001C103.863 89.3825 105.471 89.2164 107.083 89.0781L107.523 89.0411C108.532 88.9577 109.541 88.8698 110.549 88.7776L111.265 88.7111L111.981 88.643C112.233 88.6188 113.932 88.5391 114.251 88.5926C114.285 88.3296 114.33 87.7604 114.402 87.5044C113.195 87.5419 111.994 87.4598 110.794 87.3136L110.583 87.2871ZM114.406 76.2701C115.637 76.9561 117.513 78.5556 116.189 80.2561C114.63 81.7555 112.386 80.0363 111.28 79.2588C110.254 78.6562 109.102 80.206 110.053 80.9097C118.045 86.3337 121.288 76.4495 115.029 75.4636C114.34 75.355 114.084 76.0579 114.406 76.2701ZM116.609 79.1598L116.668 79.1304L116.688 79.1193C116.723 79.0987 116.701 79.1009 116.622 79.1259L116.563 79.1453V79.1836C116.579 79.1751 116.595 79.1687 116.609 79.1598ZM100.844 73.0656L100.844 73.0319C100.846 72.079 101.452 69.9031 102.948 69.9031C103.883 69.9031 104.45 71.3839 104.549 72.9104L104.552 72.9727C104.596 73.9217 104.311 75.9961 102.948 75.9961C101.57 75.9961 100.858 74.0314 100.844 73.0656ZM122.876 72.7667L122.877 72.733C122.874 71.7801 122.269 69.6043 120.772 69.6043C119.861 69.6043 119.298 71.0119 119.18 72.4972L119.172 72.6115C119.113 73.5285 119.378 75.6972 120.772 75.6972C122.15 75.6972 122.862 73.7325 122.876 72.7667ZM101.698 63.4058C102.919 63.2356 104.536 63.559 105.106 64.6974C105.359 65.2046 105.059 65.7655 104.42 65.7936C102.874 65.8614 101.488 65.5461 100.131 66.4674C99.5474 66.864 99.0566 67.413 98.6447 67.9607L98.4888 68.1692L98.3597 68.3409C98.08 68.7178 97.8152 69.1274 97.8566 69.5822C97.8688 69.7169 97.7186 69.8446 97.576 69.8393C96.6869 69.8058 96.5912 68.7839 96.7081 68.1701C96.9256 67.0311 97.5269 65.9618 98.3604 65.1006C99.2358 64.1962 100.391 63.588 101.698 63.4058ZM118.519 64.7882C119.361 64.2919 120.439 64.1012 121.425 64.1743C123.37 64.3179 126.634 65.8338 126.204 68.012C126.072 68.6837 125.053 69.0382 124.452 68.6655C123.806 68.2648 123.649 67.6421 123.169 67.1184C122.785 66.7002 122.299 66.3975 121.779 66.1398C121.266 65.8855 120.673 65.7314 120.091 65.6752L119.994 65.6668C119.643 65.6394 117.874 65.6467 118.134 66.2521C118.185 66.3706 117.993 66.4645 117.904 66.3748C117.362 65.8249 117.976 65.1083 118.519 64.7882Z" fill="black"/>
</svg>
