<svg width="186" height="250" viewBox="0 0 186 250" fill="none" xmlns="http://www.w3.org/2000/svg">
<path fill-rule="evenodd" clip-rule="evenodd" d="M31.7884 161.416L148.584 170.691L148.706 171.485C150.664 184.236 151.652 192.887 151.672 197.438L151.672 197.577C151.672 202.089 153.057 209.264 155.826 219.104L155.997 219.71L31.6253 219.927L30.1582 190.31L31.7884 161.416ZM100.934 97.8628C105.683 98.0973 110.47 100.134 110.839 101.436C111.663 104.335 112.987 116.745 117.341 118.651C121.695 120.558 130.99 118.82 133.648 123.373C136.305 127.926 145.033 146.486 145.033 150.811C145.033 153.694 116.59 154.695 59.7036 153.813C60.4299 130.591 63.4575 118.383 68.7865 117.191L69.2622 117.086C76.9689 115.402 81.5748 115.347 84.2037 112.633C86.8864 109.862 87.3732 105.107 88.4861 101.436C89.0993 99.4127 95.1068 97.5752 100.934 97.8628Z" fill="white"/>
<path fill-rule="evenodd" clip-rule="evenodd" d="M111.349 105.121C111.367 105.107 111.385 105.103 111.405 105.112C111.775 105.29 111.851 105.646 111.978 106.016C112.164 106.557 112.379 107.086 112.578 107.622C112.975 108.699 113.353 109.773 113.794 110.832C114.248 111.921 114.717 112.991 115.255 114.043C115.514 114.551 115.793 115.05 116.077 115.546C116.272 115.89 116.455 116.363 116.712 116.686C116.732 116.583 116.76 116.486 116.792 116.394C116.758 116.411 116.725 116.428 116.694 116.448C116.629 116.489 116.551 116.407 116.59 116.344C116.73 116.112 116.913 115.956 117.122 115.85C117.699 115.209 130.418 118.267 133.896 121.702C140.194 127.924 144.444 135.616 147.24 143.8C148.784 148.315 150.205 152.875 151.674 157.415C153.226 162.216 154.846 166.996 156.402 171.794C156.742 172.849 155.999 173.808 155.06 174.155C153.311 174.801 151.549 175.409 149.772 175.972C150.634 179.284 151.237 182.666 151.671 186.058C152.566 193.053 152.678 200.189 154.089 207.11C154.412 208.699 154.822 210.265 155.255 211.826L155.355 212.187C155.613 213.103 155.848 214.028 156.164 214.925C156.436 215.696 156.788 216.474 156.979 217.27C157.202 218.206 156.873 219.229 155.997 219.71C155.295 220.096 154.289 219.936 153.865 219.211C153.779 219.062 153.727 218.901 153.705 218.738C153.642 218.602 153.583 218.464 153.531 218.322C153.511 218.267 153.493 218.211 153.476 218.154L153.425 217.984C153.301 217.58 153.187 217.172 153.073 216.764C152.887 216.11 152.7 215.458 152.493 214.81L152.388 214.486C151.876 212.927 151.418 211.355 151.019 209.763C149.59 204.056 149.286 198.147 148.894 192.298L148.874 191.996C148.518 186.755 148.306 181.525 148.742 176.295L148.682 176.314L148.623 176.332C148.057 176.505 147.49 176.675 146.921 176.839C146.903 176.846 146.886 176.853 146.869 176.857C146.504 176.97 146.13 177.077 145.75 177.177L145.52 177.236L145.359 177.28L145.189 177.328C144.65 177.485 144.1 177.664 143.541 177.647C142.615 177.795 141.673 177.885 140.747 177.888C141.033 182.554 141.362 187.216 141.755 191.874C142.149 196.556 142.672 201.22 143.215 205.884C143.483 208.188 143.77 210.488 144.086 212.784C144.246 213.948 144.412 215.106 144.624 216.261C144.842 217.441 145.229 218.703 144.995 219.897C144.991 219.896 144.986 219.894 144.981 219.894C144.903 220.24 144.694 220.55 144.33 220.763C143.664 221.153 142.731 220.925 142.348 220.243C142.315 220.186 142.285 220.127 142.255 220.067C141.862 220.235 141.432 220.3 140.904 220.305L133.741 220.377C130.485 220.409 127.23 220.443 123.973 220.491C113.747 220.642 103.522 220.816 93.2958 220.939L89.4611 220.983C83.7099 221.044 77.9555 221.163 72.2043 221.161C69.3273 221.161 66.4531 221.151 63.5759 221.081C62.1821 221.047 60.7916 220.993 59.3995 220.936L59.1537 220.925C58.0423 220.87 56.8623 220.767 55.7757 221.016C55.4757 221.6 54.7095 221.72 54.3085 221.124C53.3921 219.758 53.142 217.852 52.9727 216.183L52.9131 215.582C52.7256 213.712 52.561 211.841 52.4387 209.967C52.0051 203.328 51.847 196.683 52.0459 190.031C52.1469 186.641 52.4583 183.27 52.8267 179.899C52.9425 178.847 53.0631 177.797 53.1935 176.748L53.1957 176.375C53.1959 176.256 53.1951 176.142 53.1919 176.035L53.1594 175.024C53.1324 174.18 53.1073 173.337 53.0968 172.493L53.0924 171.986L53.0875 171.044C52.2822 170.967 51.4231 170.7 50.7287 170.571C49.6024 170.36 48.4791 170.134 47.3592 169.894C45.1161 169.411 42.8975 168.84 40.6935 168.209L40.2248 168.075C38.1911 167.488 36.1294 166.863 34.2055 165.987C33.4524 165.642 32.7009 165.254 32.0407 164.746C32.0015 165.28 31.9412 165.814 31.9053 166.344C31.8338 167.392 31.7489 168.438 31.6788 169.486L31.6117 170.484C31.5016 172.146 31.4024 173.807 31.3576 175.474C31.1587 182.748 31.1245 190.052 31.5092 197.321C31.7 200.959 31.9722 204.597 32.3651 208.221C32.5574 210.003 32.7612 211.791 33.0122 213.566C33.2714 215.391 33.7393 217.205 33.8827 219.043C34.0197 220.815 31.3103 221.073 30.8653 219.452C30.3324 217.508 30.1967 215.411 29.9158 213.413L29.884 213.191C29.5726 211.068 29.3232 208.937 29.108 206.802C28.3652 199.439 28.1723 192.038 28.5619 184.648C28.7471 181.108 29.1863 177.582 29.7179 174.08L29.7796 173.676C30.0216 172.107 30.2481 170.539 30.5222 168.977L30.6273 168.392C30.8735 167.05 31.0626 165.59 31.4619 164.248L31.3432 164.139C31.1213 163.932 30.8807 163.692 30.7056 163.434C30.1024 163.353 29.5889 162.919 29.6525 162.131C29.8595 159.543 30.805 156.911 31.6478 154.468C32.4938 152.012 33.4752 149.602 34.5869 147.254C38.4977 139 44.1299 131.507 51.0172 125.504C54.6704 122.319 58.6741 119.494 63.0983 117.484C65.2794 116.49 67.5356 115.722 69.8993 115.308C71.0697 115.103 72.2516 114.943 73.4416 114.909C74.407 114.338 75.5533 114.578 76.4881 115.204L76.5389 115.238H76.5407L76.7802 115.285C76.8388 115.297 76.8372 115.39 76.7802 115.403C76.7769 115.403 76.772 115.404 76.7687 115.406C76.922 115.527 77.0671 115.656 77.2024 115.794C77.649 116.251 77.6474 116.802 77.4175 117.247C78.7852 118.516 79.6492 120.145 80.5539 121.787C81.5239 123.545 82.7938 125.065 84.3392 126.347C90.0039 131.047 98.3356 133.126 105.433 130.907C110.653 129.276 115.112 124.861 116.344 119.547C116.052 119.651 115.736 119.667 115.436 119.56C114.027 119.057 113.49 117.517 112.952 116.23L112.925 116.168C112.399 114.92 111.957 113.653 111.608 112.345C111.256 111.024 111.049 109.63 110.963 108.266C110.929 107.727 110.944 107.188 110.972 106.649L110.997 106.204C111.016 105.8 111.01 105.387 111.349 105.121ZM88.4309 101.486C88.4505 101.437 88.5271 101.411 88.5564 101.469C89.8033 104.043 88.9852 107.568 87.8064 110.023C86.5725 112.59 84.7142 114.537 82.5118 116.221C82.2086 116.453 81.8971 116.681 81.581 116.905C79.7437 118.203 78.107 114.703 80.228 114.034C82.4385 112.911 84.2349 110.908 85.4834 108.805C86.1585 107.668 86.7568 106.484 87.2148 105.241C87.6713 104.002 87.9451 102.712 88.4309 101.486Z" fill="black"/>
<path fill-rule="evenodd" clip-rule="evenodd" d="M71.7225 46.0543C72.5679 45.1467 73.6492 44.4706 74.8312 44.2545C73.7507 44.7945 72.6946 45.3573 71.7225 46.0543ZM70.0666 53.8794C69.9171 53.1878 69.8167 52.4895 69.7851 51.7914C69.974 52.0787 70.2757 52.2707 70.6146 52.3698C70.3957 52.8602 70.2096 53.3654 70.0666 53.8794ZM126.636 64.7231C125.66 60.6597 121.108 52.8437 120.032 51.3394C118.863 47.6145 125.236 44.6273 121.77 41.7146C120.201 40.4003 118.127 39.9352 116.182 39.4691C102.712 36.233 88.2395 37.8651 75.7467 43.816C73.8464 43.416 71.8666 44.1978 70.4847 45.5709C63.9926 52.0986 72.8401 63.8765 74.7748 71.2356C78.0941 79.4412 71.2566 80.8215 71.9898 87.7643C72.5596 91.3511 76.1911 92.299 79.2556 92.8411C79.7468 92.9561 80.4034 92.9734 80.5618 93.4928C81.0584 96.5246 82.7606 99.4138 85.0459 101.375C84.846 101.967 84.9986 102.686 85.7033 103.206C92.0883 107.953 100.139 110.328 108.103 109.901C117.593 109.393 122.501 103.951 123.685 102.55C130.234 93.7032 129.451 82.0309 128.115 71.488C127.185 64.1437 128.365 71.9214 126.636 64.7231Z" fill="white"/>
<path fill-rule="evenodd" clip-rule="evenodd" d="M97.3729 30.9106C97.6712 29.9778 98.5156 29.4168 99.4823 29.5326C100.338 29.6337 101.254 30.4834 101.15 31.4211C101.13 31.6021 101.104 31.7717 101.073 31.9315L101.077 31.9329L101.081 31.9332L101.06 31.9951C100.997 32.2936 100.909 32.561 100.778 32.8138C100.612 33.2981 100.452 33.7841 100.294 34.2717C100.522 34.2619 100.755 34.275 100.992 34.319C101.236 33.6928 101.482 33.0682 101.727 32.4403C101.989 31.7701 102.174 30.909 102.692 30.3904C103.356 29.7283 104.506 29.5913 105.315 30.0643C106.169 30.5633 106.474 31.4504 106.288 32.4012C106.194 32.8862 105.87 33.2237 105.469 33.4357L105.426 33.4579L105.118 34.1885C105.212 34.1478 105.31 34.1103 105.416 34.0793C105.582 34.0303 105.745 33.9994 105.905 33.9863C106.345 33.1889 106.829 32.4142 107.33 31.6543C107.905 30.7802 109.03 30.4084 109.974 30.9612C110.818 31.4553 111.272 32.7534 110.667 33.6063C110.207 34.2538 109.772 34.9142 109.343 35.5812C109.416 35.5943 109.49 35.6106 109.56 35.6318C109.592 35.5878 109.627 35.5437 109.663 35.4997C110.13 34.9191 110.675 34.4837 111.234 34.001C111.757 33.5476 111.999 32.835 112.687 32.4909C113.552 32.0587 114.595 32.2658 115.111 33.1269C116.216 34.9713 114.361 36.3183 113.174 37.4354C114.206 36.7913 115.28 36.2026 116.382 35.6938C117.002 35.4084 117.631 35.1328 118.27 34.8947C119.217 34.5424 119.983 34.6551 120.761 35.3105C121.108 35.6041 121.281 36.2451 121.121 36.6722C120.811 37.4909 120.322 37.9883 119.465 38.2247C118.862 38.3911 118.244 38.5036 117.641 38.6781C116.63 38.9684 115.649 39.3223 114.696 39.7642C114.765 39.8066 114.83 39.8523 114.89 39.9045C115.601 39.6745 116.325 39.4756 117.052 39.306C118.258 39.0231 119.485 38.832 120.718 38.7125L121.127 38.6743C122.605 38.5325 124.382 38.2706 125.289 39.6859C125.588 40.1523 125.62 40.9221 125.289 41.3836C124.657 42.2707 124.027 42.4469 122.981 42.4632C124.011 42.5724 125.04 42.7078 126.064 42.866C126.769 42.9736 127.475 43.0956 128.177 43.231L128.528 43.2998C129.384 43.471 130.339 43.5705 131.075 44.0662C132.679 45.1491 131.926 47.2577 130.149 47.4827C129.29 47.5904 128.336 47.2267 127.493 47.0571C126.675 46.8924 125.853 46.7472 125.028 46.62C124.601 46.5532 124.174 46.4945 123.745 46.4407C124.618 46.5662 125.483 46.744 126.326 46.9951L126.56 47.0658C128.189 47.5625 130.389 48.3537 130.897 50.0953C131.205 51.1536 130.362 52.0767 129.342 52.1386C128.393 52.1957 127.602 51.6298 126.797 51.2123C126.21 50.909 125.614 50.6823 124.981 50.4883C124.327 50.2877 123.661 50.1213 122.989 49.986C123.557 50.2988 124.109 50.6426 124.64 51.0272L124.884 51.2075C126.294 52.2587 128.445 53.8863 127.948 55.8568C127.792 56.4782 127.099 57.0718 126.434 57.0082C124.702 56.8467 123.747 55.0023 122.441 54.014C122.101 53.7564 121.727 53.502 121.336 53.2541C123.315 55.6155 124.89 58.3454 126.088 61.1651C128.721 67.3682 129.529 73.1129 129.548 79.7827L129.549 79.9892C129.552 83.6683 129.469 87.4142 129.11 91.077C128.778 94.4609 128.168 97.8007 126.634 100.865C124.063 106.004 119.054 110.006 113.529 111.529C107.382 113.225 100.511 111.899 95.4754 107.985C94.1908 106.987 95.8943 104.82 97.2066 105.741C102.448 109.418 109.226 110.583 115.241 108.094C120.012 106.121 123.855 101.876 125.483 96.9886C126.52 93.8793 126.822 90.564 127.191 87.3236L127.216 87.1076C127.607 83.7189 127.834 80.3073 127.831 76.8956C127.826 70.56 126.916 65.3448 124.13 59.5979C122.82 56.8908 121.119 54.3877 119.088 52.1908C118.472 52.3164 117.817 52.1403 117.194 52.0734C116.876 52.0392 116.558 52.0065 116.24 51.9772C116.565 52.1872 116.883 52.4056 117.196 52.6291L117.607 52.9253C118.892 53.8458 120.522 54.8943 120.192 56.6739C120.102 57.1549 119.623 57.5969 119.158 57.7061C117.474 58.1073 116.317 56.47 115.179 55.4981C114.19 54.6533 113.154 53.8966 112.1 53.1383C111.86 52.9671 111.619 52.7958 111.376 52.6262C111.604 52.8924 111.826 53.1627 112.043 53.4355L112.363 53.8414C113.331 55.054 114.728 56.6301 113.865 58.2019C113.621 58.6455 113.099 58.9407 112.594 58.9309C110.856 58.895 110.165 56.9217 109.35 55.6758C108.649 54.6076 107.887 53.6014 107.1 52.5953C106.883 52.3197 106.665 52.044 106.443 51.7684C102.793 51.9576 99.1563 52.4403 95.583 53.2117C93.128 53.7417 90.7137 54.4284 88.3174 55.1801L88.1182 55.2434C86.8214 55.6611 85.4851 56.1958 84.5501 57.1125C84.4166 57.7442 84.5191 58.4103 84.6468 59.0411L84.7463 59.524C85.1563 61.543 85.4357 63.5246 85.2266 65.5975C85.0098 67.7355 84.3659 69.6582 83.5802 71.6445C83.2085 72.5806 82.8238 72.411 82.6917 73.4155C82.5906 74.1807 82.6531 74.9706 82.7222 75.7422L82.78 76.3963C82.9249 78.1098 82.9977 79.9779 81.875 81.3917C81.7006 81.6086 81.3273 81.5222 81.2034 81.3053C81.1545 81.2189 81.1023 81.1357 81.0453 81.0558C80.5041 80.2714 79.6743 79.8245 78.7256 79.6517C78.6049 79.6305 78.6522 79.469 78.7533 79.456C79.5553 79.3614 80.315 79.562 80.9605 79.9762C80.6544 78.9172 78.2844 79.4322 77.5053 79.638L77.4785 79.6452C76.5069 79.9061 75.5875 80.3301 74.7774 80.9302C73.1472 82.137 72.205 84.0189 72.2522 86.046C72.2995 88.0388 73.3281 89.88 75.0952 90.834C75.9478 91.2939 76.9177 91.5157 77.8828 91.5059C78.8902 91.4961 79.7868 91.0542 80.7959 91.1161C81.3795 91.152 81.8261 91.7782 81.4887 92.3245C81.2637 92.6898 80.9703 92.9769 80.6312 93.197C81.4577 95.1034 82.5124 96.9217 83.7285 98.5998C84.4018 99.531 85.1647 100.39 86.0042 101.175C86.6595 101.788 88.0794 102.497 87.9995 103.52C87.9718 103.888 87.7811 104.114 87.4453 104.251C86.4012 104.677 85.1317 103.207 84.4334 102.498L84.3773 102.442C83.5068 101.574 82.7129 100.615 82.0217 99.5979C80.7959 97.7909 80.0346 95.7541 79.72 93.6145C78.0458 94.1184 75.8288 93.6455 74.4627 93.0274C70.1689 91.0868 68.7654 85.3024 71.3752 81.4504C71.8806 80.7052 72.5131 80.0675 73.2336 79.5522C73.0755 79.4658 72.9271 79.3549 72.7951 79.2146C72.0647 78.4384 71.5482 77.4255 71.0357 76.4919L70.9742 76.3803C70.5192 75.5584 70.09 74.7236 69.6877 73.8759L69.538 73.5574C68.6398 71.6249 67.8525 70.7802 67.2118 68.7482C66.5956 66.788 66.1098 64.7903 65.7952 62.7583L65.7116 62.2205C65.5297 61.0414 65.3576 59.7806 65.4904 58.5835C64.5759 58.8819 63.6565 59.0662 62.7517 58.6178C62.1551 58.3226 61.8258 57.4615 62.0296 56.8435C62.1779 56.3885 62.4257 56.0313 62.7403 55.7508C62.5528 55.6562 62.3768 55.5356 62.2219 55.4018L62.0866 55.2846C61.5389 54.8082 61.4998 53.9031 61.8323 53.3063C61.8649 53.2492 61.8975 53.1905 61.9285 53.1334C62.2447 52.5675 62.8984 52.1973 63.544 52.2071C63.6483 52.2088 63.7526 52.2088 63.8586 52.2071C63.557 52.1403 63.262 52.0375 62.9816 51.8647C61.7166 51.0868 61.8763 48.9782 63.407 48.6063C64.0493 48.4514 64.7584 48.515 65.4659 48.6814C65.4398 48.6667 65.4138 48.652 65.3877 48.6357C64.853 48.3079 64.4047 47.667 64.4552 47.0098C64.5107 46.2825 64.7454 45.7639 65.3877 45.3823C65.9452 45.0529 66.7342 45.0219 67.2884 45.3823C67.7693 45.697 68.2404 46.0444 68.6936 46.4178C68.2388 45.8585 67.8443 45.2502 67.6846 44.6044C67.4873 43.8004 67.8166 42.9247 68.5404 42.5007C69.1175 42.1631 69.7271 42.2006 70.2716 42.4615C70.2423 42.0392 70.345 41.6086 70.6254 41.227C71.1992 40.4444 72.2425 39.9941 73.1505 40.5649C73.2695 40.6399 73.4292 40.7688 73.5841 40.927C73.2825 39.9664 73.5547 38.9586 74.5834 38.5248C75.211 38.259 76.0603 38.3927 76.6048 38.851C76.2592 36.9804 79.019 35.6057 80.0916 37.5382C80.3351 37.976 80.5759 38.4369 80.7913 38.9085L80.8709 39.0858L80.879 39.0825L80.8242 38.9529L80.7682 38.8232C80.4698 38.1302 80.09 37.4093 79.9857 36.6575C79.8325 35.5454 80.328 34.4902 81.5376 34.3272C82.1619 34.2424 82.8564 34.5261 83.2753 35.022C83.0487 33.2965 84.9756 32.0424 86.3628 33.3307C87.0198 33.9407 87.3703 34.8327 87.7876 35.6155C88.024 36.0574 88.2652 36.4977 88.5016 36.9413C88.5619 36.8696 88.6271 36.7978 88.6956 36.7277C88.3451 35.6774 88.0729 34.6011 87.843 33.5183C87.6246 32.4974 88.1348 31.4374 89.1879 31.1489C90.1448 30.8846 91.3429 31.4751 91.5565 32.4943C91.7065 33.2117 91.8842 33.9212 92.0798 34.6272C92.2134 34.5946 92.3455 34.5718 92.4759 34.5555C92.4868 34.4228 92.4991 34.2895 92.5129 34.1568L92.5642 33.6851C92.6782 32.6072 92.7931 31.3768 93.3562 30.4606C94.3163 28.895 96.7779 29.544 96.804 31.395C96.8186 32.3523 96.429 33.3014 96.2937 34.2489C96.235 34.6615 96.2008 35.0789 96.1812 35.4964C96.4437 34.1103 96.804 32.742 97.2213 31.395C97.2702 31.2335 97.3223 31.0721 97.3729 30.9106ZM76.1353 84.3647C78.2952 84.0304 80.2693 85.2355 81.549 86.9234C81.7821 87.2316 81.6289 87.6671 81.4186 87.9263C81.267 88.1171 81.0632 88.14 80.8333 88.1693C80.5693 88.2036 80.2351 87.9899 80.1193 87.76C79.2961 86.1162 77.8274 85.0774 76.1353 84.4381C76.1043 84.4267 76.0945 84.3712 76.1353 84.3647ZM79.1295 54.9119L79.1949 54.8417C79.6319 54.3881 78.9412 53.6954 78.5032 54.1499C78.0421 54.6284 77.7356 55.2096 77.4409 55.7986C77.16 56.3603 78.0034 56.8563 78.2854 56.2926L78.4139 56.0363C78.6154 55.6379 78.8304 55.2443 79.1295 54.9119ZM73.0636 53.9811C73.683 53.8767 73.4204 52.9336 72.8036 53.0377C72.0045 53.1724 71.2085 53.3255 70.4092 53.4604C69.7899 53.5648 70.0525 54.5078 70.6694 54.404C71.4685 54.2691 72.2645 54.116 73.0636 53.9811ZM109.965 47.5426C109.367 47.3428 109.11 48.2875 109.705 48.4862C110.527 48.7606 111.343 49.0419 112.123 49.423C112.687 49.6983 113.183 48.8547 112.617 48.5781C111.761 48.1598 110.868 47.8439 109.965 47.5426ZM72.9227 46.2745C72.3383 46.0406 72.0845 46.9866 72.6627 47.2181L74.7754 48.0633C75.3598 48.2971 75.6136 47.3513 75.0354 47.1199L72.9227 46.2745ZM117.342 43.9771L117.265 43.9284C116.735 43.585 116.244 44.4317 116.771 44.7733C117.081 44.9738 117.457 45.1098 117.74 45.3485L117.799 45.4014C118.256 45.8335 118.949 45.143 118.491 44.7094C118.155 44.3925 117.73 44.216 117.342 43.9771Z" fill="black"/>
<path fill-rule="evenodd" clip-rule="evenodd" d="M119.12 93.2689L119.254 93.2619C120.172 93.2097 121.063 93.0755 121.883 93.59C122.973 94.2738 122.978 95.8289 121.883 96.5114C121.022 97.0487 120.086 96.8723 119.12 96.8472C118.324 96.8265 117.528 96.8121 116.732 96.8036C115.141 96.787 113.551 96.7831 111.96 96.7911C110.525 96.7982 109.088 96.7814 107.653 96.7468L107.038 96.7309C105.566 96.6905 104.025 96.7413 102.575 96.4546L102.513 96.4439L102.515 96.4408C102.263 96.3563 102.131 95.9556 102.431 95.8164C103.869 95.1492 105.514 94.8695 107.059 94.5522C108.623 94.2312 110.215 93.9993 111.801 93.8177C113.385 93.6366 114.981 93.5088 116.573 93.4072C117.421 93.3527 118.27 93.3079 119.12 93.2689ZM114.305 72.7664L114.41 72.6961C115.562 71.935 117.218 71.2022 118.546 71.78C118.621 71.8126 118.684 71.8551 118.739 71.9041C119.065 71.9104 119.393 71.9375 119.722 71.9871C122.321 72.379 124.722 74.0853 125.897 76.4344C127.231 79.1045 126.597 81.9183 124.236 83.7343C123.075 84.6265 121.712 85.2689 120.244 85.4137C119.764 85.461 119.255 85.4703 118.795 85.3248C119.013 85.7893 119.179 86.2748 119.264 86.7868C119.556 88.5399 118.861 89.9854 117.229 90.7425C115.795 91.408 113.809 91.663 112.391 90.823C111.192 90.1133 111.584 87.7637 113.162 87.9742C114.227 88.1162 115.188 88.4719 116.24 88.0176C117.098 87.6475 116.578 86.3985 116.319 85.7415C115.887 84.6434 115.25 83.6097 114.734 82.5435L114.639 82.3432C114.314 81.648 113.911 80.9135 113.602 80.1643C113.432 81.0443 113.128 81.9078 112.769 82.7072C111.917 84.6042 110.268 85.7648 108.303 86.3083C106.283 86.8669 103.912 86.9965 101.829 86.9279C99.7112 86.8582 97.4812 86.303 95.9314 84.7671C93.0923 81.9535 93.9077 77.0308 96.8953 74.679C98.8279 73.1577 101.551 72.1151 104.052 72.3852C105.304 72.1032 106.705 72.2633 107.958 72.5474C109.654 72.9318 111.273 73.7545 112.381 75.0649C112.464 74.8587 112.558 74.6612 112.667 74.4727C112.618 74.4502 112.588 74.3778 112.636 74.3344C112.724 74.255 112.815 74.1789 112.906 74.1025C113.267 73.596 113.733 73.1549 114.305 72.7664ZM93.7623 85.9533C93.6603 85.8085 93.8598 85.6206 94.0029 85.7128C95.1757 86.4693 96.4033 87.157 97.7481 87.5578C99.0616 87.9494 100.427 87.9089 101.747 88.2436C102.243 88.3693 102.164 89.0143 101.747 89.1723C100.295 89.7229 98.6561 89.2609 97.2765 88.6766C95.8768 88.0839 94.6447 87.2025 93.7623 85.9533ZM101.633 73.8682L101.668 73.826L101.583 73.8543C99.9393 74.4078 98.586 75.3204 97.4859 76.6526C95.6113 78.9228 95.5889 82.5326 98.3921 84.0668C99.9034 84.8938 101.687 84.9328 103.366 84.8452L103.705 84.827C105.178 84.7458 106.681 84.6252 108.103 84.2266C109.653 83.7919 110.731 82.8545 111.324 81.3439L111.373 81.2165C111.965 79.6617 112.273 77.9325 111.174 76.5252C109.313 74.1415 105.013 73.6653 102.355 74.8048C101.719 75.0776 101.208 74.4117 101.633 73.8682ZM118.69 73.2286C118.645 73.2717 118.598 73.311 118.546 73.3428C118.012 73.6629 117.412 73.6661 116.821 73.8129C116.276 73.9481 115.743 74.1131 115.241 74.3684C114.454 74.7687 113.641 75.2477 112.897 75.77C113.056 76.0251 113.199 76.2943 113.321 76.5794C113.659 77.3672 113.773 78.1968 113.738 79.0298C114.257 79.4789 114.691 80.0375 115.15 80.5422L115.555 80.988C116.027 81.5093 116.496 82.0364 116.936 82.5836C117.197 82.9088 117.463 83.2418 117.717 83.5846C117.751 83.4823 117.798 83.3822 117.864 83.2871C118.112 82.929 118.495 82.7482 118.934 82.8517C119.317 82.9427 119.573 83.1162 119.974 83.1188C120.464 83.1221 120.937 83.0164 121.401 82.8649C122.314 82.5672 123.208 82.0321 123.875 81.339C125.382 79.7743 124.587 77.5693 123.412 76.0787C122.222 74.5688 120.513 73.5884 118.69 73.2286ZM105.275 76.9869C105.758 76.8474 106.478 77.0675 106.69 77.5633L106.843 77.9242C106.838 77.9134 106.835 77.9051 106.83 77.8953C106.884 78.0232 106.936 78.1466 106.977 78.2777L107.12 78.3886C107.242 78.5241 107.355 78.6672 107.459 78.818C107.704 79.2371 107.775 79.7738 107.65 80.2435C107.442 81.0196 106.73 81.5178 105.94 81.5226C103.626 81.5362 103.059 77.6269 105.275 76.9869ZM119.231 76.2845C120.299 76.2367 121.011 77.1811 121.097 78.1513C121.145 78.7035 121.033 79.3072 120.875 79.8352C120.639 80.6231 119.889 81.1167 119.079 81.0081C118.435 80.9215 117.866 80.4316 117.706 79.802C117.494 79.2827 117.375 78.7114 117.364 78.1513C117.345 77.1053 118.235 76.329 119.231 76.2845ZM105.125 67.555C106.209 67.3801 107.245 67.9072 107.402 69.0727C107.561 70.2484 106.696 71.0253 105.61 71.1407C103.564 71.3583 101.474 71.41 99.4179 71.4998C98.5603 71.5372 97.7016 71.553 96.8431 71.5606L96.4139 71.5638C95.6154 71.5685 94.5743 71.7262 93.8528 71.333C93.8058 71.3076 93.8076 71.2497 93.8374 71.2132C94.3444 70.5886 95.3927 70.3225 96.1421 70.0474L96.2056 70.0238C97.1541 69.6659 98.1133 69.3307 99.0852 69.0406L99.5791 68.8941C101.395 68.359 103.263 67.8557 105.125 67.555ZM112.006 66.9832C112.676 66.7312 113.338 66.8883 113.793 67.3144C115.317 67.7388 116.885 68.064 118.419 68.4355L118.836 68.5381C120.759 69.0181 122.871 69.3879 124.659 70.2677C124.849 70.3612 124.73 70.6035 124.563 70.6239C122.571 70.8659 120.425 70.4812 118.445 70.2496C116.416 70.0124 114.377 69.621 112.343 69.4677C110.882 69.3576 110.67 67.4859 112.006 66.9832Z" fill="black"/>
</svg>
